<svg width="175" height="191" viewBox="0 0 175 191" fill="none" xmlns="http://www.w3.org/2000/svg">
<mask id="mask0_118_536" style="mask-type:alpha" maskUnits="userSpaceOnUse" x="0" y="0" width="175" height="191">
<path d="M0 0H175V191H0V0Z" fill="#D9D9D9"/>
</mask>
<g mask="url(#mask0_118_536)">
<path d="M115.643 49.6517C116.01 49.7989 116.375 49.9494 116.737 50.103C119.453 51.2555 122.019 52.5884 124.426 54.0865L124.54 54.1577C127.081 45.8657 131.631 24.6647 130 19.5C127 10 120 14.5 120 22C120 25.3732 117.748 39.8881 115.643 49.6517Z" fill="#EA838C"/>
<path d="M55.94 53.5464C58.7023 51.8813 61.6877 50.4342 64.893 49.2278C64.3496 47.7734 63.6693 45.9779 62.9657 44.1211C61.2735 39.6552 59.4469 34.8343 59.0686 33.5542C58.1823 30.5543 54.0469 20.2521 49.9096 18.5542C42.2644 15.4166 44.5601 26.4344 45.0686 27.0541C45.4511 27.5202 46.9508 30.6883 48.3147 33.5694C49.0617 35.1474 49.768 36.6393 50.2276 37.5541C51.5527 40.1914 54.6121 49.0282 55.94 53.5464Z" fill="#EA838C"/>
<path fill-rule="evenodd" clip-rule="evenodd" d="M115.643 49.6517C113.872 48.9425 112.04 48.3086 110.147 47.754C104.037 45.9634 97.3009 45 90 45C83.2829 45 77.1136 45.7532 71.5056 47.1654C69.2068 47.7443 67.0023 48.434 64.893 49.2278C61.6877 50.4342 58.7023 51.8813 55.94 53.5464C54.0589 54.6803 52.2813 55.9152 50.6081 57.2441C37.6915 67.5026 31 83.3568 31 101.5C31 120.676 36.5517 134.37 47.5 144.125L53.8592 144.769C55.5415 144.939 56.9967 145.365 57.402 147.006L58.6085 151.893C66.8569 156.304 76.5261 158.848 87.5 158.848C87.6611 158.848 88.1709 158.883 88.693 158.919C89.2533 158.957 89.8278 158.996 90 158.995V150.816C90.7517 150.29 91.8197 149.831 93.1057 149.446C92.0867 149.482 91.0515 149.5 90 149.5C75.2223 149.5 62.9443 145.978 54.1409 138.771C44.4769 130.859 39 118.507 39 101.5C39 82.5 51.5 54 90 54C116 54 141 70.5 141 101.5C141 117.246 135.978 130.043 125.951 138.452C120.545 142.987 113.683 146.245 105.369 148.002C110.888 148.043 116.113 148.929 118 150.816V153.554C123.333 151.28 128.162 148.286 132.348 144.557C143.013 135.055 149.5 120.784 149.5 101.5C149.5 84.1011 142.746 68.8072 130.554 58.5346C128.676 56.9531 126.67 55.4905 124.54 54.1577L124.426 54.0865C122.019 52.5884 119.453 51.2555 116.737 50.103C116.375 49.9494 116.01 49.7989 115.643 49.6517Z" fill="#FCFCFC"/>
<path d="M40.0687 34.5539C43.3652 40.3229 47.9925 50.01 50.6081 57.2441C52.2813 55.9152 54.0589 54.6803 55.94 53.5464C54.6121 49.0282 51.5527 40.1914 50.2276 37.5541C49.768 36.6393 49.0617 35.1474 48.3147 33.5694C46.9508 30.6883 45.4511 27.5202 45.0686 27.0541C44.5601 26.4344 42.2644 15.4166 49.9096 18.5542C54.0469 20.2521 58.1823 30.5543 59.0686 33.5542C59.4469 34.8343 61.2735 39.6552 62.9657 44.1211C63.6693 45.9779 64.3496 47.7734 64.893 49.2278C67.0023 48.434 69.2068 47.7443 71.5056 47.1654C70.8214 44.6171 69.4132 39.6815 66.5687 30.0539C65.6823 27.054 60.0687 11.1539 49.0687 10.0539C41.0687 9.25394 37.7353 17.5539 37.5687 21.5539C37.3395 27.0539 37.5687 30.1789 40.0687 34.5539Z" fill="#FCFCFC"/>
<path d="M113 17.0622C112.85 18.4126 112.595 21.4142 112.275 25.1749C111.697 31.9767 110.908 41.2619 110.147 47.754C112.04 48.3086 113.872 48.9425 115.643 49.6517C117.748 39.8881 120 25.3732 120 22C120 14.5 127 10 130 19.5C131.631 24.6647 127.081 45.8657 124.54 54.1577C126.67 55.4905 128.676 56.9531 130.554 58.5346C135.742 39.3829 139.074 22.7228 136 13.0622C134.091 7.06219 129.5 4.56221 125 5.06221C115 6.17333 113 15.5622 113 17.0622Z" fill="#FCFCFC"/>
<path d="M115.916 199.134C111.769 199.933 106.08 200.943 99.8785 201.526C99.9458 209.588 99.8441 219.428 101.916 221.5C105.417 225 113.729 226 115.916 219C117.249 214.735 118.296 205.311 118.148 198.439C117.438 198.75 116.689 198.985 115.916 199.134Z" fill="#F6CC06"/>
<path d="M80.3874 201.711C72.1956 201.175 66.7022 199.897 62.0861 197.875C62.0044 206.623 62.525 219.153 64.8724 221.5C68.3725 225 76.6849 226 78.8724 219C79.9687 215.492 80.3639 207.669 80.3874 201.711Z" fill="#F6CC06"/>
<path fill-rule="evenodd" clip-rule="evenodd" d="M62.0861 197.875C66.7022 199.897 72.1956 201.175 80.3874 201.711C83.3375 201.904 86.6374 202 90.3724 202C93.5833 202 96.7943 201.816 99.8785 201.526C106.08 200.943 111.769 199.933 115.916 199.134C116.689 198.985 117.438 198.75 118.148 198.439C120.801 197.277 122.915 195.05 123.744 192.229C125.309 186.903 126.191 182.265 126.825 177.215C125.923 177.261 125.09 177.242 124.322 177.167C121.319 176.873 119.3 175.732 118 174.334V177.839V179.816C114.649 183.645 94.8025 182.892 90.4824 180.189C90.2898 180.068 90.128 179.944 90 179.816V177.29L67.1704 186.202C67.4804 187.526 67.684 188.486 67.7261 188.769C67.7261 189.086 62.2899 188.555 54.8672 187.663C55.4718 189.375 56.19 191.189 57.0643 193.166C57.885 195.022 59.2988 196.575 61.1338 197.441C61.4474 197.589 61.7646 197.734 62.0861 197.875ZM65.4702 179.149L65.3345 179.133L64.2569 174.769L63.8055 172.94L58.6085 151.893C66.8569 156.304 76.5261 158.848 87.5 158.848C87.6611 158.848 88.1709 158.883 88.693 158.919C89.2533 158.957 89.8278 158.996 90 158.995V176.256L63.9469 172.958C64.0997 173.576 64.2506 174.187 64.3988 174.788C64.7752 176.315 65.1352 177.78 65.4702 179.149ZM127.382 157.1C122.531 157.77 119.665 159.202 118 160.967V153.677V153.554C123.333 151.28 128.162 148.286 132.348 144.557C132.413 144.735 132.474 144.915 132.53 145.097C138.56 149.654 144.5 156.152 144.5 162.5C144.5 166.048 143.1 173.7 131.5 176.5C136.416 168.008 133.742 161.514 130.404 158.013L130.741 156.881C130.171 156.856 129.643 156.853 129.198 156.894C128.564 156.951 127.959 157.02 127.382 157.1Z" fill="#FCFCFC"/>
<path fill-rule="evenodd" clip-rule="evenodd" d="M125.951 138.452C135.978 130.043 141 117.246 141 101.5C141 70.5 116 54 90 54C51.5 54 39 82.5 39 101.5C39 118.507 44.4769 130.859 54.1409 138.771C62.9443 145.978 75.2223 149.5 90 149.5C91.0515 149.5 92.0867 149.482 93.1057 149.446C97.4944 149.29 101.582 148.801 105.369 148.002C113.683 146.245 120.545 142.987 125.951 138.452ZM78.4102 98.7026C79.8536 96.2797 80.4277 93.7352 80.5 92L54 93C54.1444 95.0217 54.8206 97.8629 56.3537 100.337C58.3596 103.573 61.8322 106.18 67.5 105.5C73.1619 104.821 76.5264 101.865 78.4102 98.7026ZM123.165 99.1573C124.337 97.0019 124.874 94.67 125 92.9553L99 92C99.0617 93.4415 99.4957 95.4676 100.539 97.4936C102.262 100.838 105.645 104.182 111.755 104.896C117.792 105.602 121.291 102.605 123.165 99.1573Z" fill="#F6CC06"/>
<path fill-rule="evenodd" clip-rule="evenodd" d="M115 151.5C115 152.328 110.023 153 104.5 153C98.9771 153 94 152.703 94 151.875C94 151.047 98.9771 150 104.5 150C110.023 150 115 150.672 115 151.5Z" fill="#FCFCFC"/>
<path fill-rule="evenodd" clip-rule="evenodd" d="M130.404 158.013C130.007 157.597 129.602 157.223 129.198 156.894C128.564 156.951 127.959 157.02 127.382 157.1C122.531 157.77 119.665 159.202 118 160.967C115.41 163.712 115.726 167.262 116 170C116.131 171.313 116.713 172.949 118 174.334C119.3 175.732 121.319 176.873 124.322 177.167C125.09 177.242 125.923 177.261 126.825 177.215C128.214 177.145 129.767 176.918 131.5 176.5C136.416 168.008 133.742 161.514 130.404 158.013Z" fill="#F4CD04"/>
<path d="M95.2223 103.5C95.2223 105.985 92.7598 108 89.7223 108C86.6847 108 84.2223 105.985 84.2223 103.5C84.2223 101.015 86.6847 99 89.7223 99C92.7598 99 95.2223 101.015 95.2223 103.5Z" fill="#010101"/>
<path fill-rule="evenodd" clip-rule="evenodd" d="M78.4102 98.7026C76.5264 101.865 73.1619 104.821 67.5 105.5C61.8322 106.18 58.3596 103.573 56.3537 100.337C56.1224 100.71 56 101.099 56 101.5C56 104.261 59.8203 109 67 109C74.1797 109 80 104.261 80 101.5C80 100.464 79.462 99.501 78.4102 98.7026Z" fill="#A88C43"/>
<path fill-rule="evenodd" clip-rule="evenodd" d="M123.165 99.1573C121.291 102.605 117.792 105.602 111.755 104.896C105.645 104.182 102.262 100.838 100.539 97.4936C99.8506 97.9929 99.5 98.6476 99.5 99.5C99.5 103 103 109 113.042 109C120.521 109 124 103.872 124 101C124 100.341 123.707 99.7212 123.165 99.1573Z" fill="#A88C43"/>
<path d="M64.5 120C70.299 120 75 118.433 75 116.5C75 114.567 70.299 113 64.5 113C58.701 113 54 114.567 54 116.5C54 118.433 58.701 120 64.5 120Z" fill="#EA838C"/>
<path d="M115.5 120C121.299 120 126 118.433 126 116.5C126 114.567 121.299 113 115.5 113C109.701 113 105 114.567 105 116.5C105 118.433 109.701 120 115.5 120Z" fill="#EA838C"/>
<path d="M115 151.5C115 152.328 110.023 153 104.5 153C98.9771 153 94 152.703 94 151.875C94 151.047 98.9771 150 104.5 150C110.023 150 115 150.672 115 151.5Z" fill="#8F5A32"/>
<path fill-rule="evenodd" clip-rule="evenodd" d="M28 163.269C28 164.778 28.878 166.105 30.3634 166.919C29.9935 168.283 29.7619 169.48 29.989 169.762C30.2647 170.105 31.8029 169.009 33.3595 167.747C33.5685 167.762 33.7821 167.769 34 167.769C37.5899 167.769 40 165.754 40 163.269C40 160.784 37.5899 158.769 34 158.769C30 158.769 28 160.784 28 163.269Z" fill="#D9D9D9"/>
<path fill-rule="evenodd" clip-rule="evenodd" d="M63.8055 172.94L58.6085 151.893L57.402 147.006C56.9967 145.365 55.5415 144.939 53.8592 144.769C54.0227 144.785 54.1836 144.8 54.341 144.814C55.7915 144.945 56.9545 145.049 57.3283 146.517C58.6292 151.626 61.5364 163.208 63.9469 172.958L63.8055 172.94ZM30.3634 166.919C28.878 166.105 28 164.778 28 163.269C28 160.784 30 158.769 34 158.769C37.5899 158.769 40 160.784 40 163.269C40 165.754 37.5899 167.769 34 167.769C33.7821 167.769 33.5685 167.762 33.3595 167.747C31.8029 169.009 30.2647 170.105 29.989 169.762C29.7619 169.48 29.9935 168.283 30.3634 166.919Z" fill="#D9D9D9"/>
<path d="M28 163.269C28 164.778 28.878 166.105 30.3634 166.919C29.9935 168.283 29.7619 169.48 29.989 169.762C30.2647 170.105 31.8029 169.009 33.3595 167.747C33.5685 167.762 33.7821 167.769 34 167.769C37.5899 167.769 40 165.754 40 163.269C40 160.784 37.5899 158.769 34 158.769C30 158.769 28 160.784 28 163.269Z" fill="#FAFAFA"/>
<path fill-rule="evenodd" clip-rule="evenodd" d="M90 179.816V177.29L67.1704 186.202C67.4804 187.526 67.684 188.486 67.7261 188.769L90.4824 180.189C90.2898 180.068 90.128 179.944 90 179.816Z" fill="#B1B1B1"/>
<path fill-rule="evenodd" clip-rule="evenodd" d="M6.75708 140C4.96518 140 3.64675 140.436 4.08451 142.173C6.60439 152.175 13.7996 181.306 13.7261 181.769C13.6958 181.959 19.9088 182.942 28.1299 184.119C28.0447 183.752 28 183.378 28 183C28 182.34 28.0883 181.749 28.2484 181.221L16.4102 179.769C14.7887 179.57 13.451 177.234 13.0313 175.655L4.26166 142.665C3.76649 140.802 5.25203 139.813 7.16461 140.052L47.5 144.125L6.75708 140ZM63.9469 172.958C64.0997 173.576 64.2506 174.187 64.3988 174.788C64.7752 176.315 65.1352 177.78 65.4702 179.149L65.3345 179.133L64.2569 174.769L63.8055 172.94L63.9469 172.958Z" fill="#AFAFAF"/>
<path d="M28 183C28 183.378 28.0447 183.752 28.1299 184.119C28.9455 187.631 33.4727 190.5 38 190.5C39.7758 190.5 45.4935 190.5 46.753 186.65C46.912 186.164 47 185.617 47 185C47 184.61 46.791 184.068 46.4138 183.449C44.8558 180.889 40.4279 177 36 177C33.3986 177 29.2933 177.774 28.2484 181.221C28.0883 181.749 28 182.34 28 183Z" fill="#F5CB05"/>
<path fill-rule="evenodd" clip-rule="evenodd" d="M46.4138 183.449L53.7951 184.354L60.9642 185.233C63.7453 185.574 66.0062 181.853 65.3345 179.133L64.2569 174.769L63.8055 172.94L58.6085 151.893L57.402 147.006C56.9967 145.365 55.5415 144.939 53.8592 144.769L47.5 144.125L7.16461 140.052C5.25203 139.813 3.76649 140.802 4.26166 142.665L13.0313 175.655C13.451 177.234 14.7887 179.57 16.4102 179.769L28.2484 181.221C29.2933 177.774 33.3986 177 36 177C40.4279 177 44.8558 180.889 46.4138 183.449ZM30.3634 166.919C28.878 166.105 28 164.778 28 163.269C28 160.784 30 158.769 34 158.769C37.5899 158.769 40 160.784 40 163.269C40 165.754 37.5899 167.769 34 167.769C33.7821 167.769 33.5685 167.762 33.3595 167.747C31.8029 169.009 30.2647 170.105 29.989 169.762C29.7619 169.48 29.9935 168.283 30.3634 166.919Z" fill="#B0B0B0"/>
<path fill-rule="evenodd" clip-rule="evenodd" d="M65.3345 179.133C66.0062 181.853 63.7453 185.574 60.9642 185.233L53.7951 184.354L46.4138 183.449C46.791 184.068 47 184.61 47 185C47 185.617 46.912 186.164 46.753 186.65C49.5968 187.017 52.3465 187.361 54.8672 187.663C62.2899 188.555 67.7261 189.086 67.7261 188.769C67.684 188.486 67.4804 187.526 67.1704 186.202C66.7692 184.49 66.1752 182.031 65.4702 179.149L65.3345 179.133Z" fill="#AFAFAF"/>
<path fill-rule="evenodd" clip-rule="evenodd" d="M65.4702 179.149C66.1752 182.031 66.7692 184.49 67.1704 186.202L90 177.29L92 176.509L90 176.256L63.9469 172.958C64.0997 173.576 64.2506 174.187 64.3988 174.788C64.7752 176.315 65.1352 177.78 65.4702 179.149Z" fill="#B1B1B1"/>
<path fill-rule="evenodd" clip-rule="evenodd" d="M90 150.816V158.995V176.256L92 176.509L90 177.29V179.816C90.128 179.944 90.2898 180.068 90.4824 180.189C94.8025 182.892 114.649 183.645 118 179.816V177.839V174.334C116.713 172.949 116.131 171.313 116 170C115.726 167.262 115.41 163.712 118 160.967V153.677V153.554V150.816C116.113 148.929 110.888 148.043 105.369 148.002C101.582 148.801 97.4944 149.29 93.1057 149.446C91.8197 149.831 90.7517 150.29 90 150.816ZM104.5 153C110.023 153 115 152.328 115 151.5C115 150.672 110.023 150 104.5 150C98.9771 150 94 151.047 94 151.875C94 152.703 98.9771 153 104.5 153Z" fill="#FCFCFC"/>
<path d="M64 93.4409C64.0665 94.3468 64.3816 95.626 65.1002 96.7289C66.0136 98.1309 67.5787 99.2482 70.1132 98.9521C72.0194 98.7294 73.3505 97.952 74.2586 96.9948C75.5077 95.6781 75.9563 94.0212 76 93L64 93.4409Z" fill="#020202"/>
<path fill-rule="evenodd" clip-rule="evenodd" d="M65.1002 96.7289C64.3816 95.626 64.0665 94.3468 64 93.4409L76 93C75.9563 94.0212 75.5077 95.6781 74.2586 96.9948C73.3505 97.952 72.0194 98.7294 70.1132 98.9521C67.5787 99.2482 66.0136 98.1309 65.1002 96.7289ZM80.5 92C80.4277 93.7352 79.8536 96.2797 78.4102 98.7026C76.5264 101.865 73.1619 104.821 67.5 105.5C61.8322 106.18 58.3596 103.573 56.3537 100.337C54.8206 97.8629 54.1444 95.0217 54 93L80.5 92Z" fill="#FCFCFC"/>
<path fill-rule="evenodd" clip-rule="evenodd" d="M115.189 93.3764C115.131 94.1436 114.881 95.191 114.334 96.1529C113.48 97.6553 111.9 98.9493 109.191 98.6411C106.986 98.3904 105.566 97.4034 104.685 96.2667C103.79 95.1126 103.452 93.8041 103.415 92.9553L115.189 93.3764ZM125 92.9553C124.874 94.67 124.337 97.0019 123.165 99.1573C121.291 102.605 117.792 105.602 111.755 104.896C105.645 104.182 102.262 100.838 100.539 97.4936C99.4957 95.4676 99.0617 93.4415 99 92L125 92.9553Z" fill="#FCFCFC"/>
<path d="M114.334 96.1529C114.881 95.191 115.131 94.1436 115.189 93.3764L103.415 92.9553C103.452 93.8041 103.79 95.1126 104.685 96.2667C105.566 97.4034 106.986 98.3904 109.191 98.6411C111.9 98.9493 113.48 97.6553 114.334 96.1529Z" fill="#020202"/>
<path d="M115.643 49.6517C116.01 49.7989 116.375 49.9494 116.737 50.103C119.453 51.2555 122.019 52.5884 124.426 54.0865M115.643 49.6517C117.748 39.8881 120 25.3732 120 22C120 14.5 127 10 130 19.5C131.631 24.6647 127.081 45.8657 124.54 54.1577M115.643 49.6517C113.872 48.9425 112.04 48.3086 110.147 47.754M124.426 54.0865L124.54 54.1577M124.426 54.0865C124.464 54.1102 124.502 54.1339 124.54 54.1577M124.54 54.1577C126.67 55.4905 128.676 56.9531 130.554 58.5346M55.94 53.5464C58.7023 51.8813 61.6877 50.4342 64.893 49.2278M55.94 53.5464C54.6121 49.0282 51.5527 40.1914 50.2276 37.5541C49.768 36.6393 49.0617 35.1474 48.3147 33.5694C46.9508 30.6883 45.4511 27.5202 45.0686 27.0541C44.5601 26.4344 42.2644 15.4166 49.9096 18.5542C54.0469 20.2521 58.1823 30.5543 59.0686 33.5542C59.4469 34.8343 61.2735 39.6552 62.9657 44.1211C63.6692 45.9779 64.3496 47.7734 64.893 49.2278M55.94 53.5464C54.0589 54.6803 52.2813 55.9152 50.6081 57.2441M64.893 49.2278C67.0023 48.434 69.2068 47.7443 71.5056 47.1654M110.147 47.754C104.037 45.9634 97.3009 45 90 45C83.2829 45 77.1136 45.7532 71.5056 47.1654M110.147 47.754C110.908 41.2619 111.697 31.9767 112.275 25.1749C112.595 21.4142 112.85 18.4126 113 17.0622C113 15.5622 115 6.17333 125 5.06221C129.5 4.56221 134.091 7.06219 136 13.0622C139.074 22.7228 135.742 39.3829 130.554 58.5346M71.5056 47.1654C70.8214 44.6171 69.4132 39.6815 66.5687 30.0539C65.6823 27.054 60.0687 11.1539 49.0687 10.0539C41.0687 9.25394 37.7353 17.5539 37.5687 21.5539C37.3395 27.0539 37.5687 30.1789 40.0687 34.5539C43.3652 40.3229 47.9925 50.01 50.6081 57.2441M50.6081 57.2441C37.6915 67.5026 31 83.3568 31 101.5C31 120.676 36.5517 134.37 47.5 144.125M47.5 144.125L53.8592 144.769M47.5 144.125L7.16461 140.052C5.25203 139.813 3.76649 140.802 4.26166 142.665L13.0313 175.655C13.451 177.234 14.7887 179.57 16.4102 179.769L28.2484 181.221M47.5 144.125L6.75708 140C4.96518 140 3.64675 140.436 4.08451 142.173C6.60439 152.175 13.7996 181.306 13.7261 181.769C13.6958 181.959 19.9088 182.942 28.1299 184.119M53.8592 144.769C55.5415 144.939 56.9967 145.365 57.402 147.006L58.6085 151.893M53.8592 144.769C54.0227 144.785 54.1836 144.8 54.341 144.814C55.7915 144.945 56.9545 145.049 57.3283 146.517C58.6292 151.626 61.5364 163.208 63.9469 172.958M58.6085 151.893C66.8569 156.304 76.5261 158.848 87.5 158.848C87.6611 158.848 88.1709 158.883 88.693 158.919C89.2533 158.957 89.8278 158.996 90 158.995M58.6085 151.893L63.8055 172.94M90 158.995V150.816C90.7517 150.29 91.8197 149.831 93.1057 149.446M90 158.995V176.256M93.1057 149.446C92.0867 149.482 91.0515 149.5 90 149.5C75.2223 149.5 62.9443 145.978 54.1409 138.771C44.4769 130.859 39 118.507 39 101.5C39 82.5 51.5 54 90 54C116 54 141 70.5 141 101.5C141 117.246 135.978 130.043 125.951 138.452C120.545 142.987 113.683 146.245 105.369 148.002M93.1057 149.446C97.4944 149.29 101.582 148.801 105.369 148.002M93.1057 149.446C96.3383 148.477 100.948 147.968 105.369 148.002M105.369 148.002C110.888 148.043 116.113 148.929 118 150.816V153.554M118 153.554C123.333 151.28 128.162 148.286 132.348 144.557M118 153.554V153.677M132.348 144.557C143.013 135.055 149.5 120.784 149.5 101.5C149.5 84.1011 142.746 68.8072 130.554 58.5346M132.348 144.557C132.413 144.735 132.474 144.915 132.53 145.097C138.56 149.654 144.5 156.152 144.5 162.5C144.5 166.048 143.1 173.7 131.5 176.5M99.8785 201.526C106.08 200.943 111.769 199.933 115.916 199.134C116.689 198.985 117.438 198.75 118.148 198.439M99.8785 201.526C99.9458 209.588 99.8441 219.428 101.916 221.5C105.417 225 113.729 226 115.916 219C117.249 214.735 118.296 205.311 118.148 198.439M99.8785 201.526C96.7943 201.816 93.5833 202 90.3724 202C86.6374 202 83.3375 201.904 80.3874 201.711M118.148 198.439C120.801 197.277 122.915 195.05 123.744 192.229C125.309 186.903 126.191 182.265 126.825 177.215M80.3874 201.711C72.1956 201.175 66.7022 199.897 62.0861 197.875M80.3874 201.711C80.3639 207.669 79.9687 215.492 78.8724 219C76.6849 226 68.3725 225 64.8724 221.5C62.525 219.153 62.0044 206.623 62.0861 197.875M62.0861 197.875C61.7646 197.734 61.4474 197.589 61.1338 197.441C59.2988 196.575 57.885 195.022 57.0643 193.166C56.19 191.189 55.4718 189.375 54.8672 187.663M126.825 177.215C125.923 177.261 125.09 177.242 124.322 177.167M126.825 177.215C128.214 177.145 129.767 176.918 131.5 176.5M124.322 177.167C121.319 176.873 119.3 175.732 118 174.334M124.322 177.167C123.013 177.71 121.557 178 120 178C119.323 178 118.655 177.945 118 177.839M118 174.334V177.839M118 174.334C116.713 172.949 116.131 171.313 116 170C115.726 167.262 115.41 163.712 118 160.967M118 177.839V179.816C114.649 183.645 94.8025 182.892 90.4824 180.189M90.4824 180.189C90.2898 180.068 90.128 179.944 90 179.816V177.29M90.4824 180.189L67.7261 188.769M90 177.29L67.1704 186.202M90 177.29L92 176.509L90 176.256M67.1704 186.202C67.4804 187.526 67.684 188.486 67.7261 188.769M67.1704 186.202C66.7692 184.49 66.1752 182.031 65.4702 179.149M67.1704 186.202L67 186.269M67.7261 188.769C67.7261 189.086 62.2899 188.555 54.8672 187.663M54.8672 187.663C52.3465 187.361 49.5968 187.017 46.753 186.65M65.4702 179.149L65.3345 179.133M65.4702 179.149C65.1352 177.78 64.7752 176.315 64.3988 174.788M65.4702 179.149L75 180.269L67.1704 183.988M65.3345 179.133L64.2569 174.769M65.3345 179.133C66.0062 181.853 63.7453 185.574 60.9642 185.233L53.7951 184.354L46.4138 183.449M64.2569 174.769L63.8055 172.94M64.2569 174.769L64.3988 174.788M63.8055 172.94L63.9469 172.958M90 176.256L63.9469 172.958M63.9469 172.958C64.0997 173.576 64.2506 174.187 64.3988 174.788M64.3988 174.788L71.5 175.769L66.5 178.769M127.382 157.1C122.531 157.77 119.665 159.202 118 160.967M127.382 157.1C127.959 157.02 128.564 156.951 129.198 156.894M127.382 157.1C125.47 154.974 122.914 153.5 120 153.5C119.323 153.5 118.655 153.56 118 153.677M118 160.967V153.677M131.5 176.5C136.416 168.008 133.742 161.514 130.404 158.013M130.404 158.013L130.741 156.881M130.404 158.013C130.007 157.597 129.602 157.223 129.198 156.894M130.741 156.881C130.171 156.856 129.643 156.853 129.198 156.894M130.741 156.881C132.103 156.941 133.708 157.127 135 157.154M78.4102 98.7026C79.8536 96.2797 80.4277 93.7352 80.5 92L54 93C54.1444 95.0217 54.8206 97.8629 56.3537 100.337M78.4102 98.7026C76.5264 101.865 73.1619 104.821 67.5 105.5C61.8322 106.18 58.3596 103.573 56.3537 100.337M78.4102 98.7026C79.462 99.501 80 100.464 80 101.5C80 104.261 74.1797 109 67 109C59.8203 109 56 104.261 56 101.5C56 101.099 56.1224 100.71 56.3537 100.337M123.165 99.1573C124.337 97.0019 124.874 94.67 125 92.9553L99 92C99.0617 93.4415 99.4957 95.4676 100.539 97.4936M123.165 99.1573C121.291 102.605 117.792 105.602 111.755 104.896C105.645 104.182 102.262 100.838 100.539 97.4936M123.165 99.1573C123.707 99.7212 124 100.341 124 101C124 103.872 120.521 109 113.042 109C103 109 99.5 103 99.5 99.5C99.5 98.6476 99.8506 97.9929 100.539 97.4936M28.1299 184.119C28.0447 183.752 28 183.378 28 183C28 182.34 28.0883 181.749 28.2484 181.221M28.1299 184.119C28.9455 187.631 33.4727 190.5 38 190.5C39.7758 190.5 45.4935 190.5 46.753 186.65M28.2484 181.221C29.2933 177.774 33.3986 177 36 177C40.4279 177 44.8558 180.889 46.4138 183.449M46.753 186.65C46.912 186.164 47 185.617 47 185C47 184.61 46.791 184.068 46.4138 183.449M93 152.316C101.5 154.816 109 154.316 115.5 152.316M89.7223 103.5V114M89.7223 114C88.0885 114 92.2222 122.5 84.2222 122.5C76.2222 122.5 78.2222 114 78.2222 115M89.7223 114C91.2223 114 88.2223 122.5 95.2223 122.5C104.222 122.5 102.222 114 102.222 115M100.5 81C109 76.5 116 76.5 124.5 81M56 81C66 76 71 76 79.5 81M80 101C80 103.761 74.1797 108.5 67 108.5M99.5 99C99.5 102.5 103 108.5 113.042 108.5M102.139 86C101.037 86.1052 99.5328 87.3247 100.139 89.5M77 86C78.3347 87.19 78.8011 87.9472 79 89.5M95.9068 132C94.7402 133.167 92.6148 136.844 95.2967 139C98.4068 141.5 96.4068 144.667 95.9068 145.5M102.907 128C100.407 129.5 98.4068 134.5 101.407 137C104.773 139.805 101.907 146.667 101.407 147.5M108.314 133.406C107.147 134.573 105.225 137.344 107.907 139.5C111.017 142 108.407 145.667 107.907 146.5M115 151.5C115 152.328 110.023 153 104.5 153C98.9771 153 94 152.703 94 151.875C94 151.047 98.9771 150 104.5 150C110.023 150 115 150.672 115 151.5ZM95.2223 103.5C95.2223 105.985 92.7598 108 89.7223 108C86.6847 108 84.2223 105.985 84.2223 103.5C84.2223 101.015 86.6847 99 89.7223 99C92.7598 99 95.2223 101.015 95.2223 103.5ZM64.5 120C70.299 120 75 118.433 75 116.5C75 114.567 70.299 113 64.5 113C58.701 113 54 114.567 54 116.5C54 118.433 58.701 120 64.5 120ZM115.5 120C121.299 120 126 118.433 126 116.5C126 114.567 121.299 113 115.5 113C109.701 113 105 114.567 105 116.5C105 118.433 109.701 120 115.5 120ZM28 163.269C28 164.778 28.878 166.105 30.3634 166.919C29.9935 168.283 29.7619 169.48 29.989 169.762C30.2647 170.105 31.8029 169.009 33.3595 167.747C33.5685 167.762 33.7821 167.769 34 167.769C37.5899 167.769 40 165.754 40 163.269C40 160.784 37.5899 158.769 34 158.769C30 158.769 28 160.784 28 163.269ZM64 93.4409C64.0665 94.3468 64.3816 95.626 65.1002 96.7289C66.0136 98.1309 67.5787 99.2482 70.1132 98.9521C72.0194 98.7294 73.3505 97.952 74.2586 96.9948C75.5077 95.6781 75.9563 94.0212 76 93L64 93.4409ZM114.334 96.1529C114.881 95.191 115.131 94.1436 115.189 93.3764L103.415 92.9553C103.452 93.8041 103.79 95.1126 104.685 96.2667C105.566 97.4034 106.986 98.3904 109.191 98.6411C111.9 98.9493 113.48 97.6553 114.334 96.1529Z" stroke="black" stroke-width="2" stroke-linecap="round"/>
</g>
</svg>
