<svg width="170" height="197" viewBox="0 0 170 197" fill="none" xmlns="http://www.w3.org/2000/svg">
<mask id="mask0_118_555" style="mask-type:alpha" maskUnits="userSpaceOnUse" x="0" y="0" width="170" height="197">
<path fill-rule="evenodd" clip-rule="evenodd" d="M170 0H0V197H170V0Z" fill="#020202"/>
</mask>
<g mask="url(#mask0_118_555)">
<path d="M118.143 58.362C118.51 58.5092 118.875 58.6597 119.237 58.8133C121.953 59.9658 124.519 61.2987 126.926 62.7968L127.04 62.868C129.581 54.5759 134.131 33.375 132.5 28.2103C129.5 18.7103 122.5 23.2103 122.5 30.7103C122.5 34.0835 120.248 48.5984 118.143 58.362Z" fill="#EA838C"/>
<path d="M58.44 62.2567C61.2023 60.5916 64.1877 59.1445 67.393 57.9381C66.8495 56.4837 66.1692 54.6882 65.4657 52.8314C63.7735 48.3655 61.9468 43.5446 61.5686 42.2645C60.6823 39.2645 56.5469 28.9624 52.4096 27.2645C44.7644 24.1269 47.0601 35.1447 47.5686 35.7644C47.9511 36.2305 49.4508 39.3986 50.8147 42.2797C51.5617 43.8577 52.268 45.3496 52.7276 46.2644C54.0527 48.9017 57.1121 57.7385 58.44 62.2567Z" fill="#EA838C"/>
<path d="M42.5686 43.2642C45.8652 49.0332 50.4924 58.7203 53.1081 65.9544C54.7813 64.6255 56.5589 63.3906 58.44 62.2567C57.1121 57.7385 54.0527 48.9017 52.7276 46.2644C52.268 45.3496 51.5617 43.8577 50.8147 42.2797C49.4508 39.3986 47.9511 36.2305 47.5686 35.7644C47.0601 35.1447 44.7644 24.1269 52.4096 27.2645C56.5469 28.9624 60.6823 39.2645 61.5686 42.2645C61.9468 43.5446 63.7735 48.3655 65.4657 52.8314C66.1692 54.6882 66.8495 56.4837 67.393 57.9381C69.5023 57.1443 71.7068 56.4546 74.0056 55.8757C73.3213 53.3274 71.9131 48.3918 69.0686 38.7642C68.1823 35.7643 62.5686 19.8642 51.5686 18.7642C43.5686 17.9642 40.2353 26.2642 40.0686 30.2642C39.8395 35.7642 40.0686 38.8892 42.5686 43.2642Z" fill="#FCFCFC"/>
<path d="M115.5 25.7725C115.35 27.1229 115.095 30.1245 114.775 33.8852C114.197 40.687 113.408 49.9722 112.647 56.4643C114.54 57.0189 116.372 57.6528 118.143 58.362C120.248 48.5984 122.5 34.0835 122.5 30.7103C122.5 23.2103 129.5 18.7103 132.5 28.2103C134.131 33.375 129.581 54.5759 127.04 62.868C129.17 64.2008 131.176 65.6634 133.053 67.2449C138.242 48.0932 141.574 31.4331 138.5 21.7725C136.591 15.7725 132 13.2725 127.5 13.7725C117.5 14.8836 115.5 24.2725 115.5 25.7725Z" fill="#FCFCFC"/>
<path d="M118.416 207.844C114.269 208.644 108.58 209.654 102.378 210.236C102.446 218.299 102.344 228.138 104.416 230.21C107.917 233.71 116.229 234.71 118.416 227.71C119.749 223.446 120.796 214.022 120.648 207.149C119.938 207.46 119.189 207.695 118.416 207.844Z" fill="#F6CC06"/>
<path d="M82.8874 210.421C74.6956 209.886 69.2022 208.607 64.5861 206.585C64.5044 215.333 65.025 227.863 67.3724 230.21C70.8724 233.71 79.1849 234.71 81.3724 227.71C82.4687 224.202 82.8639 216.379 82.8874 210.421Z" fill="#F6CC06"/>
<path fill-rule="evenodd" clip-rule="evenodd" d="M120.5 169.677C122.165 167.913 125.031 166.48 129.882 165.81C130.459 165.73 131.064 165.661 131.698 165.604C132.143 165.564 132.671 165.566 133.241 165.592L132.904 166.723C136.242 170.224 138.916 176.719 134 185.21C145.6 182.41 147 174.759 147 171.21C147 164.862 141.06 158.365 135.03 153.807C134.974 153.625 134.913 153.445 134.848 153.267C130.662 156.996 125.833 159.99 120.5 162.265V162.387V169.677Z" fill="#FCFCFC"/>
<path fill-rule="evenodd" clip-rule="evenodd" d="M143.5 110.21C143.5 125.956 138.478 138.754 128.451 147.163C123.045 151.697 116.183 154.955 107.869 156.712C104.082 157.512 99.9944 158 95.6057 158.156C94.5867 158.192 93.5514 158.21 92.5 158.21C77.7223 158.21 65.4443 154.688 56.6409 147.481C46.9769 139.57 41.5 127.218 41.5 110.21C41.5 91.2103 54 62.7103 92.5 62.7103C118.5 62.7103 143.5 79.2103 143.5 110.21ZM129.5 101.666C129.374 103.38 128.837 105.712 127.665 107.868C125.791 111.316 122.292 114.312 116.255 113.606C110.145 112.893 106.762 109.548 105.039 106.204C103.996 104.178 103.562 102.152 103.5 100.71L129.5 101.666ZM60.8537 109.047C59.3205 106.573 58.6444 103.732 58.5 101.71L85 100.71C84.9277 102.446 84.3535 104.99 82.9102 107.413C81.0264 110.575 77.6619 113.531 72 114.21C66.3322 114.89 62.8595 112.283 60.8537 109.047ZM60 102.528C60.1038 103.943 60.8152 106.271 62.7242 107.412C63.5895 107.93 64.7008 108.204 66.1132 108.039C68.5107 107.759 69.9985 106.601 70.879 105.312C71.6616 104.166 71.9645 102.917 72 102.087L60 102.528Z" fill="#F6CC06"/>
<path fill-rule="evenodd" clip-rule="evenodd" d="M117.5 160.21C117.5 161.039 112.523 161.71 107 161.71C101.477 161.71 96.5 161.414 96.5 160.585C96.5 159.757 101.477 158.71 107 158.71C112.523 158.71 117.5 159.382 117.5 160.21Z" fill="#FCFCFC"/>
<path fill-rule="evenodd" clip-rule="evenodd" d="M132.904 166.723C132.507 166.307 132.102 165.934 131.698 165.604C131.064 165.661 130.459 165.73 129.882 165.81C125.031 166.48 122.165 167.913 120.5 169.677C117.91 172.423 118.226 175.973 118.5 178.71C118.631 180.023 119.213 181.659 120.5 183.044C121.8 184.442 123.819 185.584 126.822 185.877C127.59 185.952 128.423 185.972 129.325 185.926C130.714 185.855 132.267 185.629 134 185.21C138.916 176.719 136.242 170.224 132.904 166.723Z" fill="#F4CD04"/>
<path d="M99.5 112.21C99.5 114.696 97.0375 116.71 94 116.71C90.9624 116.71 88.5 114.696 88.5 112.21C88.5 109.725 90.9624 107.71 94 107.71C97.0375 107.71 99.5 109.725 99.5 112.21Z" fill="#010101"/>
<path fill-rule="evenodd" clip-rule="evenodd" d="M62.7242 107.412C63.5895 107.93 64.7008 108.204 66.1132 108.039C68.5107 107.759 69.9985 106.601 70.879 105.312C67.4968 105.578 64.5931 106.35 62.7242 107.412ZM72 114.21C66.3322 114.89 62.8595 112.283 60.8537 109.047C60.6224 109.42 60.5 109.81 60.5 110.21C60.5 112.972 64.3203 117.71 71.5 117.71C78.6797 117.71 84.5 112.972 84.5 110.21C84.5 109.174 83.9619 108.211 82.9102 107.413C81.0264 110.575 77.6619 113.531 72 114.21Z" fill="#A88C43"/>
<path fill-rule="evenodd" clip-rule="evenodd" d="M105.039 106.204C104.351 106.703 104 107.358 104 108.21C104 111.71 107.5 117.71 117.542 117.71C125.02 117.71 128.5 112.582 128.5 109.71C128.5 109.051 128.207 108.431 127.665 107.868C125.791 111.316 122.292 114.312 116.255 113.606C110.145 112.893 106.762 109.548 105.039 106.204Z" fill="#A88C43"/>
<path d="M68.5 142.467C68.5 144.706 67.1568 145.71 65.5 145.71C63.8431 145.71 62.5 144.706 62.5 142.467C62.5 140.228 65.125 139.276 65.5 137.197C65.875 135.119 68.5 140.228 68.5 142.467Z" fill="#BFD9EE"/>
<path d="M132.5 130.467C132.5 132.706 131.157 133.71 129.5 133.71C127.843 133.71 126.5 132.706 126.5 130.467C126.5 128.228 129.125 127.276 129.5 125.197C129.875 123.119 132.5 128.228 132.5 130.467Z" fill="#BFD9EE"/>
<path d="M74.5 78.4673C74.5 80.7061 73.1568 81.7103 71.5 81.7103C69.8431 81.7103 68.5 80.7061 68.5 78.4673C68.5 76.2284 71.125 75.2759 71.5 73.1973C71.875 71.1187 74.5 76.2284 74.5 78.4673Z" fill="#BFD9EE"/>
<path d="M106.5 73.4673C106.5 75.7061 105.157 76.7103 103.5 76.7103C101.843 76.7103 100.5 75.7061 100.5 73.4673C100.5 71.2284 103.125 70.2759 103.5 68.1973C103.875 66.1187 106.5 71.2284 106.5 73.4673Z" fill="#BFD9EE"/>
<path d="M56.5 123.467C56.5 125.706 55.1568 126.71 53.5 126.71C51.8431 126.71 50.5 125.706 50.5 123.467C50.5 121.228 53.125 120.276 53.5 118.197C53.875 116.119 56.5 121.228 56.5 123.467Z" fill="#BFD9EE"/>
<path fill-rule="evenodd" clip-rule="evenodd" d="M60 102.528C60.1038 103.943 60.8152 106.271 62.7242 107.412C63.5895 107.93 64.7008 108.204 66.1132 108.039C68.5107 107.759 69.9985 106.601 70.879 105.312C71.6616 104.166 71.9645 102.917 72 102.087L60 102.528Z" fill="#FCFCFC"/>
<path d="M72 102.087L60 102.528C60.1038 103.943 60.8152 106.271 62.7242 107.412C63.5895 107.93 64.7008 108.204 66.1132 108.039C68.5107 107.759 69.9985 106.601 70.879 105.312C71.6616 104.166 71.9645 102.917 72 102.087Z" fill="#020202"/>
<path d="M117.5 160.21C117.5 161.039 112.523 161.71 107 161.71C101.477 161.71 96.5 161.414 96.5 160.585C96.5 159.757 101.477 158.71 107 158.71C112.523 158.71 117.5 159.382 117.5 160.21Z" fill="#8F5A32"/>
<path fill-rule="evenodd" clip-rule="evenodd" d="M92.5 188.526V186L69.6703 194.913C69.9804 196.236 70.1839 197.196 70.2261 197.479L92.9824 188.899C92.7898 188.778 92.628 188.654 92.5 188.526ZM66.4707 182.323C66.4298 182.156 66.3888 181.989 66.3474 181.821L66.7569 183.479C66.6607 183.097 66.5661 182.711 66.4707 182.323ZM66.7569 183.479L74 184.479L68.4414 187.965L77.5 188.979L69.0958 192.576C68.8312 191.531 68.526 190.351 68.1947 189.07L67.893 187.903C67.6524 186.972 67.4008 185.994 67.1443 184.988C67.1086 184.848 67.0725 184.707 67.0361 184.566C66.9435 184.208 66.8491 183.845 66.7569 183.479Z" fill="#B1B1B1"/>
<path fill-rule="evenodd" clip-rule="evenodd" d="M67.893 187.903C67.6524 186.972 67.4008 185.994 67.1443 184.988L67.893 187.903ZM67.0361 184.566C66.9435 184.208 66.8491 183.845 66.7569 183.479L67.0361 184.566ZM66.7569 183.479L66.3474 181.821C66.3888 181.989 66.4298 182.156 66.4707 182.323C66.5661 182.711 66.6607 183.097 66.7569 183.479Z" fill="#AFAFAF"/>
<path d="M30.5 191.71C30.5 192.088 30.5447 192.462 30.6298 192.829C31.4454 196.341 35.9727 199.21 40.5 199.21C42.2758 199.21 47.9935 199.21 49.253 195.36C49.412 194.874 49.5 194.327 49.5 193.71C49.5 193.32 49.291 192.779 48.9138 192.159C47.3558 189.599 42.9279 185.71 38.5 185.71C35.8985 185.71 31.7932 186.484 30.7483 189.931C30.5882 190.459 30.5 191.05 30.5 191.71Z" fill="#F5CB05"/>
<path fill-rule="evenodd" clip-rule="evenodd" d="M66.3474 181.821C66.3888 181.989 66.4298 182.156 66.4707 182.323C66.5661 182.711 66.6607 183.097 66.7569 183.479C66.8491 183.845 66.9435 184.208 67.0361 184.566L66.7569 183.479L66.3474 181.821Z" fill="#D9D9D9"/>
<path fill-rule="evenodd" clip-rule="evenodd" d="M70.2261 197.479C70.1839 197.196 69.9804 196.236 69.6703 194.913C69.5138 194.245 69.3194 193.459 69.0958 192.576C68.8312 191.531 68.526 190.351 68.1947 189.07L67.893 187.903C68.5647 190.623 66.2452 194.284 63.4642 193.943L56.5803 193.235L56.3384 193.21L48.9138 192.159C49.291 192.779 49.5 193.32 49.5 193.71C49.5 194.327 49.412 194.874 49.253 195.36C52.142 195.733 54.934 196.082 57.4873 196.388C64.8485 197.271 70.2261 197.795 70.2261 197.479Z" fill="#AFAFAF"/>
<path d="M119.237 58.8133C118.875 58.6597 118.51 58.5092 118.143 58.362C116.372 57.6528 114.54 57.0189 112.647 56.4643C106.537 54.6737 99.8008 53.7103 92.5 53.7103C85.7828 53.7103 79.6136 54.4635 74.0056 55.8757C71.7068 56.4546 69.5023 57.1443 67.393 57.9381C64.1877 59.1445 61.2023 60.5916 58.44 62.2567C56.5589 63.3906 54.7813 64.6255 53.1081 65.9544C40.1914 76.2129 33.5 92.0671 33.5 110.21C33.5 128.405 40.448 142.177 52 152.71C52 152.71 58.5 153.21 59 153.71C59.5 154.21 61.0802 160.431 61.0802 160.431C69.8568 165.016 80.3534 167.71 91.5 167.71C91.834 167.71 92.1674 167.709 92.5 167.705V159.526C93.2516 159 94.3197 158.541 95.6057 158.156C94.5867 158.192 93.5514 158.21 92.5 158.21C77.7223 158.21 65.4443 154.688 56.6409 147.481C46.9769 139.57 41.5 127.218 41.5 110.21C41.5 91.2103 54 62.7103 92.5 62.7103C118.5 62.7103 143.5 79.2103 143.5 110.21C143.5 125.956 138.478 138.754 128.451 147.163C123.045 151.697 116.183 154.955 107.869 156.712C113.388 156.753 118.613 157.639 120.5 159.526V162.265C125.833 159.99 130.662 156.996 134.848 153.267C145.513 143.766 152 129.494 152 110.21C152 92.8114 145.246 77.5175 133.053 67.2449C131.176 65.6634 129.17 64.2008 127.04 62.868L126.926 62.7968C124.519 61.2987 121.953 59.9658 119.237 58.8133Z" fill="#FCFCFC"/>
<path d="M61.0802 160.431L66.2899 181.588L92.5 184.962V167.705C92.1674 167.709 91.834 167.71 91.5 167.71C80.3534 167.71 69.8568 165.016 61.0802 160.431Z" fill="#FCFCFC"/>
<path d="M102.378 210.236C108.58 209.654 114.269 208.644 118.416 207.844C119.189 207.695 119.938 207.46 120.648 207.149C123.301 205.988 125.415 203.76 126.244 200.939C127.809 195.614 128.69 190.975 129.325 185.926C128.423 185.972 127.59 185.952 126.822 185.877C125.513 186.42 124.057 186.71 122.5 186.71C121.823 186.71 121.155 186.656 120.5 186.549V188.526C117.149 192.355 97.3025 191.602 92.9824 188.899L70.2261 197.479C70.2261 197.795 64.8485 197.271 57.4873 196.388C58.0417 198.131 58.7158 199.958 59.5643 201.876C60.385 203.732 61.7987 205.286 63.6338 206.152C63.9474 206.3 64.2646 206.444 64.5861 206.585C69.2022 208.607 74.6956 209.886 82.8874 210.421C85.8374 210.614 89.1374 210.71 92.8724 210.71C96.0833 210.71 99.2942 210.526 102.378 210.236Z" fill="#FCFCFC"/>
<path fill-rule="evenodd" clip-rule="evenodd" d="M66.3054 181.651L66.2899 181.588L61.0802 160.431C61.0802 160.431 59.5 154.21 59 153.71C58.5 153.21 52 152.71 52 152.71L48.5 152.21L9.25705 148.71C7.46515 148.71 6.14672 149.146 6.58448 150.884C9.10436 160.886 16.2996 190.017 16.226 190.479C16.1958 190.669 22.4088 191.652 30.6298 192.829C30.5447 192.462 30.5 192.088 30.5 191.71C30.5 191.05 30.5882 190.459 30.7483 189.931C31.7932 186.484 35.8985 185.71 38.5 185.71C42.9279 185.71 47.3558 189.599 48.9138 192.159L56.3384 193.21L56.5803 193.235L63.4642 193.943C66.2452 194.284 68.5647 190.623 67.893 187.903C67.6524 186.972 67.4008 185.994 67.1443 184.988C67.1086 184.848 67.0725 184.707 67.0361 184.566C66.9435 184.208 66.8491 183.845 66.7569 183.479C66.6607 183.097 66.5661 182.711 66.4707 182.323C66.4298 182.156 66.3888 181.989 66.3474 181.821L66.3054 181.651ZM32.8634 175.63C31.3779 174.815 30.5 173.488 30.5 171.979C30.5 169.494 32.5 167.479 36.5 167.479C40.0898 167.479 42.5 169.494 42.5 171.979C42.5 174.464 40.0898 176.479 36.5 176.479C36.282 176.479 36.0684 176.472 35.8595 176.457C34.3029 177.719 32.7647 178.815 32.489 178.473C32.2619 178.19 32.4935 176.993 32.8634 175.63Z" fill="#B0B0B0"/>
<path d="M30.5 171.979C30.5 173.488 31.3779 174.815 32.8634 175.63C32.4935 176.993 32.2619 178.19 32.489 178.473C32.7647 178.815 34.3029 177.719 35.8595 176.457C36.0684 176.472 36.282 176.479 36.5 176.479C40.0898 176.479 42.5 174.464 42.5 171.979C42.5 169.494 40.0898 167.479 36.5 167.479C32.5 167.479 30.5 169.494 30.5 171.979Z" fill="#FAFAFA"/>
<path fill-rule="evenodd" clip-rule="evenodd" d="M66.2899 181.588L66.3054 181.651L66.3474 181.821L66.7569 183.479L74 184.479L68.4414 187.965L77.5 188.979L69.0958 192.576C69.3194 193.459 69.5138 194.245 69.6703 194.913L92.5 186L94.5 185.22L92.5 184.962L66.2899 181.588Z" fill="#B1B1B1"/>
<path fill-rule="evenodd" clip-rule="evenodd" d="M120.5 162.387V162.265V159.526C118.613 157.639 113.388 156.753 107.869 156.712C104.082 157.512 99.9944 158 95.6057 158.156C94.3197 158.541 93.2516 159 92.5 159.526V167.705V184.962L94.5 185.22L92.5 186V188.526C92.628 188.654 92.7898 188.778 92.9824 188.899C97.3025 191.602 117.149 192.355 120.5 188.526V186.549V183.044C119.213 181.659 118.631 180.023 118.5 178.71C118.226 175.973 117.91 172.423 120.5 169.677V162.387ZM107 161.71C112.523 161.71 117.5 161.039 117.5 160.21C117.5 159.382 112.523 158.71 107 158.71C101.477 158.71 96.5 159.757 96.5 160.585C96.5 161.414 101.477 161.71 107 161.71Z" fill="#FCFCFC"/>
<path d="M58.5 101.71C58.6444 103.732 59.3205 106.573 60.8537 109.047C62.8595 112.283 66.3322 114.89 72 114.21C77.6619 113.531 81.0264 110.575 82.9102 107.413C84.3535 104.99 84.9277 102.446 85 100.71L58.5 101.71ZM62.7242 107.412C60.8152 106.271 60.1038 103.943 60 102.528L72 102.087C71.9645 102.917 71.6616 104.166 70.879 105.312C69.9985 106.601 68.5107 107.759 66.1132 108.039C64.7008 108.204 63.5895 107.93 62.7242 107.412Z" fill="#FCFCFC"/>
<path fill-rule="evenodd" clip-rule="evenodd" d="M127.665 107.868C128.837 105.712 129.374 103.38 129.5 101.666L103.5 100.71C103.562 102.152 103.996 104.178 105.039 106.204C106.762 109.548 110.145 112.893 116.255 113.606C122.292 114.312 125.791 111.316 127.665 107.868ZM117 102.087C116.945 102.815 116.717 103.797 116.226 104.718C115.391 106.281 113.798 107.669 111.002 107.351C109.077 107.132 107.75 106.352 106.858 105.401C105.691 104.157 105.268 102.62 105.226 101.666L117 102.087Z" fill="#D9D9D9"/>
<path d="M116.226 104.718C116.717 103.797 116.945 102.815 117 102.087L105.226 101.666C105.268 102.62 105.691 104.157 106.858 105.401C107.75 106.352 109.077 107.132 111.002 107.351C113.798 107.669 115.391 106.281 116.226 104.718Z" fill="#020202"/>
<path d="M118.143 58.362C118.51 58.5092 118.875 58.6597 119.237 58.8133C121.953 59.9658 124.519 61.2987 126.926 62.7968M118.143 58.362C120.248 48.5984 122.5 34.0835 122.5 30.7103C122.5 23.2103 129.5 18.7103 132.5 28.2103C134.131 33.375 129.581 54.5759 127.04 62.868M118.143 58.362C116.372 57.6528 114.54 57.0189 112.647 56.4643M126.926 62.7968L127.04 62.868M126.926 62.7968C126.964 62.8205 127.002 62.8442 127.04 62.868M127.04 62.868C129.17 64.2008 131.176 65.6634 133.053 67.2449M58.44 62.2567C61.2023 60.5916 64.1877 59.1445 67.393 57.9381M58.44 62.2567C57.1121 57.7385 54.0527 48.9017 52.7276 46.2644C52.268 45.3496 51.5617 43.8577 50.8147 42.2797C49.4508 39.3986 47.9511 36.2305 47.5686 35.7644C47.0601 35.1447 44.7644 24.1269 52.4096 27.2645C56.5469 28.9624 60.6823 39.2645 61.5686 42.2645C61.9468 43.5446 63.7735 48.3655 65.4657 52.8314C66.1692 54.6882 66.8495 56.4837 67.393 57.9381M58.44 62.2567C56.5589 63.3906 54.7813 64.6255 53.1081 65.9544M67.393 57.9381C69.5023 57.1443 71.7068 56.4546 74.0056 55.8757M53.1081 65.9544C50.4924 58.7203 45.8652 49.0332 42.5686 43.2642C40.0686 38.8892 39.8395 35.7642 40.0686 30.2642C40.2353 26.2642 43.5686 17.9642 51.5686 18.7642C62.5686 19.8642 68.1823 35.7643 69.0686 38.7642C71.9131 48.3918 73.3213 53.3274 74.0056 55.8757M53.1081 65.9544C40.1914 76.2129 33.5 92.0671 33.5 110.21C33.5 128.405 40.448 142.177 52 152.71M74.0056 55.8757C79.6136 54.4635 85.7828 53.7103 92.5 53.7103C99.8008 53.7103 106.537 54.6737 112.647 56.4643M112.647 56.4643C113.408 49.9722 114.197 40.687 114.775 33.8852C115.095 30.1245 115.35 27.1229 115.5 25.7725C115.5 24.2725 117.5 14.8836 127.5 13.7725C132 13.2725 136.591 15.7725 138.5 21.7725C141.574 31.4331 138.242 48.0932 133.053 67.2449M133.053 67.2449C145.246 77.5175 152 92.8114 152 110.21C152 129.494 145.513 143.766 134.848 153.267M102.378 210.236C108.58 209.654 114.269 208.644 118.416 207.844C119.189 207.695 119.938 207.46 120.648 207.149M102.378 210.236C102.446 218.299 102.344 228.138 104.416 230.21C107.917 233.71 116.229 234.71 118.416 227.71C119.749 223.446 120.796 214.022 120.648 207.149M102.378 210.236C99.2942 210.526 96.0833 210.71 92.8724 210.71C89.1374 210.71 85.8374 210.614 82.8874 210.421M120.648 207.149C123.301 205.988 125.415 203.76 126.244 200.939C127.809 195.614 128.69 190.975 129.325 185.926M82.8874 210.421C74.6956 209.886 69.2022 208.607 64.5861 206.585M82.8874 210.421C82.8639 216.379 82.4687 224.202 81.3724 227.71C79.1849 234.71 70.8724 233.71 67.3724 230.21C65.025 227.863 64.5044 215.333 64.5861 206.585M64.5861 206.585C64.2646 206.444 63.9474 206.3 63.6338 206.152C61.7987 205.286 60.385 203.732 59.5643 201.876C58.7158 199.958 58.0417 198.131 57.4873 196.388M120.5 169.677C122.165 167.913 125.031 166.48 129.882 165.81M120.5 169.677V162.387M120.5 169.677C117.91 172.423 118.226 175.973 118.5 178.71C118.631 180.023 119.213 181.659 120.5 183.044M129.882 165.81C130.459 165.73 131.064 165.661 131.698 165.604M129.882 165.81C127.97 163.684 125.414 162.21 122.5 162.21C121.823 162.21 121.155 162.271 120.5 162.387M131.698 165.604C132.143 165.564 132.671 165.566 133.241 165.592M131.698 165.604C132.102 165.934 132.507 166.307 132.904 166.723M133.241 165.592L132.904 166.723M133.241 165.592C134.603 165.651 136.208 165.837 137.5 165.864M132.904 166.723C136.242 170.224 138.916 176.719 134 185.21M134 185.21C145.6 182.41 147 174.759 147 171.21C147 164.862 141.06 158.365 135.03 153.807C134.974 153.625 134.913 153.445 134.848 153.267M134 185.21C132.267 185.629 130.714 185.855 129.325 185.926M134.848 153.267C130.662 156.996 125.833 159.99 120.5 162.265M120.5 162.265V162.387M120.5 162.265V159.526C118.613 157.639 113.388 156.753 107.869 156.712M107.869 156.712C116.183 154.955 123.045 151.697 128.451 147.163C138.478 138.754 143.5 125.956 143.5 110.21C143.5 79.2103 118.5 62.7103 92.5 62.7103C54 62.7103 41.5 91.2103 41.5 110.21C41.5 127.218 46.9769 139.57 56.6409 147.481C65.4443 154.688 77.7223 158.21 92.5 158.21C93.5514 158.21 94.5867 158.192 95.6057 158.156M107.869 156.712C104.082 157.512 99.9944 158 95.6057 158.156M107.869 156.712C103.448 156.679 98.8383 157.187 95.6057 158.156M95.6057 158.156C94.3197 158.541 93.2516 159 92.5 159.526V167.705M127.665 107.868C128.837 105.712 129.374 103.38 129.5 101.666L103.5 100.71C103.562 102.152 103.996 104.178 105.039 106.204M127.665 107.868C125.791 111.316 122.292 114.312 116.255 113.606C110.145 112.893 106.762 109.548 105.039 106.204M127.665 107.868C128.207 108.431 128.5 109.051 128.5 109.71C128.5 112.582 125.02 117.71 117.542 117.71C107.5 117.71 104 111.71 104 108.21C104 107.358 104.351 106.703 105.039 106.204M60.8537 109.047C59.3205 106.573 58.6444 103.732 58.5 101.71L85 100.71C84.9277 102.446 84.3535 104.99 82.9102 107.413M60.8537 109.047C62.8595 112.283 66.3322 114.89 72 114.21C77.6619 113.531 81.0264 110.575 82.9102 107.413M60.8537 109.047C60.6224 109.42 60.5 109.81 60.5 110.21C60.5 112.972 64.3203 117.71 71.5 117.71C78.6797 117.71 84.5 112.972 84.5 110.21C84.5 109.174 83.9619 108.211 82.9102 107.413M62.7242 107.412C60.8152 106.271 60.1038 103.943 60 102.528L72 102.087C71.9645 102.917 71.6616 104.166 70.879 105.312M62.7242 107.412C63.5895 107.93 64.7008 108.204 66.1132 108.039C68.5107 107.759 69.9985 106.601 70.879 105.312M62.7242 107.412C64.5931 106.35 67.4968 105.578 70.879 105.312M120.5 183.044C121.8 184.442 123.819 185.584 126.822 185.877M120.5 183.044V186.549M126.822 185.877C127.59 185.952 128.423 185.972 129.325 185.926M126.822 185.877C125.513 186.42 124.057 186.71 122.5 186.71C121.823 186.71 121.155 186.656 120.5 186.549M92.5 186V188.526C92.628 188.654 92.7898 188.778 92.9824 188.899M92.5 186L69.6703 194.913M92.5 186L94.5 185.22L92.5 184.962M69.6703 194.913C69.9804 196.236 70.1839 197.196 70.2261 197.479M69.6703 194.913C69.5138 194.245 69.3194 193.459 69.0958 192.576M70.2261 197.479L92.9824 188.899M70.2261 197.479C70.2261 197.795 64.8485 197.271 57.4873 196.388M92.9824 188.899C97.3025 191.602 117.149 192.355 120.5 188.526V186.549M66.3474 181.821C66.3888 181.989 66.4298 182.156 66.4707 182.323C66.5661 182.711 66.6607 183.097 66.7569 183.479M66.3474 181.821L66.7569 183.479M66.3474 181.821L66.3054 181.651L66.2899 181.588M66.7569 183.479L74 184.479L68.4414 187.965M66.7569 183.479C66.8491 183.845 66.9435 184.208 67.0361 184.566M66.7569 183.479L67.0361 184.566M68.4414 187.965L77.5 188.979L69.0958 192.576M68.4414 187.965L67.893 187.903M69.0958 192.576C68.8312 191.531 68.526 190.351 68.1947 189.07L67.893 187.903M67.893 187.903C67.6524 186.972 67.4008 185.994 67.1443 184.988M67.893 187.903L67.1443 184.988M67.893 187.903C68.5647 190.623 66.2452 194.284 63.4642 193.943L56.5803 193.235L56.3384 193.21L48.9138 192.159M67.1443 184.988C67.1086 184.848 67.0725 184.707 67.0361 184.566M30.6298 192.829C30.5447 192.462 30.5 192.088 30.5 191.71C30.5 191.05 30.5882 190.459 30.7483 189.931M30.6298 192.829C31.4454 196.341 35.9727 199.21 40.5 199.21C42.2758 199.21 47.9935 199.21 49.253 195.36M30.6298 192.829C22.4088 191.652 16.1958 190.669 16.226 190.479C16.2996 190.017 9.10436 160.886 6.58448 150.884C6.14672 149.146 7.46515 148.71 9.25705 148.71L48.5 152.21L52 152.71M49.253 195.36C49.412 194.874 49.5 194.327 49.5 193.71C49.5 193.32 49.291 192.779 48.9138 192.159M49.253 195.36C52.142 195.733 54.934 196.082 57.4873 196.388M48.9138 192.159C47.3558 189.599 42.9279 185.71 38.5 185.71C35.8985 185.71 31.7932 186.484 30.7483 189.931M30.7483 189.931L18.9101 188.479C17.2886 188.28 15.3133 186.198 14.8936 184.619M52 152.71C52 152.71 58.5 153.21 59 153.71C59.5 154.21 61.0802 160.431 61.0802 160.431M61.0802 160.431C69.8568 165.016 80.3534 167.71 91.5 167.71C91.834 167.71 92.1674 167.709 92.5 167.705M61.0802 160.431L66.2899 181.588M92.5 167.705V184.962M66.2899 181.588L92.5 184.962M95.5 161.026C104 163.526 111.5 163.026 118 161.026M94 112.21V122.71M94 122.71C91.8333 122.71 88.5 125.71 85.5 129.21M94 122.71C96.5 122.71 99.5 125.21 103 129.21M103 89.7103H127M58.5 90.2103L82 89.7103M98.4068 140.71C97.2401 141.877 95.1147 145.555 97.7967 147.71C100.907 150.21 98.9068 153.377 98.4068 154.21M105.407 136.71C102.907 138.21 100.907 143.21 103.907 145.71C107.273 148.515 104.407 155.377 103.907 156.21M110.814 142.116C109.647 143.283 107.725 146.055 110.407 148.21C113.517 150.71 110.907 154.377 110.407 155.21M84.5 109.71C84.5 112.472 78.6797 117.21 71.5 117.21M104 107.71C104 111.21 107.5 117.21 117.542 117.21M106.639 94.7103C105.537 94.8155 104.033 96.035 104.639 98.2103M81.5 94.7103C82.8347 95.9003 83.3011 96.6575 83.5 98.2103M117.5 160.21C117.5 161.039 112.523 161.71 107 161.71C101.477 161.71 96.5 161.414 96.5 160.585C96.5 159.757 101.477 158.71 107 158.71C112.523 158.71 117.5 159.382 117.5 160.21ZM99.5 112.21C99.5 114.696 97.0375 116.71 94 116.71C90.9624 116.71 88.5 114.696 88.5 112.21C88.5 109.725 90.9624 107.71 94 107.71C97.0375 107.71 99.5 109.725 99.5 112.21ZM68.5 142.467C68.5 144.706 67.1568 145.71 65.5 145.71C63.8431 145.71 62.5 144.706 62.5 142.467C62.5 140.228 65.125 139.276 65.5 137.197C65.875 135.119 68.5 140.228 68.5 142.467ZM132.5 130.467C132.5 132.706 131.157 133.71 129.5 133.71C127.843 133.71 126.5 132.706 126.5 130.467C126.5 128.228 129.125 127.276 129.5 125.197C129.875 123.119 132.5 128.228 132.5 130.467ZM74.5 78.4673C74.5 80.7061 73.1568 81.7103 71.5 81.7103C69.8431 81.7103 68.5 80.7061 68.5 78.4673C68.5 76.2284 71.125 75.2759 71.5 73.1973C71.875 71.1187 74.5 76.2284 74.5 78.4673ZM106.5 73.4673C106.5 75.7061 105.157 76.7103 103.5 76.7103C101.843 76.7103 100.5 75.7061 100.5 73.4673C100.5 71.2284 103.125 70.2759 103.5 68.1973C103.875 66.1187 106.5 71.2284 106.5 73.4673ZM56.5 123.467C56.5 125.706 55.1568 126.71 53.5 126.71C51.8431 126.71 50.5 125.706 50.5 123.467C50.5 121.228 53.125 120.276 53.5 118.197C53.875 116.119 56.5 121.228 56.5 123.467ZM32.8634 175.63C31.3779 174.815 30.5 173.488 30.5 171.979C30.5 169.494 32.5 167.479 36.5 167.479C40.0898 167.479 42.5 169.494 42.5 171.979C42.5 174.464 40.0898 176.479 36.5 176.479C36.282 176.479 36.0684 176.472 35.8595 176.457C34.3029 177.719 32.7647 178.815 32.489 178.473C32.2619 178.19 32.4935 176.993 32.8634 175.63ZM116.226 104.718C116.717 103.797 116.945 102.815 117 102.087L105.226 101.666C105.268 102.62 105.691 104.157 106.858 105.401C107.75 106.352 109.077 107.132 111.002 107.351C113.798 107.669 115.391 106.281 116.226 104.718Z" stroke="black" stroke-width="2"/>
</g>
</svg>
