<svg width="223" height="106" viewBox="0 0 223 106" fill="none" xmlns="http://www.w3.org/2000/svg">
<path fill-rule="evenodd" clip-rule="evenodd" d="M116.5 24.0288C116.5 22.2971 118.117 20.8592 120.24 20.5784C120.487 20.5458 120.741 20.5288 121 20.5288C123.485 20.5288 125.5 22.0958 125.5 24.0288C125.5 25.9618 123.485 27.5288 121 27.5288C120.075 27.5288 119.215 27.3117 118.5 26.9394C117.294 26.3115 116.5 25.2423 116.5 24.0288ZM131 55.0287C131 64.9699 121.598 73.0287 110 73.0287C98.402 73.0287 89 64.9699 89 55.0287C89 45.0876 98.402 37.0287 110 37.0287C121.598 37.0287 131 45.0876 131 55.0287Z" stroke="black" stroke-width="3" stroke-linejoin="round"/>
<path fill-rule="evenodd" clip-rule="evenodd" d="M131 55.0287C131 64.9699 121.598 73.0287 110 73.0287C98.402 73.0287 89 64.9699 89 55.0287C89 45.0876 98.402 37.0287 110 37.0287C121.598 37.0287 131 45.0876 131 55.0287Z" stroke="black" stroke-width="2" stroke-linejoin="round"/>
<path d="M118.5 26.9394C119.215 27.3117 120.075 27.5288 121 27.5288C123.485 27.5288 125.5 25.9618 125.5 24.0288C125.5 22.0958 123.485 20.5288 121 20.5288C120.741 20.5288 120.487 20.5458 120.24 20.5784M118.5 26.9394C117.294 26.3115 116.5 25.2423 116.5 24.0288C116.5 22.2971 118.117 20.8592 120.24 20.5784M118.5 26.9394C118.942 24.9298 119.525 22.7658 120.24 20.5784M140 2.52876C151 8.02877 140.514 13.0504 148.5 25.0288C158.5 40.0287 183 21.5287 168.5 19.0288C154 16.5288 152.5 63.5287 171.5 77.5287C190.5 91.5287 213 12.5287 220.5 47.5287C226.637 76.169 181.885 60.7988 142.953 40.6441L129 15.5287L121.538 16.9748C125.394 7.21548 131.822 -1.56042 140 2.52876Z" stroke="#1F2880" stroke-width="3"/>
<path d="M14.1312 62.6782C12.7808 59.7788 14.4623 56.3745 17.5855 55.6848L126.464 31.6408L128.089 31.282C130.138 30.8296 132.251 31.7043 133.381 33.4724L135.403 36.6383L143 48.5287L150.505 59.9491C152.431 62.8803 150.819 66.8321 147.392 67.58L32.4093 92.6755C30.124 93.1743 27.7982 92.022 26.8106 89.9016L14.1312 62.6782Z" fill="#D9D9D9"/>
<path fill-rule="evenodd" clip-rule="evenodd" d="M130.761 18.6992C129.711 16.8081 127.563 15.8072 125.439 16.2188L121.538 16.9748L6.14514 39.3378C2.99652 39.948 1.22846 43.3229 2.51928 46.2589L23.8551 94.7875C24.8122 96.9643 27.17 98.166 29.4937 97.6612L152.421 70.9578C155.698 70.2461 157.359 66.5746 155.731 63.6436L142.953 40.6441L130.761 18.6992ZM120.24 20.5784C118.117 20.8592 116.5 22.2971 116.5 24.0288C116.5 25.2423 117.294 26.3115 118.5 26.9394C119.215 27.3117 120.075 27.5288 121 27.5288C123.485 27.5288 125.5 25.9618 125.5 24.0288C125.5 22.0958 123.485 20.5288 121 20.5288C120.741 20.5288 120.487 20.5458 120.24 20.5784ZM126.464 31.6408L17.5855 55.6848C14.4623 56.3745 12.7808 59.7788 14.1312 62.6782L26.8106 89.9016C27.7982 92.022 30.124 93.1743 32.4093 92.6755L147.392 67.58C150.819 66.8321 152.431 62.8803 150.505 59.9491L143 48.5287L135.403 36.6383L133.381 33.4724C132.251 31.7043 130.138 30.8296 128.089 31.282L126.464 31.6408Z" fill="#393939"/>
<path d="M14.1312 62.6782C12.7808 59.7788 14.4623 56.3745 17.5855 55.6848L126.464 31.6408L128.089 31.282C130.138 30.8296 132.251 31.7043 133.381 33.4724L135.403 36.6383L143 48.5287L150.505 59.9491C152.431 62.8803 150.819 66.8321 147.392 67.58L32.4093 92.6755C30.124 93.1743 27.7982 92.022 26.8106 89.9016L14.1312 62.6782Z" stroke="black" stroke-width="3" stroke-linejoin="round"/>
<path fill-rule="evenodd" clip-rule="evenodd" d="M130.761 18.6992C129.711 16.8081 127.563 15.8072 125.439 16.2188L121.538 16.9748L6.14514 39.3378C2.99652 39.948 1.22846 43.3229 2.51928 46.2589L23.8551 94.7875C24.8122 96.9643 27.17 98.166 29.4937 97.6612L152.421 70.9578C155.698 70.2461 157.359 66.5746 155.731 63.6436L142.953 40.6441L130.761 18.6992ZM120.24 20.5784C118.117 20.8592 116.5 22.2971 116.5 24.0288C116.5 25.2423 117.294 26.3115 118.5 26.9394C119.215 27.3117 120.075 27.5288 121 27.5288C123.485 27.5288 125.5 25.9618 125.5 24.0288C125.5 22.0958 123.485 20.5288 121 20.5288C120.741 20.5288 120.487 20.5458 120.24 20.5784ZM126.464 31.6408L17.5855 55.6848C14.4623 56.3745 12.7808 59.7788 14.1312 62.6782L26.8106 89.9016C27.7982 92.022 30.124 93.1743 32.4093 92.6755L147.392 67.58C150.819 66.8321 152.431 62.8803 150.505 59.9491L143 48.5287L135.403 36.6383L133.381 33.4724C132.251 31.7043 130.138 30.8296 128.089 31.282L126.464 31.6408Z" stroke="black" stroke-width="3" stroke-linejoin="round"/>
<path d="M26.1231 61.6648L51.5472 55.4247C53.1563 55.0298 54.7809 56.0141 55.1758 57.6232L57.1989 65.8658C57.5938 67.4749 56.6096 69.0995 55.0005 69.4945L29.5763 75.7346C27.9672 76.1295 26.3426 75.1452 25.9477 73.5361L23.9246 65.2935C23.5297 63.6844 24.514 62.0598 26.1231 61.6648Z" fill="#383838" stroke="black" stroke-width="2"/>
<path d="M131 55.0287C131 64.9699 121.598 73.0287 110 73.0287C98.402 73.0287 89 64.9699 89 55.0287C89 45.0876 98.402 37.0287 110 37.0287C121.598 37.0287 131 45.0876 131 55.0287Z" fill="#E1B646" stroke="black" stroke-width="2"/>
<mask id="mask0_118_1080" style="mask-type:alpha" maskUnits="userSpaceOnUse" x="91" y="38" width="34" height="30">
<path d="M91.5 46.7776L117.866 38.5287L124.451 59.578L98.0855 67.8269L91.5 46.7776Z" fill="#D9D9D9"/>
</mask>
<g mask="url(#mask0_118_1080)">
<path d="M118.79 54.406C118.794 54.3902 118.799 54.3741 118.806 54.3578L119.758 52.0583C119.846 51.8462 120.148 51.6836 120.434 51.6952C120.72 51.7067 120.88 51.888 120.792 52.1001L119.84 54.3997C119.836 54.4104 119.831 54.421 119.825 54.4314M118.79 54.406L119.825 54.4314M118.79 54.406L118.308 54.3942M119.825 54.4314L120.437 54.4465C120.762 54.4545 120.95 54.6555 120.858 54.8954L120.169 56.683M118.795 59.2399C118.821 59.2898 118.851 59.3465 118.885 59.4075M118.795 59.2399C118.903 59.241 119.024 59.2351 119.153 59.2201M118.795 59.2399L118.778 59.2331M118.795 59.2399C118.803 59.2305 118.801 59.226 118.778 59.2331M118.795 59.2399C118.79 59.2377 118.784 59.2354 118.778 59.2331M118.885 59.4075C118.991 59.3607 119.084 59.296 119.153 59.2201M118.885 59.4075C118.765 59.4604 118.629 59.4902 118.495 59.4869L117.038 59.4511M118.885 59.4075C119.102 59.7999 119.468 60.3655 119.704 60.3911M119.153 59.2201C120.009 59.1215 121.236 58.6304 121.234 57.1852M118.778 59.2331C118.54 59.1379 118.345 59.0371 118.185 58.933C117.426 58.4379 117.484 57.8692 117.719 57.4832C117.784 57.3766 117.863 57.2839 117.941 57.2106C118.617 56.5113 119.449 56.4771 120.169 56.683M113.746 69.0149C112.295 69.6809 111.448 69.9534 109.971 70.1869M113.746 69.0149C113.932 69.1098 114.043 69.2819 114.12 69.5302C114.335 70.2161 113.832 71.0558 112.232 71.5562C110.633 72.0567 109.544 72.074 109.329 71.3881C109.216 71.0281 109.472 70.5923 109.971 70.1869M113.746 69.0149C113.776 69.0011 113.806 68.9872 113.836 68.9731L113.504 67.211L114.283 66.8956L115.102 66.711L115.734 68.3794C115.766 68.3752 115.798 68.3709 115.83 68.3666M109.971 70.1869L109.941 70.1917L108.869 68.3892M115.83 68.3666C115.734 68.5494 115.741 68.7528 115.818 68.999C116.033 69.6849 116.925 70.0882 118.524 69.5877C120.124 69.0873 121.029 68.4807 120.814 67.7948C120.703 67.4414 120.26 67.2302 119.636 67.1768M115.83 68.3666C117.365 68.1593 118.231 67.8922 119.636 67.1768M119.636 67.1768C119.667 67.1613 119.698 67.1455 119.729 67.1296C119.642 66.2179 119.551 65.4063 119.45 64.6592M107.25 68.1187L106.831 66.5978C106.189 66.8228 104.707 67.2051 103.92 66.9346M107.25 68.1187C106.878 68.4504 106.281 68.8562 105.698 68.9954M107.25 68.1187L107.45 68.0563M105.698 68.9954C106.231 68.4085 106.535 67.8323 105.985 67.5803C105.486 67.3516 104.818 67.6896 104.195 68.165M105.698 68.9954C105.571 69.1347 105.432 69.2745 105.288 69.4108M104.195 68.165C104.088 67.8059 103.992 67.3887 103.92 66.9346M104.195 68.165C104.054 68.2725 103.916 68.387 103.782 68.5035M103.92 66.9346C103.644 65.1992 103.729 62.9246 104.999 61.2866M106.467 59.3649C106.442 59.3825 106.419 59.4013 106.397 59.4213L104.988 60.7046C104.763 60.9092 104.77 61.1659 104.999 61.2866M106.467 59.3649C106.708 59.3798 106.955 59.3877 107.205 59.3883M106.467 59.3649C103.43 59.1779 101.115 57.8829 100.488 55.8793C100.07 54.5426 100.429 52.9744 101.416 51.4904M104.999 61.2866C105.005 61.2898 105.011 61.2928 105.018 61.2957L105.157 61.3616C105.404 61.4782 105.791 61.4025 106.022 61.1926L107.431 59.9092C107.517 59.8304 107.569 59.7439 107.588 59.6603C107.597 59.62 107.597 59.5804 107.591 59.5427M107.591 59.5427V59.5427ZM107.591 59.5427C107.58 59.4852 107.55 59.4299 107.502 59.3857M107.591 59.5427L107.205 59.3883M107.591 59.5427L107.759 59.6069L109.926 60.4623L110.523 59.7031M107.502 59.3857C107.403 59.3877 107.304 59.3886 107.205 59.3883M107.502 59.3857C107.745 59.3809 107.992 59.3693 108.242 59.3508C108.398 59.3393 108.555 59.325 108.714 59.3081C109.413 59.2331 110.135 59.1048 110.87 58.9195C110.983 58.8909 111.096 58.861 111.21 58.8297M111.21 58.8297L110.523 59.7031M111.21 58.8297C111.398 58.7781 111.586 58.7227 111.775 58.6636C111.892 58.627 112.008 58.5893 112.123 58.5507M110.523 59.7031C110.57 59.77 110.649 59.8228 110.757 59.8512L111.296 59.9936M111.296 59.9936L111.75 63.8389L113.434 64.3167L114.646 62.9328L112.762 59.5777M111.296 59.9936L111.719 60.1053C112.005 60.1807 112.382 60.057 112.563 59.8291L112.762 59.5777M112.762 59.5777L113.114 59.1327C113.173 59.0586 113.203 58.9826 113.208 58.9112M113.208 58.9112L114.02 59.1812L115.198 57.2793M113.208 58.9112L112.123 58.5507M115.198 57.2793L114.649 57.4513M115.198 57.2793L115.344 57.0443M115.198 57.2793L115.345 57.2335M114.649 57.4513C113.964 57.8263 113.217 58.1627 112.415 58.4492C112.319 58.4837 112.221 58.5176 112.123 58.5507M114.649 57.4513C114.888 57.3202 115.12 57.1844 115.344 57.0443M116.631 59.4411L114.701 60.0447L114.804 60.3715L115.203 60.2465L115.265 60.4426L114.865 60.5676L115.049 61.1559C115.468 61.4218 115.766 61.4747 116.432 61.3693C116.998 61.0694 117.214 60.8704 117.346 60.4373L117.162 59.849L116.763 59.9739L116.701 59.7778L117.101 59.6529L117.038 59.4511M116.631 59.4411L117.038 59.4511M116.631 59.4411L116.234 59.4314M118.932 62.1661C118.954 62.1355 118.981 62.1059 119.012 62.078M118.932 62.1661L119.024 62.1372M118.932 62.1661L117.181 62.7137C116.85 62.8173 116.637 63.0768 116.705 63.2934L116.784 63.5457M119.012 62.078L119.024 62.1372M119.012 62.078C119.095 62.0011 119.207 61.9363 119.338 61.8956L120.136 61.6456C120.467 61.5421 120.791 61.6338 120.858 61.8504L121.078 62.5512C121.119 62.6828 121.044 62.8386 120.884 62.9548C120.724 63.0709 120.649 63.2267 120.691 63.3583L121.012 64.386C121.08 64.6026 120.867 64.8621 120.536 64.9657L120.319 65.0334C119.988 65.1369 119.665 65.0452 119.597 64.8286L119.515 64.5671M119.012 62.078C118.934 61.7092 118.851 61.3469 118.76 60.9844M119.024 62.1372L119.179 62.0888C119.51 61.9853 119.833 62.077 119.901 62.2936L120.126 63.0126M115.019 64.214L114.989 64.1173L114.573 64.2473L114.608 64.3575M115.019 64.214L115.351 65.2738L115.358 65.2983C114.399 65.7859 113.824 65.9555 112.76 66.1064M115.019 64.214C115.589 64.0116 116.172 63.7906 116.784 63.5457M114.608 64.3575C114.086 64.5363 113.572 64.7002 113.053 64.8534M114.608 64.3575L114.834 65.081C114.244 65.4134 113.879 65.5265 113.172 65.6009L113.085 65.323L113.709 65.128L113.622 64.8502L113.102 65.0126L113.053 64.8534M113.053 64.8534L113.037 64.8042L112.414 64.9992L112.424 65.0325M112.424 65.0325L112.754 66.087L112.76 66.1064M112.424 65.0325C111.834 65.1954 111.23 65.3468 110.595 65.4923M112.76 66.1064C112.225 66.3222 111.86 66.4104 111.261 66.4807M112.76 66.1064C112.946 66.2583 113.425 66.1136 113.969 65.9436C114.687 65.7189 114.892 65.6547 115.457 65.2628C116.017 65.0826 116.348 64.9579 116.736 64.771M112.76 66.1064C112.759 66.1051 112.762 66.1077 112.76 66.1064ZM112.76 66.1064V66.1064ZM111.261 66.4807C111.186 66.4897 111.106 66.4983 111.022 66.5068M111.261 66.4807C111.185 66.4997 111.108 66.5186 111.031 66.5375M111.022 66.5068L111.031 66.5375M111.022 66.5068C111.025 66.5172 111.028 66.5274 111.031 66.5375M111.031 66.5375C110.997 66.5457 110.963 66.554 110.929 66.5623M111.031 66.5375C111.248 67.2315 111.302 67.4238 110.909 67.547L108.911 68.1719L109.795 70.2485C111.404 69.9958 112.275 69.7037 113.776 68.9277L113.444 67.1479L114.984 66.6663L115.726 68.3177C117.437 68.1638 118.351 67.9296 119.83 67.0335L119.536 64.6325C119.507 64.6415 119.479 64.6504 119.45 64.6592M110.929 66.5623L110.676 65.7536M110.929 66.5623L111.085 67.061C111.153 67.2777 110.94 67.5372 110.609 67.6407L109.211 68.0782C109.057 68.1262 108.905 68.1322 108.78 68.1033M110.676 65.7536L110.595 65.4923M110.676 65.7536C110.744 65.9703 110.531 66.2298 110.2 66.3333L108.802 66.7708C108.648 66.8188 108.496 66.8248 108.371 66.7959C108.226 66.7624 108.116 66.6822 108.08 66.566M110.595 65.4923L110.554 65.3614C110.486 65.1448 110.163 65.0531 109.832 65.1567L108.434 65.5941C108.28 65.6421 108.152 65.7237 108.065 65.819M108.065 65.819C108.003 65.887 107.963 65.962 107.949 66.0368M108.065 65.819L107.83 65.0654C107.785 64.9242 107.578 64.8626 107.363 64.9245M107.949 66.0368L107.916 66.0431L107.957 66.1738M107.949 66.0368C107.941 66.0832 107.943 66.1294 107.957 66.1738M107.957 66.1738L108.028 66.4003M108.028 66.4003L108.08 66.566M108.028 66.4003C107.976 66.4409 107.912 66.475 107.839 66.4978L107.792 66.5125L107.44 66.6228C107.219 66.6918 107.003 66.6307 106.958 66.4863M108.08 66.566L108.436 67.7044M108.436 67.7044L108.448 67.7438M108.436 67.7044L108.48 67.7339M108.448 67.7438L108.48 67.7339M108.448 67.7438L108.489 67.8734C108.516 67.961 108.585 68.0281 108.68 68.0702M108.48 67.7339L108.68 68.0702M108.68 68.0702L108.869 68.3892M108.68 68.0702C108.711 68.084 108.744 68.095 108.78 68.1033M108.869 68.3892L108.78 68.1033M108.869 68.3892L108.975 68.7261C109.02 68.8705 108.878 69.0436 108.657 69.1126L108.258 69.2376C108.037 69.3066 107.822 69.2455 107.776 69.1011L107.45 68.0563M119.45 64.6592C117.747 65.1921 117.249 65.3356 117.023 64.6616M119.45 64.6592L119.441 64.5904L119.515 64.5671M117.023 64.6616C117.02 64.6519 117.017 64.6421 117.014 64.6321C116.916 64.6826 116.825 64.7284 116.736 64.771M117.023 64.6616C116.927 64.6986 116.831 64.7351 116.736 64.771M117.023 64.6616C117.056 64.6491 117.088 64.6366 117.121 64.624M101.867 69.6359C102.095 69.4385 102.471 69.3503 102.876 69.3715C103.197 69.3883 103.536 69.4738 103.836 69.6282C104.121 69.7747 104.324 69.96 104.434 70.1519C104.587 70.4174 104.561 70.6956 104.324 70.9008M101.867 69.6359C101.458 69.9894 101.677 70.5592 102.355 70.9085C103.033 71.2578 103.915 71.2544 104.324 70.9008M101.867 69.6359C101.893 69.6134 101.923 69.5873 101.955 69.5584C102.303 69.2514 103.016 68.6231 103.782 68.5035M104.324 70.9008C104.604 70.6582 105.317 70.0189 105.288 69.4108M105.288 69.4108C105.281 69.2837 105.243 69.1579 105.161 69.0374C105.064 68.8944 104.907 68.7589 104.671 68.6373C104.568 68.5841 104.463 68.5461 104.358 68.5212C104.166 68.4755 103.972 68.4739 103.782 68.5035M120.126 63.0126L120.391 63.8625C120.459 64.0791 120.246 64.3386 119.915 64.4422L119.515 64.5671M120.126 63.0126C119.945 63.1204 119.751 63.2139 119.556 63.2946C119.458 63.335 119.36 63.3721 119.262 63.4062C119.229 63.4178 119.196 63.429 119.163 63.4399C118.614 63.621 118.097 63.7075 117.829 63.7313M121.234 57.1852C120.947 56.9922 120.576 56.7993 120.169 56.683M121.234 57.1852C121.336 57.2537 121.427 57.3223 121.505 57.3874C123.305 58.3744 122.842 59.6726 122.385 60.1983C121.181 61.1764 119.746 61.1927 118.76 60.9844M113.262 45.879C113.691 45.5586 114.011 45.2419 114.184 44.9444M113.262 45.879C113.317 45.9155 113.315 45.9471 113.313 45.9862C113.312 46.0087 113.311 46.0338 113.32 46.0637C113.326 46.0835 113.351 46.1082 113.376 46.134C113.411 46.1689 113.448 46.2058 113.444 46.2356M113.262 45.879C113.062 45.7469 112.709 45.6776 112.241 45.6684C111.201 45.648 109.594 45.9252 107.851 46.4706C106.139 47.0062 104.682 47.6795 103.832 48.2811C103.424 48.5695 103.156 48.8415 103.065 49.0739M114.184 44.9444C115.115 44.8444 115.633 45.0608 115.832 45.696C115.862 45.793 115.896 45.8876 115.929 45.9795C116.045 46.3039 116.149 46.5951 116.047 46.8462M114.184 44.9444C114.387 44.596 114.39 44.274 114.132 44.0032C113.276 43.1048 110.161 43.1868 106.985 43.9423C103.864 45.2726 101.259 46.9979 101.148 48.0651C101.114 48.3966 101.294 48.6412 101.636 48.8068M116.047 46.8462C115.271 46.542 114.393 46.3323 113.444 46.2356M116.047 46.8462C117.731 47.5063 118.938 48.6114 119.364 49.9736C119.8 51.3663 119.39 52.9364 118.308 54.3942M113.444 46.2356C113.403 46.5509 112.977 46.957 112.282 47.3842C111.41 47.9201 110.115 48.4893 108.628 48.9546C107.071 49.4417 105.623 49.7149 104.59 49.7532C103.906 49.7785 103.405 49.7009 103.173 49.5145M113.444 46.2356C113.238 46.2146 113.028 46.199 112.815 46.1888C112.458 46.1718 112.092 46.1704 111.719 46.1854C110.559 46.2323 109.329 46.4386 108.073 46.8315C106.756 47.2437 105.573 47.8102 104.551 48.4756C104.26 48.6655 103.981 48.8635 103.716 49.0683C103.528 49.2137 103.347 49.3626 103.173 49.5145M103.065 49.0739C102.465 49.0562 101.973 48.9697 101.636 48.8068M103.065 49.0739C103.042 49.134 103.061 49.1582 103.084 49.1882C103.097 49.2056 103.112 49.2249 103.122 49.2544C103.129 49.2786 103.13 49.3126 103.131 49.3486C103.132 49.4122 103.133 49.4819 103.173 49.5145M101.636 48.8068C100.841 49.2495 100.55 49.718 100.746 50.3442C100.776 50.4412 100.802 50.5382 100.828 50.6324C100.938 51.0449 101.035 51.405 101.416 51.4904M101.416 51.4904C101.872 50.8033 102.463 50.1342 103.173 49.5145M107.251 44.4621C107.24 44.4562 107.229 44.4502 107.217 44.4441C107.046 44.7732 106.801 44.9363 106.021 45.1771L106.348 46.2231C106.85 46.4188 107.204 46.4193 107.91 46.3086C108.469 46.0123 108.727 45.8144 109.045 45.3794L108.717 44.3335C108.612 44.3662 108.516 44.3951 108.428 44.4204C107.62 44.6521 107.483 44.5832 107.251 44.4621ZM107.251 44.4621V44.4621ZM111.05 53.232C111.059 53.2673 111.058 53.3089 111.046 53.3576C110.957 53.7086 110.633 54.1261 110.284 54.3077C110.273 54.3133 110.263 54.3187 110.252 54.3238C110.208 54.3304 110.163 54.3346 110.117 54.3367C109.723 54.3542 109.268 54.2088 109.048 53.9826C109.019 53.9526 109 53.9224 108.989 53.892M111.05 53.232C110.985 52.9734 110.389 53.0606 109.904 53.2125C109.41 53.3669 108.894 53.6335 108.989 53.892M111.05 53.232C111.117 53.2037 111.186 53.1781 111.258 53.1556C112.03 52.914 112.784 53.1279 112.943 53.6334C113.101 54.1388 112.603 54.7444 111.831 54.986C111.242 55.1701 110.664 55.0897 110.353 54.8173C110.252 55.2188 109.823 55.6143 109.234 55.7984C108.462 56.04 107.708 55.8261 107.55 55.3206C107.391 54.8152 107.889 54.2096 108.661 53.968C108.772 53.9336 108.881 53.9084 108.989 53.892M115.344 57.0443C115.376 57.0239 115.409 57.0034 115.441 56.9829M115.441 56.9829L116.289 54.7831C116.381 54.5432 116.719 54.3551 117.044 54.3631L118.175 54.3909M115.441 56.9829L115.345 57.2335M115.345 57.2335L114.682 58.9546C114.589 59.1946 114.778 59.3956 115.103 59.4036L116.234 59.4314M116.234 59.4314C115.909 59.4234 115.721 59.2224 115.813 58.9824L117.054 55.7618L117.42 54.8109C117.513 54.5713 117.85 54.3834 118.175 54.3909M118.175 54.3909L118.308 54.3942M107.45 68.0563L106.958 66.4863M106.958 66.4863L106.631 65.4403C106.586 65.2959 106.728 65.1229 106.949 65.0539L107.348 64.9289C107.353 64.9273 107.358 64.9259 107.363 64.9245M107.363 64.9245L106.773 62.7404M116.784 63.5457L117.121 64.624M118.76 60.9844C118.511 60.7326 118.054 60.2014 118.225 60.0907M117.121 64.624L117.196 64.8623C117.263 65.0789 117.587 65.1706 117.918 65.0671L118.217 64.9733M118.217 64.9733L117.829 63.7313M118.217 64.9733C118.12 64.6619 117.952 64.1259 117.829 63.7313M117.829 63.7313C117.762 63.5186 117.708 63.347 117.685 63.2737L117.641 63.195C117.539 63.0877 117.331 63.1491 117.225 63.2026M118.013 55.8561C118.197 55.855 118.396 55.7011 118.458 55.5124C118.52 55.3236 118.421 55.1715 118.237 55.1726C118.054 55.1737 117.854 55.3276 117.792 55.5163C117.73 55.705 117.829 55.8571 118.013 55.8561ZM110.248 61.5815L107.851 62.3314L108.056 62.9851L110.453 62.2352L110.248 61.5815ZM108.597 66.1171C108.677 66.0205 109.076 65.8955 109.196 65.9296C109.317 65.9637 109.358 66.0945 109.278 66.1911C109.199 66.2877 108.799 66.4127 108.679 66.3786C108.559 66.3444 108.518 66.2137 108.597 66.1171ZM119.124 62.967C119.144 62.9608 119.163 62.9539 119.182 62.9464C119.316 62.8915 119.403 62.8061 119.383 62.7425C119.365 62.6838 119.26 62.6618 119.133 62.6837C119.104 62.6886 119.073 62.6959 119.043 62.7055C119.008 62.7165 118.975 62.7296 118.945 62.7442C118.834 62.7986 118.766 62.8731 118.784 62.93C118.802 62.9869 118.9 63.0093 119.022 62.9908C119.055 62.9859 119.089 62.978 119.124 62.967Z" stroke="black" stroke-width="3"/>
<path d="M106.655 53.1605C106.734 53.4133 106.485 53.7161 106.099 53.8369C105.712 53.9576 105.335 53.8507 105.256 53.598C105.177 53.3453 105.426 53.0425 105.812 52.9217C106.198 52.8009 106.575 52.9078 106.655 53.1605Z" fill="#280C00"/>
<path d="M114.245 50.7859C114.324 51.0386 114.075 51.3414 113.689 51.4622C113.303 51.583 112.926 51.476 112.846 51.2233C112.767 50.9706 113.016 50.6678 113.402 50.547C113.789 50.4262 114.166 50.5331 114.245 50.7859Z" fill="#280C00"/>
<path d="M106.655 53.1605C106.734 53.4133 106.485 53.7161 106.099 53.8369C105.712 53.9576 105.335 53.8507 105.256 53.598C105.177 53.3453 105.426 53.0425 105.812 52.9217C106.198 52.8009 106.575 52.9078 106.655 53.1605Z" stroke="black"/>
<path d="M114.245 50.7859C114.324 51.0386 114.075 51.3414 113.689 51.4622C113.303 51.583 112.926 51.476 112.846 51.2233C112.767 50.9706 113.016 50.6678 113.402 50.547C113.789 50.4262 114.166 50.5331 114.245 50.7859Z" stroke="black"/>
<path d="M111.28 50.4216C111.269 50.3855 111.438 50.3002 111.659 50.2312L114.855 49.2314C115.075 49.1623 115.264 49.1356 115.275 49.1717C115.286 49.2078 115.116 49.2931 114.896 49.3621L111.7 50.362C111.479 50.431 111.291 50.4577 111.28 50.4216Z" fill="#280C00"/>
<path d="M103.49 52.8587C103.479 52.8226 103.648 52.7374 103.869 52.6684L107.065 51.6685C107.286 51.5995 107.474 51.5728 107.485 51.6089C107.496 51.645 107.326 51.7302 107.106 51.7993L103.91 52.7991C103.689 52.8682 103.501 52.8948 103.49 52.8587Z" fill="#280C00"/>
<path d="M111.28 50.4216C111.269 50.3855 111.438 50.3002 111.659 50.2312L114.855 49.2314C115.075 49.1623 115.264 49.1356 115.275 49.1717C115.286 49.2078 115.116 49.2931 114.896 49.3621L111.7 50.362C111.479 50.431 111.291 50.4577 111.28 50.4216Z" stroke="black" stroke-width="3"/>
<path d="M103.49 52.8587C103.479 52.8226 103.648 52.7374 103.869 52.6684L107.065 51.6685C107.286 51.5995 107.474 51.5728 107.485 51.6089C107.496 51.645 107.326 51.7302 107.106 51.7993L103.91 52.7991C103.689 52.8682 103.501 52.8948 103.49 52.8587Z" stroke="black" stroke-width="3"/>
</g>
<path d="M15.5 52.0287C13.8334 49.1954 12 43.1287 18 41.5287C24 39.9287 69.5 30.5287 91.5 26.0287M27 48.0287L60.5 41.5287M57 53.0287L76.5 49.0287L79 55.0287L59.5 59.5287M76.5 59.5287L62 63.0287M82.5 66.0287L72.5 69.0287M31.5 83.0287L77.5 73.0287M50 83.0287L65 80.0287" stroke="black" stroke-width="3" stroke-linecap="round" stroke-linejoin="round"/>
</svg>
