<svg width="41" height="41" viewBox="0 0 41 41" fill="none" xmlns="http://www.w3.org/2000/svg">
<path d="M11.0655 0.5L9.04044 3.11438C10.3407 6.51822 10.2904 8.26212 9.47438 11.219L8.89579 10.9575L8.34349 12.7876L10.1635 16.7834L10.4869 17.4935C11.4513 18.3649 13.322 20.4216 13.0906 21.6765C12.9565 22.4036 14.6614 24.8628 16.635 27.3961C18.0675 29.2349 19.6417 31.1126 20.757 32.3954C22.0299 32.3954 24.2768 28.9096 25.2411 27.1667L29.5806 26.9052C30.6221 24.8137 29.8217 22.1993 29.2913 21.1536L28.1401 19.3331C27.9418 19.2996 27.7853 19.216 27.7002 19.0621C28.2998 18.4118 28.9931 17.6022 29.5143 16.9706C28.4953 17.1311 24.5042 16.2883 23.347 12.3668C22.1898 8.4452 13.3799 7.55882 14.8264 8.86601C16.2729 10.1732 14.6817 13.049 12.8013 12.5261C11.4995 12.1642 11.6923 4.44398 12.0781 0.664338C11.7207 0.605791 11.3815 0.55077 11.0655 0.5Z" fill="#9F463C"/>
<path d="M34.6433 4.68301C34.1804 3.4281 33.1968 4.16013 32.7629 4.68301C32.5314 3.84641 31.3164 4.33442 30.7378 4.68301C28.6163 4.33442 24.3443 3.53268 24.2286 3.11438C24.1213 2.72654 16.6277 1.40975 12.0781 0.664338C11.6923 4.44398 11.4995 12.1642 12.8013 12.5261C14.6817 13.049 16.2729 10.1732 14.8264 8.86601C13.3799 7.55882 22.1898 8.4452 23.347 12.3668C24.5042 16.2883 28.4953 17.1311 29.5143 16.9706C31.5076 14.5548 32.7681 12.5708 33.3415 11.7418C34.0647 10.6961 36.5237 11.219 38.7522 7.24595C38.1122 6.42651 37.1513 5.65518 36.5237 4.68301C35.7137 3.4281 34.9326 4.16013 34.6433 4.68301Z" fill="#B0B0AF"/>
<path d="M9.47438 11.219C10.2904 8.26212 10.3407 6.51822 9.04044 3.11438C8.60649 1.89434 7.62288 -0.232026 7.16 1.02288C7.01347 1.42014 7.13366 2.08987 7.37557 2.85294C7.89782 4.50032 8.98737 6.58268 9.18508 7.29739C9.47438 8.34314 9.47438 11.219 9.47438 11.219Z" fill="#E4BD5E"/>
<path d="M13.0906 21.6765C13.322 20.4216 11.4513 18.3649 10.4869 17.4935C9.90833 18.5392 8.54863 20.3693 7.7386 19.3235C7.38198 18.8631 7.3674 18.2845 7.51219 17.7215C7.54417 17.5971 7.58393 17.4735 7.62949 17.3521C7.73276 17.077 7.86585 16.8132 8.00586 16.5775L5.48307 14.5113L5.13491 15.1405C4.98796 15.1201 4.81609 15.0748 4.64802 14.9984L4.34282 15.5682L1.5187 20.8405L0.650803 22.4608L1.34427 24.4975L1.80799 25.8595C3.49557 23.6808 6.90586 20.2191 7.59395 22.1993C8.02648 23.4441 8.0641 24.2591 8.0279 26.1209L11.7888 28.7353C12.8013 27.4281 14.7396 25.2843 14.3924 27.1667L11.6441 30.8268C13.0427 30.3697 15.999 29.0437 16.635 27.3961C14.6614 24.8628 12.9565 22.4036 13.0906 21.6765Z" fill="#75412B"/>
<path d="M38.1149 22.7222C36.8612 20.3693 33.3415 16.7614 29.2913 21.1536C29.8217 22.1993 30.6221 24.8137 29.5806 26.9052L25.2411 27.1667C24.2768 28.9096 22.0299 32.3954 20.757 32.3954C19.6417 31.1126 18.0675 29.2349 16.635 27.3961C15.999 29.0437 13.0427 30.3697 11.6441 30.8268L14.3924 27.1667C14.7396 25.2843 12.8013 27.4281 11.7888 28.7353L10.873 28.5974C10.1657 29.6891 9.18508 31.9771 10.9209 32.3954C12.3528 32.7405 13.2177 31.7192 14.3055 31.2101C14.8661 30.9478 15.4859 30.8215 16.2729 31.0882C16.8437 31.2817 17.6013 31.9002 18.4426 32.3954C20.3302 33.5066 22.594 34.8899 23.7946 35.7941L24.3732 34.4869C24.5695 35.4824 25.5987 36.8346 27.9894 36.5784L29.002 40.5C30.1592 40.1514 32.4157 38.7222 32.1843 35.7941C32.1843 35.3584 32.4736 34.7484 33.6307 35.7941L34.0647 33.9641L37.8256 27.1667C38.9828 27.4281 40.8343 27.2712 38.9828 24.5523C39.8989 25.2495 41.355 25.9118 39.8507 22.9837C39.8581 21.9379 39.5382 20.1078 38.1984 21.1536C38.0976 21.6406 38.059 22.1667 38.1149 22.7222Z" fill="#B0B0AF"/>
<path d="M35.3665 12.7876C34.1129 13.7462 31.3453 16.2909 30.3038 18.8007C29.758 19.0638 28.7506 19.4361 28.1401 19.3331L29.2913 21.1536C33.3415 16.7614 36.8612 20.3693 38.1149 22.7222C38.059 22.1667 38.0976 21.6406 38.1984 21.1536C38.5153 19.6237 39.4467 18.4791 39.9953 18.0163L36.0898 12.3416C35.8257 12.513 35.5794 12.6639 35.3665 12.7876Z" fill="#75412B"/>
<path d="M8.46184 15.9248L8.02789 13.8333L8.34349 12.7876L8.89579 10.9575L9.47438 11.219C9.47438 11.219 9.47438 8.34314 9.18508 7.29739C8.98737 6.58268 7.89782 4.50032 7.37557 2.85294L6.5814 4.68301C7.11178 5.38017 8.17254 6.98366 8.17254 7.82026C8.17254 8.86601 7.59395 13.049 5.71351 14.0948L5.48307 14.5113L8.00586 16.5775C8.15965 16.3186 8.32177 16.0936 8.46184 15.9248Z" fill="#AE4F44"/>
<path d="M8.02789 13.8333L8.46184 15.9248C8.32177 16.0936 8.15965 16.3186 8.00586 16.5775C7.86585 16.8132 7.73276 17.077 7.62949 17.3521C8.1735 17.6231 9.44193 17.8886 10.1635 16.7834L8.34349 12.7876L8.02789 13.8333Z" fill="#5B291C"/>
<path d="M4.00973 14.4166L2.32655 17.232C1.15712 16.8509 0.0746081 17.7983 1.5187 20.8405L4.34282 15.5682L4.64802 14.9984C4.39318 14.8827 4.14706 14.6958 4.00973 14.4166Z" fill="#BBB7B4"/>
<path d="M5.71351 14.0948C5.47243 13.1362 4.81669 11.585 4.12237 13.049C3.83765 13.6494 3.85131 14.0944 4.00973 14.4166C4.14706 14.6958 4.39318 14.8827 4.64802 14.9984C4.81609 15.0748 4.98796 15.1201 5.13491 15.1405L5.48307 14.5113L5.71351 14.0948Z" fill="#ACA8A5"/>
<path d="M1.80799 25.8595L1.34427 24.4975C0.707533 24.8644 -0.1839 26.0163 1.34427 27.6895L1.80799 25.8595Z" fill="#B1AEA5"/>
<path d="M7.59395 22.1993C6.90586 20.2191 3.49557 23.6808 1.80799 25.8595L1.34427 27.6895C2.94533 27.6895 6.20531 27.8987 6.43675 28.7353C6.66818 29.5719 7.7868 28.7353 8.31718 28.2124L10.873 28.5974L11.7888 28.7353L8.0279 26.1209C8.0641 24.2591 8.02648 23.4441 7.59395 22.1993Z" fill="#CEB280"/>
<path d="M16.2729 31.0882C15.4859 30.8215 14.8661 30.9478 14.3055 31.2101C13.997 32.3896 13.8138 34.4869 15.5496 33.4412L18.4426 32.3954C17.6013 31.9002 16.8437 31.2817 16.2729 31.0882Z" fill="#5C362D"/>
<path d="M9.04044 3.11438L11.0655 0.5C11.3815 0.55077 11.7207 0.605791 12.0781 0.664338M9.04044 3.11438C10.3407 6.51822 10.2904 8.26212 9.47438 11.219M9.04044 3.11438C8.60649 1.89434 7.62288 -0.232026 7.16 1.02288C7.01347 1.42014 7.13366 2.08987 7.37557 2.85294M30.7378 4.68301C31.3164 4.33442 32.5314 3.84641 32.7629 4.68301C33.1968 4.16013 34.1804 3.4281 34.6433 4.68301C34.9326 4.16013 35.7137 3.4281 36.5237 4.68301C37.1513 5.65518 38.1122 6.42651 38.7522 7.24595M30.7378 4.68301C28.6163 4.33442 24.3443 3.53268 24.2286 3.11438C24.1213 2.72654 16.6277 1.40975 12.0781 0.664338M30.7378 4.68301C29.002 6.07734 25.299 9.38889 24.3732 11.4804M27.7002 19.0621L23.9393 20.3693M27.7002 19.0621C28.2998 18.4118 28.9931 17.6022 29.5143 16.9706M27.7002 19.0621C27.7853 19.216 27.9418 19.2996 28.1401 19.3331M36.0898 12.3416C37.5008 11.4254 39.4167 9.92309 39.4167 8.86601C39.4167 8.26956 39.1448 7.7487 38.7522 7.24595M36.0898 12.3416C35.8257 12.513 35.5794 12.6639 35.3665 12.7876C34.1129 13.7462 31.3453 16.2909 30.3038 18.8007C29.758 19.0638 28.7506 19.4361 28.1401 19.3331M36.0898 12.3416L39.9953 18.0163C39.4467 18.4791 38.5153 19.6237 38.1984 21.1536M29.2913 21.1536C33.3415 16.7614 36.8612 20.3693 38.1149 22.7222C38.059 22.1667 38.0976 21.6406 38.1984 21.1536M29.2913 21.1536C29.8217 22.1993 30.6221 24.8137 29.5806 26.9052L25.2411 27.1667C24.2768 28.9096 22.0299 32.3954 20.757 32.3954C19.6417 31.1126 18.0675 29.2349 16.635 27.3961M29.2913 21.1536L28.1401 19.3331M28.1341 19.3235L28.1401 19.3331M10.4869 17.4935C11.4513 18.3649 13.322 20.4216 13.0906 21.6765C12.9565 22.4036 14.6614 24.8628 16.635 27.3961M10.4869 17.4935C9.90833 18.5392 8.54863 20.3693 7.7386 19.3235C7.38198 18.8631 7.3674 18.2845 7.51219 17.7215M10.4869 17.4935L10.1635 16.7834M9.47438 11.219L8.89579 10.9575L8.34349 12.7876M9.47438 11.219C9.47438 11.219 9.47438 8.34314 9.18508 7.29739C8.98737 6.58268 7.89782 4.50032 7.37557 2.85294M7.37557 2.85294L6.5814 4.68301C7.11178 5.38017 8.17254 6.98366 8.17254 7.82026C8.17254 8.86601 7.59395 13.049 5.71351 14.0948M5.71351 14.0948C5.47243 13.1362 4.81669 11.585 4.12237 13.049C3.83765 13.6494 3.85131 14.0944 4.00973 14.4166M5.71351 14.0948L5.48307 14.5113M4.00973 14.4166L2.32655 17.232C1.15712 16.8509 0.0746081 17.7983 1.5187 20.8405M4.00973 14.4166C4.14706 14.6958 4.39318 14.8827 4.64802 14.9984M1.5187 20.8405L4.34282 15.5682M1.5187 20.8405L0.650803 22.4608M0.650803 22.4608L4.34282 15.5682M0.650803 22.4608L1.34427 24.4975M4.64802 14.9984C4.81609 15.0748 4.98796 15.1201 5.13491 15.1405L5.48307 14.5113M4.64802 14.9984L4.34282 15.5682M1.80799 25.8595C3.49557 23.6808 6.90586 20.2191 7.59395 22.1993C8.02648 23.4441 8.0641 24.2591 8.0279 26.1209L11.7888 28.7353M1.80799 25.8595L1.34427 24.4975M1.80799 25.8595L1.34427 27.6895M4.34282 15.5682C4.56096 15.9485 4.93518 16.8985 4.41166 18.1534L2.16613 22.3364M5.48307 14.5113L8.00586 16.5775M8.00586 16.5775C8.15965 16.3186 8.32177 16.0936 8.46184 15.9248L8.02789 13.8333L8.34349 12.7876M8.00586 16.5775C7.86585 16.8132 7.73276 17.077 7.62949 17.3521M6.00281 18.2778C6.37462 18.4819 7.13801 18.6115 7.51219 17.7215M7.62949 17.3521C8.1735 17.6231 9.44193 17.8886 10.1635 16.7834M7.62949 17.3521C7.58393 17.4735 7.54417 17.5971 7.51219 17.7215M7.62949 17.3521C7.597 17.4913 7.55744 17.6138 7.51219 17.7215M8.34349 12.7876L10.1635 16.7834M1.34427 24.4975C0.707533 24.8644 -0.1839 26.0163 1.34427 27.6895M1.34427 27.6895C2.94533 27.6895 6.20531 27.8987 6.43675 28.7353C6.66818 29.5719 7.7868 28.7353 8.31718 28.2124L10.873 28.5974M11.7888 28.7353C12.8013 27.4281 14.7396 25.2843 14.3924 27.1667L11.6441 30.8268C13.0427 30.3697 15.999 29.0437 16.635 27.3961M11.7888 28.7353L10.873 28.5974M10.873 28.5974C10.1657 29.6891 9.18508 31.9771 10.9209 32.3954C12.3528 32.7405 13.2177 31.7192 14.3055 31.2101M14.3055 31.2101C14.8661 30.9478 15.4859 30.8215 16.2729 31.0882C16.8437 31.2817 17.6013 31.9002 18.4426 32.3954M14.3055 31.2101C13.997 32.3896 13.8138 34.4869 15.5496 33.4412L18.4426 32.3954M18.4426 32.3954C20.3302 33.5066 22.594 34.8899 23.7946 35.7941L24.3732 34.4869C24.5695 35.4824 25.5987 36.8346 27.9894 36.5784L29.002 40.5C30.1592 40.1514 32.4157 38.7222 32.1843 35.7941C32.1843 35.3584 32.4736 34.7484 33.6307 35.7941L34.0647 33.9641L37.8256 27.1667C38.9828 27.4281 40.8343 27.2712 38.9828 24.5523C39.8989 25.2495 41.355 25.9118 39.8507 22.9837C39.8581 21.9379 39.5382 20.1078 38.1984 21.1536M30.8824 30.5654C30.5449 32.0468 29.9567 35.2712 30.3038 36.317M34.9326 26.1209C35.2219 27.2538 35.6269 29.7288 34.9326 30.5654M35.5112 22.7222C36.1862 23.7865 37.7098 25.7995 38.4042 25.3366M12.0781 16.1863C12.8013 17.232 14.2478 18.8007 16.2729 17.7549C18.298 16.7092 21.961 18.0193 23.9393 20.3693M20.1784 21.6765L23.9393 20.3693M21.1909 15.1405C22.6856 16.2734 25.9065 18.4869 26.8322 18.2778M38.7522 7.24595C36.5237 11.219 34.0647 10.6961 33.3415 11.7418C32.7681 12.5708 31.5076 14.5548 29.5143 16.9706M27.5555 9.38889C27.9894 11.0447 29.2913 13.9379 31.0271 12.2647M25.6751 9.65033C25.5304 9.56318 25.27 9.12745 25.3858 8.0817C25.5015 7.03595 23.5053 5.72876 22.4928 5.20588M12.0781 0.664338C11.6923 4.44398 11.4995 12.1642 12.8013 12.5261C14.6817 13.049 16.2729 10.1732 14.8264 8.86601C13.3799 7.55882 22.1898 8.4452 23.347 12.3668C24.5042 16.2883 28.4953 17.1311 29.5143 16.9706" stroke="black" stroke-linecap="round" stroke-linejoin="round"/>
</svg>
