<svg width="41" height="41" viewBox="0 0 41 41" fill="none" xmlns="http://www.w3.org/2000/svg">
<path fill-rule="evenodd" clip-rule="evenodd" d="M37.5435 24.9572L39.1087 24.5001L36.6739 20.3858L5.19565 15.3572L0.5 22.9001L2.93478 22.4429L1.02174 27.2429L3.45652 25.6429L1.71739 33.4143L5.71739 31.3572L5.54348 36.3858L9.54348 34.1001L9.71739 37.3001L11.6304 35.7001L13.1957 40.5001L15.1087 36.3858L17.7174 40.5001L18.587 37.3001L22.9348 39.5858L22.7609 36.8429L26.2391 37.7572L25.5435 34.5572L30.0652 35.7001L29.3696 34.1001L34.413 34.5572L33.3696 31.8143L37.5435 33.4143L36.1522 30.6715L40.3261 31.3572L38.2391 27.9286L40.5 27.7001L37.5435 24.9572Z" fill="#764A25"/>
<path d="M12.8478 8.04292L7.63043 5.98578L10.0652 10.1001L5.19565 11.0143L7.28261 12.6143L2.41304 14.2143L5.19565 15.3572L36.6739 20.3858L40.3261 19.7001L36.1522 16.7286L38.9348 15.5858L35.1087 12.6143L38.2391 10.5572L31.9783 11.0143L33.3696 7.58578L28.3261 7.3572L29.3696 4.38578L25.3696 7.12863L27.8043 2.5572L18.9348 6.21435V0.500061L15.8043 7.12863L12.3261 2.32863L12.8478 8.04292Z" fill="#926337"/>
<path d="M5.19565 15.3572L2.41304 14.2143L7.28261 12.6143L5.19565 11.0143L10.0652 10.1001L7.63043 5.98578L12.8478 8.04292L12.3261 2.32863L15.8043 7.12863L18.9348 0.500061V6.21435L27.8043 2.5572L25.3696 7.12863L29.3696 4.38578L28.3261 7.3572L33.3696 7.58578L31.9783 11.0143L38.2391 10.5572L35.1087 12.6143L38.9348 15.5858L36.1522 16.7286L40.3261 19.7001L36.6739 20.3858M5.19565 15.3572L0.5 22.9001L2.93478 22.4429L1.02174 27.2429L3.45652 25.6429L1.71739 33.4143L5.71739 31.3572L5.54348 36.3858L9.54348 34.1001L9.71739 37.3001L11.6304 35.7001L13.1957 40.5001L15.1087 36.3858L17.7174 40.5001L18.587 37.3001L22.9348 39.5858L22.7609 36.8429L26.2391 37.7572L25.5435 34.5572L30.0652 35.7001L29.3696 34.1001L34.413 34.5572L33.3696 31.8143L37.5435 33.4143L36.1522 30.6715L40.3261 31.3572L38.2391 27.9286L40.5 27.7001L37.5435 24.9572L39.1087 24.5001L36.6739 20.3858M5.19565 15.3572L36.6739 20.3858" stroke="black" stroke-linecap="round" stroke-linejoin="round"/>
<path d="M6.93504 14.6714L5.54373 16.9571L3.97852 19.4714L5.71765 18.1L6.06547 21.0714L7.45678 21.9857L6.4133 24.5L9.71765 26.7857L9.02199 29.0714L11.6307 30.4428L15.6307 29.7571L17.3698 26.3285L19.9785 26.7857L23.1089 28.3857H26.5872L27.6307 26.7857L29.7176 28.3857L30.4133 24.9571H35.6307L36.1524 18.5571L6.93504 14.6714Z" fill="#926337" stroke="#926337" stroke-linecap="round" stroke-linejoin="round"/>
<path d="M13.3693 11.9287C13.3693 11.9287 11.8041 13.5287 11.6301 14.443C11.4562 15.3573 14.2388 14.443 14.2388 14.443M8.15188 16.2716L7.1084 17.1859M10.4127 16.7287L8.4997 18.7859M10.2388 22.9001L9.36927 24.7287M14.2388 20.843L13.3693 22.443M11.978 26.3287L13.891 30.9001L14.5867 27.7001M18.7606 23.1287V25.643M18.0649 16.2716C18.0649 16.2716 19.4562 19.4716 20.1519 19.9287C20.8475 20.3859 20.1519 16.5001 20.1519 16.5001M18.4127 29.0716V30.2144M19.978 29.9859L21.1954 33.1859M26.9345 29.5287L28.1519 31.5859M25.5432 24.7287L26.5867 26.3287M21.5432 23.1287L22.5867 24.9573M24.6736 13.7573C24.9635 14.5954 25.6475 16.2716 26.0649 16.2716M28.4997 14.6716H31.978C31.3403 15.2049 30.1345 16.363 30.4127 16.7287C30.7606 17.1859 32.1519 17.643 31.6301 18.1001C31.2127 18.4659 29.2533 17.7954 28.3258 17.4144M35.6301 22.9001C35.1664 23.5097 34.0997 24.6373 33.5432 24.2716C32.8475 23.8144 35.1084 25.4144 34.7606 25.8716C34.4823 26.2373 32.5577 25.8716 31.6301 25.643" stroke="black" stroke-linecap="round" stroke-linejoin="round"/>
</svg>
