<svg width="41" height="41" viewBox="0 0 41 41" fill="none" xmlns="http://www.w3.org/2000/svg">
<path d="M10.3542 14.4365C10.3542 14.4365 2.29772 19.453 1.94744 20.3651C1.59716 21.2771 1.94744 24.0134 1.94744 24.0134C1.94744 24.0134 0.196038 24.9255 0.546318 25.8376C0.896598 26.7496 2.29772 27.2057 2.648 28.1178C2.99828 29.0299 1.24687 31.3101 1.59716 31.7661C1.94745 32.2222 3.69884 29.9419 3.69884 29.9419C4.04912 32.3742 5.5203 36.965 8.60276 35.8705C11.6852 34.776 12.4558 33.8943 12.4558 33.5903C13.6234 36.1745 16.7993 40.9782 20.162 39.5188C23.5247 38.0595 23.8983 37.0866 23.6648 36.7826L26.4671 39.5188L28.919 36.3265C30.6704 36.9346 34.3834 37.5122 35.2241 34.9584C36.0647 32.4046 34.4067 31.7661 33.4727 31.7661C34.4067 31.4621 36.415 30.5804 36.9755 29.4859C37.5359 28.3914 37.209 25.6856 36.9755 24.4694C38.2598 24.4694 40.7585 24.1046 40.4783 22.6453C40.128 20.8211 34.5235 19.909 35.2241 18.5409C35.7845 17.4464 34.29 15.6526 33.4727 14.8926L31.371 15.8046C30.6704 13.8285 28.9891 10.1497 27.8682 11.2442C26.4671 12.6124 23.6648 6.68382 21.9134 7.5959C20.5123 8.32557 17.3598 9.42006 15.9586 9.8761C15.1413 8.812 13.2965 6.95743 12.4558 8.05193C11.6152 9.14643 10.8212 12.6123 10.3542 14.4365Z" fill="#8D5F33" stroke="#513317" stroke-linecap="round" stroke-linejoin="round"/>
<path fill-rule="evenodd" clip-rule="evenodd" d="M25.6864 35.6331C23.4896 37.154 18.064 35.4551 15.8527 32.8764L15.5202 34.2548C16.6941 36.8583 19.887 41.6979 23.2678 40.2276C26.6486 38.7574 27.0242 37.7772 26.7895 37.4709L29.6068 40.2276L32.0719 37.0115C33.8328 37.6241 37.5657 38.206 38.4109 35.6331C39.2561 33.0602 37.5892 32.417 36.6501 32.417L32.0719 37.0115C31.7894 36.9121 32.8733 36.8492 32.4375 36.6446C30.8581 35.903 27.0517 34.6879 25.6864 35.6331Z" fill="#896541"/>
<path d="M13.4072 14.9578C13.4072 14.9578 5.30739 20.0118 4.95523 20.9307C4.60306 21.8496 4.95523 24.6063 4.95523 24.6063C4.95523 24.6063 3.1944 25.5252 3.54657 26.4441C3.89873 27.363 5.30739 27.8225 5.65956 28.7414C6.01172 29.6603 4.25089 31.9575 4.60306 32.417C4.95524 32.8764 6.71605 30.5792 6.71605 30.5792C7.06822 33.0296 8.54731 37.6547 11.6464 36.552C14.7454 35.4493 15.5202 34.5611 15.5202 34.2548L15.8527 32.8764C15.444 27.9336 18.6431 24.1468 18.2909 22.7685C17.9388 21.3901 13.4072 14.9578 13.4072 14.9578Z" fill="#896541"/>
<path d="M15.5202 34.2548C15.5202 34.5611 14.7454 35.4493 11.6464 36.552C8.54731 37.6547 7.06822 33.0296 6.71605 30.5792C6.71605 30.5792 4.95524 32.8764 4.60306 32.417C4.25089 31.9575 6.01172 29.6603 5.65956 28.7414C5.30739 27.8225 3.89873 27.363 3.54657 26.4441C3.1944 25.5252 4.95523 24.6063 4.95523 24.6063C4.95523 24.6063 4.60306 21.8496 4.95523 20.9307C5.30739 20.0118 13.4072 14.9578 13.4072 14.9578C13.4072 14.9578 17.9388 21.3901 18.2909 22.7685C18.6431 24.1468 15.444 27.9336 15.8527 32.8764M15.5202 34.2548C16.6941 36.8583 19.887 41.6979 23.2678 40.2276C26.6486 38.7574 27.0242 37.7772 26.7895 37.4709L29.6068 40.2276L32.0719 37.0115M15.5202 34.2548L15.8527 32.8764M32.0719 37.0115C33.8328 37.6241 37.5657 38.206 38.4109 35.6331C39.2561 33.0602 37.5892 32.417 36.6501 32.417L32.0719 37.0115ZM32.0719 37.0115C31.7894 36.9121 32.8733 36.8492 32.4375 36.6446C30.8581 35.903 27.0517 34.6879 25.6864 35.6331C23.4896 37.154 18.064 35.4551 15.8527 32.8764" stroke="#513317" stroke-linecap="round" stroke-linejoin="round"/>
<path d="M13.2142 3.39157C13.2142 4.98853 11.999 6.28313 10.4999 6.28313C9.00087 6.28313 7.78564 4.98853 7.78564 3.39157C7.78564 1.7946 9.00087 0.5 10.4999 0.5C11.999 0.5 13.2142 1.7946 13.2142 3.39157Z" fill="#8D5F33" stroke="#513317"/>
<path d="M8.35707 7.00602C8.35707 8.20374 7.78144 9.17469 7.07136 9.17469C6.36128 9.17469 5.78564 8.20374 5.78564 7.00602C5.78564 5.80829 6.36128 4.83734 7.07136 4.83734C7.78144 4.83734 8.35707 5.80829 8.35707 7.00602Z" fill="#8D5F33" stroke="#513317"/>
<path d="M4.87272 21.8445C5.20771 21.0153 13.6806 15.5795 13.6806 15.5795C14.4886 14.7465 19.1678 20.6878 18.576 22.887C17.9842 25.0861 15.4348 28.1127 15.8235 32.5732C17.9269 34.9003 22.8379 36.1744 24.9276 34.8019C26.5847 33.7136 30.2947 36.271 31.5377 36.6856L34.9663 33.1698C35.8596 33.1698 38.1211 33.4935 37.3171 35.8154C36.5131 38.1373 33.2127 37.2384 31.5377 36.6856L28.9663 39.6758L26.4076 37.2781C26.3807 37.3782 25.3373 38.1137 22.8235 39.6758C20.1796 41.3188 16.2258 36.2422 15.1092 33.8927C15.1092 34.1691 14.5203 34.6361 11.5724 35.6312C8.62457 36.6263 7.01559 31.7667 6.6806 29.5554C6.6806 29.5554 5.0156 32.6206 4.6806 32.206C4.34561 31.7913 6.21267 29.4119 5.87768 28.5827C5.54269 27.7534 3.87273 27.734 3.53775 26.9048C3.20276 26.0755 5.20771 24.8511 5.20771 24.8511C5.20771 24.8511 4.53773 22.6738 4.87272 21.8445Z" fill="#885E38"/>
<path d="M15.1092 33.8927C15.1092 34.1691 14.5203 34.6361 11.5724 35.6312C8.62457 36.6263 7.01559 31.7667 6.6806 29.5554C6.6806 29.5554 5.0156 32.6206 4.6806 32.206C4.34561 31.7913 6.21267 29.4119 5.87768 28.5827C5.54269 27.7534 3.87273 27.734 3.53775 26.9048C3.20276 26.0755 5.20771 24.8511 5.20771 24.8511C5.20771 24.8511 4.53773 22.6738 4.87272 21.8445C5.20771 21.0153 13.6806 15.5795 13.6806 15.5795C14.4886 14.7465 19.1678 20.6878 18.576 22.887C17.9842 25.0861 15.4348 28.1127 15.8235 32.5732M15.1092 33.8927C16.2258 36.2422 20.1796 41.3188 22.8235 39.6758C25.5377 37.9891 26.5377 37.2662 26.3949 37.2662L28.9663 39.6758L31.5377 36.6856M15.1092 33.8927L15.8235 32.5732M31.5377 36.6856C33.2127 37.2384 36.5131 38.1373 37.3171 35.8154C38.1211 33.4935 35.8596 33.1698 34.9663 33.1698L31.5377 36.6856ZM31.5377 36.6856C30.2947 36.271 26.5847 33.7136 24.9276 34.8019C22.8379 36.1744 17.9269 34.9003 15.8235 32.5732" stroke="#885E38" stroke-linecap="round" stroke-linejoin="round"/>
</svg>
