<svg width="118" height="91" viewBox="0 0 118 91" fill="none" xmlns="http://www.w3.org/2000/svg">
<path fill-rule="evenodd" clip-rule="evenodd" d="M108 55.0001L112.5 54.0001L105.5 45.0001L15 34.0001L1.5 50.5001L8.5 49.5001L3 60.0001L10 56.5001L5 73.5001L16.5 69.0001L16 80.0001L27.5 75.0001L28 82.0001L33.5 78.5001L38 89.0001L43.5 80.0001L51 89.0001L53.5 82.0001L66 87.0001L65.5 81.0001L75.5 83.0001L73.5 76.0001L86.5 78.5001L84.5 75.0001L99 76.0001L96 70.0001L108 73.5001L104 67.5001L116 69.0001L110 61.5001L116.5 61.0001L108 55.0001Z" fill="#764A25"/>
<path d="M37 18.0001L22 13.5001L29 22.5001L15 24.5001L21 28.0001L7 31.5001L15 34.0001L105.5 45.0001L116 43.5001L104 37.0001L112 34.5001L101 28.0001L110 23.5001L92 24.5001L96 17.0001L81.5 16.5001L84.5 10.0001L73 16.0001L80 6.00013L54.5 14.0001V1.50013L45.5 16.0001L35.5 5.50013L37 18.0001Z" fill="#926337"/>
<path d="M15 34.0001L7 31.5001L21 28.0001L15 24.5001L29 22.5001L22 13.5001L37 18.0001L35.5 5.50013L45.5 16.0001L54.5 1.50013V14.0001L80 6.00013L73 16.0001L84.5 10.0001L81.5 16.5001L96 17.0001L92 24.5001L110 23.5001L101 28.0001L112 34.5001L104 37.0001L116 43.5001L105.5 45.0001M15 34.0001L1.5 50.5001L8.5 49.5001L3 60.0001L10 56.5001L5 73.5001L16.5 69.0001L16 80.0001L27.5 75.0001L28 82.0001L33.5 78.5001L38 89.0001L43.5 80.0001L51 89.0001L53.5 82.0001L66 87.0001L65.5 81.0001L75.5 83.0001L73.5 76.0001L86.5 78.5001L84.5 75.0001L99 76.0001L96 70.0001L108 73.5001L104 67.5001L116 69.0001L110 61.5001L116.5 61.0001L108 55.0001L112.5 54.0001L105.5 45.0001M15 34.0001L105.5 45.0001" stroke="black" stroke-width="3" stroke-linecap="round" stroke-linejoin="round"/>
<path d="M20 32.5001L16 37.5001L11.5 43.0001L16.5 40.0001L17.5 46.5001L21.5 48.5001L18.5 54.0001L28 59.0001L26 64.0001L33.5 67.0001L45 65.5001L50 58.0001L57.5 59.0001L66.5 62.5001H76.5L79.5 59.0001L85.5 62.5001L87.5 55.0001H102.5L104 41.0001L20 32.5001Z" fill="#926337" stroke="#926337" stroke-width="3" stroke-linecap="round" stroke-linejoin="round"/>
<path d="M38.5 26.5001C38.5 26.5001 34 30.0001 33.5 32.0001C33 34.0001 41 32.0001 41 32.0001M23.5 36.0001L20.5 38.0001M30 37.0001L24.5 41.5001M29.5 50.5001L27 54.5001M41 46.0001L38.5 49.5001M34.5 58.0001L40 68.0001L42 61.0001M54 51.0001V56.5001M52 36.0001C52 36.0001 56 43.0001 58 44.0001C60 45.0001 58 36.5001 58 36.5001M53 64.0001V66.5001M57.5 66.0001L61 73.0001M77.5 65.0001L81 69.5001M73.5 54.5001L76.5 58.0001M62 51.0001L65 55.0001M71 30.5001C71.8333 32.3335 73.8 36.0001 75 36.0001M82 32.5001H92C90.1667 33.6668 86.7 36.2001 87.5 37.0001C88.5 38.0001 92.5 39.0001 91 40.0001C89.8 40.8001 84.1667 39.3335 81.5 38.5001M102.5 50.5001C101.167 51.8335 98.1 54.3001 96.5 53.5001C94.5 52.5001 101 56.0001 100 57.0001C99.2 57.8001 93.6667 57.0001 91 56.5001" stroke="black" stroke-width="3" stroke-linecap="round" stroke-linejoin="round"/>
</svg>
