<svg width="181" height="185" viewBox="0 0 181 185" fill="none" xmlns="http://www.w3.org/2000/svg">
<mask id="mask0_96_159" style="mask-type:alpha" maskUnits="userSpaceOnUse" x="0" y="0" width="181" height="185">
<rect width="181" height="185" fill="#D9D9D9"/>
</mask>
<g mask="url(#mask0_96_159)">
<path fill-rule="evenodd" clip-rule="evenodd" d="M68.5718 145.243C66.9028 168.345 67.2471 191.686 69.5 202.5C72 214.5 75 216.5 79.5 216.5C86.1572 216.5 86.8649 210.03 87.5382 203.875C87.675 202.624 87.8104 201.386 87.994 200.218C88.5 197 91.7471 194.045 97 195C101.39 195.798 101.71 199.957 102.047 204.35C102.209 206.461 102.376 208.627 103 210.5L103.026 210.578C104.017 213.552 104.999 216.5 111 216.5C117.5 216.5 119.864 208.463 120.5 203C123.075 180.888 123.288 165.951 120.55 145.07C113.548 146.698 105.616 147.5 96.9038 147.5C86.4224 147.5 76.8468 146.941 68.5718 145.243Z" fill="white"/>
<path fill-rule="evenodd" clip-rule="evenodd" d="M152 95.5C152 73 121.297 41.9409 90 34C87.4048 37.244 83.4069 40.9597 76.8364 45.4001C59.9413 56.818 30.5 78 38 96C32 98.5 30 107.724 30 113.5C30 122.746 37.359 131.506 46.473 134.696C51.9054 140.114 59.4481 143.371 68.5718 145.243C76.8468 146.941 86.4224 147.5 96.9038 147.5C105.616 147.5 113.548 146.698 120.55 145.07C129.282 143.041 136.567 139.728 142.115 135.087C152.271 132.492 159.5 125.054 159.5 114C159.5 108.933 158 99.5 152 95.5Z" fill="#F8C6C7"/>
<path d="M68.5718 145.243C66.9028 168.345 67.2471 191.686 69.5 202.5C72 214.5 75 216.5 79.5 216.5C86.1572 216.5 86.8649 210.03 87.5382 203.875C87.675 202.624 87.8104 201.386 87.994 200.218C88.5 197 91.7471 194.045 97 195C101.39 195.798 101.71 199.957 102.047 204.35C102.209 206.461 102.376 208.627 103 210.5L103.026 210.578C104.017 213.552 104.999 216.5 111 216.5C117.5 216.5 119.864 208.463 120.5 203C123.075 180.888 123.288 165.951 120.55 145.07M68.5718 145.243C76.8468 146.941 86.4224 147.5 96.9038 147.5C105.616 147.5 113.548 146.698 120.55 145.07M68.5718 145.243C59.4481 143.371 51.9054 140.114 46.473 134.696C37.359 131.506 30 122.746 30 113.5C30 107.724 32 98.5 38 96M120.55 145.07C129.282 143.041 136.567 139.728 142.115 135.087C152.271 132.492 159.5 125.054 159.5 114C159.5 108.933 158 99.5 152 95.5M152 95.5C152 73 121.297 41.9409 90 34C87.4048 37.244 83.4069 40.9597 76.8364 45.4001C59.9413 56.818 30.5 78 38 96M152 95.5L148 94.5M38 96L41.5 95.5" stroke="black" stroke-width="3" stroke-linecap="round" stroke-linejoin="round"/>
<path d="M139 101C139 104.314 134.075 107 128 107C121.925 107 117 104.314 117 101C117 97.6863 121.925 95 128 95C134.075 95 139 97.6863 139 101Z" fill="#E28C86"/>
<path d="M74 101C74 104.314 69.0751 107 63 107C56.9249 107 52 104.314 52 101C52 97.6863 56.9249 95 63 95C69.0751 95 74 97.6863 74 101Z" fill="#E28C86"/>
<path d="M139 101C139 104.314 134.075 107 128 107C121.925 107 117 104.314 117 101C117 97.6863 121.925 95 128 95C134.075 95 139 97.6863 139 101Z" stroke="#E28C86" stroke-width="2"/>
<path d="M74 101C74 104.314 69.0751 107 63 107C56.9249 107 52 104.314 52 101C52 97.6863 56.9249 95 63 95C69.0751 95 74 97.6863 74 101Z" stroke="#E28C86" stroke-width="2"/>
<path d="M70.5 76.0341C84.9 75.2341 87.5 88.7008 87 95.5341C77.308 90.8676 62.5962 90.9526 54.5 91.7418C53.3 76.708 65 76.3397 70.5 76.0341Z" fill="#FEFDFE"/>
<path d="M119.557 76.0682C105.157 75.2682 102.557 88.7349 103.057 95.5682C112.749 90.9017 127.46 90.9867 135.557 91.776C136.757 76.7421 125.057 76.3738 119.557 76.0682Z" fill="#FEFDFE"/>
<path d="M52 92.0341C52.7353 91.9315 53.5744 91.8321 54.5 91.7418M54.5 91.7418C62.5962 90.9526 77.308 90.8676 87 95.5341C87.5 88.7008 84.9 75.2341 70.5 76.0341C65 76.3397 53.3 76.708 54.5 91.7418ZM138.057 92.0682C137.321 91.9656 136.482 91.8662 135.557 91.776M135.557 91.776C127.46 90.9867 112.749 90.9017 103.057 95.5682C102.557 88.7349 105.157 75.2682 119.557 76.0682C125.057 76.3738 136.757 76.7421 135.557 91.776Z" stroke="black" stroke-width="2" stroke-linecap="round"/>
<path d="M120 85.5C120 86.3284 119.328 87 118.5 87C117.672 87 117 86.3284 117 85.5C117 84.6716 117.672 84 118.5 84C119.328 84 120 84.6716 120 85.5Z" fill="#010200"/>
<path d="M73 85.5C73 86.3284 72.3284 87 71.5 87C70.6716 87 70 86.3284 70 85.5C70 84.6716 70.6716 84 71.5 84C72.3284 84 73 84.6716 73 85.5Z" fill="#010200"/>
<path d="M120 85.5C120 86.3284 119.328 87 118.5 87C117.672 87 117 86.3284 117 85.5C117 84.6716 117.672 84 118.5 84C119.328 84 120 84.6716 120 85.5Z" stroke="black" stroke-width="2"/>
<path d="M73 85.5C73 86.3284 72.3284 87 71.5 87C70.6716 87 70 86.3284 70 85.5C70 84.6716 70.6716 84 71.5 84C72.3284 84 73 84.6716 73 85.5Z" stroke="black" stroke-width="2"/>
<circle cx="104" cy="122" r="1.5" fill="#B08D63" stroke="black"/>
<path d="M77.5 98.5C78.6402 99.5802 79.9316 101.322 80.7441 103.5C81.2987 104.987 81.6301 106.677 81.5382 108.5M77 118C79.2808 115.605 80.5591 113.235 81.1478 111C81.3731 110.145 81.4974 109.309 81.5382 108.5M114 97C112.951 98.1541 111.789 99.8893 110.965 102C110.218 103.91 109.748 106.128 109.886 108.5M115 119C111.825 115.825 110.377 112.556 109.98 109.5C109.936 109.164 109.905 108.83 109.886 108.5M81.5382 108.5C81.5382 108.5 85 113 88.5 108.5C92 104 94 106 97 108.5C100 111 101 112.5 104 108.5C107 104.5 109.886 108.5 109.886 108.5" stroke="black" stroke-width="2" stroke-linecap="round"/>
<path d="M90 60.5L90.5 80M95.5 58V81.5M100 61.5V78" stroke="black" stroke-width="2" stroke-linecap="round" stroke-linejoin="round"/>
<path d="M105.5 66C106.667 68.5 111.6 72.9 122 70.5M82 66C80.1667 68.5 74.5 72.9 66.5 70.5" stroke="black" stroke-width="2" stroke-linecap="round" stroke-linejoin="round"/>
<path d="M56.4746 65.6553C56.5425 65.7279 56.6213 65.8234 56.709 65.9443C56.8649 66.1593 57.0327 66.4303 57.2012 66.7412C57.5382 67.3632 57.8665 68.1195 58.1094 68.8535C58.3553 69.5967 58.5 70.2764 58.5 70.7568C58.5 71.7743 58.1972 72.4441 57.7715 72.8604C57.3424 73.2799 56.7293 73.5 56 73.5C55.2707 73.5 54.6576 73.2799 54.2285 72.8604C53.8028 72.4441 53.5 71.7743 53.5 70.7568C53.5001 69.8498 54.021 69.1823 54.7305 68.3975C55.3826 67.6761 56.2329 66.8249 56.4746 65.6553Z" fill="#BFD9EE"/>
<path d="M56.4746 65.6553C56.5425 65.7279 56.6213 65.8234 56.709 65.9443C56.8649 66.1593 57.0327 66.4303 57.2012 66.7412C57.5382 67.3632 57.8665 68.1195 58.1094 68.8535C58.3553 69.5967 58.5 70.2764 58.5 70.7568C58.5 71.7743 58.1972 72.4441 57.7715 72.8604C57.3424 73.2799 56.7293 73.5 56 73.5C55.2707 73.5 54.6576 73.2799 54.2285 72.8604C53.8028 72.4441 53.5 71.7743 53.5 70.7568C53.5001 69.8498 54.021 69.1823 54.7305 68.3975C55.3826 67.6761 56.2329 66.8249 56.4746 65.6553Z" stroke="#A5C3DB"/>
<path d="M56.4746 65.6553C56.5425 65.7279 56.6213 65.8234 56.709 65.9443C56.8649 66.1593 57.0327 66.4303 57.2012 66.7412C57.5382 67.3632 57.8665 68.1195 58.1094 68.8535C58.3553 69.5967 58.5 70.2764 58.5 70.7568C58.5 71.7743 58.1972 72.4441 57.7715 72.8604C57.3424 73.2799 56.7293 73.5 56 73.5C55.2707 73.5 54.6576 73.2799 54.2285 72.8604C53.8028 72.4441 53.5 71.7743 53.5 70.7568C53.5001 69.8498 54.021 69.1823 54.7305 68.3975C55.3826 67.6761 56.2329 66.8249 56.4746 65.6553Z" stroke="#A5C3DB"/>
<path d="M50.4746 117.655C50.5425 117.728 50.6213 117.823 50.709 117.944C50.8649 118.159 51.0327 118.43 51.2012 118.741C51.5382 119.363 51.8665 120.12 52.1094 120.854C52.3553 121.597 52.5 122.276 52.5 122.757C52.5 123.774 52.1972 124.444 51.7715 124.86C51.3424 125.28 50.7293 125.5 50 125.5C49.2707 125.5 48.6576 125.28 48.2285 124.86C47.8028 124.444 47.5 123.774 47.5 122.757C47.5001 121.85 48.021 121.182 48.7305 120.397C49.3826 119.676 50.2329 118.825 50.4746 117.655Z" fill="#BFD9EE"/>
<path d="M50.4746 117.655C50.5425 117.728 50.6213 117.823 50.709 117.944C50.8649 118.159 51.0327 118.43 51.2012 118.741C51.5382 119.363 51.8665 120.12 52.1094 120.854C52.3553 121.597 52.5 122.276 52.5 122.757C52.5 123.774 52.1972 124.444 51.7715 124.86C51.3424 125.28 50.7293 125.5 50 125.5C49.2707 125.5 48.6576 125.28 48.2285 124.86C47.8028 124.444 47.5 123.774 47.5 122.757C47.5001 121.85 48.021 121.182 48.7305 120.397C49.3826 119.676 50.2329 118.825 50.4746 117.655Z" stroke="#A5C3DB"/>
<path d="M50.4746 117.655C50.5425 117.728 50.6213 117.823 50.709 117.944C50.8649 118.159 51.0327 118.43 51.2012 118.741C51.5382 119.363 51.8665 120.12 52.1094 120.854C52.3553 121.597 52.5 122.276 52.5 122.757C52.5 123.774 52.1972 124.444 51.7715 124.86C51.3424 125.28 50.7293 125.5 50 125.5C49.2707 125.5 48.6576 125.28 48.2285 124.86C47.8028 124.444 47.5 123.774 47.5 122.757C47.5001 121.85 48.021 121.182 48.7305 120.397C49.3826 119.676 50.2329 118.825 50.4746 117.655Z" stroke="#A5C3DB"/>
<path d="M115.475 52.6553C115.543 52.7279 115.621 52.8234 115.709 52.9443C115.865 53.1593 116.033 53.4303 116.201 53.7412C116.538 54.3632 116.866 55.1195 117.109 55.8535C117.355 56.5967 117.5 57.2764 117.5 57.7568C117.5 58.7743 117.197 59.4441 116.771 59.8604C116.342 60.2799 115.729 60.5 115 60.5C114.271 60.5 113.658 60.2799 113.229 59.8604C112.803 59.4441 112.5 58.7743 112.5 57.7568C112.5 56.8498 113.021 56.1823 113.73 55.3975C114.383 54.6761 115.233 53.8249 115.475 52.6553Z" fill="#BFD9EE"/>
<path d="M115.475 52.6553C115.543 52.7279 115.621 52.8234 115.709 52.9443C115.865 53.1593 116.033 53.4303 116.201 53.7412C116.538 54.3632 116.866 55.1195 117.109 55.8535C117.355 56.5967 117.5 57.2764 117.5 57.7568C117.5 58.7743 117.197 59.4441 116.771 59.8604C116.342 60.2799 115.729 60.5 115 60.5C114.271 60.5 113.658 60.2799 113.229 59.8604C112.803 59.4441 112.5 58.7743 112.5 57.7568C112.5 56.8498 113.021 56.1823 113.73 55.3975C114.383 54.6761 115.233 53.8249 115.475 52.6553Z" stroke="#A5C3DB"/>
<path d="M115.475 52.6553C115.543 52.7279 115.621 52.8234 115.709 52.9443C115.865 53.1593 116.033 53.4303 116.201 53.7412C116.538 54.3632 116.866 55.1195 117.109 55.8535C117.355 56.5967 117.5 57.2764 117.5 57.7568C117.5 58.7743 117.197 59.4441 116.771 59.8604C116.342 60.2799 115.729 60.5 115 60.5C114.271 60.5 113.658 60.2799 113.229 59.8604C112.803 59.4441 112.5 58.7743 112.5 57.7568C112.5 56.8498 113.021 56.1823 113.73 55.3975C114.383 54.6761 115.233 53.8249 115.475 52.6553Z" stroke="#A5C3DB"/>
<path d="M145.475 115.655C145.543 115.728 145.621 115.823 145.709 115.944C145.865 116.159 146.033 116.43 146.201 116.741C146.538 117.363 146.866 118.12 147.109 118.854C147.355 119.597 147.5 120.276 147.5 120.757C147.5 121.774 147.197 122.444 146.771 122.86C146.342 123.28 145.729 123.5 145 123.5C144.271 123.5 143.658 123.28 143.229 122.86C142.803 122.444 142.5 121.774 142.5 120.757C142.5 119.85 143.021 119.182 143.73 118.397C144.383 117.676 145.233 116.825 145.475 115.655Z" fill="#BFD9EE"/>
<path d="M145.475 115.655C145.543 115.728 145.621 115.823 145.709 115.944C145.865 116.159 146.033 116.43 146.201 116.741C146.538 117.363 146.866 118.12 147.109 118.854C147.355 119.597 147.5 120.276 147.5 120.757C147.5 121.774 147.197 122.444 146.771 122.86C146.342 123.28 145.729 123.5 145 123.5C144.271 123.5 143.658 123.28 143.229 122.86C142.803 122.444 142.5 121.774 142.5 120.757C142.5 119.85 143.021 119.182 143.73 118.397C144.383 117.676 145.233 116.825 145.475 115.655Z" stroke="#A5C3DB"/>
<path d="M145.475 115.655C145.543 115.728 145.621 115.823 145.709 115.944C145.865 116.159 146.033 116.43 146.201 116.741C146.538 117.363 146.866 118.12 147.109 118.854C147.355 119.597 147.5 120.276 147.5 120.757C147.5 121.774 147.197 122.444 146.771 122.86C146.342 123.28 145.729 123.5 145 123.5C144.271 123.5 143.658 123.28 143.229 122.86C142.803 122.444 142.5 121.774 142.5 120.757C142.5 119.85 143.021 119.182 143.73 118.397C144.383 117.676 145.233 116.825 145.475 115.655Z" stroke="#A5C3DB"/>
<path d="M82.4746 47.6553C82.5425 47.7279 82.6213 47.8234 82.709 47.9443C82.8649 48.1593 83.0327 48.4303 83.2012 48.7412C83.5382 49.3632 83.8665 50.1195 84.1094 50.8535C84.3553 51.5967 84.5 52.2764 84.5 52.7568C84.5 53.7743 84.1972 54.4441 83.7715 54.8604C83.3424 55.2799 82.7293 55.5 82 55.5C81.2707 55.5 80.6576 55.2799 80.2285 54.8604C79.8028 54.4441 79.5 53.7743 79.5 52.7568C79.5001 51.8498 80.021 51.1823 80.7305 50.3975C81.3826 49.6761 82.2329 48.8249 82.4746 47.6553Z" fill="#BFD9EE"/>
<path d="M82.4746 47.6553C82.5425 47.7279 82.6213 47.8234 82.709 47.9443C82.8649 48.1593 83.0327 48.4303 83.2012 48.7412C83.5382 49.3632 83.8665 50.1195 84.1094 50.8535C84.3553 51.5967 84.5 52.2764 84.5 52.7568C84.5 53.7743 84.1972 54.4441 83.7715 54.8604C83.3424 55.2799 82.7293 55.5 82 55.5C81.2707 55.5 80.6576 55.2799 80.2285 54.8604C79.8028 54.4441 79.5 53.7743 79.5 52.7568C79.5001 51.8498 80.021 51.1823 80.7305 50.3975C81.3826 49.6761 82.2329 48.8249 82.4746 47.6553Z" stroke="#A5C3DB"/>
<path d="M82.4746 47.6553C82.5425 47.7279 82.6213 47.8234 82.709 47.9443C82.8649 48.1593 83.0327 48.4303 83.2012 48.7412C83.5382 49.3632 83.8665 50.1195 84.1094 50.8535C84.3553 51.5967 84.5 52.2764 84.5 52.7568C84.5 53.7743 84.1972 54.4441 83.7715 54.8604C83.3424 55.2799 82.7293 55.5 82 55.5C81.2707 55.5 80.6576 55.2799 80.2285 54.8604C79.8028 54.4441 79.5 53.7743 79.5 52.7568C79.5001 51.8498 80.021 51.1823 80.7305 50.3975C81.3826 49.6761 82.2329 48.8249 82.4746 47.6553Z" stroke="#A5C3DB"/>
<path fill-rule="evenodd" clip-rule="evenodd" d="M47.8339 156.211L49.1979 151.711L47.8339 147.711C44.7366 152.141 41.7334 160.947 43.8699 167C46.8699 175.5 53.3699 177.728 58.1625 178C64.3699 178.352 78.9485 178.072 79.3699 170C79.8255 161.274 65.045 160.49 58.4968 161.711L55.9968 159.211L52.0964 160.211L47.9968 164.711L47.8339 156.211Z" fill="#FCFEFE"/>
<path d="M67.9968 152.711L58.4968 161.711C65.045 160.49 79.8255 161.274 79.3699 170C78.9485 178.072 64.3699 178.352 58.1625 178L63.5 191.5L96 178L85.3003 152.365L80.9968 152.365L77.4968 155.711L70.283 151.711L67.9968 152.711Z" fill="#C02927"/>
<path d="M72.5691 150.711L82.8568 146.211L78.5983 135.485L68.0421 139.68L72.5691 150.711Z" fill="#6C3E23"/>
<path d="M77.4968 132.711C69.8968 134.099 67.6635 128.959 66.9968 125.711L62.9968 127.386L68.0421 139.68L78.5983 135.485L77.4968 132.711Z" fill="#6C3E23"/>
<path d="M62.9968 127.386L52.6745 131.711L57.8146 143.744L68.0421 139.68L62.9968 127.386Z" fill="#6C3E23"/>
<path d="M61.4968 152.365L67.9968 152.711L70.283 151.711L72.5691 150.711L68.0421 139.68L57.8146 143.744L61.4968 152.365Z" fill="#6C3E23"/>
<path d="M43.665 135.485L47.8339 147.711L57.8146 143.744L52.6745 131.711L43.665 135.485Z" fill="#6C3E23"/>
<path d="M49.1979 151.711L61.4968 152.365L57.8146 143.744L47.8339 147.711L49.1979 151.711Z" fill="#6C3E23"/>
<path d="M80.9968 152.365L85.3003 152.365L87.9968 152.365L87.4968 150.211L82.8568 146.211L72.5691 150.711L70.283 151.711L77.4968 155.711L80.9968 152.365Z" fill="#BCB8B8"/>
<path d="M49.1979 151.711L47.8339 156.211L47.9968 164.711L52.0964 160.211L55.9968 159.211L58.4968 161.711L67.9968 152.711L61.4968 152.365L49.1979 151.711Z" fill="#BCB8B8"/>
<path d="M49.1979 151.711L47.8339 156.211L47.9968 164.711L52.0964 160.211L55.9968 159.211L58.4968 161.711M49.1979 151.711L61.4968 152.365M49.1979 151.711L47.8339 147.711M58.4968 161.711L67.9968 152.711M58.4968 161.711C65.045 160.49 79.8255 161.274 79.3699 170C78.9485 178.072 64.3699 178.352 58.1625 178M67.9968 152.711L61.4968 152.365M67.9968 152.711L70.283 151.711M61.4968 152.365L57.8146 143.744M85.3003 152.365L80.9968 152.365L77.4968 155.711L70.283 151.711M85.3003 152.365L87.9968 152.365L87.4968 150.211L82.8568 146.211M85.3003 152.365L96 178L63.5 191.5L58.1625 178M82.8568 146.211L72.5691 150.711M82.8568 146.211L78.5983 135.485M72.5691 150.711L70.283 151.711M72.5691 150.711L68.0421 139.68M47.8339 147.711C44.7366 152.141 41.7334 160.947 43.8699 167C46.8699 175.5 53.3699 177.728 58.1625 178M47.8339 147.711L43.665 135.485L52.6745 131.711M47.8339 147.711L57.8146 143.744M78.5983 135.485L77.4968 132.711C69.8968 134.099 67.6635 128.959 66.9968 125.711L62.9968 127.386M78.5983 135.485L68.0421 139.68M52.6745 131.711L62.9968 127.386M52.6745 131.711L57.8146 143.744M62.9968 127.386L68.0421 139.68M68.0421 139.68L57.8146 143.744" stroke="black" stroke-width="3" stroke-linejoin="round"/>
<path d="M113.692 136.846L138.885 145.003C140.277 141.543 140.905 132.686 132.079 129.003C123.692 125.503 116.615 131.901 113.692 136.846Z" fill="#B48A59"/>
<path d="M88.0199 158.976L92.5984 170.508C95.7516 168.671 98.315 167.315 98.6917 167.503C99.4917 167.903 104.692 170.883 107.192 172.323C106.555 170.799 106.442 169.153 107.192 167.503C109.692 162.003 116.858 162.003 120.692 163.003C120.192 159.503 114.692 155.003 110.192 153.003C106.592 151.403 101.025 155.336 98.6917 157.503L88.0199 158.976Z" fill="#FFE46C"/>
<path fill-rule="evenodd" clip-rule="evenodd" d="M139.902 150.503L138.001 155.363C134.688 161.245 127.848 166.958 120.692 163.003C120.192 159.503 114.692 155.003 110.192 153.003C106.592 151.403 101.025 155.336 98.6917 157.503L88.0199 158.976L95.6917 135.996L139.902 150.503ZM92.5984 170.508L96.3096 179.855L91.9461 181.483C102.266 185.769 110.956 188.008 124.452 190.003L128.497 179.662C123.913 180.395 119.109 180.034 116.192 179.503C113.359 178.988 108.736 176.019 107.192 172.323C104.692 170.883 99.4917 167.903 98.6917 167.503C98.315 167.315 95.7516 168.671 92.5984 170.508Z" fill="#EA7920"/>
<path d="M113.692 136.846L97.1917 131.503L95.6917 135.996L139.902 150.503L141.697 145.914L138.885 145.003L113.692 136.846Z" fill="#E2D4A9"/>
<path d="M91.9461 181.483L85 184.075C97.7239 190.209 106.732 192.821 122.692 194.503L124.452 190.003C110.956 188.008 102.266 185.769 91.9461 181.483Z" fill="#C5C297"/>
<path d="M113.692 136.846L97.1917 131.503M113.692 136.846L138.885 145.003M113.692 136.846C116.615 131.901 123.692 125.503 132.079 129.003C140.905 132.686 140.277 141.543 138.885 145.003M97.1917 131.503L88.0199 158.976M97.1917 131.503L95.6917 135.996M88.0199 158.976L92.5984 170.508M88.0199 158.976L95.6917 135.996M88.0199 158.976L98.6917 157.503C101.025 155.336 106.592 151.403 110.192 153.003C114.692 155.003 120.192 159.503 120.692 163.003M92.5984 170.508L96.3096 179.855L91.9461 181.483M92.5984 170.508C95.7516 168.671 98.315 167.315 98.6917 167.503C99.4917 167.903 104.692 170.883 107.192 172.323M91.9461 181.483L85 184.075C97.7239 190.209 106.732 192.821 122.692 194.503M91.9461 181.483C102.266 185.769 110.956 188.008 124.452 190.003M122.692 194.503L128.497 179.662M122.692 194.503L124.452 190.003M128.497 179.662C123.913 180.395 119.109 180.034 116.192 179.503C113.359 178.988 108.736 176.019 107.192 172.323M128.497 179.662L124.452 190.003M107.192 172.323C106.555 170.799 106.442 169.153 107.192 167.503C109.692 162.003 116.858 162.003 120.692 163.003M120.692 163.003C127.848 166.958 134.688 161.245 138.001 155.363M138.001 155.363L139.902 150.503M138.001 155.363C138.947 153.683 139.606 151.989 139.902 150.503M139.902 150.503L141.697 145.914L138.885 145.003M139.902 150.503L95.6917 135.996" stroke="black" stroke-width="3" stroke-linejoin="round"/>
<path d="M134.692 138.503C134.692 139.055 134.244 139.503 133.692 139.503C133.139 139.503 132.692 139.055 132.692 138.503C132.692 137.951 133.139 137.503 133.692 137.503C134.244 137.503 134.692 137.951 134.692 138.503Z" fill="#865D30" stroke="black"/>
<path d="M128.692 134.503C129.244 134.503 129.692 134.055 129.692 133.503C129.692 132.951 129.244 132.503 128.692 132.503C128.139 132.503 127.692 132.951 127.692 133.503C127.692 134.055 128.139 134.503 128.692 134.503Z" fill="#865D30" stroke="black"/>
<path d="M123.692 134.503C123.692 135.055 123.244 135.503 122.692 135.503C122.139 135.503 121.692 135.055 121.692 134.503C121.692 133.951 122.139 133.503 122.692 133.503C123.244 133.503 123.692 133.951 123.692 134.503Z" fill="#865D30" stroke="black"/>
<path fill-rule="evenodd" clip-rule="evenodd" d="M139.902 150.503C139.606 151.989 138.947 153.683 138.001 155.363C134.688 161.245 127.848 166.958 120.692 163.003C116.858 162.003 109.692 162.003 107.192 167.503C106.442 169.153 106.555 170.799 107.192 172.323C108.736 176.019 113.359 178.988 116.192 179.503C119.109 180.034 123.913 180.395 128.497 179.662C132.553 179.014 136.438 177.508 138.692 174.503C143.492 168.103 141.499 155.836 139.902 150.503Z" fill="#FEFEFC" stroke="black" stroke-width="3" stroke-linejoin="round"/>
</g>
</svg>
