<svg width="133" height="186" viewBox="0 0 133 186" fill="none" xmlns="http://www.w3.org/2000/svg">
<path fill-rule="evenodd" clip-rule="evenodd" d="M40.0718 112.743C38.4028 135.845 38.7471 159.187 41 170C43.5 182 46.5 184 51 184C57.6572 184 58.3649 177.53 59.0382 171.375C59.175 170.124 59.3104 168.886 59.494 167.718C60 164.5 63.2471 161.545 68.5 162.5C72.8902 163.298 73.2096 167.457 73.5471 171.85C73.7093 173.961 73.8756 176.127 74.5 178L74.5259 178.078C75.5167 181.052 76.4991 184 82.5 184C89 184 91.3637 175.963 92 170.5C94.5752 148.388 94.7885 133.451 92.0497 112.571C85.0478 114.198 77.1158 115 68.4038 115C57.9224 115 48.3468 114.441 40.0718 112.743Z" fill="white"/>
<path fill-rule="evenodd" clip-rule="evenodd" d="M123.5 63.0001C123.5 40.5001 92.7967 9.441 61.5 1.50006C58.9048 4.74409 54.9069 8.45976 48.3364 12.9002C31.4413 24.3181 2 45.5001 9.5 63.5001C3.5 66.0001 1.5 75.2238 1.5 81.0002C1.5 90.2463 8.85904 99.0065 17.973 102.196C23.4054 107.614 30.9481 110.871 40.0718 112.743C48.3468 114.441 57.9224 115 68.4038 115C77.1158 115 85.0478 114.198 92.0497 112.571C100.782 110.541 108.067 107.228 113.615 102.587C123.771 99.9923 131 92.5536 131 81.5002C131 76.4331 129.5 67.0001 123.5 63.0001Z" fill="#F8C6C7"/>
<path d="M40.0718 112.743C38.4028 135.845 38.7471 159.187 41 170C43.5 182 46.5 184 51 184C57.6572 184 58.3649 177.53 59.0382 171.375C59.175 170.124 59.3104 168.886 59.494 167.718C60 164.5 63.2471 161.545 68.5 162.5C72.8902 163.298 73.2096 167.457 73.5471 171.85C73.7093 173.961 73.8756 176.127 74.5 178L74.5259 178.078C75.5167 181.052 76.4991 184 82.5 184C89 184 91.3637 175.963 92 170.5C94.5752 148.388 94.7885 133.451 92.0497 112.571M40.0718 112.743C48.3468 114.441 57.9224 115 68.4038 115C77.1158 115 85.0478 114.198 92.0497 112.571M40.0718 112.743C30.9481 110.871 23.4054 107.614 17.973 102.196C8.85904 99.0065 1.5 90.2463 1.5 81.0002C1.5 75.2238 3.5 66.0001 9.5 63.5001M92.0497 112.571C100.782 110.541 108.067 107.228 113.615 102.587C123.771 99.9923 131 92.5536 131 81.5002C131 76.4331 129.5 67.0001 123.5 63.0001M123.5 63.0001C123.5 40.5001 92.7967 9.441 61.5 1.50006C58.9048 4.74409 54.9069 8.45976 48.3364 12.9002C31.4413 24.3181 2 45.5001 9.5 63.5001M123.5 63.0001L119.5 62.0001M9.5 63.5001L13 63.0001" stroke="black" stroke-width="3" stroke-linecap="round" stroke-linejoin="round"/>
<path d="M52.6478 80.571C53.3805 77.7894 53.0449 75.2179 52.2441 73.071C54.0117 74.0981 57.4727 75.2526 62.2467 75.501C64.8065 75.6342 67.7438 75.5069 71 74.9598C74.481 74.3749 78.3265 73.3102 82.4647 71.571C81.6144 73.7471 81.1221 76.3223 81.4798 79.071C80.723 79.8264 79.935 80.4904 79.1228 81.071C77.958 81.9036 76.7435 82.5648 75.5 83.0782C74.0291 83.6856 72.5177 84.0863 71 84.3198C68.0195 84.7784 65.015 84.5924 62.2467 84.0605C58.328 83.3076 54.8824 81.8618 52.6478 80.571Z" fill="#E28C86"/>
<path d="M49 68.071C50.1402 69.1512 51.4316 70.8925 52.2441 73.071M48.5 87.571C50.7808 85.1762 52.0591 82.8058 52.6478 80.571M85.5 66.571C84.4508 67.7251 83.2894 69.4603 82.4647 71.571M86.5 88.571C83.3255 85.3965 81.8774 82.1265 81.4798 79.071M52.2441 73.071C53.0449 75.2179 53.3805 77.7894 52.6478 80.571M52.2441 73.071C54.0117 74.0981 57.4727 75.2526 62.2467 75.501C64.8065 75.6342 67.7438 75.5069 71 74.9598C74.481 74.3749 78.3265 73.3102 82.4647 71.571M82.4647 71.571C81.6144 73.7471 81.1221 76.3223 81.4798 79.071M52.6478 80.571C54.8824 81.8618 58.328 83.3076 62.2467 84.0605C65.015 84.5924 68.0195 84.7784 71 84.3198C72.5177 84.0863 74.0291 83.6856 75.5 83.0782C76.7435 82.5648 77.958 81.9036 79.1228 81.071C79.935 80.4904 80.723 79.8264 81.4798 79.071" stroke="black" stroke-width="2" stroke-linecap="round"/>
<path d="M110.5 69.571C110.5 72.8847 105.575 75.571 99.5 75.571C93.4249 75.571 88.5 72.8847 88.5 69.571C88.5 66.2573 93.4249 63.571 99.5 63.571C105.575 63.571 110.5 66.2573 110.5 69.571Z" fill="#E28C86"/>
<path d="M45.5 69.571C45.5 72.8847 40.5751 75.571 34.5 75.571C28.4249 75.571 23.5 72.8847 23.5 69.571C23.5 66.2573 28.4249 63.571 34.5 63.571C40.5751 63.571 45.5 66.2573 45.5 69.571Z" fill="#E28C86"/>
<path d="M110.5 69.571C110.5 72.8847 105.575 75.571 99.5 75.571C93.4249 75.571 88.5 72.8847 88.5 69.571C88.5 66.2573 93.4249 63.571 99.5 63.571C105.575 63.571 110.5 66.2573 110.5 69.571Z" stroke="#E28C86" stroke-width="2"/>
<path d="M45.5 69.571C45.5 72.8847 40.5751 75.571 34.5 75.571C28.4249 75.571 23.5 72.8847 23.5 69.571C23.5 66.2573 28.4249 63.571 34.5 63.571C40.5751 63.571 45.5 66.2573 45.5 69.571Z" stroke="#E28C86" stroke-width="2"/>
<path d="M42 44.6051C56.4 43.8051 59 57.2718 58.5 64.1051C48.808 59.4386 34.0962 59.5236 26 60.3128C24.8 45.279 36.5 44.9107 42 44.6051Z" fill="#FEFDFE"/>
<path d="M91.0565 44.6392C76.6565 43.8392 74.0565 57.3059 74.5565 64.1392C84.2485 59.4727 98.9604 59.5577 107.057 60.3469C108.257 45.3131 96.5565 44.9448 91.0565 44.6392Z" fill="#FEFDFE"/>
<path d="M23.5 60.6051C24.2353 60.5025 25.0744 60.4031 26 60.3128M26 60.3128C34.0962 59.5236 48.808 59.4386 58.5 64.1051C59 57.2718 56.4 43.8051 42 44.6051C36.5 44.9107 24.8 45.279 26 60.3128ZM109.557 60.6392C108.821 60.5366 107.982 60.4372 107.057 60.3469M107.057 60.3469C98.9604 59.5577 84.2485 59.4727 74.5565 64.1392C74.0565 57.3059 76.6565 43.8392 91.0565 44.6392C96.5565 44.9448 108.257 45.3131 107.057 60.3469Z" stroke="black" stroke-width="2" stroke-linecap="round"/>
<circle cx="75.5" cy="90.571" r="1.5" fill="#B08D63" stroke="black"/>
<path d="M47.9473 53.1725C47.696 54.6226 46.5533 55.7652 45.1035 56.0173C45.2908 55.0782 45.5523 54.4811 45.9551 54.0681C46.3593 53.6535 46.9607 53.3685 47.9473 53.1725ZM90.9473 53.1725C90.696 54.6226 89.5533 55.7652 88.1035 56.0173C88.2908 55.0782 88.5523 54.4811 88.9551 54.0681C89.3593 53.6535 89.9607 53.3685 90.9473 53.1725ZM41.0479 53.1511C41.9846 53.3095 42.5544 53.5848 42.9502 54.0007C43.3541 54.4252 43.629 55.0485 43.8633 56.0114C42.4221 55.7464 41.2896 54.6003 41.0479 53.1511ZM84.0479 53.1511C84.9846 53.3095 85.5544 53.5848 85.9502 54.0007C86.3541 54.4252 86.629 55.0485 86.8633 56.0114C85.4221 55.7464 84.2896 54.6003 84.0479 53.1511ZM45.1348 49.1286C46.5277 49.3838 47.631 50.4637 47.9229 51.8434C47.0544 51.5101 46.4379 51.1232 45.999 50.6706C45.5881 50.2468 45.3109 49.7445 45.1348 49.1286ZM88.1348 49.1286C89.5277 49.3838 90.631 50.4637 90.9229 51.8434C90.0544 51.5101 89.4379 51.1232 88.999 50.6706C88.5881 50.2468 88.3109 49.7444 88.1348 49.1286ZM43.7588 49.1501C43.5247 49.7524 43.288 50.2084 42.9336 50.6022C42.5475 51.0312 41.9942 51.4129 41.085 51.8024C41.3819 50.4774 42.4299 49.4367 43.7588 49.1501ZM86.7588 49.1501C86.5247 49.7524 86.288 50.2084 85.9336 50.6022C85.5475 51.0312 84.9942 51.4129 84.085 51.8024C84.3819 50.4774 85.4299 49.4367 86.7588 49.1501Z" fill="black" stroke="black"/>
<path d="M38 40.571C41.3333 38.4043 49 35.571 53 41.571M94.5 40.1705C91.1667 38.0039 83.5 35.1705 79.5 41.1705" stroke="black" stroke-width="3" stroke-linecap="round"/>
<path d="M18.9923 52.5001C19.1163 54.3858 19.6344 54.9613 21.5015 54.9702C19.7041 55.2133 19.146 55.7616 19.0092 57.5019C18.9083 55.7562 18.2912 55.2761 16.5 55.0318C18.2896 54.9442 18.7936 54.342 18.9923 52.5001Z" fill="white" stroke="white" stroke-linejoin="round"/>
<path d="M113.992 91.5001C114.116 93.3858 114.634 93.9613 116.501 93.9702C114.704 94.2133 114.146 94.7616 114.009 96.5019C113.908 94.7562 113.291 94.2761 111.5 94.0318C113.29 93.9442 113.794 93.342 113.992 91.5001Z" fill="#FFFDFD" stroke="white" stroke-linejoin="round"/>
<path d="M114.072 55.5001C114.507 56.9866 115.029 57.4028 116.545 57.2639C115.13 57.5973 114.775 58.076 114.973 59.4676C114.581 58.0903 113.996 57.7575 112.5 57.7037C113.936 57.4943 114.238 56.9771 114.072 55.5001Z" fill="white" stroke="#F7F2F2" stroke-linejoin="round"/>
<path d="M23.5527 39.5711C24.2904 37.358 26.5527 38.7377 27.0527 39.5711C27.4882 38.4331 29.0279 36.5462 30.5526 38.071C31.5526 39.071 29.7193 42.9044 28.5527 44.5711C26.2193 43.7377 23.0527 41.071 23.5527 39.5711Z" fill="#E28C86" stroke="#E28C86" stroke-linecap="round" stroke-linejoin="round"/>
<path d="M113.788 40.5711C113.05 38.358 110.788 39.7377 110.288 40.5711C109.853 39.4331 108.313 37.5462 106.788 39.071C105.788 40.071 107.621 43.9044 108.788 45.5711C111.121 44.7377 114.288 42.071 113.788 40.5711Z" fill="#E28C86" stroke="#E28C86" stroke-linecap="round" stroke-linejoin="round"/>
<path fill-rule="evenodd" clip-rule="evenodd" d="M19.3339 123.711L20.6979 119.211L19.3339 115.211C16.2366 119.641 13.2334 128.447 15.3699 134.5C18.3699 143 24.8699 145.229 29.6625 145.5C35.8699 145.852 50.4485 145.572 50.8699 137.5C51.3255 128.774 36.545 127.99 29.9968 129.211L27.4968 126.711L23.5964 127.711L19.4968 132.211L19.3339 123.711Z" fill="#FCFEFE"/>
<path d="M39.4968 120.211L29.9968 129.211C36.545 127.99 51.3255 128.774 50.8699 137.5C50.4485 145.572 35.8699 145.852 29.6625 145.5L35 159L67.5 145.5L56.8003 119.865L52.4968 119.865L48.9968 123.211L41.783 119.211L39.4968 120.211Z" fill="#C02927"/>
<path d="M44.0691 118.211L54.3568 113.711L50.0983 102.985L39.5421 107.18L44.0691 118.211Z" fill="#6C3E23"/>
<path d="M48.9968 100.211C41.3968 101.599 39.1635 96.459 38.4968 93.2108L34.4968 94.8865L39.5421 107.18L50.0983 102.985L48.9968 100.211Z" fill="#6C3E23"/>
<path d="M34.4968 94.8865L24.1745 99.2108L29.3146 111.245L39.5421 107.18L34.4968 94.8865Z" fill="#6C3E23"/>
<path d="M32.9968 119.865L39.4968 120.211L41.783 119.211L44.0691 118.211L39.5421 107.18L29.3146 111.245L32.9968 119.865Z" fill="#6C3E23"/>
<path d="M15.165 102.985L19.3339 115.211L29.3146 111.245L24.1745 99.2108L15.165 102.985Z" fill="#6C3E23"/>
<path d="M20.6979 119.211L32.9968 119.865L29.3146 111.245L19.3339 115.211L20.6979 119.211Z" fill="#6C3E23"/>
<path d="M52.4968 119.865L56.8003 119.865L59.4968 119.865L58.9968 117.711L54.3568 113.711L44.0691 118.211L41.783 119.211L48.9968 123.211L52.4968 119.865Z" fill="#BCB8B8"/>
<path d="M20.6979 119.211L19.3339 123.711L19.4968 132.211L23.5964 127.711L27.4968 126.711L29.9968 129.211L39.4968 120.211L32.9968 119.865L20.6979 119.211Z" fill="#BCB8B8"/>
<path d="M20.6979 119.211L19.3339 123.711L19.4968 132.211L23.5964 127.711L27.4968 126.711L29.9968 129.211M20.6979 119.211L32.9968 119.865M20.6979 119.211L19.3339 115.211M29.9968 129.211L39.4968 120.211M29.9968 129.211C36.545 127.99 51.3255 128.774 50.8699 137.5C50.4485 145.572 35.8699 145.852 29.6625 145.5M39.4968 120.211L32.9968 119.865M39.4968 120.211L41.783 119.211M32.9968 119.865L29.3146 111.245M56.8003 119.865L52.4968 119.865L48.9968 123.211L41.783 119.211M56.8003 119.865L59.4968 119.865L58.9968 117.711L54.3568 113.711M56.8003 119.865L67.5 145.5L35 159L29.6625 145.5M54.3568 113.711L44.0691 118.211M54.3568 113.711L50.0983 102.985M44.0691 118.211L41.783 119.211M44.0691 118.211L39.5421 107.18M19.3339 115.211C16.2366 119.641 13.2334 128.447 15.3699 134.5C18.3699 143 24.8699 145.229 29.6625 145.5M19.3339 115.211L15.165 102.985L24.1745 99.2108M19.3339 115.211L29.3146 111.245M50.0983 102.985L48.9968 100.211C41.3968 101.599 39.1635 96.459 38.4968 93.2108L34.4968 94.8865M50.0983 102.985L39.5421 107.18M24.1745 99.2108L34.4968 94.8865M24.1745 99.2108L29.3146 111.245M34.4968 94.8865L39.5421 107.18M39.5421 107.18L29.3146 111.245" stroke="black" stroke-width="3" stroke-linejoin="round"/>
<path d="M85.1917 104.346L110.385 112.503C111.777 109.044 112.405 100.186 103.579 96.5031C95.1917 93.0032 88.1149 99.4006 85.1917 104.346Z" fill="#B48A59"/>
<path d="M59.5199 126.476L64.0984 138.008C67.2516 136.171 69.815 134.815 70.1917 135.003C70.9917 135.403 76.1917 138.383 78.6917 139.823C78.0554 138.3 77.9419 136.653 78.6917 135.003C81.1917 129.503 88.3584 129.503 92.1917 130.503C91.6917 127.003 86.1917 122.503 81.6917 120.503C78.0917 118.903 72.525 122.836 70.1917 125.003L59.5199 126.476Z" fill="#FFE46C"/>
<path fill-rule="evenodd" clip-rule="evenodd" d="M111.402 118.003L109.501 122.863C106.188 128.745 99.3481 134.458 92.1917 130.503C91.6917 127.003 86.1917 122.503 81.6917 120.503C78.0917 118.903 72.525 122.836 70.1917 125.003L59.5199 126.476L67.1917 103.496L111.402 118.003ZM64.0984 138.008L67.8096 147.355L63.4461 148.983C73.7657 153.269 82.4562 155.508 95.9518 157.503L99.9965 147.162C95.4127 147.895 90.6094 147.534 87.6917 147.003C84.8589 146.488 80.2359 143.519 78.6917 139.823C76.1917 138.383 70.9917 135.403 70.1917 135.003C69.815 134.815 67.2516 136.171 64.0984 138.008Z" fill="#EA7920"/>
<path d="M85.1917 104.346L68.6917 99.0031L67.1917 103.496L111.402 118.003L113.197 113.414L110.385 112.503L85.1917 104.346Z" fill="#E2D4A9"/>
<path d="M63.4461 148.983L56.5 151.575C69.2239 157.709 78.2317 160.321 94.1917 162.003L95.9518 157.503C82.4562 155.508 73.7657 153.269 63.4461 148.983Z" fill="#C5C297"/>
<path d="M85.1917 104.346L68.6917 99.0031M85.1917 104.346L110.385 112.503M85.1917 104.346C88.1149 99.4006 95.1917 93.0032 103.579 96.5031C112.405 100.186 111.777 109.044 110.385 112.503M68.6917 99.0031L59.5199 126.476M68.6917 99.0031L67.1917 103.496M59.5199 126.476L64.0984 138.008M59.5199 126.476L67.1917 103.496M59.5199 126.476L70.1917 125.003C72.525 122.836 78.0917 118.903 81.6917 120.503C86.1917 122.503 91.6917 127.003 92.1917 130.503M64.0984 138.008L67.8096 147.355L63.4461 148.983M64.0984 138.008C67.2516 136.171 69.815 134.815 70.1917 135.003C70.9917 135.403 76.1917 138.383 78.6917 139.823M63.4461 148.983L56.5 151.575C69.2239 157.709 78.2317 160.321 94.1917 162.003M63.4461 148.983C73.7657 153.269 82.4562 155.508 95.9518 157.503M94.1917 162.003L99.9965 147.162M94.1917 162.003L95.9518 157.503M99.9965 147.162C95.4127 147.895 90.6094 147.534 87.6917 147.003C84.8589 146.488 80.2359 143.519 78.6917 139.823M99.9965 147.162L95.9518 157.503M78.6917 139.823C78.0554 138.3 77.9419 136.653 78.6917 135.003C81.1917 129.503 88.3584 129.503 92.1917 130.503M92.1917 130.503C99.3481 134.458 106.188 128.745 109.501 122.863M109.501 122.863L111.402 118.003M109.501 122.863C110.447 121.183 111.106 119.489 111.402 118.003M111.402 118.003L113.197 113.414L110.385 112.503M111.402 118.003L67.1917 103.496" stroke="black" stroke-width="3" stroke-linejoin="round"/>
<path d="M106.192 106.003C106.192 106.556 105.744 107.003 105.192 107.003C104.639 107.003 104.192 106.556 104.192 106.003C104.192 105.451 104.639 105.003 105.192 105.003C105.744 105.003 106.192 105.451 106.192 106.003Z" fill="#865D30" stroke="black"/>
<path d="M100.192 102.003C100.744 102.003 101.192 101.556 101.192 101.003C101.192 100.451 100.744 100.003 100.192 100.003C99.6394 100.003 99.1917 100.451 99.1917 101.003C99.1917 101.556 99.6394 102.003 100.192 102.003Z" fill="#865D30" stroke="black"/>
<path d="M95.1917 102.003C95.1917 102.556 94.7439 103.003 94.1917 103.003C93.6394 103.003 93.1917 102.556 93.1917 102.003C93.1917 101.451 93.6394 101.003 94.1917 101.003C94.7439 101.003 95.1917 101.451 95.1917 102.003Z" fill="#865D30" stroke="black"/>
<path fill-rule="evenodd" clip-rule="evenodd" d="M111.402 118.003C111.106 119.489 110.447 121.183 109.501 122.863C106.188 128.745 99.3481 134.458 92.1917 130.503C88.3584 129.503 81.1917 129.503 78.6917 135.003C77.9418 136.653 78.0554 138.3 78.6917 139.823C80.2359 143.519 84.8589 146.488 87.6917 147.003C90.6094 147.534 95.4127 147.895 99.9965 147.162C104.053 146.514 107.938 145.008 110.192 142.003C114.992 135.603 112.999 123.336 111.402 118.003Z" fill="#FEFEFC" stroke="black" stroke-width="3" stroke-linejoin="round"/>
</svg>
