<svg width="96" height="218" viewBox="0 0 96 218" fill="none" xmlns="http://www.w3.org/2000/svg">
<path d="M16.4037 107.119C18.9661 107.755 22.034 108.286 25.4456 108.708C27.1958 108.925 29.0364 109.113 30.9456 109.272C41.5743 110.155 54.3301 110.128 65.4456 109.072C67.5236 108.875 69.5441 108.642 71.4828 108.372C74.3934 107.967 77.1194 107.479 79.5774 106.906C98.9456 84.0001 98.1198 45.9616 87.6198 29.9616C91.1198 23.4615 96.1199 8 80.1199 2.46155C67.1199 -2.03845 61.4532 9.79492 60.1199 16.4616C49.0382 14.4808 42.9034 14.528 32.1199 16.9616C32.1199 8.29492 23.1199 -3.7702 11.6199 2.96161C-4.7801 12.5617 2.1198 24.9616 7.6198 29.9616C-2.88008 50.4616 -1.55439 93.0001 16.4037 107.119Z" fill="#BE8F36"/>
<path d="M76.3284 205C73.9284 205.8 63.6618 205.333 58.8284 205C58.6296 208.187 58.6194 209.964 59.9999 213C61.9999 214.5 76.4999 218.317 79.9999 216C86.1499 211.929 79.5522 206.333 76.3284 205Z" fill="#010604"/>
<path d="M39.8284 205C34.4951 205.833 23.4284 207 21.8284 205C19.3856 207.333 15.5999 212.3 19.9999 215.5C22.306 217.177 35.4999 216.5 39.8284 213C40.0059 210.183 39.9895 208.401 39.8284 205Z" fill="#010604"/>
<path d="M48.8284 171L42.8284 179.5L18.8284 173.929C19.1618 183.452 20.2284 203 21.8284 205C23.4284 207 34.4951 205.833 39.8284 205C40.3284 198.333 42.8284 185.1 48.8284 185.5C54.8284 185.9 57.9951 198.667 58.8284 205C63.6618 205.333 73.9284 205.8 76.3284 205C78.7284 204.2 78.9951 184.081 78.8284 174.121L54.8284 179.5L48.8284 171Z" fill="#253546"/>
<path d="M43.8284 149.611C33.5689 154.211 22.9286 156.482 15.8284 152.088L14.8284 173L18.8284 173.929L42.8284 179.5L48.8284 171L54.8284 179.5L78.8284 174.121L83.8284 173L81.8284 152C70.1111 159.038 52.9252 154.707 43.8284 149.611Z" fill="#253546"/>
<path d="M81.8284 152C85.9904 149.5 88.0708 146.179 89.8284 139.5C93.5968 125.18 88.194 114.514 79.5774 106.906C77.1194 107.479 74.3934 107.967 71.4828 108.372L74.0515 119L66.8284 123C68.4313 124.167 71.6063 127.3 71.4828 130.5C72.7114 131.532 73.6516 132.975 74.0515 135C71.652 138.174 67.4001 137.895 64.8284 137C63.7523 137.818 62.6055 138.655 61.4 139.5C56.2931 143.079 50.1326 146.785 43.8284 149.611C52.9252 154.707 70.1111 159.038 81.8284 152Z" fill="#253546"/>
<path d="M7.82842 137C8.8159 144.801 11.7333 149.553 15.8284 152.088C22.9286 156.482 33.5689 154.211 43.8284 149.611C50.1326 146.785 56.2931 143.079 61.4 139.5C59.306 134.923 57.4564 132.288 53.3284 127.5C51.1108 126.089 47.0219 127.074 42.8284 128.868C42.162 129.153 41.493 129.458 40.8284 129.778C39.983 130.184 39.1448 130.613 38.3284 131.052C35.8123 132.405 33.5032 133.849 31.8284 135C30.9951 136.833 27.6284 140 20.8284 138C14.0284 136 18.9951 129.167 22.3284 126L29.3284 123L22.3284 119.5L25.4456 108.708C22.034 108.286 18.9661 107.755 16.4037 107.119C10.135 114.08 6.15618 123.789 7.82842 137Z" fill="#253546"/>
<path d="M25.4456 108.708L22.3284 119.5L29.3284 123L22.3284 126C25.8284 125.535 33.9284 125.894 38.3284 131.052C39.1448 130.613 39.983 130.184 40.8284 129.778L37.1441 122.5L30.9456 109.272C29.0364 109.113 27.1958 108.925 25.4456 108.708Z" fill="#253546"/>
<path d="M58.8284 127.5L58.849 127.519C59.125 127.749 60.0571 127.782 61.3361 127.827C64.1373 127.925 68.6024 128.082 71.4828 130.5C71.6063 127.3 68.4313 124.167 66.8284 123L74.0515 119L71.4828 108.372C69.5441 108.642 67.5236 108.875 65.4456 109.072L59.4485 123.5L57.8284 127.114C58.2709 127.177 58.6263 127.298 58.8284 127.5Z" fill="#253546"/>
<path d="M47.3284 112L40.8284 118.702L44.8284 123.5H51.3284L54.7059 119L47.3284 112Z" fill="#5A302F"/>
<path d="M42.8284 128.868C47.0219 127.074 51.1108 126.089 53.3284 127.5L51.3284 123.5H44.8284L42.8284 128.868Z" fill="#5A302F"/>
<path d="M64.8284 137C67.4001 137.895 71.652 138.174 74.0515 135C73.6516 132.975 72.7114 131.532 71.4828 130.5C68.6024 128.082 64.1373 127.925 61.3361 127.827C60.0571 127.782 59.125 127.749 58.849 127.519C62.2857 130.657 63.7173 132.676 64.8284 137Z" fill="#BE8F36"/>
<path fill-rule="evenodd" clip-rule="evenodd" d="M37.1441 122.5L30.9456 109.272C41.5743 110.155 54.3301 110.128 65.4456 109.072L59.4485 123.5L57.8284 127.114C58.2709 127.177 58.6263 127.298 58.8284 127.5L58.849 127.519C62.2857 130.657 63.7173 132.676 64.8284 137C63.7523 137.818 62.6055 138.655 61.4 139.5C59.306 134.923 57.4564 132.288 53.3284 127.5L51.3284 123.5L54.7059 119L47.3284 112L40.8284 118.702L44.8284 123.5L42.8284 128.868C42.162 129.153 41.493 129.458 40.8284 129.778L37.1441 122.5Z" fill="#D9D9D9"/>
<path d="M22.3284 126C18.9951 129.167 14.0284 136 20.8284 138C27.6284 140 30.9951 136.833 31.8284 135C33.5032 133.849 35.8123 132.405 38.3284 131.052C33.9284 125.894 25.8284 125.535 22.3284 126Z" fill="#BE8F36"/>
<path d="M7.6198 29.9616C12.0404 34.0045 25.6198 28.5753 25.6198 21.9616C25.6198 17.9615 21.5198 11.6616 23.1198 10.4616M7.6198 29.9616C-2.88008 50.4616 -1.55439 93.0001 16.4037 107.119M7.6198 29.9616C2.1198 24.9616 -4.7801 12.5617 11.6199 2.96161C23.1199 -3.7702 32.1199 8.29492 32.1199 16.9616C42.9034 14.528 49.0382 14.4808 60.1199 16.4616C61.4532 9.79492 67.1199 -2.03845 80.1199 2.46155C96.1199 8 91.1198 23.4615 87.6198 29.9616M87.6198 29.9616C84.4423 32.8401 69.2509 32.4182 68.6199 24.4616C68.2901 20.3046 68.6199 12.2617 70.6199 11.4616M87.6198 29.9616C98.1198 45.9616 98.9456 84.0001 79.5774 106.906M15.8284 152.088C11.7333 149.553 8.8159 144.801 7.82842 137C6.15618 123.789 10.135 114.08 16.4037 107.119M15.8284 152.088C22.9286 156.482 33.5689 154.211 43.8284 149.611M15.8284 152.088L14.8284 173L18.8284 173.929M43.8284 149.611C52.9252 154.707 70.1111 159.038 81.8284 152M43.8284 149.611C50.1326 146.785 56.2931 143.079 61.4 139.5M81.8284 152C85.9904 149.5 88.0708 146.179 89.8284 139.5C93.5968 125.18 88.194 114.514 79.5774 106.906M81.8284 152L83.8284 173L78.8284 174.121M18.8284 173.929L42.8284 179.5L48.8284 171L54.8284 179.5L78.8284 174.121M18.8284 173.929C19.1618 183.452 20.2284 203 21.8284 205M21.8284 205C23.4284 207 34.4951 205.833 39.8284 205M21.8284 205C19.3856 207.333 15.5999 212.3 19.9999 215.5C22.306 217.177 35.4999 216.5 39.8284 213C40.0059 210.183 39.9895 208.401 39.8284 205M39.8284 205C40.3284 198.333 42.8284 185.1 48.8284 185.5C54.8284 185.9 57.9951 198.667 58.8284 205M58.8284 205C63.6618 205.333 73.9284 205.8 76.3284 205M58.8284 205C58.6296 208.187 58.6194 209.964 59.9999 213C61.9999 214.5 76.4999 218.317 79.9999 216C86.1499 211.929 79.5522 206.333 76.3284 205M76.3284 205C78.7284 204.2 78.9951 184.081 78.8284 174.121M25.4456 108.708L22.3284 119.5L29.3284 123L22.3284 126M25.4456 108.708C22.034 108.286 18.9661 107.755 16.4037 107.119M25.4456 108.708C27.1958 108.925 29.0364 109.113 30.9456 109.272M22.3284 126C18.9951 129.167 14.0284 136 20.8284 138C27.6284 140 30.9951 136.833 31.8284 135C33.5032 133.849 35.8123 132.405 38.3284 131.052M22.3284 126C25.8284 125.535 33.9284 125.894 38.3284 131.052M64.8284 137C67.4001 137.895 71.652 138.174 74.0515 135M64.8284 137C63.7173 132.676 62.2857 130.657 58.849 127.519M64.8284 137C63.7523 137.818 62.6055 138.655 61.4 139.5M74.0515 135C75.2287 133.443 75.9601 131.055 75.8284 127.5M74.0515 135C73.6516 132.975 72.7114 131.532 71.4828 130.5M58.849 127.519C58.8422 127.513 58.8353 127.506 58.8284 127.5M58.849 127.519L58.8284 127.5M58.849 127.519C59.125 127.749 60.0571 127.782 61.3361 127.827C64.1373 127.925 68.6024 128.082 71.4828 130.5M58.8284 127.5C58.6263 127.298 58.2709 127.177 57.8284 127.114M61.4 139.5C59.306 134.923 57.4564 132.288 53.3284 127.5M53.3284 127.5C54.4494 127.251 56.5198 126.927 57.8284 127.114M53.3284 127.5C51.1108 126.089 47.0219 127.074 42.8284 128.868M53.3284 127.5L51.3284 123.5M38.3284 131.052C39.1448 130.613 39.983 130.184 40.8284 129.778M71.4828 108.372L74.0515 119L66.8284 123C68.4313 124.167 71.6063 127.3 71.4828 130.5M71.4828 108.372C74.3934 107.967 77.1194 107.479 79.5774 106.906M71.4828 108.372C69.5441 108.642 67.5236 108.875 65.4456 109.072M40.8284 129.778L37.1441 122.5M40.8284 129.778C41.493 129.458 42.162 129.153 42.8284 128.868M57.8284 127.114L59.4485 123.5M30.9456 109.272L37.1441 122.5M30.9456 109.272C41.5743 110.155 54.3301 110.128 65.4456 109.072M37.1441 122.5L40.8284 118.702M65.4456 109.072L59.4485 123.5M59.4485 123.5L54.7059 119M40.8284 118.702L47.3284 112L54.7059 119M40.8284 118.702L44.8284 123.5M44.8284 123.5L42.8284 128.868M44.8284 123.5H51.3284M54.7059 119L51.3284 123.5" stroke="black" stroke-width="2" stroke-linecap="round" stroke-linejoin="round"/>
<path d="M49.9999 156.5C49.9999 157.328 49.3283 158 48.4999 158C47.6715 158 46.9999 157.328 46.9999 156.5C46.9999 155.672 47.6715 155 48.4999 155C49.3283 155 49.9999 155.672 49.9999 156.5Z" fill="black"/>
<path d="M49.9999 164.5C49.9999 165.328 49.3283 166 48.4999 166C47.6715 166 46.9999 165.328 46.9999 164.5C46.9999 163.672 47.6715 163 48.4999 163C49.3283 163 49.9999 163.672 49.9999 164.5Z" fill="black"/>
<path d="M49.9999 156.5C49.9999 157.328 49.3283 158 48.4999 158C47.6715 158 46.9999 157.328 46.9999 156.5C46.9999 155.672 47.6715 155 48.4999 155C49.3283 155 49.9999 155.672 49.9999 156.5Z" stroke="black"/>
<path d="M49.9999 164.5C49.9999 165.328 49.3283 166 48.4999 166C47.6715 166 46.9999 165.328 46.9999 164.5C46.9999 163.672 47.6715 163 48.4999 163C49.3283 163 49.9999 163.672 49.9999 164.5Z" stroke="black"/>
<path d="M84.9999 55.5001C84.9999 59.3661 79.6126 60.5001 70.4999 60.5001C61.3872 60.5001 55.6551 59.3661 55.6551 55.5001C55.6551 51.6341 61.3872 49.5001 70.4999 49.5001C79.6126 49.5001 84.9999 51.6341 84.9999 55.5001Z" fill="#D9D9D9"/>
<path d="M39.9554 55.5001C39.9554 59.3661 34.1126 60.5001 24.9999 60.5001C15.8872 60.5001 9.99988 59.3661 9.99988 55.5001C9.99988 51.6341 15.8872 49.5001 24.9999 49.5001C34.1126 49.5001 39.9554 51.6341 39.9554 55.5001Z" fill="#D9D9D9"/>
<path d="M84.9999 55.5001C84.9999 59.3661 79.6126 60.5001 70.4999 60.5001C61.3872 60.5001 55.6551 59.3661 55.6551 55.5001C55.6551 51.6341 61.3872 49.5001 70.4999 49.5001C79.6126 49.5001 84.9999 51.6341 84.9999 55.5001Z" stroke="black" stroke-width="2"/>
<path d="M39.9554 55.5001C39.9554 59.3661 34.1126 60.5001 24.9999 60.5001C15.8872 60.5001 9.99988 59.3661 9.99988 55.5001C9.99988 51.6341 15.8872 49.5001 24.9999 49.5001C34.1126 49.5001 39.9554 51.6341 39.9554 55.5001Z" stroke="black" stroke-width="2"/>
<path d="M69.9999 54.5152C69.9999 56.1637 68.6002 57.5001 66.8737 57.5001C65.1471 57.5001 63.7474 56.1637 63.7474 54.5152C63.7474 52.8667 65.1471 51.5303 66.8737 51.5303C68.6002 51.5303 69.9999 52.8667 69.9999 54.5152Z" fill="black"/>
<path d="M30.2523 54.4849C30.2523 56.1334 28.8527 57.4698 27.1261 57.4698C25.3995 57.4698 23.9999 56.1334 23.9999 54.4849C23.9999 52.8364 25.3995 51.5001 27.1261 51.5001C28.8527 51.5001 30.2523 52.8364 30.2523 54.4849Z" fill="black"/>
<path d="M69.9999 54.5152C69.9999 56.1637 68.6002 57.5001 66.8737 57.5001C65.1471 57.5001 63.7474 56.1637 63.7474 54.5152C63.7474 52.8667 65.1471 51.5303 66.8737 51.5303C68.6002 51.5303 69.9999 52.8667 69.9999 54.5152Z" stroke="black"/>
<path d="M30.2523 54.4849C30.2523 56.1334 28.8527 57.4698 27.1261 57.4698C25.3995 57.4698 23.9999 56.1334 23.9999 54.4849C23.9999 52.8364 25.3995 51.5001 27.1261 51.5001C28.8527 51.5001 30.2523 52.8364 30.2523 54.4849Z" stroke="black"/>
<path d="M57.4999 43.5001L58.9999 44.5001L72.4999 37.0001M23.4999 37.0001L37.4999 44.5001L39.4999 43.0001" stroke="black" stroke-width="2" stroke-linecap="round" stroke-linejoin="round"/>
<path d="M34.9999 84.5C35.4999 83 36.9999 81.5 38.4999 81.5001C40.4999 81.5001 42.4999 86.5001 45.9999 83.0001C48.1354 80.8646 50.4999 83.0001 52.9999 84.0001C54.608 84.6433 56.9999 79.0001 61.9999 84.5001" stroke="black" stroke-width="3" stroke-linecap="round" stroke-linejoin="round"/>
<path d="M52.4999 38.0001V54.0001M48.4999 35.0001V55.0001M43.9999 37.5001L44.4999 54.5001" stroke="black" stroke-width="2" stroke-linecap="round" stroke-linejoin="round"/>
<path d="M55.9999 67.5001C55.9999 70.2615 52.1943 72.5001 47.4999 72.5001C42.8055 72.5001 38.9999 70.2615 38.9999 67.5001C38.9999 64.7386 42.8055 62.5001 47.4999 62.5001C52.1943 62.5001 55.9999 64.7386 55.9999 67.5001Z" fill="black" stroke="black" stroke-width="2"/>
<path d="M55.4731 51.3284C55.4686 49.1607 55.5909 47.1075 55.7575 45.5001H86.4601C89.969 54.3074 86.669 62.1217 84.5804 64.9279C78.5234 65.3597 65.1563 65.9641 60.1436 64.9279C56.464 64.1674 55.4855 57.3118 55.4731 51.3284ZM55.4731 51.3284H40.4825M40.4825 51.3284C39.7572 59.7635 37.5441 63.8555 36.3335 64.9279C30.2765 64.9279 17.0347 64.9279 12.5233 64.9279C8.01193 64.9279 7.71953 51.976 8.13725 45.5001H40.7196C40.7196 47.638 40.6331 49.5769 40.4825 51.3284Z" stroke="black" stroke-width="2" stroke-linecap="round" stroke-linejoin="round"/>
<path d="M23.4745 93.6553C23.5424 93.728 23.6211 93.8235 23.7089 93.9444C23.8648 94.1594 24.0325 94.4303 24.201 94.7413C24.5381 95.3633 24.8663 96.1196 25.1093 96.8536C25.3552 97.5967 25.4999 98.2765 25.4999 98.7569C25.4999 99.7743 25.197 100.444 24.7714 100.86C24.3423 101.28 23.7292 101.5 22.9999 101.5C22.2705 101.5 21.6575 101.28 21.2284 100.86C20.8027 100.444 20.4999 99.7743 20.4999 98.7569C20.4999 97.8499 21.0209 97.1823 21.7303 96.3975C22.3825 95.6761 23.2328 94.825 23.4745 93.6553ZM76.4745 88.6553C76.5424 88.728 76.6211 88.8235 76.7089 88.9444C76.8648 89.1594 77.0325 89.4303 77.201 89.7413C77.5381 90.3633 77.8663 91.1196 78.1093 91.8536C78.3552 92.5967 78.4999 93.2765 78.4999 93.7569C78.4999 94.7743 78.197 95.4441 77.7714 95.8604C77.3423 96.28 76.7292 96.5001 75.9999 96.5001C75.2705 96.5001 74.6575 96.28 74.2284 95.8604C73.8027 95.4441 73.4999 94.7743 73.4999 93.7569C73.4999 92.8499 74.0209 92.1823 74.7303 91.3975C75.3825 90.6761 76.2328 89.825 76.4745 88.6553ZM13.4745 73.6553C13.5424 73.728 13.6211 73.8235 13.7089 73.9444C13.8648 74.1594 14.0325 74.4303 14.201 74.7413C14.5381 75.3633 14.8663 76.1196 15.1093 76.8536C15.3552 77.5967 15.4999 78.2765 15.4999 78.7569C15.4999 79.7743 15.197 80.4441 14.7714 80.8604C14.3423 81.28 13.7292 81.5001 12.9999 81.5001C12.2705 81.5001 11.6575 81.28 11.2284 80.8604C10.8027 80.4441 10.4999 79.7743 10.4999 78.7569C10.4999 77.8499 11.0209 77.1823 11.7303 76.3975C12.3825 75.6761 13.2328 74.825 13.4745 73.6553ZM85.4745 70.6553C85.5424 70.728 85.6211 70.8235 85.7089 70.9444C85.8648 71.1594 86.0325 71.4303 86.201 71.7413C86.5381 72.3633 86.8663 73.1196 87.1093 73.8536C87.3552 74.5967 87.4999 75.2765 87.4999 75.7569C87.4999 76.7743 87.197 77.4441 86.7714 77.8604C86.3423 78.28 85.7292 78.5001 84.9999 78.5001C84.2705 78.5001 83.6575 78.28 83.2284 77.8604C82.8027 77.4441 82.4999 76.7743 82.4999 75.7569C82.4999 74.8499 83.0209 74.1823 83.7303 73.3975C84.3825 72.6761 85.2328 71.825 85.4745 70.6553ZM62.4745 23.6553C62.5424 23.728 62.6211 23.8235 62.7089 23.9444C62.8648 24.1594 63.0325 24.4303 63.201 24.7413C63.5381 25.3633 63.8663 26.1196 64.1093 26.8536C64.3552 27.5967 64.4999 28.2765 64.4999 28.7569C64.4999 29.7743 64.197 30.4441 63.7714 30.8604C63.3423 31.28 62.7292 31.5001 61.9999 31.5001C61.2705 31.5001 60.6575 31.28 60.2284 30.8604C59.8027 30.4441 59.4999 29.7743 59.4999 28.7569C59.4999 27.8499 60.0209 27.1823 60.7303 26.3975C61.3825 25.6761 62.2328 24.825 62.4745 23.6553ZM34.4745 19.6553C34.5424 19.728 34.6211 19.8235 34.7089 19.9444C34.8648 20.1594 35.0325 20.4303 35.201 20.7413C35.5381 21.3633 35.8663 22.1196 36.1093 22.8536C36.3552 23.5967 36.4999 24.2765 36.4999 24.7569C36.4999 25.7743 36.197 26.4441 35.7714 26.8604C35.3423 27.28 34.7292 27.5001 33.9999 27.5001C33.2705 27.5001 32.6575 27.28 32.2284 26.8604C31.8027 26.4441 31.4999 25.7743 31.4999 24.7569C31.4999 23.8499 32.0209 23.1823 32.7303 22.3975C33.3825 21.6761 34.2328 20.825 34.4745 19.6553Z" fill="#BFD9EE"/>
<path d="M23.4745 93.6553C23.5424 93.728 23.6211 93.8235 23.7089 93.9444C23.8648 94.1594 24.0325 94.4303 24.201 94.7413C24.5381 95.3633 24.8663 96.1196 25.1093 96.8536C25.3552 97.5967 25.4999 98.2765 25.4999 98.7569C25.4999 99.7743 25.197 100.444 24.7714 100.86C24.3423 101.28 23.7292 101.5 22.9999 101.5C22.2705 101.5 21.6575 101.28 21.2284 100.86C20.8027 100.444 20.4999 99.7743 20.4999 98.7569C20.4999 97.8499 21.0209 97.1823 21.7303 96.3975C22.3825 95.6761 23.2328 94.825 23.4745 93.6553ZM76.4745 88.6553C76.5424 88.728 76.6211 88.8235 76.7089 88.9444C76.8648 89.1594 77.0325 89.4303 77.201 89.7413C77.5381 90.3633 77.8663 91.1196 78.1093 91.8536C78.3552 92.5967 78.4999 93.2765 78.4999 93.7569C78.4999 94.7743 78.197 95.4441 77.7714 95.8604C77.3423 96.28 76.7292 96.5001 75.9999 96.5001C75.2705 96.5001 74.6575 96.28 74.2284 95.8604C73.8027 95.4441 73.4999 94.7743 73.4999 93.7569C73.4999 92.8499 74.0209 92.1823 74.7303 91.3975C75.3825 90.6761 76.2328 89.825 76.4745 88.6553ZM13.4745 73.6553C13.5424 73.728 13.6211 73.8235 13.7089 73.9444C13.8648 74.1594 14.0325 74.4303 14.201 74.7413C14.5381 75.3633 14.8663 76.1196 15.1093 76.8536C15.3552 77.5967 15.4999 78.2765 15.4999 78.7569C15.4999 79.7743 15.197 80.4441 14.7714 80.8604C14.3423 81.28 13.7292 81.5001 12.9999 81.5001C12.2705 81.5001 11.6575 81.28 11.2284 80.8604C10.8027 80.4441 10.4999 79.7743 10.4999 78.7569C10.4999 77.8499 11.0209 77.1823 11.7303 76.3975C12.3825 75.6761 13.2328 74.825 13.4745 73.6553ZM85.4745 70.6553C85.5424 70.728 85.6211 70.8235 85.7089 70.9444C85.8648 71.1594 86.0325 71.4303 86.201 71.7413C86.5381 72.3633 86.8663 73.1196 87.1093 73.8536C87.3552 74.5967 87.4999 75.2765 87.4999 75.7569C87.4999 76.7743 87.197 77.4441 86.7714 77.8604C86.3423 78.28 85.7292 78.5001 84.9999 78.5001C84.2705 78.5001 83.6575 78.28 83.2284 77.8604C82.8027 77.4441 82.4999 76.7743 82.4999 75.7569C82.4999 74.8499 83.0209 74.1823 83.7303 73.3975C84.3825 72.6761 85.2328 71.825 85.4745 70.6553ZM62.4745 23.6553C62.5424 23.728 62.6211 23.8235 62.7089 23.9444C62.8648 24.1594 63.0325 24.4303 63.201 24.7413C63.5381 25.3633 63.8663 26.1196 64.1093 26.8536C64.3552 27.5967 64.4999 28.2765 64.4999 28.7569C64.4999 29.7743 64.197 30.4441 63.7714 30.8604C63.3423 31.28 62.7292 31.5001 61.9999 31.5001C61.2705 31.5001 60.6575 31.28 60.2284 30.8604C59.8027 30.4441 59.4999 29.7743 59.4999 28.7569C59.4999 27.8499 60.0209 27.1823 60.7303 26.3975C61.3825 25.6761 62.2328 24.825 62.4745 23.6553ZM34.4745 19.6553C34.5424 19.728 34.6211 19.8235 34.7089 19.9444C34.8648 20.1594 35.0325 20.4303 35.201 20.7413C35.5381 21.3633 35.8663 22.1196 36.1093 22.8536C36.3552 23.5967 36.4999 24.2765 36.4999 24.7569C36.4999 25.7743 36.197 26.4441 35.7714 26.8604C35.3423 27.28 34.7292 27.5001 33.9999 27.5001C33.2705 27.5001 32.6575 27.28 32.2284 26.8604C31.8027 26.4441 31.4999 25.7743 31.4999 24.7569C31.4999 23.8499 32.0209 23.1823 32.7303 22.3975C33.3825 21.6761 34.2328 20.825 34.4745 19.6553Z" stroke="#A5C3DB"/>
<path d="M23.4745 93.6553C23.5424 93.728 23.6211 93.8235 23.7089 93.9444C23.8648 94.1594 24.0325 94.4303 24.201 94.7413C24.5381 95.3633 24.8663 96.1196 25.1093 96.8536C25.3552 97.5967 25.4999 98.2765 25.4999 98.7569C25.4999 99.7743 25.197 100.444 24.7714 100.86C24.3423 101.28 23.7292 101.5 22.9999 101.5C22.2705 101.5 21.6575 101.28 21.2284 100.86C20.8027 100.444 20.4999 99.7743 20.4999 98.7569C20.4999 97.8499 21.0209 97.1823 21.7303 96.3975C22.3825 95.6761 23.2328 94.825 23.4745 93.6553ZM76.4745 88.6553C76.5424 88.728 76.6211 88.8235 76.7089 88.9444C76.8648 89.1594 77.0325 89.4303 77.201 89.7413C77.5381 90.3633 77.8663 91.1196 78.1093 91.8536C78.3552 92.5967 78.4999 93.2765 78.4999 93.7569C78.4999 94.7743 78.197 95.4441 77.7714 95.8604C77.3423 96.28 76.7292 96.5001 75.9999 96.5001C75.2705 96.5001 74.6575 96.28 74.2284 95.8604C73.8027 95.4441 73.4999 94.7743 73.4999 93.7569C73.4999 92.8499 74.0209 92.1823 74.7303 91.3975C75.3825 90.6761 76.2328 89.825 76.4745 88.6553ZM13.4745 73.6553C13.5424 73.728 13.6211 73.8235 13.7089 73.9444C13.8648 74.1594 14.0325 74.4303 14.201 74.7413C14.5381 75.3633 14.8663 76.1196 15.1093 76.8536C15.3552 77.5967 15.4999 78.2765 15.4999 78.7569C15.4999 79.7743 15.197 80.4441 14.7714 80.8604C14.3423 81.28 13.7292 81.5001 12.9999 81.5001C12.2705 81.5001 11.6575 81.28 11.2284 80.8604C10.8027 80.4441 10.4999 79.7743 10.4999 78.7569C10.4999 77.8499 11.0209 77.1823 11.7303 76.3975C12.3825 75.6761 13.2328 74.825 13.4745 73.6553ZM85.4745 70.6553C85.5424 70.728 85.6211 70.8235 85.7089 70.9444C85.8648 71.1594 86.0325 71.4303 86.201 71.7413C86.5381 72.3633 86.8663 73.1196 87.1093 73.8536C87.3552 74.5967 87.4999 75.2765 87.4999 75.7569C87.4999 76.7743 87.197 77.4441 86.7714 77.8604C86.3423 78.28 85.7292 78.5001 84.9999 78.5001C84.2705 78.5001 83.6575 78.28 83.2284 77.8604C82.8027 77.4441 82.4999 76.7743 82.4999 75.7569C82.4999 74.8499 83.0209 74.1823 83.7303 73.3975C84.3825 72.6761 85.2328 71.825 85.4745 70.6553ZM62.4745 23.6553C62.5424 23.728 62.6211 23.8235 62.7089 23.9444C62.8648 24.1594 63.0325 24.4303 63.201 24.7413C63.5381 25.3633 63.8663 26.1196 64.1093 26.8536C64.3552 27.5967 64.4999 28.2765 64.4999 28.7569C64.4999 29.7743 64.197 30.4441 63.7714 30.8604C63.3423 31.28 62.7292 31.5001 61.9999 31.5001C61.2705 31.5001 60.6575 31.28 60.2284 30.8604C59.8027 30.4441 59.4999 29.7743 59.4999 28.7569C59.4999 27.8499 60.0209 27.1823 60.7303 26.3975C61.3825 25.6761 62.2328 24.825 62.4745 23.6553ZM34.4745 19.6553C34.5424 19.728 34.6211 19.8235 34.7089 19.9444C34.8648 20.1594 35.0325 20.4303 35.201 20.7413C35.5381 21.3633 35.8663 22.1196 36.1093 22.8536C36.3552 23.5967 36.4999 24.2765 36.4999 24.7569C36.4999 25.7743 36.197 26.4441 35.7714 26.8604C35.3423 27.28 34.7292 27.5001 33.9999 27.5001C33.2705 27.5001 32.6575 27.28 32.2284 26.8604C31.8027 26.4441 31.4999 25.7743 31.4999 24.7569C31.4999 23.8499 32.0209 23.1823 32.7303 22.3975C33.3825 21.6761 34.2328 20.825 34.4745 19.6553Z" stroke="#A5C3DB"/>
</svg>
