<svg width="157" height="189" viewBox="0 0 157 189" fill="none" xmlns="http://www.w3.org/2000/svg">
<mask id="mask0_118_446" style="mask-type:alpha" maskUnits="userSpaceOnUse" x="0" y="0" width="157" height="189">
<rect width="157" height="189" fill="#D9D9D9"/>
</mask>
<g mask="url(#mask0_118_446)">
<path fill-rule="evenodd" clip-rule="evenodd" d="M128.394 142.086C129.393 142.547 130.735 141.799 131.392 140.414C132.048 139.029 131.771 137.533 130.772 137.071C129.774 136.61 128.432 137.358 127.775 138.743C127.118 140.128 127.395 141.625 128.394 142.086Z" fill="#3F3F3D"/>
<path fill-rule="evenodd" clip-rule="evenodd" d="M148.587 114.252C147.058 113.427 145.14 113.981 144.303 115.491L135.236 131.861C135.172 131.977 135.116 132.095 135.069 132.215L140.641 135.072C140.689 135.001 140.734 134.927 140.776 134.85L149.843 118.48C150.679 116.97 150.117 115.077 148.587 114.252Z" fill="#3F3F3D"/>
<path fill-rule="evenodd" clip-rule="evenodd" d="M126.897 171.763C126.951 172.236 127.017 172.777 127.097 173.362C127.751 173.251 128.369 172.961 128.872 172.517C128.144 172.308 127.476 172.046 126.897 171.763ZM126.897 171.763L126.816 171.664C126.949 171.662 126.955 171.706 126.897 171.763ZM128.394 142.086C129.393 142.547 130.735 141.799 131.392 140.414C132.048 139.029 131.771 137.533 130.772 137.071C129.774 136.61 128.432 137.358 127.775 138.743C127.118 140.128 127.395 141.625 128.394 142.086Z" fill="#3F3F3D"/>
<path fill-rule="evenodd" clip-rule="evenodd" d="M82.9212 238.786C73.9257 240.523 68.8691 240.584 60.4616 238.714C57.0648 240.751 54.9389 243.662 54.9389 246.894C54.9389 253.053 60.8762 255.698 70.401 255.698C79.9259 255.698 84.0791 250.118 84.0791 243.959C84.0791 241.73 83.7687 240.038 82.9212 238.786Z" fill="#010102"/>
<path fill-rule="evenodd" clip-rule="evenodd" d="M95.3258 238.817C94.4941 240.066 94.1889 241.748 94.1889 243.959C94.1889 250.118 98.3421 255.698 107.867 255.698C117.392 255.698 123.329 253.053 123.329 246.894C123.329 243.721 121.28 240.857 117.991 238.826C109.155 241.082 104.002 241.049 95.3258 238.817Z" fill="#010102"/>
<path fill-rule="evenodd" clip-rule="evenodd" d="M49.5213 201.326L49.2098 214.836C46.6317 216.598 42.7047 218.388 39.3041 218.035C43.1932 214.599 45.8183 210.664 43.2628 207.196C40.9435 204.048 36.7472 205.103 32.563 207.398C32.594 204.188 32.7772 200.529 33.157 196.63C36.9662 200.857 45.6537 201.522 49.5213 201.326Z" fill="#E69D26"/>
<path fill-rule="evenodd" clip-rule="evenodd" d="M59.8159 141.24C59.6529 141.32 59.4941 141.414 59.3409 141.521L49.5213 148.412C47.9556 149.511 47.5586 151.628 48.5974 153.202C48.6242 153.243 48.652 153.283 48.6807 153.323L49.3264 154.219C50.4683 155.804 52.6959 156.176 54.302 155.049L64.1217 148.158C64.7249 147.735 65.1546 147.16 65.3956 146.524C65.5119 146.217 65.5842 145.896 65.6109 145.57C65.6115 145.563 65.612 145.556 65.6126 145.549C65.6504 145.051 65.5814 144.542 65.3994 144.06C64.8549 143.821 64.3156 143.575 63.7815 143.32C62.4245 142.675 61.1018 141.98 59.8159 141.24Z" fill="#1E2937"/>
<path fill-rule="evenodd" clip-rule="evenodd" d="M86.4509 148.999L81.2431 154.384C81.3856 155.052 81.7259 155.687 82.2624 156.195L84.945 158.739L80.8788 191.348L89.2045 199.565L98.125 191.348L93.5993 159.087L96.2649 156.349C96.7086 155.894 97.0033 155.35 97.1503 154.779L101.098 159.065L110.714 146.524H107.441C103.09 147.839 98.4696 148.68 93.6353 148.972C93.0522 149.007 92.466 149.034 91.8767 149.053C91.1883 149.076 90.4958 149.087 89.7992 149.087C88.6733 149.087 87.5569 149.057 86.4509 148.999ZM103.327 167.87H114.814L117.005 168.993V170.804H114.626V172.565H117.005V177.848C115.555 181.052 114.042 182.125 110.464 183.13C106.676 182.29 105.148 181.093 103.327 177.848V172.565H105.706V170.804H103.327V167.87ZM128.872 172.517C128.369 172.961 127.751 173.251 127.097 173.362C127.017 172.777 126.951 172.236 126.897 171.763C127.476 172.046 128.144 172.308 128.872 172.517ZM122.671 196.043C122.846 195.851 123.041 195.678 123.254 195.527L123.221 196.043H122.671ZM97.9749 202.781V201.913H95.501V202.902C92.3686 203.03 89.3018 203.055 86.2237 202.978V202.537H82.5128V202.836V212.478C79.2414 212.873 77.1144 212.661 73.7476 211.704C73.3209 211.583 72.8743 211.45 72.4029 211.304L72.4029 211.579C72.2052 211.56 72.007 211.541 71.8082 211.522V204.261V201.915V200.739C71.8082 198.794 70.2107 197.217 68.2401 197.217H59.9143C59.0004 197.217 58.1668 197.556 57.5355 198.114C57.0847 198.512 56.7371 199.022 56.5371 199.599L56.3461 199.565V200.739V202.773V204.261V214.482V214.836H56.5338L57.0479 218.098L57.5355 221.192L60.2912 238.676L60.4616 238.714C68.8691 240.584 73.9257 240.523 82.9212 238.786C83.1072 238.75 83.2949 238.714 83.4844 238.676L84.6738 223.415L89.4314 222.828L94.1889 223.415L94.7836 238.676C94.9659 238.724 95.1466 238.771 95.3258 238.817C104.002 241.049 109.155 241.082 117.991 238.826C118.182 238.778 118.376 238.727 118.572 238.676C119.649 230.998 120.533 224.129 121.254 217.761C111.109 217.759 108.168 217.66 108.086 211.57C108.085 211.483 108.085 211.394 108.085 211.304C107.469 211.467 106.895 211.608 106.343 211.73C103.923 212.266 101.915 212.439 98.5696 212.478C94.8432 214.239 93.6211 214.239 89.3437 214.239C86.108 214.239 83.2802 214.239 82.5311 212.522C88.558 214.01 91.943 214.049 97.9749 212.517V202.781ZM76.5658 169.043H62.2931V174.913H76.5658V169.043Z" fill="#82AFD4"/>
<path d="M62.2931 169.043H76.5658V174.913H62.2931V169.043Z" fill="#3C4554"/>
<path fill-rule="evenodd" clip-rule="evenodd" d="M117.005 168.993L114.814 167.87H103.327V170.804H105.706V172.565H103.327V177.848C105.148 181.093 106.676 182.29 110.464 183.13C114.042 182.125 115.555 181.052 117.005 177.848V172.565H114.626V170.804H117.005V168.993Z" fill="#EDD141"/>
<path d="M30.49 224.26C30.2173 222.409 29.4275 220.372 28.1328 218.446C26.769 216.416 25.0731 214.849 23.3618 213.891C21.2004 212.68 19.0144 212.441 17.4415 213.471C14.6232 215.316 14.8405 220.535 17.9269 225.127C21.0133 229.72 25.7999 231.947 28.6182 230.102C30.2543 229.031 30.8674 226.823 30.49 224.26Z" fill="#F0EDC6"/>
<path fill-rule="evenodd" clip-rule="evenodd" d="M36.3745 220.382C36.5572 219.327 36.5619 218.2 36.3237 217.005C36.0411 215.588 35.4167 214.077 34.3423 212.478C33.8726 211.779 33.3707 211.201 32.8444 210.729C31.8792 209.864 30.8318 209.355 29.7493 209.11C25.3888 208.127 20.4604 211.443 18.0517 213.064C17.8252 213.216 17.6209 213.354 17.4415 213.471C19.0144 212.441 21.2004 212.68 23.3618 213.891C25.0731 214.849 26.769 216.416 28.1328 218.446C29.4275 220.372 30.2173 222.409 30.49 224.26C30.8674 226.823 30.2543 229.031 28.6182 230.102C30.5524 228.835 35.5004 225.43 36.3745 220.382Z" fill="#3A3A39"/>
<path fill-rule="evenodd" clip-rule="evenodd" d="M43.2628 207.196C40.9435 204.048 36.7472 205.103 32.563 207.398C31.6172 207.917 30.6721 208.499 29.7493 209.11C30.8318 209.355 31.8792 209.864 32.8444 210.729C33.3707 211.201 33.8726 211.779 34.3423 212.478C35.4167 214.077 36.0411 215.588 36.3237 217.005C36.5619 218.2 36.5572 219.327 36.3745 220.382C37.3873 219.637 38.3813 218.85 39.3041 218.035C43.1932 214.599 45.8183 210.664 43.2628 207.196Z" fill="#3A3A39"/>
<path d="M58.1302 219.522H70.0241C72.3688 219.522 72.4024 217.811 72.4029 211.579C72.4029 211.489 72.4029 211.397 72.4029 211.304C72.8743 211.45 73.3209 211.583 73.7476 211.704C77.1144 212.661 79.2414 212.873 82.5128 212.478C82.5188 212.493 82.5249 212.507 82.5311 212.522C83.2802 214.239 86.108 214.239 89.3437 214.239C93.6211 214.239 94.8432 214.239 98.5696 212.478C101.915 212.439 103.923 212.266 106.343 211.73C106.895 211.608 107.469 211.467 108.085 211.304C108.085 211.394 108.085 211.483 108.086 211.57C108.168 217.66 111.109 217.759 121.254 217.761C121.422 217.761 121.591 217.761 121.763 217.761L119.286 238.151C109.74 241.694 104.389 241.272 94.8432 238.151L93.6211 222.746H84.4551L83.233 238.151C73.7758 240.657 68.5538 240.816 59.4015 238.767L58.1302 219.522Z" fill="#1D3A5E"/>
<path fill-rule="evenodd" clip-rule="evenodd" d="M57.5355 218.625V221.192L57.0479 218.098C57.1921 218.289 57.3556 218.466 57.5355 218.625ZM56.5371 199.599C56.4133 199.957 56.3461 200.34 56.3461 200.739V199.565L56.5371 199.599Z" fill="#1F2328"/>
<path fill-rule="evenodd" clip-rule="evenodd" d="M106.343 211.73C106.92 211.679 107.501 211.626 108.086 211.57C108.085 211.483 108.085 211.394 108.085 211.304C107.469 211.467 106.895 211.608 106.343 211.73ZM56.3461 199.565L56.5371 199.599C56.4133 199.957 56.3461 200.34 56.3461 200.739V199.565ZM72.4029 211.304C72.8743 211.45 73.3209 211.583 73.7476 211.704C73.3017 211.664 72.8536 211.623 72.4029 211.579L72.4029 211.304ZM59.9143 201.913C60.509 201.326 62.8878 201.326 63.4825 201.913C64.0772 202.5 64.0772 203.674 63.4825 204.261C62.8878 204.848 60.509 204.848 59.9143 204.261C59.3196 203.674 59.3196 202.5 59.9143 201.913ZM86.2237 202.978V204.408H89.3161V206.903H85.6052V209.398C89.5661 210.599 91.735 210.606 95.501 209.398V202.902C92.3686 203.03 89.3018 203.055 86.2237 202.978Z" fill="#1F2328"/>
<path d="M82.5128 202.836V202.537H86.2237V202.978V204.408H89.3161V206.903H85.6052V209.398C89.5661 210.599 91.735 210.606 95.501 209.398V202.902V201.913H97.9749V202.781V212.517C91.943 214.049 88.558 214.01 82.5311 212.522C82.525 212.52 82.5189 212.519 82.5128 212.517V212.478V202.836Z" fill="#797B80"/>
<path fill-rule="evenodd" clip-rule="evenodd" d="M57.5355 198.114C57.0847 198.512 56.7371 199.022 56.5371 199.599C56.4133 199.957 56.3461 200.34 56.3461 200.739V202.773V204.261C56.3461 205.304 56.8055 206.241 57.5355 206.886C58.1668 207.444 59.0004 207.783 59.9143 207.783H68.2401C70.2107 207.783 71.8082 206.206 71.8082 204.261V201.915V200.739C71.8082 198.794 70.2107 197.217 68.2401 197.217H59.9143C59.0004 197.217 58.1668 197.556 57.5355 198.114ZM59.9143 201.913C60.509 201.326 62.8878 201.326 63.4825 201.913C64.0772 202.5 64.0772 203.674 63.4825 204.261C62.8878 204.848 60.509 204.848 59.9143 204.261C59.3196 203.674 59.3196 202.5 59.9143 201.913Z" fill="#1F2328"/>
<path fill-rule="evenodd" clip-rule="evenodd" d="M56.3461 204.261V214.482V214.836V216C56.3461 216.786 56.607 217.512 57.0479 218.098C57.1921 218.289 57.3556 218.466 57.5355 218.625C58.1668 219.183 59.0004 219.522 59.9143 219.522H68.2401C70.2107 219.522 71.8082 217.945 71.8082 216V211.522V204.261C71.8082 206.206 70.2107 207.783 68.2401 207.783H59.9143C59.0004 207.783 58.1668 207.444 57.5355 206.886C56.8055 206.241 56.3461 205.304 56.3461 204.261Z" fill="#1F2328"/>
<path fill-rule="evenodd" clip-rule="evenodd" d="M125.331 194.87C124.556 194.87 123.839 195.113 123.254 195.527C123.041 195.678 122.846 195.851 122.671 196.043H123.221H124.142C126.112 196.043 127.71 197.62 127.71 199.565V206.022V213.652C127.71 215.597 126.112 217.174 124.142 217.174H121.763V219.522C121.763 221.467 123.36 223.043 125.331 223.043H126.619C128.59 223.043 130.188 221.467 130.188 219.522V210.295C130.188 209.113 130.857 208.03 131.922 207.489C132.987 206.949 133.657 205.866 133.657 204.684V198.391C133.657 196.446 132.059 194.87 130.089 194.87H125.331Z" fill="#1F2328"/>
<path fill-rule="evenodd" clip-rule="evenodd" d="M131.392 140.414C130.735 141.799 129.393 142.547 128.394 142.086C127.395 141.625 127.118 140.128 127.775 138.743C128.432 137.358 129.774 136.61 130.772 137.071C131.771 137.533 132.048 139.029 131.392 140.414Z" fill="#3F3F3D"/>
<path d="M126.897 171.763C127.476 172.046 128.144 172.308 128.872 172.517C133.683 173.901 141.171 173.024 143.608 161.198C142.38 158.886 140.695 156.359 138.687 154.367C135.131 150.84 130.559 148.991 125.708 152.981C125.157 153.379 124.574 153.936 124.04 154.642C122.108 157.197 120.828 161.699 124.107 167.691C124.796 168.951 125.687 170.277 126.816 171.664C126.949 171.662 126.955 171.706 126.897 171.763Z" fill="#E69D26"/>
<path fill-rule="evenodd" clip-rule="evenodd" d="M119.558 48.3343C122.43 46.8117 124.701 45.0396 126.146 43.0504C131.365 44.6143 133.807 47.7095 133.807 53.413C133.807 54.2842 133.83 55.1441 133.852 55.9795C133.932 58.9299 134.003 61.5786 133.02 63.3696C129.326 58.895 124.923 54.9349 119.94 51.7166C120.012 51.4827 119.875 51.0861 119.745 50.7117C119.649 50.4349 119.558 50.1704 119.558 49.9925C119.558 49.7238 119.608 49.5225 119.653 49.3412C119.732 49.0277 119.795 48.7739 119.558 48.3343Z" fill="#E69D26"/>
<path fill-rule="evenodd" clip-rule="evenodd" d="M58.8309 48.3723C55.6076 46.6923 53.0811 44.7236 51.5335 42.5315C46.467 44.1165 44.095 47.2042 44.095 52.8261C44.095 53.6974 44.0719 54.5571 44.0494 55.3926C43.9512 59.0496 43.8654 62.2431 45.7831 63.9144C49.4257 59.4633 53.766 55.5033 58.6691 52.2516C58.5056 51.8825 58.6172 51.309 58.719 50.7855C58.7765 50.4899 58.8309 50.2103 58.8309 49.9925C58.8309 49.7283 58.7822 49.5316 58.7384 49.3548C58.663 49.0499 58.6021 48.804 58.8309 48.3723Z" fill="#E69D26"/>
<path d="M81.4735 24.0652C86.116 24.0926 87.717 23.3842 89.2045 21.1304C89.2583 21.2107 89.3105 21.2893 89.3616 21.3664C89.3663 21.3735 89.371 21.3806 89.3757 21.3877C90.4256 22.9703 91.0388 23.8633 95.8125 24.0349C96.3335 24.0536 96.9041 24.0637 97.5303 24.0652V33.4565C95.07 36.2014 93.3351 37.1604 89.7992 38.1522C85.7858 37.2528 83.8666 36.3426 81.4735 33.4565V24.0652Z" fill="#D2BA63"/>
<path fill-rule="evenodd" clip-rule="evenodd" d="M126.146 43.0504C127.838 40.7202 128.396 38.092 127.457 35.2174C124.338 25.6799 107.305 18.3806 88.8013 16.4348C69.6141 19.3273 52.5549 26.7712 50.146 35.2174C49.3978 37.8407 49.9592 40.3017 51.5335 42.5315C53.0811 44.7236 55.6076 46.6923 58.8309 48.3723C59.7156 46.7028 61.6326 45.1653 64.3331 43.8497C69.9664 41.1053 79.0093 39.3261 89.2045 39.3261C99.5843 39.3261 108.77 41.1703 114.379 43.9997C116.9 45.2715 118.698 46.7424 119.558 48.3343C122.43 46.8117 124.701 45.0396 126.146 43.0504ZM81.4735 24.0652C86.116 24.0926 87.717 23.3842 89.2045 21.1304C89.2583 21.2107 89.3105 21.2893 89.3616 21.3664L89.3757 21.3877C90.4256 22.9703 91.0388 23.8633 95.8125 24.0349C96.3335 24.0536 96.9041 24.0637 97.5303 24.0652V33.4565C95.07 36.2014 93.3351 37.1604 89.7992 38.1522C85.7858 37.2528 83.8666 36.3426 81.4735 33.4565V24.0652Z" fill="#1D3C63"/>
<path d="M62.3723 49.9925C61.1055 50.7009 59.8704 51.455 58.6691 52.2516C59.6071 54.3686 62.1972 56.2868 65.9475 57.8288C71.6154 60.1592 79.9336 61.6304 89.2045 61.6304C98.0616 61.6304 106.049 60.2876 111.687 58.1357C116.181 56.4201 119.183 54.1902 119.94 51.7166C118.857 51.0167 117.746 50.3519 116.609 49.7246C114.701 48.6715 112.719 47.7239 110.671 46.8927C104.298 44.3069 97.2772 42.8478 89.7992 42.8478C81.9543 42.8478 74.5774 44.4536 67.9064 47.2815C66.0023 48.0886 64.1558 48.9952 62.3723 49.9925Z" fill="#020204"/>
<path d="M82.9532 103.827C83.7573 106.237 85.9822 108.593 88.1493 109.457C88.4012 109.558 88.6522 109.638 88.9002 109.696C88.9675 109.682 89.0351 109.665 89.1029 109.647C91.303 109.055 93.77 106.47 94.8472 103.827C94.9968 103.46 95.0724 103.121 95.0838 102.81C95.1672 100.528 91.7909 99.718 88.9002 99.718C85.9611 99.718 82.7092 100.578 82.7834 102.933C82.7922 103.21 82.8468 103.508 82.9532 103.827Z" fill="#1A100C"/>
<path fill-rule="evenodd" clip-rule="evenodd" d="M80.8788 119.152C84.3828 119.152 87.3813 117.016 88.6098 113.991C89.8384 117.016 92.8369 119.152 96.3409 119.152C100.939 119.152 104.667 115.473 104.667 110.935C104.667 106.396 100.939 102.717 96.3409 102.717C95.9136 102.717 95.4938 102.749 95.0838 102.81C95.0724 103.121 94.9968 103.46 94.8472 103.827C93.77 106.47 91.303 109.055 89.1029 109.647C89.0351 109.665 88.9675 109.682 88.9002 109.696C88.6522 109.638 88.4012 109.558 88.1493 109.457C85.9822 108.593 83.7573 106.237 82.9532 103.827C82.8468 103.508 82.7922 103.21 82.7834 102.933C82.1718 102.792 81.5341 102.717 80.8788 102.717C76.2806 102.717 72.553 106.396 72.553 110.935C72.553 115.473 76.2806 119.152 80.8788 119.152Z" fill="#F7F9F8"/>
<path d="M64.3331 43.8497C61.6326 45.1653 59.7156 46.7028 58.8309 48.3723C58.6021 48.804 58.663 49.0499 58.7384 49.3548C58.7822 49.5316 58.8309 49.7283 58.8309 49.9925C58.8309 50.2103 58.7765 50.4899 58.719 50.7855C58.6172 51.309 58.5056 51.8825 58.6691 52.2516C59.8704 51.455 61.1055 50.7009 62.3723 49.9925C64.1558 48.9952 66.0023 48.0886 67.9064 47.2815C74.5774 44.4536 81.9543 42.8478 89.7992 42.8478C97.2772 42.8478 104.298 44.3069 110.671 46.8927C112.719 47.7239 114.701 48.6715 116.609 49.7246C117.746 50.3519 118.857 51.0167 119.94 51.7166C120.012 51.4827 119.875 51.0861 119.745 50.7117C119.649 50.4349 119.558 50.1704 119.558 49.9925C119.558 49.7238 119.608 49.5225 119.653 49.3412C119.732 49.0277 119.795 48.7739 119.558 48.3343C118.698 46.7424 116.9 45.2715 114.379 43.9997C108.77 41.1703 99.5843 39.3261 89.2045 39.3261C79.0093 39.3261 69.9664 41.1053 64.3331 43.8497Z" fill="#2A3445"/>
<path fill-rule="evenodd" clip-rule="evenodd" d="M87.0481 160.734L84.945 158.739L80.8788 191.348L89.2045 199.565L98.125 191.348L93.5993 159.087L92.0933 160.634C90.728 162.037 88.4692 162.081 87.0481 160.734Z" fill="#1D395E"/>
<path fill-rule="evenodd" clip-rule="evenodd" d="M111.902 144.975C110.449 145.547 108.961 146.065 107.441 146.524C103.09 147.839 98.4696 148.68 93.6353 148.972C93.0522 149.007 92.466 149.034 91.8767 149.053L97.1503 154.779L101.098 159.065L110.714 146.524L111.902 144.975Z" fill="#899AAF"/>
<path fill-rule="evenodd" clip-rule="evenodd" d="M65.6126 145.549C65.6504 145.051 65.5814 144.542 65.3994 144.06C64.8549 143.821 64.3156 143.575 63.7815 143.32L65.6126 145.549Z" fill="#899AAF"/>
<path fill-rule="evenodd" clip-rule="evenodd" d="M86.4509 148.999L81.2431 154.384C81.3856 155.052 81.7259 155.687 82.2624 156.195L84.945 158.739L87.0481 160.734C88.4692 162.081 90.728 162.037 92.0933 160.634L93.5993 159.087L96.2649 156.349C96.7086 155.894 97.0033 155.35 97.1503 154.779L91.8767 149.053C91.1883 149.076 90.4958 149.087 89.7992 149.087C88.6733 149.087 87.5569 149.057 86.4509 148.999Z" fill="#1D395E"/>
<path fill-rule="evenodd" clip-rule="evenodd" d="M125.674 127.398C123.926 126.501 121.772 127.173 120.863 128.899L112.535 144.722L111.586 146.524L105.069 158.904C104.161 160.63 104.842 162.756 106.591 163.653L112.681 166.776C110.933 165.879 110.252 163.753 111.16 162.027L126.954 132.022C127.861 130.298 130.011 129.626 131.759 130.518L125.674 127.398Z" fill="#3F3F3D"/>
<path d="M132.476 130.885L131.759 130.518C130.011 129.626 127.861 130.298 126.954 132.022L111.16 162.027C110.252 163.753 110.933 165.879 112.681 166.776L114.814 167.87L117.005 168.993L124.85 173.015C125.568 173.384 126.356 173.487 127.097 173.362C127.017 172.777 126.951 172.236 126.897 171.763L126.816 171.664C125.687 170.277 124.796 168.951 124.107 167.691C120.828 161.699 122.108 157.197 124.04 154.642C124.574 153.936 125.157 153.379 125.708 152.981C130.559 148.991 135.131 150.84 138.687 154.367L145.455 141.509C146.363 139.783 145.682 137.657 143.933 136.76L140.641 135.072L135.069 132.215L132.476 130.885ZM131.392 140.414C130.735 141.799 129.393 142.547 128.394 142.086C127.395 141.625 127.118 140.128 127.775 138.743C128.432 137.358 129.774 136.61 130.772 137.071C131.771 137.533 132.048 139.029 131.392 140.414Z" fill="#3F3F3D"/>
<path fill-rule="evenodd" clip-rule="evenodd" d="M65.6293 145.57L65.6109 145.57C65.5842 145.896 65.5119 146.217 65.3956 146.524C65.1546 147.16 64.7249 147.735 64.1217 148.158L54.302 155.049C52.6959 156.176 50.4683 155.804 49.3264 154.219L48.6807 153.323C48.652 153.283 48.6242 153.243 48.5974 153.202C38.9299 163.348 34.6082 181.733 33.157 196.63C36.9662 200.857 45.6537 201.522 49.5213 201.326L49.2098 214.836H50.3992V200.739V191.348C50.3992 190.051 51.4642 189 52.7779 189H55.1567C55.1861 189 55.2153 189.001 55.2444 189.002C56.5176 189.047 57.5355 190.08 57.5355 191.348V198.114C58.1668 197.556 59.0004 197.217 59.9143 197.217H68.2401C70.2107 197.217 71.8082 198.794 71.8082 200.739V201.915C75.502 202.35 79.034 202.658 82.5128 202.836V202.537H86.2237V202.978C89.3018 203.055 92.3686 203.03 95.501 202.902V201.913H97.9749V202.781C101.41 202.584 104.946 202.267 108.679 201.83V199.565C108.679 197.62 110.277 196.043 112.248 196.043H122.671C122.846 195.851 123.041 195.678 123.254 195.527C123.459 192.312 123.621 189.136 123.747 185.941C128.738 190.165 136.55 193.704 144.738 188.785C148.108 185.655 152.826 176.224 144.738 163.546C144.423 162.813 144.044 162.019 143.608 161.198C141.171 173.024 133.683 173.901 128.872 172.517C128.369 172.961 127.751 173.251 127.097 173.362C126.356 173.487 125.568 173.384 124.85 173.015L117.005 168.993V170.804H114.626V172.565H117.005V177.848C115.555 181.052 114.042 182.125 110.464 183.13C106.676 182.29 105.148 181.093 103.327 177.848V172.565H105.706V170.804H103.327V167.87H114.814L112.681 166.776L106.591 163.653C104.842 162.756 104.161 160.63 105.069 158.904L111.586 146.524H110.714L101.098 159.065L97.1503 154.779C97.0033 155.35 96.7086 155.894 96.2649 156.349L93.5993 159.087L98.125 191.348L89.2045 199.565L80.8788 191.348L84.945 158.739L82.2624 156.195C81.7259 155.687 81.3856 155.052 81.2431 154.384L76.7159 159.065L65.6293 145.57ZM76.5658 169.043H62.2931V174.913H76.5658V169.043Z" fill="#82AFD4"/>
<path fill-rule="evenodd" clip-rule="evenodd" d="M65.3994 144.06C65.5814 144.542 65.6504 145.051 65.6126 145.549L65.6293 145.57L76.7159 159.065L81.2431 154.384L86.4509 148.999C85.781 148.964 85.1148 148.918 84.4526 148.863C80.1544 148.499 76.0226 147.702 72.1001 146.524C71.2118 146.257 70.3342 145.971 69.4679 145.666C68.0823 145.178 66.7255 144.642 65.3994 144.06Z" fill="#899AAF"/>
<path fill-rule="evenodd" clip-rule="evenodd" d="M72.1001 146.524C76.0226 147.702 80.1544 148.499 84.4526 148.863C85.1148 148.918 85.781 148.964 86.4509 148.999C87.5569 149.057 88.6733 149.087 89.7992 149.087C90.4958 149.087 91.1883 149.076 91.8767 149.053C92.466 149.034 93.0522 149.007 93.6353 148.972C98.4696 148.68 103.09 147.839 107.441 146.524C108.961 146.065 110.449 145.547 111.902 144.975C112.114 144.892 112.324 144.807 112.535 144.722L120.863 128.899C121.772 127.173 123.926 126.501 125.674 127.398L131.759 130.518L132.476 130.885C140.821 121.733 145.707 109.94 145.707 97.4348C145.707 85.2041 141.033 73.0762 133.02 63.3696C129.326 58.895 124.923 54.9349 119.94 51.7166C119.183 54.1902 116.181 56.4201 111.687 58.1357C106.049 60.2876 98.0616 61.6304 89.2045 61.6304C79.9336 61.6304 71.6154 60.1592 65.9475 57.8288C62.1972 56.2868 59.6071 54.3686 58.6691 52.2516C53.766 55.5033 49.4257 59.4633 45.7831 63.9144C37.9158 73.528 33.303 85.4319 33.303 97.4348C33.303 115.424 43.6648 131.941 59.8159 141.24C61.1018 141.98 62.4245 142.675 63.7815 143.32C64.3156 143.575 64.8549 143.821 65.3994 144.06C66.7255 144.642 68.0823 145.178 69.4679 145.666C70.3342 145.971 71.2118 146.257 72.1001 146.524ZM88.9002 99.718C91.7909 99.718 95.1672 100.528 95.0838 102.81C95.4938 102.749 95.9136 102.717 96.3409 102.717C100.939 102.717 104.667 106.396 104.667 110.935C104.667 115.473 100.939 119.152 96.3409 119.152C92.8369 119.152 89.8384 117.016 88.6098 113.991C87.3813 117.016 84.3828 119.152 80.8788 119.152C76.2806 119.152 72.553 115.473 72.553 110.935C72.553 106.396 76.2806 102.717 80.8788 102.717C81.5341 102.717 82.1718 102.792 82.7834 102.933C82.7092 100.578 85.9611 99.718 88.9002 99.718Z" fill="#E69D26"/>
<path d="M122.357 203.087C122.476 203.087 122.591 203.079 122.703 203.065C123.523 202.959 124.142 202.484 124.142 201.913C124.142 201.385 123.612 200.939 122.884 200.791C122.718 200.757 122.541 200.739 122.357 200.739C122.149 200.739 121.949 200.763 121.763 200.806C121.07 200.967 120.573 201.402 120.573 201.913C120.573 202.424 121.07 202.859 121.763 203.02C121.949 203.063 122.149 203.087 122.357 203.087Z" fill="#1F2328"/>
<path fill-rule="evenodd" clip-rule="evenodd" d="M122.671 196.043H112.248C110.277 196.043 108.679 197.62 108.679 199.565V201.83V211.512V213.652C108.679 215.597 110.277 217.174 112.248 217.174H114.032V206.022C115.527 206.514 118.477 207.129 121.763 207.052C121.96 207.048 122.158 207.041 122.358 207.031C122.946 207.002 123.543 206.95 124.142 206.87C125.339 206.71 126.545 206.44 127.71 206.022V199.565C127.71 197.62 126.112 196.043 124.142 196.043H123.221H122.671ZM124.142 201.913C124.142 202.484 123.523 202.959 122.703 203.065C122.591 203.079 122.476 203.087 122.357 203.087C122.149 203.087 121.949 203.063 121.763 203.02C121.07 202.859 120.573 202.424 120.573 201.913C120.573 201.402 121.07 200.967 121.763 200.806C121.949 200.763 122.149 200.739 122.357 200.739C122.541 200.739 122.718 200.757 122.884 200.791C123.612 200.939 124.142 201.385 124.142 201.913Z" fill="#1F2328"/>
<path fill-rule="evenodd" clip-rule="evenodd" d="M121.32 217.174H121.763H124.142C126.112 217.174 127.71 215.597 127.71 213.652V206.022C126.545 206.44 125.339 206.71 124.142 206.87C123.543 206.95 122.946 207.002 122.358 207.031C122.158 207.041 121.96 207.048 121.763 207.052C118.477 207.129 115.527 206.514 114.032 206.022V217.174H112.248C110.277 217.174 108.679 215.597 108.679 213.652V211.512C108.481 211.532 108.284 211.551 108.086 211.57C108.168 217.66 111.109 217.759 121.254 217.761L121.32 217.174Z" fill="#1F2328"/>
<path fill-rule="evenodd" clip-rule="evenodd" d="M55.2444 189.002C55.2153 189.001 55.1861 189 55.1567 189H52.7779C51.4642 189 50.3992 190.051 50.3992 191.348V200.739C50.3992 202.036 51.4642 203.087 52.7779 203.087H55.1567C55.59 203.087 55.9962 202.973 56.3461 202.773V200.739V199.565L56.5371 199.599C56.7371 199.022 57.0847 198.512 57.5355 198.114V191.348C57.5355 190.08 56.5176 189.047 55.2444 189.002Z" fill="#1F2328"/>
<path fill-rule="evenodd" clip-rule="evenodd" d="M56.3461 204.261V202.773C55.9962 202.973 55.59 203.087 55.1567 203.087H52.7779C51.4642 203.087 50.3992 202.036 50.3992 200.739V214.836V224.217C50.3992 225.514 51.4642 226.565 52.7779 226.565H55.1567C56.4705 226.565 57.5355 225.514 57.5355 224.217V221.192L57.0479 218.098C56.607 217.512 56.3461 216.786 56.3461 216V214.836V214.482V204.261Z" fill="#1F2328"/>
<path fill-rule="evenodd" clip-rule="evenodd" d="M82.5128 202.836C79.034 202.658 75.502 202.35 71.8082 201.915V204.261V211.522C72.007 211.541 72.2052 211.56 72.4029 211.579L72.4029 211.304C72.8743 211.45 73.3209 211.583 73.7476 211.704C77.1144 212.661 79.2414 212.873 82.5128 212.478V202.836Z" fill="#1F2328"/>
<path fill-rule="evenodd" clip-rule="evenodd" d="M108.679 201.83C104.946 202.267 101.41 202.584 97.9749 202.781V212.517C91.943 214.049 88.558 214.01 82.5311 212.522C83.2802 214.239 86.108 214.239 89.3437 214.239C93.6211 214.239 94.8432 214.239 98.5696 212.478C101.915 212.439 103.923 212.266 106.343 211.73C106.895 211.608 107.469 211.467 108.085 211.304C108.085 211.394 108.085 211.483 108.086 211.57C108.284 211.551 108.481 211.532 108.679 211.512V201.83Z" fill="#1F2328"/>
<path d="M70 91C70 92.5217 68.8272 93.8115 67.2008 93.8115C65.5 93.8115 64 92.5 64 91C64 89 65.5 88 67.2008 88C69 88 70 89.5217 70 91Z" fill="#280C00"/>
<path d="M101.098 80.413C101.098 80.0889 102.164 79.8261 103.477 79.8261H122.508C123.821 79.8261 124.886 80.0889 124.886 80.413C124.886 80.7372 123.821 81 122.508 81H103.477C102.164 81 101.098 80.7372 101.098 80.413Z" fill="#280C00"/>
<path d="M54.7121 80.413C54.7121 80.0889 55.7771 79.8261 57.0909 79.8261H76.1212C77.435 79.8261 78.5 80.0889 78.5 80.413C78.5 80.7372 77.435 81 76.1212 81H57.0909C55.7771 81 54.7121 80.7372 54.7121 80.413Z" fill="#280C00"/>
<path d="M113.263 91C113.263 92.5217 112.09 93.8115 110.464 93.8115C108.763 93.8115 107.263 92.5 107.263 91C107.263 89 108.763 88 110.464 88C112.263 88 113.263 89.5217 113.263 91Z" fill="#280C00"/>
<path d="M135.069 132.215C135.116 132.095 135.172 131.977 135.236 131.861L144.303 115.491C145.14 113.981 147.058 113.427 148.587 114.252C150.117 115.077 150.679 116.97 149.843 118.48L140.776 134.85C140.734 134.927 140.689 135.001 140.641 135.072M135.069 132.215L140.641 135.072M135.069 132.215L132.476 130.885M140.641 135.072L143.933 136.76C145.682 137.657 146.363 139.783 145.455 141.509L138.687 154.367M126.897 171.763C126.95 172.236 127.017 172.777 127.097 173.362M126.897 171.763C127.476 172.046 128.144 172.308 128.872 172.517M126.897 171.763L126.816 171.664M126.897 171.763C126.955 171.706 126.949 171.662 126.816 171.664M126.897 171.763C126.87 171.73 126.843 171.697 126.816 171.664M127.097 173.362C127.751 173.251 128.369 172.961 128.872 172.517M127.097 173.362C126.356 173.487 125.568 173.384 124.85 173.015L117.005 168.993M127.097 173.362C127.608 177.126 128.635 182.689 129.871 183.502M128.872 172.517C133.683 173.901 141.171 173.024 143.608 161.198M126.816 171.664C125.687 170.277 124.796 168.951 124.107 167.691C120.828 161.699 122.108 157.197 124.04 154.642C124.574 153.936 125.157 153.379 125.708 152.981C130.559 148.991 135.131 150.84 138.687 154.367M82.9212 238.786C73.9257 240.523 68.8691 240.584 60.4616 238.714M82.9212 238.786C83.7687 240.038 84.0791 241.73 84.0791 243.959C84.0791 250.118 79.9259 255.698 70.401 255.698C60.8762 255.698 54.9389 253.053 54.9389 246.894C54.9389 243.662 57.0648 240.751 60.4616 238.714M82.9212 238.786C83.1072 238.75 83.2949 238.714 83.4844 238.676L84.6738 223.415L89.4314 222.828L94.1889 223.415L94.7836 238.676C94.9659 238.724 95.1466 238.771 95.3258 238.817M60.4616 238.714L60.2912 238.676L57.5355 221.192M95.3258 238.817C94.4941 240.066 94.1889 241.748 94.1889 243.959C94.1889 250.118 98.3421 255.698 107.867 255.698C117.392 255.698 123.329 253.053 123.329 246.894C123.329 243.721 121.28 240.857 117.991 238.826M95.3258 238.817C104.002 241.049 109.155 241.082 117.991 238.826M117.991 238.826C118.182 238.778 118.376 238.727 118.572 238.676C119.649 230.998 120.533 224.129 121.254 217.761M49.2098 214.836L49.5213 201.326C45.6537 201.522 36.9662 200.857 33.157 196.63M49.2098 214.836C46.6317 216.598 42.7047 218.388 39.3041 218.035M49.2098 214.836H50.3992M39.3041 218.035C43.1932 214.599 45.8183 210.664 43.2628 207.196C40.9435 204.048 36.7472 205.103 32.563 207.398M39.3041 218.035C38.3813 218.85 37.3873 219.637 36.3745 220.382M32.563 207.398C32.594 204.188 32.7772 200.529 33.157 196.63M32.563 207.398C31.6172 207.917 30.6721 208.499 29.7493 209.11M33.157 196.63C34.6082 181.733 38.9299 163.348 48.5974 153.202M59.8159 141.24C59.6529 141.32 59.4941 141.414 59.3409 141.521L49.5213 148.412C47.9556 149.511 47.5586 151.628 48.5974 153.202M59.8159 141.24C61.1018 141.98 62.4245 142.675 63.7815 143.32M59.8159 141.24C43.6648 131.941 33.303 115.424 33.303 97.4348C33.303 85.4319 37.9158 73.528 45.7831 63.9144M48.5974 153.202C48.6242 153.243 48.652 153.283 48.6807 153.323L49.3264 154.219C50.4683 155.804 52.6959 156.176 54.302 155.049L64.1217 148.158C64.7249 147.735 65.1546 147.16 65.3956 146.524C65.5119 146.217 65.5842 145.896 65.6109 145.57M65.6109 145.57C65.6115 145.563 65.612 145.556 65.6126 145.549M65.6109 145.57L65.6293 145.57M65.6126 145.549C65.6504 145.051 65.5814 144.542 65.3994 144.06M65.6126 145.549L63.7815 143.32M65.6126 145.549L65.6293 145.57M65.3994 144.06C64.8549 143.821 64.3156 143.575 63.7815 143.32M65.3994 144.06C66.7255 144.642 68.0823 145.178 69.4679 145.666C70.3342 145.971 71.2118 146.257 72.1001 146.524C76.0226 147.702 80.1544 148.499 84.4526 148.863C85.1148 148.918 85.781 148.964 86.4509 148.999M86.4509 148.999L81.2431 154.384M86.4509 148.999C87.5569 149.057 88.6733 149.087 89.7992 149.087C90.4958 149.087 91.1883 149.076 91.8767 149.053M81.2431 154.384C81.3856 155.052 81.7259 155.687 82.2624 156.195L84.945 158.739M81.2431 154.384L76.7159 159.065L65.6293 145.57M84.945 158.739L80.8788 191.348L89.2045 199.565L98.125 191.348L93.5993 159.087M84.945 158.739L87.0481 160.734C88.4692 162.081 90.728 162.037 92.0933 160.634L93.5993 159.087M93.5993 159.087L96.2649 156.349C96.7086 155.894 97.0033 155.35 97.1503 154.779M97.1503 154.779L101.098 159.065L110.714 146.524M97.1503 154.779L91.8767 149.053M110.714 146.524H107.441M110.714 146.524L111.902 144.975M110.714 146.524H111.586M107.441 146.524C103.09 147.839 98.4696 148.68 93.6353 148.972C93.0522 149.007 92.466 149.034 91.8767 149.053M107.441 146.524C108.961 146.065 110.449 145.547 111.902 144.975M114.814 167.87H103.327V170.804H105.706V172.565H103.327V177.848C105.148 181.093 106.676 182.29 110.464 183.13C114.042 182.125 115.555 181.052 117.005 177.848V172.565H114.626V170.804H117.005V168.993M114.814 167.87L117.005 168.993M114.814 167.87L112.681 166.776M122.671 196.043C122.846 195.851 123.041 195.678 123.254 195.527M122.671 196.043H123.221M122.671 196.043H112.248C110.277 196.043 108.679 197.62 108.679 199.565V201.83M123.254 195.527L123.221 196.043M123.254 195.527C123.839 195.113 124.556 194.87 125.331 194.87H130.089C132.059 194.87 133.657 196.446 133.657 198.391V204.684C133.657 205.866 132.987 206.949 131.922 207.489C130.857 208.03 130.188 209.113 130.188 210.295V219.522C130.188 221.467 128.59 223.043 126.619 223.043H125.331C123.36 223.043 121.763 221.467 121.763 219.522V217.174M123.254 195.527C123.459 192.312 123.621 189.136 123.747 185.941M123.221 196.043H124.142C126.112 196.043 127.71 197.62 127.71 199.565V206.022M97.9749 202.781V201.913H95.501V202.902M97.9749 202.781C101.41 202.584 104.946 202.267 108.679 201.83M97.9749 202.781V212.517C91.943 214.049 88.558 214.01 82.5311 212.522M95.501 202.902C92.3686 203.03 89.3018 203.055 86.2237 202.978M95.501 202.902V209.398C91.735 210.606 89.5661 210.599 85.6052 209.398V206.903H89.3161V204.408H86.2237V202.978M86.2237 202.978V202.537H82.5128V202.836M82.5128 202.836C79.034 202.658 75.502 202.35 71.8082 201.915M82.5128 202.836V212.478M82.5128 212.478C79.2414 212.873 77.1144 212.661 73.7476 211.704M82.5128 212.478C82.5188 212.493 82.5249 212.507 82.5311 212.522M82.5128 212.478V212.517C82.5189 212.519 82.525 212.52 82.5311 212.522M73.7476 211.704C73.3209 211.583 72.8743 211.45 72.4029 211.304M73.7476 211.704C73.3017 211.664 72.8536 211.623 72.4029 211.579M72.4029 211.304L72.4029 211.579M72.4029 211.304C72.4029 211.397 72.4029 211.489 72.4029 211.579M72.4029 211.579C72.2052 211.56 72.007 211.541 71.8082 211.522M72.4029 211.579C72.4024 217.811 72.3688 219.522 70.0241 219.522H58.1302L59.4015 238.767C68.5538 240.816 73.7758 240.657 83.233 238.151L84.4551 222.746H93.6211L94.8432 238.151C104.389 241.272 109.74 241.694 119.286 238.151L121.763 217.761C121.591 217.761 121.422 217.761 121.254 217.761M71.8082 211.522V204.261M71.8082 211.522V216C71.8082 217.945 70.2107 219.522 68.2401 219.522H59.9143C59.0004 219.522 58.1668 219.183 57.5355 218.625M71.8082 204.261V201.915M71.8082 204.261C71.8082 206.206 70.2107 207.783 68.2401 207.783H59.9143C59.0004 207.783 58.1668 207.444 57.5355 206.886C56.8055 206.241 56.3461 205.304 56.3461 204.261M71.8082 201.915V200.739C71.8082 198.794 70.2107 197.217 68.2401 197.217H59.9143C59.0004 197.217 58.1668 197.556 57.5355 198.114M57.5355 198.114C57.0847 198.512 56.7371 199.022 56.5371 199.599M57.5355 198.114V191.348C57.5355 190.08 56.5176 189.047 55.2444 189.002M56.5371 199.599L56.3461 199.565V200.739M56.5371 199.599C56.4133 199.957 56.3461 200.34 56.3461 200.739M56.3461 200.739V202.773M56.3461 202.773V204.261M56.3461 202.773C55.9962 202.973 55.59 203.087 55.1567 203.087H52.7779C51.4642 203.087 50.3992 202.036 50.3992 200.739M56.3461 204.261V214.482M56.3461 214.482V214.836M56.3461 214.482L56.5338 214.836M56.3461 214.836H56.5338M56.3461 214.836V216C56.3461 216.786 56.607 217.512 57.0479 218.098M56.5338 214.836L57.0479 218.098M57.0479 218.098L57.5355 221.192M57.0479 218.098C57.1921 218.289 57.3556 218.466 57.5355 218.625M57.5355 221.192V218.625M57.5355 221.192V224.217C57.5355 225.514 56.4705 226.565 55.1567 226.565H52.7779C51.4642 226.565 50.3992 225.514 50.3992 224.217V214.836M121.254 217.761C111.109 217.759 108.168 217.66 108.086 211.57M121.254 217.761L121.32 217.174H121.763M108.086 211.57C108.085 211.483 108.085 211.394 108.085 211.304C107.469 211.467 106.895 211.608 106.343 211.73M108.086 211.57C107.501 211.626 106.92 211.679 106.343 211.73M108.086 211.57C108.284 211.551 108.481 211.532 108.679 211.512M106.343 211.73C103.923 212.266 101.915 212.439 98.5696 212.478C94.8432 214.239 93.6211 214.239 89.3437 214.239C86.108 214.239 83.2802 214.239 82.5311 212.522M17.4415 213.471C19.0144 212.441 21.2004 212.68 23.3618 213.891C25.0731 214.849 26.769 216.416 28.1328 218.446C29.4275 220.372 30.2173 222.409 30.49 224.26C30.8674 226.823 30.2543 229.031 28.6182 230.102M17.4415 213.471C14.6232 215.316 14.8405 220.535 17.9269 225.127C21.0133 229.72 25.7999 231.947 28.6182 230.102M17.4415 213.471C17.6209 213.354 17.8252 213.216 18.0517 213.064C20.4604 211.443 25.3888 208.127 29.7493 209.11M28.6182 230.102C30.5524 228.835 35.5004 225.43 36.3745 220.382M36.3745 220.382C36.5572 219.327 36.5619 218.2 36.3237 217.005C36.0411 215.588 35.4167 214.077 34.3423 212.478C33.8726 211.779 33.3707 211.201 32.8444 210.729C31.8792 209.864 30.8318 209.355 29.7493 209.11M127.71 206.022V213.652C127.71 215.597 126.112 217.174 124.142 217.174H121.763M127.71 206.022C126.545 206.44 125.339 206.71 124.142 206.87C123.543 206.95 122.946 207.002 122.358 207.031C122.158 207.041 121.96 207.048 121.763 207.052C118.477 207.129 115.527 206.514 114.032 206.022M143.608 161.198C142.38 158.886 140.695 156.359 138.687 154.367M143.608 161.198C144.044 162.019 144.423 162.813 144.738 163.546C152.826 176.224 148.108 185.655 144.738 188.785C136.55 193.704 128.738 190.165 123.747 185.941M119.558 48.3343C122.43 46.8117 124.701 45.0396 126.146 43.0504M119.558 48.3343C119.795 48.7739 119.732 49.0277 119.653 49.3412C119.608 49.5225 119.558 49.7238 119.558 49.9925C119.558 50.1704 119.649 50.435 119.745 50.7117C119.875 51.0861 120.012 51.4827 119.94 51.7166M119.558 48.3343C118.698 46.7424 116.9 45.2715 114.379 43.9997C108.77 41.1703 99.5843 39.3261 89.2045 39.3261C79.0093 39.3261 69.9664 41.1053 64.3331 43.8497C61.6326 45.1653 59.7156 46.7028 58.8309 48.3723M126.146 43.0504C131.365 44.6143 133.807 47.7095 133.807 53.413C133.807 54.2842 133.83 55.1441 133.852 55.9795C133.932 58.9299 134.003 61.5786 133.02 63.3696M126.146 43.0504C127.838 40.7202 128.396 38.092 127.457 35.2174C124.338 25.6799 107.305 18.3806 88.8013 16.4348C69.6141 19.3273 52.5549 26.7712 50.146 35.2174C49.3978 37.8407 49.9592 40.3017 51.5335 42.5315M133.02 63.3696C129.326 58.895 124.923 54.9349 119.94 51.7166M133.02 63.3696C141.033 73.0762 145.707 85.2041 145.707 97.4348C145.707 109.94 140.821 121.733 132.476 130.885M119.94 51.7166C119.183 54.1902 116.181 56.4201 111.687 58.1357C106.049 60.2876 98.0616 61.6304 89.2045 61.6304C79.9336 61.6304 71.6154 60.1592 65.9475 57.8288C62.1972 56.2868 59.6071 54.3686 58.6691 52.2516M119.94 51.7166C118.857 51.0167 117.746 50.3519 116.609 49.7246C114.701 48.6715 112.719 47.7239 110.671 46.8927C104.298 44.3069 97.2772 42.8478 89.7992 42.8478C81.9543 42.8478 74.5774 44.4536 67.9064 47.2815C66.0023 48.0886 64.1558 48.9952 62.3723 49.9925C61.1055 50.7009 59.8704 51.455 58.6691 52.2516M58.8309 48.3723C55.6076 46.6923 53.0811 44.7236 51.5335 42.5315M58.8309 48.3723C58.6021 48.804 58.663 49.0499 58.7384 49.3548C58.7822 49.5316 58.8309 49.7283 58.8309 49.9925C58.8309 50.2103 58.7765 50.4899 58.719 50.7855C58.6172 51.3089 58.5056 51.8825 58.6691 52.2516M51.5335 42.5315C46.467 44.1165 44.095 47.2042 44.095 52.8261C44.095 53.6974 44.0719 54.5571 44.0494 55.3926C43.9512 59.0496 43.8654 62.2431 45.7831 63.9144M45.7831 63.9144C49.4257 59.4633 53.766 55.5033 58.6691 52.2516M89.3616 21.3664C89.3105 21.2893 89.2583 21.2107 89.2045 21.1304C87.717 23.3842 86.116 24.0926 81.4735 24.0652V33.4565C83.8666 36.3426 85.7858 37.2528 89.7992 38.1522C93.3351 37.1604 95.07 36.2014 97.5303 33.4565V24.0652C96.9041 24.0637 96.3335 24.0536 95.8125 24.0349C91.0388 23.8633 90.4256 22.9703 89.3757 21.3877M89.3616 21.3664C89.3663 21.3735 89.371 21.3806 89.3757 21.3877M89.3616 21.3664L89.3757 21.3877M95.0838 102.81C95.0724 103.121 94.9969 103.46 94.8472 103.827C93.77 106.47 91.303 109.055 89.1029 109.647C89.0351 109.665 88.9675 109.682 88.9002 109.696C88.6522 109.638 88.4012 109.558 88.1493 109.457C85.9822 108.593 83.7573 106.237 82.9532 103.827C82.8468 103.508 82.7922 103.21 82.7834 102.933M95.0838 102.81C95.1672 100.528 91.791 99.718 88.9002 99.718C85.9611 99.718 82.7092 100.578 82.7834 102.933M95.0838 102.81C95.4938 102.749 95.9136 102.717 96.3409 102.717C100.939 102.717 104.667 106.396 104.667 110.935C104.667 115.473 100.939 119.152 96.3409 119.152C92.8369 119.152 89.8384 117.016 88.6098 113.991C87.3813 117.016 84.3828 119.152 80.8788 119.152C76.2806 119.152 72.553 115.473 72.553 110.935C72.553 106.396 76.2806 102.717 80.8788 102.717C81.5341 102.717 82.1718 102.792 82.7834 102.933M111.902 144.975C112.114 144.892 112.324 144.807 112.535 144.722M112.535 144.722L120.863 128.899C121.772 127.173 123.926 126.501 125.674 127.398L131.759 130.518M112.535 144.722L111.586 146.524M111.586 146.524L105.069 158.904C104.161 160.63 104.842 162.756 106.591 163.653L112.681 166.776M112.681 166.776C110.933 165.879 110.252 163.753 111.16 162.027L126.954 132.022C127.861 130.298 130.011 129.626 131.759 130.518M131.759 130.518L132.476 130.885M50.3992 214.836V200.739M50.3992 200.739V191.348C50.3992 190.051 51.4642 189 52.7779 189H55.1567C55.1861 189 55.2153 189.001 55.2444 189.002M55.2444 189.002L55.7514 169.63M108.679 201.83V211.512M123.747 185.941C122.821 183.243 121.246 177.73 122.357 177.261M108.679 211.512V213.652C108.679 215.597 110.277 217.174 112.248 217.174H114.032M114.032 217.174V206.022M114.032 217.174C114.032 214.377 114.032 209.565 114.032 206.022M114.032 206.022C114.032 204.112 114.032 202.571 114.032 201.913L113.924 201.155C113.553 200.017 112.321 199.987 111.653 200.152M128.394 142.086C129.393 142.547 130.735 141.799 131.392 140.414C132.048 139.029 131.771 137.533 130.772 137.071C129.774 136.61 128.432 137.358 127.775 138.743C127.118 140.128 127.395 141.625 128.394 142.086ZM76.5658 169.043H62.2931V174.913H76.5658V169.043ZM59.9143 201.913C60.509 201.326 62.8878 201.326 63.4825 201.913C64.0772 202.5 64.0772 203.674 63.4825 204.261C62.8878 204.848 60.509 204.848 59.9143 204.261C59.3196 203.674 59.3196 202.5 59.9143 201.913ZM122.357 203.087C122.476 203.087 122.591 203.079 122.703 203.065C123.523 202.959 124.142 202.484 124.142 201.913C124.142 201.385 123.612 200.939 122.884 200.791C122.718 200.757 122.541 200.739 122.357 200.739C122.149 200.739 121.949 200.763 121.763 200.806C121.07 200.967 120.573 201.402 120.573 201.913C120.573 202.424 121.07 202.859 121.763 203.02C121.949 203.063 122.149 203.087 122.357 203.087ZM70 91C70 92.5217 68.8272 93.8115 67.2008 93.8115C65.5 93.8115 64 92.5 64 91C64 89 65.5 88 67.2008 88C69 88 70 89.5217 70 91ZM103.477 81H122.508C123.821 81 124.886 80.7372 124.886 80.413C124.886 80.0889 123.821 79.8261 122.508 79.8261H103.477C102.164 79.8261 101.098 80.0889 101.098 80.413C101.098 80.7372 102.164 81 103.477 81ZM57.0909 81H76.1212C77.435 81 78.5 80.7372 78.5 80.413C78.5 80.0889 77.435 79.8261 76.1212 79.8261H57.0909C55.7771 79.8261 54.7121 80.0889 54.7121 80.413C54.7121 80.7372 55.7771 81 57.0909 81ZM113.263 91C113.263 92.5217 112.09 93.8115 110.464 93.8115C108.763 93.8115 107.263 92.5 107.263 91C107.263 89 108.763 88 110.464 88C112.263 88 113.263 89.5217 113.263 91Z" stroke="black" stroke-width="2"/>
</g>
</svg>
