<svg width="116" height="206" viewBox="0 0 116 206" fill="none" xmlns="http://www.w3.org/2000/svg">
<path fill-rule="evenodd" clip-rule="evenodd" d="M95.949 108.044C96.7887 108.437 97.917 107.8 98.4692 106.62C99.0214 105.44 98.7884 104.166 97.9487 103.772C97.1091 103.379 95.9808 104.017 95.4286 105.197C94.8764 106.376 95.1094 107.651 95.949 108.044Z" fill="#3F3F3D"/>
<path fill-rule="evenodd" clip-rule="evenodd" d="M112.927 84.3339C111.641 83.6308 110.028 84.1034 109.325 85.3896L101.702 99.3345C101.648 99.4331 101.601 99.5336 101.561 99.6354L106.246 102.069C106.286 102.009 106.324 101.946 106.359 101.881L113.983 87.9357C114.686 86.6495 114.213 85.037 112.927 84.3339Z" fill="#3F3F3D"/>
<path fill-rule="evenodd" clip-rule="evenodd" d="M94.6906 133.325C94.7353 133.728 94.7916 134.189 94.8582 134.687C95.4081 134.592 95.9279 134.345 96.3511 133.967C95.7384 133.789 95.1773 133.566 94.6906 133.325ZM94.6906 133.325L94.6224 133.24C94.7339 133.239 94.7392 133.276 94.6906 133.325ZM95.949 108.044C96.7887 108.437 97.917 107.8 98.4692 106.62C99.0214 105.44 98.7884 104.166 97.9487 103.772C97.1091 103.379 95.9808 104.017 95.4286 105.197C94.8764 106.376 95.1094 107.651 95.949 108.044Z" fill="#3F3F3D"/>
<path fill-rule="evenodd" clip-rule="evenodd" d="M57.717 190.419C50.154 191.898 45.9026 191.95 38.8339 190.357C35.9779 192.092 34.1906 194.572 34.1906 197.325C34.1906 202.572 39.1824 204.825 47.1906 204.825C55.1987 204.825 58.6906 200.072 58.6906 194.825C58.6906 192.926 58.4296 191.485 57.717 190.419Z" fill="#010102"/>
<path fill-rule="evenodd" clip-rule="evenodd" d="M68.1464 190.445C67.4472 191.509 67.1906 192.942 67.1906 194.825C67.1906 200.072 70.6824 204.825 78.6906 204.825C86.6987 204.825 91.6906 202.572 91.6906 197.325C91.6906 194.622 89.9677 192.183 87.2022 190.453C79.7734 192.374 75.4408 192.346 68.1464 190.445Z" fill="#010102"/>
<path fill-rule="evenodd" clip-rule="evenodd" d="M29.6356 158.508L29.3737 170.017C27.2062 171.517 23.9045 173.043 21.0454 172.741C24.3151 169.815 26.5223 166.462 24.3737 163.508C22.4237 160.827 18.8956 161.726 15.3777 163.681C15.4038 160.946 15.5578 157.829 15.8771 154.508C19.0798 158.108 26.3839 158.675 29.6356 158.508Z" fill="#E69D26"/>
<path fill-rule="evenodd" clip-rule="evenodd" d="M38.2858 107.323C38.1488 107.392 38.0204 107.472 37.8916 107.563L29.6356 113.433C28.3192 114.369 27.9854 116.172 28.8588 117.514C28.8814 117.548 28.9047 117.582 28.9289 117.616L29.4717 118.38C30.4318 119.73 32.3047 120.047 33.6551 119.087L41.9111 113.217C42.4183 112.856 42.7796 112.367 42.9822 111.825C43.0799 111.563 43.1408 111.29 43.1632 111.012C43.1637 111.006 43.1641 111 43.1646 110.995C43.1964 110.57 43.1333 110.137 42.9803 109.726C42.5224 109.523 42.069 109.312 41.62 109.096C40.479 108.546 39.367 107.954 38.2858 107.323Z" fill="#1E2937"/>
<path fill-rule="evenodd" clip-rule="evenodd" d="M60.6796 113.933L56.3062 118.521C56.4259 119.09 56.7121 119.63 57.1631 120.063L59.4186 122.231L55.9999 150.008L62.9999 157.008L70.4999 150.008L66.6948 122.527L68.936 120.195C69.309 119.806 69.5568 119.344 69.6804 118.857L72.9999 122.508L81.0844 111.825H78.327C74.669 112.945 70.7845 113.661 66.72 113.91C66.2297 113.94 65.7368 113.963 65.2414 113.979C64.6626 113.998 64.0804 114.008 63.4948 114.008C62.5481 114.008 61.6095 113.983 60.6796 113.933ZM74.8737 130.008H84.5316L86.3737 130.965V132.508H84.3737V134.008H86.3737V138.508C85.1542 141.238 83.8821 142.152 80.8737 143.008C77.6894 142.292 76.4042 141.273 74.8737 138.508V134.008H76.8737V132.508H74.8737V130.008ZM96.3511 133.967C95.9279 134.345 95.4081 134.592 94.8582 134.687C94.7916 134.189 94.7353 133.728 94.6906 133.325C95.1773 133.566 95.7384 133.789 96.3511 133.967ZM91.1376 154.008C91.2842 153.844 91.4485 153.697 91.6275 153.568L91.5996 154.008H91.1376ZM70.3737 159.747V159.008H68.2937V159.851C65.6601 159.96 63.0816 159.981 60.4937 159.915V159.539H57.3737V159.794V168.008C54.6233 168.344 52.8349 168.164 50.0042 167.349C49.6455 167.246 49.27 167.132 48.8737 167.008L48.8737 167.242C48.7074 167.226 48.5408 167.21 48.3737 167.193V161.008V159.009V158.008C48.3737 156.351 47.0305 155.008 45.3737 155.008H38.3737C37.6053 155.008 36.9044 155.297 36.3737 155.772C35.9947 156.111 35.7024 156.545 35.5343 157.037L35.3737 157.008V158.008V159.741V161.008V169.715V170.017H35.5315L35.9637 172.795L36.3737 175.431L38.6906 190.325L38.8339 190.357C45.9026 191.95 50.154 191.898 57.717 190.419C57.8735 190.388 58.0313 190.357 58.1906 190.325L59.1906 177.325L63.1906 176.825L67.1906 177.325L67.6906 190.325C67.8438 190.366 67.9958 190.406 68.1464 190.445C75.4408 192.346 79.7734 192.374 87.2022 190.453C87.3635 190.411 87.5263 190.369 87.6906 190.325C88.5962 183.784 89.3398 177.932 89.9459 172.508C81.4164 172.507 78.9433 172.422 78.8751 167.234C78.8742 167.16 78.8737 167.085 78.8737 167.008C78.3558 167.147 77.8736 167.267 77.4093 167.371C75.3743 167.827 73.6867 167.975 70.8737 168.008C67.7407 169.508 66.7132 169.508 63.1168 169.508C60.3964 169.508 58.0189 169.508 57.3891 168.045C62.4563 169.313 65.3023 169.346 70.3737 168.041V159.747ZM52.3737 131.008H40.3737V136.008H52.3737V131.008Z" fill="#82AFD4"/>
<path d="M40.3737 131.008H52.3737V136.008H40.3737V131.008Z" fill="#3C4554"/>
<path fill-rule="evenodd" clip-rule="evenodd" d="M86.3737 130.965L84.5316 130.008H74.8737V132.508H76.8737V134.008H74.8737V138.508C76.4042 141.273 77.6894 142.292 80.8737 143.008C83.8821 142.152 85.1542 141.238 86.3737 138.508V134.008H84.3737V132.508H86.3737V130.965Z" fill="#EDD141"/>
<path d="M13.6348 178.045C13.4055 176.467 12.7414 174.732 11.6529 173.091C10.5063 171.363 9.08046 170.027 7.64165 169.211C5.82444 168.18 3.98651 167.977 2.66407 168.854C0.294557 170.426 0.47727 174.871 3.07217 178.783C5.66708 182.695 9.69153 184.592 12.061 183.021C13.4366 182.108 13.9521 180.227 13.6348 178.045Z" fill="#F0EDC6"/>
<path fill-rule="evenodd" clip-rule="evenodd" d="M18.5823 174.741C18.7359 173.842 18.7398 172.882 18.5395 171.865C18.302 170.658 17.777 169.37 16.8737 168.008C16.4787 167.413 16.0568 166.92 15.6143 166.518C14.8028 165.781 13.9221 165.347 13.0121 165.139C9.3459 164.302 5.20222 167.126 3.17713 168.507C2.98665 168.637 2.81491 168.754 2.66407 168.854C3.98651 167.977 5.82444 168.18 7.64165 169.211C9.08046 170.027 10.5063 171.363 11.6529 173.091C12.7414 174.732 13.4055 176.467 13.6348 178.045C13.9521 180.227 13.4366 182.108 12.061 183.021C13.6872 181.942 17.8474 179.041 18.5823 174.741Z" fill="#3A3A39"/>
<path fill-rule="evenodd" clip-rule="evenodd" d="M24.3737 163.508C22.4237 160.827 18.8956 161.726 15.3777 163.681C14.5825 164.123 13.7879 164.619 13.0121 165.139C13.9221 165.347 14.8028 165.781 15.6143 166.518C16.0568 166.92 16.4787 167.413 16.8737 168.008C17.777 169.37 18.302 170.658 18.5395 171.865C18.7398 172.882 18.7359 173.842 18.5823 174.741C19.4338 174.106 20.2695 173.436 21.0454 172.741C24.3151 169.815 26.5223 166.462 24.3737 163.508Z" fill="#3A3A39"/>
<path d="M36.8737 174.008H46.8737C48.845 174.008 48.8733 172.551 48.8737 167.242C48.8737 167.165 48.8737 167.087 48.8737 167.008C49.27 167.132 49.6455 167.246 50.0042 167.349C52.8349 168.164 54.6233 168.344 57.3737 168.008C57.3787 168.021 57.3838 168.033 57.3891 168.045C58.0189 169.508 60.3964 169.508 63.1168 169.508C66.7132 169.508 67.7407 169.508 70.8737 168.008C73.6867 167.975 75.3743 167.827 77.4093 167.371C77.8736 167.267 78.3558 167.147 78.8737 167.008C78.8737 167.085 78.8742 167.16 78.8751 167.234C78.9433 172.422 81.4164 172.507 89.9459 172.508C90.0868 172.508 90.2294 172.508 90.3737 172.508L88.2912 189.877C80.2657 192.895 75.7662 192.536 67.7407 189.877L66.7132 176.755H59.0068L57.9792 189.877C50.0279 192.012 45.6375 192.148 37.9425 190.402L36.8737 174.008Z" fill="#1D3A5E"/>
<path fill-rule="evenodd" clip-rule="evenodd" d="M36.3737 173.244V175.431L35.9637 172.795C36.0849 172.958 36.2224 173.109 36.3737 173.244ZM35.5343 157.037C35.4302 157.342 35.3737 157.668 35.3737 158.008V157.008L35.5343 157.037Z" fill="#1F2328"/>
<path fill-rule="evenodd" clip-rule="evenodd" d="M77.4093 167.371C77.8943 167.328 78.3828 167.282 78.8751 167.234C78.8742 167.16 78.8737 167.085 78.8737 167.008C78.3558 167.147 77.8736 167.267 77.4093 167.371ZM35.3737 157.008L35.5343 157.037C35.4302 157.342 35.3737 157.668 35.3737 158.008V157.008ZM48.8737 167.008C49.27 167.132 49.6455 167.246 50.0042 167.349C49.6294 167.315 49.2526 167.279 48.8737 167.242L48.8737 167.008ZM38.3737 159.008C38.8737 158.508 40.8737 158.508 41.3737 159.008C41.8737 159.508 41.8737 160.508 41.3737 161.008C40.8737 161.508 38.8737 161.508 38.3737 161.008C37.8737 160.508 37.8737 159.508 38.3737 159.008ZM60.4937 159.915V161.134H63.0937V163.259H59.9737V165.384C63.3039 166.407 65.1274 166.413 68.2937 165.384V159.851C65.6601 159.96 63.0816 159.981 60.4937 159.915Z" fill="#1F2328"/>
<path d="M57.3737 159.794V159.539H60.4937V159.915V161.134H63.0937V163.259H59.9737V165.384C63.3039 166.407 65.1274 166.413 68.2937 165.384V159.851V159.008H70.3737V159.747V168.041C65.3023 169.346 62.4563 169.313 57.3891 168.045C57.384 168.044 57.3788 168.042 57.3737 168.041V168.008V159.794Z" fill="#797B80"/>
<path fill-rule="evenodd" clip-rule="evenodd" d="M36.3737 155.772C35.9947 156.111 35.7024 156.545 35.5343 157.037C35.4302 157.342 35.3737 157.668 35.3737 158.008V159.741V161.008C35.3737 161.897 35.7599 162.695 36.3737 163.244C36.9044 163.719 37.6053 164.008 38.3737 164.008H45.3737C47.0305 164.008 48.3737 162.665 48.3737 161.008V159.009V158.008C48.3737 156.351 47.0305 155.008 45.3737 155.008H38.3737C37.6053 155.008 36.9044 155.297 36.3737 155.772ZM38.3737 159.008C38.8737 158.508 40.8737 158.508 41.3737 159.008C41.8737 159.508 41.8737 160.508 41.3737 161.008C40.8737 161.508 38.8737 161.508 38.3737 161.008C37.8737 160.508 37.8737 159.508 38.3737 159.008Z" fill="#1F2328"/>
<path fill-rule="evenodd" clip-rule="evenodd" d="M35.3737 161.008V169.715V170.017V171.008C35.3737 171.678 35.593 172.296 35.9637 172.795C36.0849 172.958 36.2224 173.109 36.3737 173.244C36.9044 173.719 37.6053 174.008 38.3737 174.008H45.3737C47.0305 174.008 48.3737 172.665 48.3737 171.008V167.193V161.008C48.3737 162.665 47.0305 164.008 45.3737 164.008H38.3737C37.6053 164.008 36.9044 163.719 36.3737 163.244C35.7599 162.695 35.3737 161.897 35.3737 161.008Z" fill="#1F2328"/>
<path fill-rule="evenodd" clip-rule="evenodd" d="M93.3737 153.008C92.7223 153.008 92.1193 153.216 91.6275 153.568C91.4485 153.697 91.2842 153.844 91.1376 154.008H91.5996H92.3737C94.0305 154.008 95.3737 155.351 95.3737 157.008V162.508V169.008C95.3737 170.665 94.0305 172.008 92.3737 172.008H90.3737V174.008C90.3737 175.665 91.7168 177.008 93.3737 177.008H94.457C96.1139 177.008 97.457 175.665 97.457 174.008V166.148C97.457 165.141 98.0199 164.219 98.9154 163.758C99.8108 163.298 100.374 162.375 100.374 161.368V156.008C100.374 154.351 99.0305 153.008 97.3737 153.008H93.3737Z" fill="#1F2328"/>
<path fill-rule="evenodd" clip-rule="evenodd" d="M98.4692 106.62C97.917 107.8 96.7887 108.437 95.949 108.044C95.1094 107.651 94.8764 106.376 95.4286 105.197C95.9808 104.017 97.1091 103.379 97.9487 103.772C98.7884 104.166 99.0214 105.44 98.4692 106.62Z" fill="#3F3F3D"/>
<path d="M94.6906 133.325C95.1773 133.566 95.7384 133.789 96.3511 133.967C100.396 135.146 106.691 134.399 108.741 124.325C107.708 122.355 106.291 120.202 104.603 118.506C101.613 115.501 97.7693 113.926 93.6906 117.325C93.2275 117.665 92.737 118.139 92.2883 118.74C90.6643 120.916 89.5881 124.752 92.3443 129.856C92.9239 130.929 93.6731 132.059 94.6224 133.24C94.7339 133.239 94.7392 133.276 94.6906 133.325Z" fill="#E69D26"/>
<path fill-rule="evenodd" clip-rule="evenodd" d="M88.5199 28.1817C90.9343 26.8847 92.8441 25.3752 94.0588 23.6806C98.4472 25.0128 100.5 27.6495 100.5 32.5081C100.5 33.2502 100.519 33.9827 100.538 34.6944C100.605 37.2076 100.659 39.4639 99.8335 40.9896C96.7278 37.1779 93.0254 33.8045 88.8363 31.0629C88.8965 30.8638 88.7862 30.5259 88.6773 30.2069C88.5968 29.9712 88.5199 29.7458 88.5199 29.5943C88.5199 29.3654 88.5621 29.194 88.6002 29.0395C88.6661 28.7725 88.7194 28.5562 88.5199 28.1817Z" fill="#E69D26"/>
<path fill-rule="evenodd" clip-rule="evenodd" d="M37.4628 28.2141C34.7528 26.7831 32.6286 25.106 31.3274 23.2387C27.0677 24.5888 25.0734 27.2191 25.0734 32.0081C25.0734 32.7503 25.0539 33.4826 25.0351 34.1944C24.9525 37.3096 24.8752 40.03 26.4876 41.4537C29.5501 37.6621 33.1993 34.2886 37.3217 31.5188C37.1842 31.2043 37.2831 30.7157 37.3687 30.2698C37.4171 30.018 37.4628 29.7798 37.4628 29.5943C37.4628 29.3692 37.4219 29.2017 37.3851 29.0511C37.3216 28.7913 37.2704 28.5819 37.4628 28.2141Z" fill="#E69D26"/>
<path d="M56.4999 7.5081C60.4031 7.5314 61.7492 6.92796 62.9999 5.0081C63.0451 5.07647 63.0889 5.14346 63.1319 5.20907C63.1359 5.21513 63.1398 5.22118 63.1438 5.22722C64.0265 6.57535 64.542 7.33611 68.5556 7.48225C68.9937 7.4982 69.4734 7.50683 69.9999 7.5081V15.5081C67.9314 17.8463 66.4727 18.6632 63.4999 19.5081C60.1255 18.742 58.5119 17.9666 56.4999 15.5081V7.5081Z" fill="#D2BA63"/>
<path fill-rule="evenodd" clip-rule="evenodd" d="M94.0588 23.6806C95.4817 21.6957 95.951 19.4568 95.1608 17.0081C92.539 8.8836 78.218 2.66565 62.6608 1.0081C46.5289 3.47209 32.1861 9.81316 30.1608 17.0081C29.5318 19.2428 30.0038 21.3392 31.3274 23.2387C32.6286 25.106 34.7528 26.7831 37.4628 28.2141C38.2067 26.7919 39.8184 25.4823 42.0889 24.3616C46.8252 22.0237 54.4281 20.5081 62.9999 20.5081C71.7268 20.5081 79.4496 22.0791 84.1653 24.4893C86.285 25.5727 87.7972 26.8257 88.5199 28.1817C90.9343 26.8847 92.8441 25.3752 94.0588 23.6806ZM56.4999 7.5081C60.4031 7.5314 61.7492 6.92796 62.9999 5.0081C63.0451 5.07647 63.0889 5.14346 63.1319 5.20907L63.1438 5.22722C64.0265 6.57535 64.542 7.33611 68.5556 7.48225C68.9937 7.4982 69.4734 7.50683 69.9999 7.5081V15.5081C67.9314 17.8463 66.4727 18.6632 63.4999 19.5081C60.1255 18.742 58.5119 17.9666 56.4999 15.5081V7.5081Z" fill="#1D3C63"/>
<path d="M40.4403 29.5943C39.3752 30.1977 38.3316 30.8401 37.3217 31.5188C38.1103 33.3221 40.2879 34.9561 43.4411 36.2696C48.2065 38.2548 55.2 39.5081 62.9948 39.5081C70.4415 39.5081 77.157 38.3642 81.897 36.5311C85.6759 35.0697 88.1992 33.1701 88.8363 31.0629C87.9253 30.4668 86.9965 29.9005 86.0407 29.3661C84.4363 28.469 82.7703 27.6618 81.0479 26.9537C75.69 24.751 69.7871 23.5081 63.4999 23.5081C56.9041 23.5081 50.7019 24.876 45.0931 27.2849C43.4923 27.9724 41.9398 28.7448 40.4403 29.5943Z" fill="#020204"/>
<path d="M57.744 75.4531C58.4201 77.5064 60.2906 79.513 62.1127 80.2497C62.3244 80.3353 62.5355 80.4037 62.744 80.4531C62.8006 80.4408 62.8574 80.4268 62.9144 80.4113C64.7642 79.9065 66.8383 77.7044 67.744 75.4531C67.8698 75.1403 67.9282 74.8522 67.9378 74.5874C68.0079 72.6428 65.1693 71.9531 62.7389 71.9531C60.2678 71.9531 57.5337 72.6854 57.5961 74.6921C57.6035 74.9279 57.6545 75.1813 57.744 75.4531Z" fill="#1A100C"/>
<path fill-rule="evenodd" clip-rule="evenodd" d="M55.9948 88.5081C58.9408 88.5081 61.4618 86.6881 62.4948 84.1112C63.5277 86.6881 66.0487 88.5081 68.9948 88.5081C72.8607 88.5081 75.9948 85.3741 75.9948 81.5081C75.9948 77.6421 72.8607 74.5081 68.9948 74.5081C68.6355 74.5081 68.2825 74.5352 67.9378 74.5874C67.9282 74.8522 67.8698 75.1403 67.744 75.4531C66.8383 77.7044 64.7642 79.9065 62.9144 80.4113C62.8574 80.4268 62.8006 80.4408 62.744 80.4531C62.5355 80.4037 62.3244 80.3353 62.1127 80.2497C60.2906 79.513 58.4201 77.5064 57.744 75.4531C57.6545 75.1813 57.6035 74.9279 57.5961 74.6921C57.0818 74.5718 56.5457 74.5081 55.9948 74.5081C52.1288 74.5081 48.9948 77.6421 48.9948 81.5081C48.9948 85.3741 52.1288 88.5081 55.9948 88.5081Z" fill="#F7F9F8"/>
<path d="M42.0889 24.3616C39.8184 25.4823 38.2067 26.7919 37.4628 28.2141C37.2704 28.5819 37.3216 28.7913 37.3851 29.0511C37.4219 29.2017 37.4628 29.3692 37.4628 29.5943C37.4628 29.7798 37.4171 30.018 37.3687 30.2698C37.2831 30.7157 37.1842 31.2043 37.3217 31.5188C38.3316 30.8401 39.3752 30.1977 40.4403 29.5943C41.9398 28.7448 43.4923 27.9724 45.0931 27.2849C50.7019 24.876 56.9041 23.5081 63.4999 23.5081C69.7871 23.5081 75.69 24.751 81.0479 26.9537C82.7703 27.6618 84.4363 28.469 86.0407 29.3661C86.9965 29.9005 87.9253 30.4668 88.8363 31.0629C88.8965 30.8638 88.7862 30.5259 88.6773 30.2069C88.5968 29.9712 88.5199 29.7458 88.5199 29.5943C88.5199 29.3654 88.5621 29.194 88.6002 29.0395C88.6661 28.7725 88.7194 28.5562 88.5199 28.1817C87.7972 26.8257 86.285 25.5727 84.1653 24.4893C79.4496 22.0791 71.7268 20.5081 62.9999 20.5081C54.4281 20.5081 46.8252 22.0237 42.0889 24.3616Z" fill="#2A3445"/>
<path fill-rule="evenodd" clip-rule="evenodd" d="M61.1869 123.93L59.4186 122.231L55.9999 150.008L62.9999 157.008L70.4999 150.008L66.6948 122.527L65.4287 123.845C64.2807 125.04 62.3816 125.078 61.1869 123.93Z" fill="#1D395E"/>
<path fill-rule="evenodd" clip-rule="evenodd" d="M82.0779 110.505C80.8566 110.993 79.6056 111.434 78.327 111.825C74.669 112.945 70.7845 113.661 66.72 113.91C66.2297 113.94 65.7368 113.963 65.2414 113.979L69.6804 118.857L72.9999 122.508L81.0844 111.825L82.0779 110.505Z" fill="#899AAF"/>
<path fill-rule="evenodd" clip-rule="evenodd" d="M43.1646 110.995C43.1964 110.57 43.1333 110.137 42.9803 109.726C42.5224 109.523 42.069 109.312 41.62 109.096L43.1646 110.995Z" fill="#899AAF"/>
<path fill-rule="evenodd" clip-rule="evenodd" d="M60.6796 113.933L56.3062 118.521C56.4259 119.09 56.7121 119.63 57.1631 120.063L59.4186 122.231L61.1869 123.93C62.3816 125.078 64.2807 125.04 65.4287 123.845L66.6948 122.527L68.936 120.195C69.309 119.806 69.5568 119.344 69.6804 118.857L65.2414 113.979C64.6626 113.998 64.0804 114.008 63.4948 114.008C62.5481 114.008 61.6095 113.983 60.6796 113.933Z" fill="#1D395E"/>
<path fill-rule="evenodd" clip-rule="evenodd" d="M93.6573 95.5321C92.187 94.7682 90.3759 95.3409 89.6121 96.8112L82.6098 110.289L81.8171 111.825L76.3383 122.371C75.5745 123.841 76.1472 125.652 77.6174 126.416L82.7384 129.076C81.2681 128.313 80.6955 126.502 81.4593 125.031L94.7382 99.4716C95.5011 98.0031 97.3038 97.43 98.7731 98.1899L93.6573 95.5321Z" fill="#3F3F3D"/>
<path d="M99.3756 98.5028L98.7731 98.1899C97.3038 97.43 95.5011 98.0031 94.7382 99.4716L81.4593 125.031C80.6955 126.502 81.2681 128.313 82.7384 129.076L84.5316 130.008L86.3737 130.965L92.969 134.392C93.5733 134.705 94.2352 134.794 94.8582 134.687C94.7916 134.189 94.7353 133.728 94.6906 133.325L94.6224 133.24C93.6731 132.059 92.9239 130.929 92.3443 129.856C89.5881 124.752 90.6643 120.916 92.2883 118.74C92.737 118.139 93.2275 117.665 93.6906 117.325C97.7693 113.926 101.613 115.501 104.603 118.506L110.293 107.553C111.057 106.083 110.484 104.271 109.014 103.508L106.246 102.069L101.561 99.6354L99.3756 98.5028ZM98.4692 106.62C97.917 107.8 96.7887 108.437 95.949 108.044C95.1094 107.651 94.8764 106.376 95.4286 105.197C95.9808 104.017 97.1091 103.379 97.9487 103.772C98.7884 104.166 99.0214 105.44 98.4692 106.62Z" fill="#3F3F3D"/>
<path fill-rule="evenodd" clip-rule="evenodd" d="M43.1786 111.012L43.1632 111.012C43.1408 111.29 43.0799 111.563 42.9822 111.825C42.7796 112.367 42.4183 112.856 41.9111 113.217L33.6551 119.087C32.3047 120.047 30.4318 119.73 29.4717 118.38L28.9289 117.616C28.9047 117.582 28.8814 117.548 28.8588 117.514C20.7308 126.157 17.0972 141.818 15.8771 154.508C19.0798 158.108 26.3839 158.675 29.6356 158.508L29.3737 170.017H30.3737V158.008V150.008C30.3737 148.904 31.2691 148.008 32.3737 148.008H34.3737C34.3984 148.008 34.423 148.009 34.4474 148.009C35.5178 148.048 36.3737 148.928 36.3737 150.008V155.772C36.9044 155.297 37.6053 155.008 38.3737 155.008H45.3737C47.0305 155.008 48.3737 156.351 48.3737 158.008V159.009C51.4793 159.381 54.4488 159.642 57.3737 159.794V159.539H60.4937V159.915C63.0816 159.981 65.6601 159.96 68.2937 159.851V159.008H70.3737V159.747C73.2618 159.58 76.2344 159.31 79.3737 158.937V157.008C79.3737 155.351 80.7168 154.008 82.3737 154.008H91.1376C91.2842 153.844 91.4485 153.697 91.6275 153.568C91.7994 150.83 91.9361 148.124 92.042 145.402C96.2386 149.001 102.806 152.016 109.691 147.825C112.524 145.158 116.491 137.125 109.691 126.325C109.426 125.7 109.107 125.024 108.741 124.325C106.691 134.399 100.396 135.146 96.3511 133.967C95.9279 134.345 95.4081 134.592 94.8582 134.687C94.2352 134.794 93.5733 134.705 92.969 134.392L86.3737 130.965V132.508H84.3737V134.008H86.3737V138.508C85.1542 141.238 83.8821 142.152 80.8737 143.008C77.6894 142.292 76.4042 141.273 74.8737 138.508V134.008H76.8737V132.508H74.8737V130.008H84.5316L82.7384 129.076L77.6174 126.416C76.1472 125.652 75.5745 123.841 76.3383 122.371L81.8171 111.825H81.0844L72.9999 122.508L69.6804 118.857C69.5568 119.344 69.309 119.806 68.936 120.195L66.6948 122.527L70.4999 150.008L62.9999 157.008L55.9999 150.008L59.4186 122.231L57.1631 120.063C56.7121 119.63 56.4259 119.09 56.3062 118.521L52.4999 122.508L43.1786 111.012ZM52.3737 131.008H40.3737V136.008H52.3737V131.008Z" fill="#82AFD4"/>
<path fill-rule="evenodd" clip-rule="evenodd" d="M42.9803 109.726C43.1333 110.137 43.1964 110.57 43.1646 110.995L43.1786 111.012L52.4999 122.508L56.3062 118.521L60.6796 113.933C60.1163 113.904 59.5563 113.865 58.9995 113.817C55.3857 113.507 51.9119 112.828 48.614 111.825C47.8671 111.598 47.1293 111.354 46.4009 111.094C45.236 110.679 44.0952 110.222 42.9803 109.726Z" fill="#899AAF"/>
<path fill-rule="evenodd" clip-rule="evenodd" d="M48.614 111.825C51.9119 112.828 55.3857 113.507 58.9995 113.817C59.5563 113.865 60.1163 113.904 60.6796 113.933C61.6095 113.983 62.5481 114.008 63.4948 114.008C64.0804 114.008 64.6626 113.998 65.2414 113.979C65.7368 113.963 66.2297 113.94 66.72 113.91C70.7845 113.661 74.669 112.945 78.327 111.825C79.6056 111.434 80.8566 110.993 82.0779 110.505C82.2558 110.434 82.4331 110.362 82.6098 110.289L89.6121 96.8112C90.3759 95.3409 92.187 94.7682 93.6573 95.5321L98.7731 98.1899L99.3756 98.5028C106.392 90.7068 110.5 80.6607 110.5 70.0081C110.5 59.5894 106.571 49.2582 99.8335 40.9896C96.7278 37.1779 93.0254 33.8045 88.8363 31.0629C88.1992 33.1701 85.6759 35.0697 81.897 36.5311C77.157 38.3642 70.4415 39.5081 62.9948 39.5081C55.2 39.5081 48.2065 38.2548 43.4411 36.2696C40.2879 34.9561 38.1103 33.3221 37.3217 31.5188C33.1993 34.2886 29.5501 37.6621 26.4876 41.4537C19.873 49.643 15.9948 59.7834 15.9948 70.0081C15.9948 85.3326 24.7066 99.4021 38.2858 107.323C39.367 107.954 40.479 108.546 41.62 109.096C42.069 109.312 42.5224 109.523 42.9803 109.726C44.0952 110.222 45.236 110.679 46.4009 111.094C47.1293 111.354 47.8671 111.598 48.614 111.825ZM62.7389 71.9531C65.1693 71.9531 68.0079 72.6428 67.9378 74.5874C68.2825 74.5352 68.6355 74.5081 68.9948 74.5081C72.8607 74.5081 75.9948 77.6421 75.9948 81.5081C75.9948 85.3741 72.8607 88.5081 68.9948 88.5081C66.0487 88.5081 63.5277 86.6881 62.4948 84.1112C61.4618 86.6881 58.9408 88.5081 55.9948 88.5081C52.1288 88.5081 48.9948 85.3741 48.9948 81.5081C48.9948 77.6421 52.1288 74.5081 55.9948 74.5081C56.5457 74.5081 57.0818 74.5718 57.5961 74.6921C57.5337 72.6854 60.2678 71.9531 62.7389 71.9531Z" fill="#E69D26"/>
<path d="M90.8737 160.008C90.9731 160.008 91.0702 160.002 91.1642 159.989C91.8536 159.899 92.3737 159.494 92.3737 159.008C92.3737 158.559 91.9287 158.178 91.3164 158.052C91.1765 158.024 91.0278 158.008 90.8737 158.008C90.6984 158.008 90.5301 158.028 90.3737 158.065C89.7911 158.202 89.3737 158.573 89.3737 159.008C89.3737 159.444 89.7911 159.814 90.3737 159.951C90.5301 159.988 90.6984 160.008 90.8737 160.008Z" fill="#1F2328"/>
<path fill-rule="evenodd" clip-rule="evenodd" d="M91.1376 154.008H82.3737C80.7168 154.008 79.3737 155.351 79.3737 157.008V158.937V167.185V169.008C79.3737 170.665 80.7168 172.008 82.3737 172.008H83.8737V162.508C85.1305 162.927 87.6115 163.451 90.3737 163.386C90.5395 163.382 90.7063 163.376 90.8739 163.368C91.3685 163.343 91.8702 163.299 92.3737 163.231C93.3804 163.095 94.3944 162.864 95.3737 162.508V157.008C95.3737 155.351 94.0305 154.008 92.3737 154.008H91.5996H91.1376ZM92.3737 159.008C92.3737 159.494 91.8536 159.899 91.1642 159.989C91.0702 160.002 90.9731 160.008 90.8737 160.008C90.6984 160.008 90.5301 159.988 90.3737 159.951C89.7911 159.814 89.3737 159.444 89.3737 159.008C89.3737 158.573 89.7911 158.202 90.3737 158.065C90.5301 158.028 90.6984 158.008 90.8737 158.008C91.0278 158.008 91.1765 158.024 91.3164 158.052C91.9287 158.178 92.3737 158.559 92.3737 159.008Z" fill="#1F2328"/>
<path fill-rule="evenodd" clip-rule="evenodd" d="M90.0015 172.008H90.3737H92.3737C94.0305 172.008 95.3737 170.665 95.3737 169.008V162.508C94.3944 162.864 93.3804 163.095 92.3737 163.231C91.8702 163.299 91.3685 163.343 90.8739 163.368C90.7063 163.376 90.5395 163.382 90.3737 163.386C87.6115 163.451 85.1305 162.927 83.8737 162.508V172.008H82.3737C80.7168 172.008 79.3737 170.665 79.3737 169.008V167.185C79.2071 167.202 79.0409 167.218 78.8751 167.234C78.9433 172.422 81.4164 172.507 89.9459 172.508L90.0015 172.008Z" fill="#1F2328"/>
<path fill-rule="evenodd" clip-rule="evenodd" d="M34.4474 148.009C34.423 148.009 34.3984 148.008 34.3737 148.008H32.3737C31.2691 148.008 30.3737 148.904 30.3737 150.008V158.008C30.3737 159.113 31.2691 160.008 32.3737 160.008H34.3737C34.738 160.008 35.0795 159.911 35.3737 159.741V158.008V157.008L35.5343 157.037C35.7024 156.545 35.9947 156.111 36.3737 155.772V150.008C36.3737 148.928 35.5178 148.048 34.4474 148.009Z" fill="#1F2328"/>
<path fill-rule="evenodd" clip-rule="evenodd" d="M35.3737 161.008V159.741C35.0795 159.911 34.738 160.008 34.3737 160.008H32.3737C31.2691 160.008 30.3737 159.113 30.3737 158.008V170.017V178.008C30.3737 179.113 31.2691 180.008 32.3737 180.008H34.3737C35.4783 180.008 36.3737 179.113 36.3737 178.008V175.431L35.9637 172.795C35.593 172.296 35.3737 171.678 35.3737 171.008V170.017V169.715V161.008Z" fill="#1F2328"/>
<path fill-rule="evenodd" clip-rule="evenodd" d="M57.3737 159.794C54.4488 159.642 51.4793 159.381 48.3737 159.009V161.008V167.193C48.5408 167.21 48.7074 167.226 48.8737 167.242L48.8737 167.008C49.27 167.132 49.6455 167.246 50.0042 167.349C52.8349 168.164 54.6233 168.344 57.3737 168.008V159.794Z" fill="#1F2328"/>
<path fill-rule="evenodd" clip-rule="evenodd" d="M79.3737 158.937C76.2344 159.31 73.2618 159.58 70.3737 159.747V168.041C65.3023 169.346 62.4563 169.313 57.3891 168.045C58.0189 169.508 60.3964 169.508 63.1168 169.508C66.7132 169.508 67.7407 169.508 70.8737 168.008C73.6867 167.975 75.3743 167.827 77.4093 167.371C77.8736 167.267 78.3558 167.147 78.8737 167.008C78.8737 167.085 78.8742 167.16 78.8751 167.234C79.0409 167.218 79.2071 167.202 79.3737 167.185V158.937Z" fill="#1F2328"/>
<path d="M46.9999 64.5081C46.9999 66.0081 45.6803 67.0081 44.4999 67.0081C43.3195 67.0081 41.9999 66.0081 41.9999 64.5081C41.9999 62.6639 43.4999 62.0081 44.4999 62.0081C45.4999 62.0081 46.9999 63.0999 46.9999 64.5081Z" fill="#280C00"/>
<path d="M72.9999 55.5081C72.9999 55.232 73.8953 55.0081 74.9999 55.0081H90.9999C92.1044 55.0081 92.9999 55.232 92.9999 55.5081C92.9999 55.7842 92.1044 56.0081 90.9999 56.0081H74.9999C73.8953 56.0081 72.9999 55.7842 72.9999 55.5081Z" fill="#280C00"/>
<path d="M33.9999 55.5081C33.9999 55.232 34.8953 55.0081 35.9999 55.0081H51.9999C53.1044 55.0081 53.9999 55.232 53.9999 55.5081C53.9999 55.7842 53.1044 56.0081 51.9999 56.0081H35.9999C34.8953 56.0081 33.9999 55.7842 33.9999 55.5081Z" fill="#280C00"/>
<path d="M82.9999 64.5081C82.9999 66.0081 81.6803 67.0081 80.4999 67.0081C79.3195 67.0081 77.9999 66.0081 77.9999 64.5081C77.9999 62.6639 79.4999 62.0081 80.4999 62.0081C81.4999 62.0081 82.9999 63.0999 82.9999 64.5081Z" fill="#280C00"/>
<path d="M101.561 99.6354C101.601 99.5336 101.648 99.4331 101.702 99.3345L109.325 85.3896C110.028 84.1034 111.641 83.6308 112.927 84.3339C114.213 85.0369 114.686 86.6495 113.983 87.9357L106.359 101.881C106.324 101.946 106.286 102.009 106.246 102.069M101.561 99.6354L106.246 102.069M101.561 99.6354L99.3756 98.5028M106.246 102.069L109.014 103.508C110.484 104.271 111.057 106.083 110.293 107.553L104.603 118.506M94.6906 133.325C94.7353 133.728 94.7916 134.189 94.8582 134.687M94.6906 133.325C95.1773 133.566 95.7384 133.789 96.3511 133.967M94.6906 133.325L94.6224 133.24M94.6906 133.325C94.7392 133.276 94.7339 133.239 94.6224 133.24M94.6906 133.325C94.6677 133.297 94.645 133.269 94.6224 133.24M94.8582 134.687C95.4081 134.592 95.9279 134.345 96.3511 133.967M94.8582 134.687C94.2352 134.794 93.5733 134.705 92.969 134.392L86.3737 130.965M94.8582 134.687C95.2878 137.893 96.1518 142.632 97.1906 143.325M96.3511 133.967C100.396 135.146 106.691 134.399 108.741 124.325M94.6224 133.24C93.6731 132.059 92.9239 130.929 92.3443 129.856C89.5881 124.752 90.6643 120.916 92.2883 118.74C92.737 118.139 93.2275 117.665 93.6906 117.325C97.7693 113.926 101.613 115.501 104.603 118.506M57.717 190.419C50.154 191.898 45.9026 191.95 38.8339 190.357M57.717 190.419C58.4296 191.485 58.6906 192.926 58.6906 194.825C58.6906 200.072 55.1987 204.825 47.1906 204.825C39.1824 204.825 34.1906 202.572 34.1906 197.325C34.1906 194.572 35.9779 192.092 38.8339 190.357M57.717 190.419C57.8735 190.388 58.0313 190.357 58.1906 190.325L59.1906 177.325L63.1906 176.825L67.1906 177.325L67.6906 190.325C67.8438 190.366 67.9958 190.406 68.1464 190.445M38.8339 190.357L38.6906 190.325L36.3737 175.431M68.1464 190.445C67.4472 191.509 67.1906 192.942 67.1906 194.825C67.1906 200.072 70.6824 204.825 78.6906 204.825C86.6987 204.825 91.6906 202.572 91.6906 197.325C91.6906 194.622 89.9677 192.183 87.2022 190.453M68.1464 190.445C75.4408 192.346 79.7734 192.374 87.2022 190.453M87.2022 190.453C87.3635 190.411 87.5263 190.369 87.6906 190.325C88.5962 183.784 89.3398 177.932 89.9459 172.508M29.3737 170.017L29.6356 158.508C26.3839 158.675 19.0798 158.108 15.8771 154.508M29.3737 170.017C27.2062 171.517 23.9045 173.043 21.0454 172.741M29.3737 170.017H30.3737M21.0454 172.741C24.3151 169.815 26.5223 166.462 24.3737 163.508C22.4237 160.827 18.8956 161.726 15.3777 163.681M21.0454 172.741C20.2695 173.436 19.4338 174.106 18.5823 174.741M15.3777 163.681C15.4038 160.946 15.5578 157.829 15.8771 154.508M15.3777 163.681C14.5825 164.123 13.7879 164.619 13.0121 165.139M15.8771 154.508C17.0972 141.818 20.7308 126.157 28.8588 117.514M38.2858 107.323C38.1488 107.392 38.0204 107.472 37.8916 107.563L29.6356 113.433C28.3192 114.369 27.9854 116.172 28.8588 117.514M38.2858 107.323C39.367 107.954 40.479 108.546 41.62 109.096M38.2858 107.323C24.7066 99.4021 15.9948 85.3326 15.9948 70.0081C15.9948 59.7834 19.873 49.643 26.4876 41.4537M28.8588 117.514C28.8814 117.548 28.9047 117.582 28.9289 117.616L29.4717 118.38C30.4318 119.73 32.3047 120.047 33.6551 119.087L41.9111 113.217C42.4183 112.856 42.7796 112.367 42.9822 111.825C43.0799 111.563 43.1408 111.29 43.1632 111.012M43.1632 111.012C43.1637 111.006 43.1641 111 43.1646 110.995M43.1632 111.012L43.1786 111.012M43.1646 110.995C43.1964 110.57 43.1333 110.137 42.9803 109.726M43.1646 110.995L41.62 109.096M43.1646 110.995L43.1786 111.012M42.9803 109.726C42.5224 109.523 42.069 109.312 41.62 109.096M42.9803 109.726C44.0952 110.222 45.236 110.679 46.4009 111.094C47.1293 111.354 47.8671 111.598 48.614 111.825C51.9119 112.828 55.3857 113.507 58.9995 113.817C59.5563 113.865 60.1163 113.904 60.6796 113.933M60.6796 113.933L56.3062 118.521M60.6796 113.933C61.6095 113.983 62.5481 114.008 63.4948 114.008C64.0804 114.008 64.6626 113.998 65.2414 113.979M56.3062 118.521C56.4259 119.09 56.7121 119.63 57.1631 120.063L59.4186 122.231M56.3062 118.521L52.4999 122.508L43.1786 111.012M59.4186 122.231L55.9999 150.008L62.9999 157.008L70.4999 150.008L66.6948 122.527M59.4186 122.231L61.1869 123.93C62.3816 125.078 64.2807 125.04 65.4287 123.845L66.6948 122.527M66.6948 122.527L68.936 120.195C69.309 119.806 69.5568 119.344 69.6804 118.857M69.6804 118.857L72.9999 122.508L81.0844 111.825M69.6804 118.857L65.2414 113.979M81.0844 111.825H78.327M81.0844 111.825L82.0779 110.505M81.0844 111.825H81.8171M78.327 111.825C74.669 112.945 70.7845 113.661 66.72 113.91C66.2297 113.94 65.7368 113.963 65.2414 113.979M78.327 111.825C79.6056 111.434 80.8566 110.993 82.0779 110.505M84.5316 130.008H74.8737V132.508H76.8737V134.008H74.8737V138.508C76.4042 141.273 77.6894 142.292 80.8737 143.008C83.8821 142.152 85.1542 141.238 86.3737 138.508V134.008H84.3737V132.508H86.3737V130.965M84.5316 130.008L86.3737 130.965M84.5316 130.008L82.7384 129.076M91.1376 154.008C91.2842 153.844 91.4485 153.697 91.6275 153.568M91.1376 154.008H91.5996M91.1376 154.008H82.3737C80.7168 154.008 79.3737 155.351 79.3737 157.008V158.937M91.6275 153.568L91.5996 154.008M91.6275 153.568C92.1193 153.216 92.7223 153.008 93.3737 153.008H97.3737C99.0305 153.008 100.374 154.351 100.374 156.008V161.368C100.374 162.375 99.8108 163.298 98.9154 163.758C98.0199 164.219 97.457 165.141 97.457 166.148V174.008C97.457 175.665 96.1139 177.008 94.457 177.008H93.3737C91.7168 177.008 90.3737 175.665 90.3737 174.008V172.008M91.6275 153.568C91.7994 150.83 91.9361 148.124 92.042 145.402M91.5996 154.008H92.3737C94.0305 154.008 95.3737 155.351 95.3737 157.008V162.508M70.3737 159.747V159.008H68.2937V159.851M70.3737 159.747C73.2618 159.58 76.2344 159.31 79.3737 158.937M70.3737 159.747V168.041C65.3023 169.346 62.4563 169.313 57.3891 168.045M68.2937 159.851C65.6601 159.96 63.0816 159.981 60.4937 159.915M68.2937 159.851V165.384C65.1274 166.413 63.3039 166.407 59.9737 165.384V163.259H63.0937V161.134H60.4937V159.915M60.4937 159.915V159.539H57.3737V159.794M57.3737 159.794C54.4488 159.642 51.4793 159.381 48.3737 159.009M57.3737 159.794V168.008M57.3737 168.008C54.6233 168.344 52.8349 168.164 50.0042 167.349M57.3737 168.008C57.3787 168.021 57.3838 168.033 57.3891 168.045M57.3737 168.008V168.041C57.3788 168.042 57.384 168.044 57.3891 168.045M50.0042 167.349C49.6455 167.246 49.27 167.132 48.8737 167.008M50.0042 167.349C49.6294 167.315 49.2526 167.279 48.8737 167.242M48.8737 167.008L48.8737 167.242M48.8737 167.008C48.8737 167.087 48.8737 167.165 48.8737 167.242M48.8737 167.242C48.7074 167.226 48.5408 167.21 48.3737 167.193M48.8737 167.242C48.8733 172.551 48.845 174.008 46.8737 174.008H36.8737L37.9425 190.402C45.6375 192.148 50.0279 192.012 57.9792 189.877L59.0068 176.755H66.7132L67.7407 189.877C75.7662 192.536 80.2657 192.895 88.2912 189.877L90.3737 172.508C90.2294 172.508 90.0868 172.508 89.9459 172.508M48.3737 167.193V161.008M48.3737 167.193V171.008C48.3737 172.665 47.0305 174.008 45.3737 174.008H38.3737C37.6053 174.008 36.9044 173.719 36.3737 173.244M48.3737 161.008V159.009M48.3737 161.008C48.3737 162.665 47.0305 164.008 45.3737 164.008H38.3737C37.6053 164.008 36.9044 163.719 36.3737 163.244C35.7599 162.695 35.3737 161.897 35.3737 161.008M48.3737 159.009V158.008C48.3737 156.351 47.0305 155.008 45.3737 155.008H38.3737C37.6053 155.008 36.9044 155.297 36.3737 155.772M36.3737 155.772C35.9947 156.111 35.7024 156.545 35.5343 157.037M36.3737 155.772V150.008C36.3737 148.928 35.5178 148.048 34.4474 148.009M35.5343 157.037L35.3737 157.008V158.008M35.5343 157.037C35.4302 157.342 35.3737 157.668 35.3737 158.008M35.3737 158.008V159.741M35.3737 159.741V161.008M35.3737 159.741C35.0795 159.911 34.738 160.008 34.3737 160.008H32.3737C31.2691 160.008 30.3737 159.113 30.3737 158.008M35.3737 161.008V169.715M35.3737 169.715V170.017M35.3737 169.715L35.5315 170.017M35.3737 170.017H35.5315M35.3737 170.017V171.008C35.3737 171.678 35.593 172.296 35.9637 172.795M35.5315 170.017L35.9637 172.795M35.9637 172.795L36.3737 175.431M35.9637 172.795C36.0849 172.958 36.2224 173.109 36.3737 173.244M36.3737 175.431V173.244M36.3737 175.431V178.008C36.3737 179.113 35.4783 180.008 34.3737 180.008H32.3737C31.2691 180.008 30.3737 179.113 30.3737 178.008V170.017M89.9459 172.508C81.4164 172.507 78.9433 172.422 78.8751 167.234M89.9459 172.508L90.0015 172.008H90.3737M78.8751 167.234C78.8742 167.16 78.8737 167.085 78.8737 167.008C78.3558 167.147 77.8736 167.267 77.4093 167.371M78.8751 167.234C78.3828 167.282 77.8943 167.328 77.4093 167.371M78.8751 167.234C79.0409 167.218 79.2071 167.202 79.3737 167.185M77.4093 167.371C75.3743 167.827 73.6867 167.975 70.8737 168.008C67.7407 169.508 66.7132 169.508 63.1168 169.508C60.3964 169.508 58.0189 169.508 57.3891 168.045M2.66407 168.854C3.98651 167.977 5.82444 168.18 7.64165 169.211C9.08046 170.027 10.5063 171.363 11.6529 173.091C12.7414 174.732 13.4055 176.467 13.6348 178.045C13.9521 180.227 13.4366 182.108 12.061 183.021M2.66407 168.854C0.294557 170.426 0.47727 174.871 3.07217 178.783C5.66708 182.695 9.69153 184.592 12.061 183.021M2.66407 168.854C2.81491 168.754 2.98665 168.637 3.17713 168.507C5.20222 167.126 9.3459 164.302 13.0121 165.139M12.061 183.021C13.6872 181.942 17.8474 179.041 18.5823 174.741M18.5823 174.741C18.7359 173.842 18.7398 172.882 18.5395 171.865C18.302 170.658 17.777 169.37 16.8737 168.008C16.4787 167.413 16.0568 166.92 15.6143 166.518C14.8028 165.781 13.9221 165.347 13.0121 165.139M95.3737 162.508V169.008C95.3737 170.665 94.0305 172.008 92.3737 172.008H90.3737M95.3737 162.508C94.3944 162.864 93.3804 163.095 92.3737 163.231C91.8702 163.299 91.3685 163.343 90.8739 163.368C90.7063 163.376 90.5395 163.382 90.3737 163.386C87.6115 163.451 85.1305 162.927 83.8737 162.508M108.741 124.325C107.708 122.355 106.291 120.202 104.603 118.506M108.741 124.325C109.107 125.024 109.426 125.7 109.691 126.325C116.491 137.125 112.524 145.158 109.691 147.825C102.806 152.016 96.2386 149.001 92.042 145.402M88.5199 28.1817C90.9343 26.8847 92.8441 25.3752 94.0588 23.6806M88.5199 28.1817C88.7194 28.5562 88.6661 28.7725 88.6002 29.0395C88.5621 29.194 88.5199 29.3654 88.5199 29.5943C88.5199 29.7458 88.5968 29.9712 88.6773 30.2069C88.7862 30.5259 88.8965 30.8638 88.8363 31.0629M88.5199 28.1817C87.7972 26.8257 86.285 25.5727 84.1653 24.4893C79.4496 22.0791 71.7268 20.5081 62.9999 20.5081C54.4281 20.5081 46.8252 22.0237 42.0889 24.3616C39.8184 25.4823 38.2067 26.7919 37.4628 28.2141M94.0588 23.6806C98.4472 25.0128 100.5 27.6495 100.5 32.5081C100.5 33.2502 100.519 33.9827 100.538 34.6944C100.605 37.2076 100.659 39.4639 99.8335 40.9896M94.0588 23.6806C95.4817 21.6957 95.951 19.4568 95.1608 17.0081C92.539 8.8836 78.218 2.66565 62.6608 1.0081C46.5289 3.47209 32.1861 9.81316 30.1608 17.0081C29.5318 19.2428 30.0038 21.3392 31.3274 23.2387M99.8335 40.9896C96.7278 37.1779 93.0254 33.8045 88.8363 31.0629M99.8335 40.9896C106.571 49.2582 110.5 59.5894 110.5 70.0081C110.5 80.6607 106.392 90.7068 99.3756 98.5028M88.8363 31.0629C88.1992 33.1701 85.6759 35.0697 81.897 36.5311C77.157 38.3642 70.4415 39.5081 62.9948 39.5081C55.2 39.5081 48.2065 38.2548 43.4411 36.2696C40.2879 34.9561 38.1103 33.3221 37.3217 31.5188M88.8363 31.0629C87.9253 30.4668 86.9965 29.9005 86.0407 29.3661C84.4363 28.469 82.7703 27.6618 81.0479 26.9537C75.69 24.751 69.7871 23.5081 63.4999 23.5081C56.9041 23.5081 50.7019 24.876 45.0931 27.2849C43.4923 27.9724 41.9398 28.7448 40.4403 29.5943C39.3752 30.1977 38.3316 30.8401 37.3217 31.5188M37.4628 28.2141C34.7528 26.7831 32.6286 25.106 31.3274 23.2387M37.4628 28.2141C37.2704 28.5819 37.3216 28.7913 37.3851 29.0511C37.4219 29.2017 37.4628 29.3692 37.4628 29.5943C37.4628 29.7798 37.4171 30.018 37.3687 30.2698C37.2831 30.7157 37.1842 31.2043 37.3217 31.5188M31.3274 23.2387C27.0677 24.5888 25.0734 27.2191 25.0734 32.0081C25.0734 32.7503 25.0539 33.4826 25.0351 34.1944C24.9525 37.3096 24.8752 40.03 26.4876 41.4537M26.4876 41.4537C29.5501 37.6621 33.1993 34.2886 37.3217 31.5188M63.1319 5.20907C63.0889 5.14346 63.0451 5.07647 62.9999 5.0081C61.7492 6.92796 60.4031 7.5314 56.4999 7.5081V15.5081C58.5119 17.9666 60.1255 18.742 63.4999 19.5081C66.4727 18.6632 67.9314 17.8463 69.9999 15.5081V7.5081C69.4734 7.50683 68.9937 7.4982 68.5556 7.48225C64.542 7.33611 64.0265 6.57535 63.1438 5.22722M63.1319 5.20907C63.1359 5.21513 63.1398 5.22118 63.1438 5.22722M63.1319 5.20907L63.1438 5.22722M67.9378 74.5874C67.9282 74.8522 67.8698 75.1403 67.744 75.4531C66.8383 77.7044 64.7642 79.9065 62.9144 80.4113C62.8574 80.4268 62.8006 80.4408 62.744 80.4531C62.5355 80.4037 62.3244 80.3353 62.1127 80.2497C60.2906 79.513 58.4201 77.5064 57.744 75.4531C57.6545 75.1813 57.6035 74.9279 57.5961 74.6921M67.9378 74.5874C68.008 72.6428 65.1693 71.9531 62.7389 71.9531C60.2678 71.9531 57.5337 72.6854 57.5961 74.6921M67.9378 74.5874C68.2825 74.5352 68.6355 74.5081 68.9948 74.5081C72.8607 74.5081 75.9948 77.6421 75.9948 81.5081C75.9948 85.3741 72.8607 88.5081 68.9948 88.5081C66.0487 88.5081 63.5277 86.6881 62.4948 84.1112C61.4618 86.6881 58.9408 88.5081 55.9948 88.5081C52.1288 88.5081 48.9948 85.3741 48.9948 81.5081C48.9948 77.6421 52.1288 74.5081 55.9948 74.5081C56.5457 74.5081 57.0818 74.5718 57.5961 74.6921M82.0779 110.505C82.2558 110.434 82.4331 110.362 82.6098 110.289M82.6098 110.289L89.6121 96.8112C90.3759 95.3409 92.187 94.7682 93.6573 95.5321L98.7731 98.1899M82.6098 110.289L81.8171 111.825M81.8171 111.825L76.3383 122.371C75.5745 123.841 76.1472 125.652 77.6174 126.416L82.7384 129.076M82.7384 129.076C81.2681 128.313 80.6955 126.502 81.4593 125.031L94.7382 99.4716C95.5011 98.0031 97.3038 97.43 98.7731 98.1899M98.7731 98.1899L99.3756 98.5028M30.3737 170.017V158.008M30.3737 158.008V150.008C30.3737 148.904 31.2691 148.008 32.3737 148.008H34.3737C34.3984 148.008 34.423 148.009 34.4474 148.009M34.4474 148.009L34.8737 131.508M79.3737 158.937V167.185M92.042 145.402C91.2631 143.104 89.939 138.408 90.8737 138.008M79.3737 167.185V169.008C79.3737 170.665 80.7168 172.008 82.3737 172.008H83.8737M83.8737 172.008V162.508M83.8737 172.008C83.8737 169.626 83.8737 165.526 83.8737 162.508M83.8737 162.508C83.8737 160.881 83.8737 159.568 83.8737 159.008L83.7828 158.363C83.4714 157.393 82.4357 157.368 81.8737 157.508M95.949 108.044C96.7887 108.437 97.917 107.8 98.4692 106.62C99.0214 105.44 98.7884 104.166 97.9487 103.772C97.1091 103.379 95.9808 104.017 95.4286 105.197C94.8764 106.376 95.1094 107.651 95.949 108.044ZM52.3737 131.008H40.3737V136.008H52.3737V131.008ZM38.3737 159.008C38.8737 158.508 40.8737 158.508 41.3737 159.008C41.8737 159.508 41.8737 160.508 41.3737 161.008C40.8737 161.508 38.8737 161.508 38.3737 161.008C37.8737 160.508 37.8737 159.508 38.3737 159.008ZM90.8737 160.008C90.9731 160.008 91.0702 160.002 91.1642 159.989C91.8536 159.899 92.3737 159.494 92.3737 159.008C92.3737 158.559 91.9287 158.178 91.3164 158.052C91.1765 158.024 91.0278 158.008 90.8737 158.008C90.6984 158.008 90.5301 158.028 90.3737 158.065C89.7911 158.202 89.3737 158.573 89.3737 159.008C89.3737 159.444 89.7911 159.814 90.3737 159.951C90.5301 159.988 90.6984 160.008 90.8737 160.008ZM46.9999 64.5081C46.9999 66.0081 45.6803 67.0081 44.4999 67.0081C43.3195 67.0081 41.9999 66.0081 41.9999 64.5081C41.9999 62.6639 43.4999 62.0081 44.4999 62.0081C45.4999 62.0081 46.9999 63.0999 46.9999 64.5081ZM74.9999 56.0081H90.9999C92.1044 56.0081 92.9999 55.7842 92.9999 55.5081C92.9999 55.232 92.1044 55.0081 90.9999 55.0081H74.9999C73.8953 55.0081 72.9999 55.232 72.9999 55.5081C72.9999 55.7842 73.8953 56.0081 74.9999 56.0081ZM35.9999 56.0081H51.9999C53.1044 56.0081 53.9999 55.7842 53.9999 55.5081C53.9999 55.232 53.1044 55.0081 51.9999 55.0081H35.9999C34.8953 55.0081 33.9999 55.232 33.9999 55.5081C33.9999 55.7842 34.8953 56.0081 35.9999 56.0081ZM82.9999 64.5081C82.9999 66.0081 81.6803 67.0081 80.4999 67.0081C79.3195 67.0081 77.9999 66.0081 77.9999 64.5081C77.9999 62.6639 79.4999 62.0081 80.4999 62.0081C81.4999 62.0081 82.9999 63.0999 82.9999 64.5081Z" stroke="black" stroke-width="2"/>
</svg>
