<svg width="167" height="189" viewBox="0 0 167 189" fill="none" xmlns="http://www.w3.org/2000/svg">
<mask id="mask0_118_420" style="mask-type:alpha" maskUnits="userSpaceOnUse" x="0" y="0" width="167" height="189">
<rect x="1" y="1" width="165" height="187" fill="#D9D9D9" stroke="black" stroke-width="2"/>
</mask>
<g mask="url(#mask0_118_420)">
<path fill-rule="evenodd" clip-rule="evenodd" d="M119.059 141.514C120.04 141.948 121.358 141.243 122.003 139.94C122.647 138.636 122.375 137.227 121.395 136.792C120.414 136.358 119.097 137.063 118.452 138.366C117.807 139.67 118.079 141.079 119.059 141.514Z" fill="#3F3F3D"/>
<path fill-rule="evenodd" clip-rule="evenodd" d="M138.887 115.307C137.385 114.53 135.502 115.053 134.68 116.474L125.778 131.887C125.715 131.996 125.66 132.107 125.613 132.22L131.084 134.91C131.131 134.843 131.175 134.773 131.217 134.701L140.12 119.288C140.941 117.867 140.389 116.085 138.887 115.307Z" fill="#3F3F3D"/>
<path fill-rule="evenodd" clip-rule="evenodd" d="M117.59 169.455C117.642 169.901 117.708 170.41 117.786 170.96C118.428 170.856 119.035 170.583 119.529 170.166C118.813 169.968 118.158 169.722 117.59 169.455ZM117.59 169.455L117.51 169.362C117.64 169.361 117.647 169.402 117.59 169.455ZM119.059 141.514C120.04 141.948 121.358 141.243 122.003 139.94C122.647 138.636 122.375 137.227 121.395 136.792C120.414 136.358 119.097 137.063 118.452 138.366C117.807 139.67 118.079 141.079 119.059 141.514Z" fill="#3F3F3D"/>
<path fill-rule="evenodd" clip-rule="evenodd" d="M74.4109 232.559C65.5785 234.194 60.6136 234.252 52.3585 232.491C49.0233 234.409 46.9359 237.149 46.9359 240.192C46.9359 245.991 52.7656 248.482 62.1178 248.482C71.4699 248.482 75.5478 243.228 75.5478 237.429C75.5478 235.33 75.2431 233.737 74.4109 232.559Z" fill="#010102"/>
<path fill-rule="evenodd" clip-rule="evenodd" d="M86.5907 232.588C85.7741 233.764 85.4744 235.348 85.4744 237.429C85.4744 243.228 89.5523 248.482 98.9045 248.482C108.257 248.482 114.086 245.991 114.086 240.192C114.086 237.205 112.074 234.509 108.845 232.597C100.169 234.72 95.1092 234.689 86.5907 232.588Z" fill="#010102"/>
<path fill-rule="evenodd" clip-rule="evenodd" d="M41.6165 197.289L41.3106 210.009C38.7794 211.668 34.9235 213.354 31.5846 213.021C35.4031 209.787 37.9807 206.081 35.4715 202.816C33.1943 199.852 29.074 200.846 24.9657 203.007C24.9961 199.984 25.176 196.539 25.5489 192.868C29.2891 196.847 37.8191 197.474 41.6165 197.289Z" fill="#E69D26"/>
<path fill-rule="evenodd" clip-rule="evenodd" d="M51.7245 140.717C51.5645 140.793 51.4085 140.881 51.2581 140.982L41.6165 147.47C40.0792 148.504 39.6894 150.497 40.7094 151.98C40.7357 152.018 40.763 152.056 40.7912 152.093L41.4252 152.937C42.5463 154.43 44.7336 154.779 46.3106 153.718L55.9523 147.231C56.5445 146.832 56.9665 146.291 57.2031 145.692C57.3173 145.403 57.3883 145.101 57.4145 144.794C57.4151 144.787 57.4156 144.781 57.4161 144.774C57.4533 144.305 57.3855 143.827 57.2068 143.373C56.6722 143.148 56.1426 142.915 55.6183 142.676C54.2858 142.068 52.9871 141.414 51.7245 140.717Z" fill="#1E2937"/>
<path fill-rule="evenodd" clip-rule="evenodd" d="M77.8767 148.023L72.7633 153.093C72.9032 153.722 73.2373 154.319 73.7641 154.798L76.3981 157.193L72.4056 187.895L80.5804 195.632L89.3391 187.895L84.8955 157.521L87.5128 154.943C87.9484 154.514 88.2378 154.003 88.3821 153.464L92.2587 157.5L101.7 145.692H98.4859C94.2139 146.93 89.6775 147.722 84.9309 147.997C84.3583 148.03 83.7827 148.056 83.2041 148.074C82.5282 148.095 81.8482 148.105 81.1643 148.105C80.0587 148.105 78.9626 148.078 77.8767 148.023ZM94.447 165.789H105.726L107.877 166.847V168.553H105.541V170.211H107.877V175.184C106.453 178.201 104.967 179.212 101.454 180.158C97.7353 179.367 96.2344 178.24 94.447 175.184V170.211H96.7827V168.553H94.447V165.789ZM119.529 170.166C119.035 170.583 118.428 170.856 117.786 170.96C117.708 170.41 117.642 169.901 117.59 169.455C118.158 169.722 118.813 169.968 119.529 170.166ZM113.441 192.316C113.612 192.135 113.804 191.972 114.013 191.83L113.98 192.316H113.441ZM89.1918 198.659V197.842H86.7627V198.773C83.6871 198.894 80.6759 198.918 77.6536 198.845V198.429H74.0099V198.711V207.789C70.7979 208.161 68.7095 207.962 65.4036 207.061C64.9847 206.947 64.5462 206.821 64.0834 206.684L64.0834 206.943C63.8892 206.925 63.6946 206.907 63.4995 206.889V200.053V197.844V196.737C63.4995 194.906 61.9309 193.421 59.996 193.421H51.8211C50.9238 193.421 50.1053 193.74 49.4855 194.265C49.0428 194.64 48.7015 195.12 48.5052 195.664L48.3176 195.632V196.737V198.652V200.053V209.676V210.009H48.5019L49.0067 213.08L49.4855 215.993L52.1912 232.455L52.3585 232.491C60.6136 234.252 65.5785 234.194 74.4109 232.559C74.5936 232.525 74.7779 232.491 74.9639 232.455L76.1318 218.087L80.8031 217.534L85.4744 218.087L86.0583 232.455C86.2373 232.501 86.4147 232.545 86.5907 232.588C95.1092 234.689 100.169 234.72 108.845 232.597C109.033 232.551 109.223 232.504 109.415 232.455C110.473 225.226 111.341 218.758 112.049 212.763C102.088 212.762 99.1996 212.668 99.12 206.934C99.1189 206.852 99.1183 206.769 99.1183 206.684C98.5136 206.837 97.9504 206.97 97.4082 207.085C95.0317 207.589 93.0609 207.753 89.7757 207.789C86.1169 209.447 84.9169 209.447 80.717 209.447C77.54 209.447 74.7635 209.447 74.028 207.83C79.9456 209.232 83.2692 209.268 89.1918 207.826V198.659ZM68.1708 166.895H54.1568V172.421H68.1708V166.895Z" fill="#82AFD4"/>
<path d="M54.1568 166.895H68.1708V172.421H54.1568V166.895Z" fill="#3C4554"/>
<path fill-rule="evenodd" clip-rule="evenodd" d="M107.877 166.847L105.726 165.789H94.447V168.553H96.7827V170.211H94.447V175.184C96.2344 178.24 97.7353 179.367 101.454 180.158C104.967 179.212 106.453 178.201 107.877 175.184V170.211H105.541V168.553H107.877V166.847Z" fill="#EDD141"/>
<path d="M22.9302 218.882C22.6625 217.139 21.887 215.222 20.6158 213.408C19.2767 211.497 17.6116 210.021 15.9313 209.119C13.8091 207.98 11.6627 207.755 10.1183 208.724C7.35111 210.462 7.56449 215.375 10.5949 219.699C13.6253 224.023 18.3252 226.12 21.0924 224.382C22.6988 223.374 23.3008 221.295 22.9302 218.882Z" fill="#F0EDC6"/>
<path fill-rule="evenodd" clip-rule="evenodd" d="M28.7081 215.231C28.8875 214.238 28.8921 213.176 28.6582 212.052C28.3807 210.718 27.7676 209.295 26.7127 207.789C26.2515 207.131 25.7588 206.587 25.242 206.143C24.2943 205.328 23.2658 204.848 22.203 204.619C17.9216 203.693 13.0824 206.815 10.7175 208.341C10.495 208.484 10.2945 208.614 10.1183 208.724C11.6627 207.755 13.8091 207.98 15.9313 209.119C17.6116 210.021 19.2767 211.497 20.6158 213.408C21.887 215.222 22.6625 217.139 22.9302 218.882C23.3008 221.295 22.6988 223.374 21.0924 224.382C22.9915 223.19 27.8498 219.984 28.7081 215.231Z" fill="#3A3A39"/>
<path fill-rule="evenodd" clip-rule="evenodd" d="M35.4715 202.816C33.1943 199.852 29.074 200.846 24.9657 203.007C24.0371 203.495 23.109 204.043 22.203 204.619C23.2658 204.848 24.2943 205.328 25.242 206.143C25.7588 206.587 26.2515 207.131 26.7127 207.789C27.7676 209.295 28.3807 210.718 28.6582 212.052C28.8921 213.176 28.8875 214.238 28.7081 215.231C29.7025 214.529 30.6785 213.788 31.5846 213.021C35.4031 209.787 37.9807 206.081 35.4715 202.816Z" fill="#3A3A39"/>
<path d="M50.0694 214.421H61.7477C64.0499 214.421 64.0829 212.81 64.0834 206.943C64.0834 206.858 64.0834 206.771 64.0834 206.684C64.5462 206.821 64.9847 206.947 65.4036 207.061C68.7095 207.962 70.7979 208.161 74.0099 207.789C74.0158 207.803 74.0218 207.817 74.028 207.83C74.7635 209.447 77.54 209.447 80.717 209.447C84.9169 209.447 86.1169 209.447 89.7757 207.789C93.0609 207.753 95.0317 207.589 97.4082 207.085C97.9504 206.97 98.5136 206.837 99.1183 206.684C99.1183 206.769 99.1189 206.852 99.12 206.934C99.1996 212.668 102.088 212.762 112.049 212.763C112.213 212.763 112.38 212.763 112.548 212.763L110.116 231.96C100.744 235.296 95.4893 234.899 86.1169 231.96L84.9169 217.457H75.9171L74.7171 231.96C65.4313 234.32 60.3041 234.47 51.3176 232.541L50.0694 214.421Z" fill="#1D3A5E"/>
<path fill-rule="evenodd" clip-rule="evenodd" d="M49.4855 213.577V215.993L49.0067 213.08C49.1483 213.261 49.3088 213.427 49.4855 213.577ZM48.5052 195.664C48.3836 196 48.3176 196.361 48.3176 196.737V195.632L48.5052 195.664Z" fill="#1F2328"/>
<path fill-rule="evenodd" clip-rule="evenodd" d="M97.4082 207.085C97.9746 207.037 98.5451 206.987 99.12 206.934C99.1189 206.852 99.1183 206.769 99.1183 206.684C98.5136 206.837 97.9504 206.97 97.4082 207.085ZM48.3176 195.632L48.5052 195.664C48.3836 196 48.3176 196.361 48.3176 196.737V195.632ZM64.0834 206.684C64.5462 206.821 64.9847 206.947 65.4036 207.061C64.9659 207.023 64.5259 206.984 64.0834 206.943L64.0834 206.684ZM51.8211 197.842C52.4051 197.289 54.7407 197.289 55.3246 197.842C55.9086 198.395 55.9086 199.5 55.3246 200.053C54.7407 200.605 52.4051 200.605 51.8211 200.053C51.2372 199.5 51.2372 198.395 51.8211 197.842ZM77.6536 198.845V200.191H80.6899V202.54H77.0463V204.89C80.9354 206.02 83.065 206.027 86.7627 204.89V198.773C83.6871 198.894 80.6759 198.918 77.6536 198.845Z" fill="#1F2328"/>
<path d="M74.0099 198.711V198.429H77.6536V198.845V200.191H80.6899V202.54H77.0463V204.89C80.9354 206.02 83.065 206.027 86.7627 204.89V198.773V197.842H89.1918V198.659V207.826C83.2692 209.268 79.9456 209.232 74.028 207.83C74.022 207.829 74.016 207.827 74.0099 207.826V207.789V198.711Z" fill="#797B80"/>
<path fill-rule="evenodd" clip-rule="evenodd" d="M49.4855 194.265C49.0428 194.64 48.7015 195.12 48.5052 195.664C48.3836 196 48.3176 196.361 48.3176 196.737V198.652V200.053C48.3176 201.035 48.7687 201.917 49.4855 202.524C50.1053 203.049 50.9238 203.368 51.8211 203.368H59.996C61.9309 203.368 63.4995 201.884 63.4995 200.053V197.844V196.737C63.4995 194.906 61.9309 193.421 59.996 193.421H51.8211C50.9238 193.421 50.1053 193.74 49.4855 194.265ZM51.8211 197.842C52.4051 197.289 54.7407 197.289 55.3246 197.842C55.9086 198.395 55.9086 199.5 55.3246 200.053C54.7407 200.605 52.4051 200.605 51.8211 200.053C51.2372 199.5 51.2372 198.395 51.8211 197.842Z" fill="#1F2328"/>
<path fill-rule="evenodd" clip-rule="evenodd" d="M48.3176 200.053V209.676V210.009V211.105C48.3176 211.845 48.5738 212.529 49.0067 213.08C49.1483 213.261 49.3088 213.427 49.4855 213.577C50.1053 214.102 50.9238 214.421 51.8211 214.421H59.996C61.9309 214.421 63.4995 212.937 63.4995 211.105V206.889V200.053C63.4995 201.884 61.9309 203.368 59.996 203.368H51.8211C50.9238 203.368 50.1053 203.049 49.4855 202.524C48.7687 201.917 48.3176 201.035 48.3176 200.053Z" fill="#1F2328"/>
<path fill-rule="evenodd" clip-rule="evenodd" d="M116.052 191.211C115.291 191.211 114.587 191.44 114.013 191.83C113.804 191.972 113.612 192.135 113.441 192.316H113.98H114.884C116.819 192.316 118.388 193.8 118.388 195.632V201.711V208.895C118.388 210.726 116.819 212.211 114.884 212.211H112.548V214.421C112.548 216.252 114.117 217.737 116.052 217.737H117.317C119.252 217.737 120.821 216.252 120.821 214.421V205.734C120.821 204.621 121.478 203.601 122.524 203.092C123.569 202.583 124.227 201.564 124.227 200.451V194.526C124.227 192.695 122.658 191.211 120.723 191.211H116.052Z" fill="#1F2328"/>
<path fill-rule="evenodd" clip-rule="evenodd" d="M122.003 139.94C121.358 141.243 120.04 141.948 119.059 141.514C118.079 141.079 117.807 139.67 118.452 138.366C119.097 137.063 120.414 136.358 121.395 136.792C122.375 137.227 122.647 138.636 122.003 139.94Z" fill="#3F3F3D"/>
<path d="M117.59 169.455C118.158 169.722 118.813 169.968 119.529 170.166C124.252 171.468 131.605 170.642 133.998 159.508C132.792 157.331 131.138 154.952 129.166 153.076C125.674 149.756 121.185 148.014 116.422 151.771C115.881 152.147 115.308 152.671 114.784 153.336C112.888 155.741 111.631 159.98 114.85 165.621C115.527 166.807 116.402 168.056 117.51 169.362C117.64 169.361 117.647 169.402 117.59 169.455Z" fill="#E69D26"/>
<path fill-rule="evenodd" clip-rule="evenodd" d="M110.383 53.2446C113.203 51.811 115.433 50.1426 116.852 48.2696C121.977 49.7421 124.374 52.6563 124.374 58.0263C124.374 58.8465 124.397 59.6562 124.419 60.4427C124.497 63.2206 124.566 65.7143 123.602 67.4006C119.975 63.1877 115.651 59.4592 110.759 56.429C110.829 56.2089 110.695 55.8355 110.567 55.4829C110.473 55.2224 110.383 54.9733 110.383 54.8058C110.383 54.5528 110.433 54.3633 110.477 54.1926C110.554 53.8974 110.617 53.6585 110.383 53.2446Z" fill="#E69D26"/>
<path fill-rule="evenodd" clip-rule="evenodd" d="M50.7574 53.2804C47.5925 51.6986 45.1118 49.8451 43.5923 47.7811C38.6177 49.2734 36.2886 52.1805 36.2886 57.4737C36.2886 58.294 36.2659 59.1034 36.2439 59.8901C36.1474 63.3333 36.0632 66.34 37.9462 67.9136C41.5227 63.7228 45.7843 59.9943 50.5985 56.9328C50.438 56.5853 50.5475 56.0453 50.6475 55.5524C50.704 55.2741 50.7574 55.0109 50.7574 54.8058C50.7574 54.557 50.7096 54.3719 50.6666 54.2054C50.5925 53.9183 50.5327 53.6868 50.7574 53.2804Z" fill="#E69D26"/>
<path d="M72.9895 30.3947C77.5478 30.4205 79.1199 29.7535 80.5804 27.6316C80.6332 27.7071 80.6844 27.7812 80.7346 27.8537C80.7392 27.8604 80.7438 27.8671 80.7485 27.8738C81.7793 29.3638 82.3814 30.2046 87.0686 30.3662C87.5802 30.3838 88.1404 30.3933 88.7552 30.3947V39.2368C86.3396 41.8212 84.6361 42.7241 81.1643 43.6579C77.2236 42.8111 75.3392 41.9541 72.9895 39.2368V30.3947Z" fill="#D2BA63"/>
<path fill-rule="evenodd" clip-rule="evenodd" d="M116.852 48.2696C118.514 46.0758 119.062 43.6012 118.139 40.8947C115.077 31.915 98.3526 25.0426 80.1844 23.2105C61.3451 25.9339 44.5951 32.9424 42.2299 40.8947C41.4953 43.3647 42.0465 45.6817 43.5923 47.7811C45.1118 49.8451 47.5925 51.6986 50.7574 53.2804C51.6261 51.7084 53.5083 50.2609 56.1599 49.0222C61.6911 46.4383 70.57 44.7632 80.5804 44.7632C90.772 44.7632 99.7909 46.4995 105.298 49.1635C107.774 50.3609 109.539 51.7458 110.383 53.2446C113.203 51.811 115.433 50.1426 116.852 48.2696ZM72.9895 30.3947C77.5478 30.4205 79.1199 29.7535 80.5804 27.6316C80.6332 27.7071 80.6844 27.7812 80.7346 27.8537L80.7485 27.8738C81.7793 29.3638 82.3814 30.2046 87.0686 30.3662C87.5802 30.3838 88.1404 30.3933 88.7552 30.3947V39.2368C86.3396 41.8212 84.6361 42.7241 81.1643 43.6579C77.2236 42.8111 75.3392 41.9541 72.9895 39.2368V30.3947Z" fill="#1D3C63"/>
<path d="M54.2346 54.8058C52.9907 55.4728 51.778 56.1828 50.5985 56.9328C51.5195 58.926 54.0626 60.732 57.745 62.1838C63.3102 64.3779 71.4775 65.7632 80.5804 65.7632C89.2769 65.7632 97.1195 64.4989 102.655 62.4728C107.068 60.8575 110.015 58.758 110.759 56.429C109.695 55.7701 108.604 55.1442 107.488 54.5535C105.615 53.5621 103.669 52.6699 101.658 51.8873C95.4004 49.4527 88.5067 48.0789 81.1643 48.0789C73.4616 48.0789 66.2184 49.5909 59.6683 52.2533C57.7988 53.0132 55.9858 53.8668 54.2346 54.8058Z" fill="#020204"/>
<path d="M74.4424 105.492C75.2319 107.761 77.4164 109.979 79.5443 110.793C79.7916 110.888 80.0381 110.964 80.2816 111.018C80.3476 111.005 80.414 110.989 80.4806 110.972C82.6409 110.414 85.0631 107.98 86.1208 105.492C86.2677 105.146 86.3419 104.828 86.353 104.535C86.435 102.386 83.1199 101.623 80.2816 101.623C77.3958 101.623 74.2028 102.433 74.2757 104.651C74.2843 104.911 74.3379 105.191 74.4424 105.492Z" fill="#1A100C"/>
<path fill-rule="evenodd" clip-rule="evenodd" d="M72.4056 119.921C75.8461 119.921 78.7902 117.91 79.9965 115.061C81.2028 117.91 84.1469 119.921 87.5874 119.921C92.1022 119.921 95.7622 116.457 95.7622 112.184C95.7622 107.911 92.1022 104.447 87.5874 104.447C87.1678 104.447 86.7556 104.477 86.353 104.535C86.3419 104.828 86.2677 105.146 86.1208 105.492C85.0631 107.98 82.6409 110.414 80.4806 110.972C80.414 110.989 80.3476 111.005 80.2816 111.018C80.0381 110.964 79.7916 110.888 79.5443 110.793C77.4164 109.979 75.2319 107.761 74.4424 105.492C74.3379 105.191 74.2843 104.911 74.2757 104.651C73.6751 104.518 73.049 104.447 72.4056 104.447C67.8907 104.447 64.2307 107.911 64.2307 112.184C64.2307 116.457 67.8907 119.921 72.4056 119.921Z" fill="#F7F9F8"/>
<path d="M56.1599 49.0222C53.5083 50.2609 51.6261 51.7084 50.7574 53.2804C50.5327 53.6868 50.5925 53.9183 50.6666 54.2054C50.7096 54.3719 50.7574 54.557 50.7574 54.8058C50.7574 55.0109 50.704 55.2741 50.6475 55.5524C50.5475 56.0453 50.438 56.5853 50.5985 56.9328C51.778 56.1828 52.9907 55.4728 54.2346 54.8058C55.9858 53.8668 57.7988 53.0132 59.6683 52.2533C66.2184 49.5909 73.4616 48.0789 81.1643 48.0789C88.5067 48.0789 95.4004 49.4527 101.658 51.8873C103.669 52.6699 105.615 53.5621 107.488 54.5535C108.604 55.1442 109.695 55.7701 110.759 56.429C110.829 56.2089 110.695 55.8355 110.567 55.4829C110.473 55.2224 110.383 54.9733 110.383 54.8058C110.383 54.5528 110.433 54.3633 110.477 54.1926C110.554 53.8974 110.617 53.6585 110.383 53.2446C109.539 51.7458 107.774 50.3609 105.298 49.1635C99.7909 46.4995 90.772 44.7632 80.5804 44.7632C70.57 44.7632 61.6911 46.4383 56.1599 49.0222Z" fill="#2A3445"/>
<path fill-rule="evenodd" clip-rule="evenodd" d="M78.4631 159.071L76.3981 157.193L72.4056 187.895L80.5804 195.632L89.3391 187.895L84.8955 157.521L83.4168 158.977C82.0762 160.298 79.8583 160.34 78.4631 159.071Z" fill="#1D395E"/>
<path fill-rule="evenodd" clip-rule="evenodd" d="M102.866 144.234C101.44 144.773 99.9791 145.26 98.4859 145.692C94.2139 146.93 89.6775 147.722 84.9309 147.997C84.3583 148.03 83.7827 148.056 83.2041 148.074L88.3821 153.464L92.2587 157.5L101.7 145.692L102.866 144.234Z" fill="#899AAF"/>
<path fill-rule="evenodd" clip-rule="evenodd" d="M57.4161 144.774C57.4533 144.305 57.3855 143.827 57.2068 143.373C56.6722 143.148 56.1426 142.915 55.6183 142.676L57.4161 144.774Z" fill="#899AAF"/>
<path fill-rule="evenodd" clip-rule="evenodd" d="M77.8767 148.023L72.7633 153.093C72.9032 153.722 73.2373 154.319 73.7641 154.798L76.3981 157.193L78.4631 159.071C79.8583 160.34 82.0762 160.298 83.4168 158.977L84.8955 157.521L87.5128 154.943C87.9484 154.514 88.2378 154.003 88.3821 153.464L83.2041 148.074C82.5282 148.095 81.8482 148.105 81.1643 148.105C80.0587 148.105 78.9626 148.078 77.8767 148.023Z" fill="#1D395E"/>
<path fill-rule="evenodd" clip-rule="evenodd" d="M116.389 127.684C114.672 126.84 112.557 127.473 111.665 129.098L103.487 143.995L102.556 145.692L96.1575 157.348C95.2654 158.973 95.9342 160.975 97.6513 161.819L103.632 164.76C101.915 163.916 101.246 161.914 102.138 160.289L117.645 132.039C118.536 130.415 120.648 129.782 122.364 130.622L116.389 127.684Z" fill="#3F3F3D"/>
<path d="M123.067 130.968L122.364 130.622C120.648 129.782 118.536 130.415 117.645 132.039L102.138 160.289C101.246 161.914 101.915 163.916 103.632 164.76L105.726 165.789L107.877 166.847L115.579 170.634C116.285 170.981 117.058 171.079 117.786 170.96C117.708 170.41 117.642 169.901 117.59 169.455L117.51 169.362C116.402 168.056 115.527 166.807 114.85 165.621C111.631 159.98 112.888 155.741 114.784 153.336C115.308 152.671 115.881 152.147 116.422 151.771C121.185 148.014 125.674 149.756 129.166 153.076L135.811 140.97C136.703 139.345 136.034 137.344 134.317 136.499L131.084 134.91L125.613 132.22L123.067 130.968ZM122.003 139.94C121.358 141.243 120.04 141.948 119.059 141.514C118.079 141.079 117.807 139.67 118.452 138.366C119.097 137.063 120.414 136.358 121.395 136.792C122.375 137.227 122.647 138.636 122.003 139.94Z" fill="#3F3F3D"/>
<path fill-rule="evenodd" clip-rule="evenodd" d="M57.4325 144.794L57.4145 144.794C57.3883 145.101 57.3173 145.403 57.2031 145.692C56.9665 146.291 56.5445 146.832 55.9523 147.231L46.3106 153.718C44.7336 154.779 42.5463 154.43 41.4252 152.937L40.7912 152.093C40.763 152.056 40.7357 152.018 40.7094 151.98C31.2172 161.533 26.9738 178.842 25.5489 192.868C29.2891 196.847 37.8191 197.474 41.6165 197.289L41.3106 210.009H42.4785V196.737V187.895C42.4785 186.674 43.5242 185.684 44.8141 185.684H47.1498C47.1786 185.684 47.2074 185.685 47.2359 185.686C48.486 185.729 49.4855 186.701 49.4855 187.895V194.265C50.1053 193.74 50.9238 193.421 51.8211 193.421H59.996C61.9309 193.421 63.4995 194.906 63.4995 196.737V197.844C67.1263 198.254 70.5942 198.543 74.0099 198.711V198.429H77.6536V198.845C80.6759 198.918 83.6871 198.894 86.7627 198.773V197.842H89.1918V198.659C92.5646 198.474 96.0361 198.176 99.7023 197.764V195.632C99.7023 193.8 101.271 192.316 103.206 192.316H113.441C113.612 192.135 113.804 191.972 114.013 191.83C114.213 188.803 114.373 185.813 114.497 182.804C119.398 186.782 127.067 190.114 135.107 185.482C138.416 182.534 143.049 173.656 135.107 161.719C134.798 161.028 134.426 160.281 133.998 159.508C131.605 170.642 124.252 171.468 119.529 170.166C119.035 170.583 118.428 170.856 117.786 170.96C117.058 171.079 116.285 170.981 115.579 170.634L107.877 166.847V168.553H105.541V170.211H107.877V175.184C106.453 178.201 104.967 179.212 101.454 180.158C97.7353 179.367 96.2344 178.24 94.447 175.184V170.211H96.7827V168.553H94.447V165.789H105.726L103.632 164.76L97.6513 161.819C95.9342 160.975 95.2654 158.973 96.1575 157.348L102.556 145.692H101.7L92.2587 157.5L88.3821 153.464C88.2378 154.003 87.9484 154.514 87.5128 154.943L84.8955 157.521L89.3391 187.895L80.5804 195.632L72.4056 187.895L76.3981 157.193L73.7641 154.798C73.2373 154.319 72.9032 153.722 72.7633 153.093L68.3182 157.5L57.4325 144.794ZM68.1708 166.895H54.1568V172.421H68.1708V166.895Z" fill="#82AFD4"/>
<path fill-rule="evenodd" clip-rule="evenodd" d="M57.2068 143.373C57.3855 143.827 57.4533 144.305 57.4161 144.774L57.4325 144.794L68.3182 157.5L72.7633 153.093L77.8767 148.023C77.2189 147.99 76.5648 147.947 75.9146 147.894C71.6943 147.552 67.6374 146.801 63.786 145.692C62.9138 145.441 62.0522 145.172 61.2015 144.885C59.8411 144.425 58.5089 143.92 57.2068 143.373Z" fill="#899AAF"/>
<path fill-rule="evenodd" clip-rule="evenodd" d="M63.786 145.692C67.6374 146.801 71.6943 147.552 75.9146 147.894C76.5648 147.947 77.2189 147.99 77.8767 148.023C78.9626 148.078 80.0587 148.105 81.1643 148.105C81.8482 148.105 82.5282 148.095 83.2041 148.074C83.7827 148.056 84.3583 148.03 84.9309 147.997C89.6775 147.722 94.2139 146.93 98.4859 145.692C99.9791 145.26 101.44 144.773 102.866 144.234C103.074 144.155 103.281 144.076 103.487 143.995L111.665 129.098C112.557 127.473 114.672 126.84 116.389 127.684L122.364 130.622L123.067 130.968C131.261 122.351 136.058 111.248 136.058 99.4737C136.058 87.9583 131.47 76.5396 123.602 67.4006C119.975 63.1877 115.651 59.4592 110.759 56.429C110.015 58.758 107.068 60.8575 102.655 62.4728C97.1195 64.4989 89.2769 65.7632 80.5804 65.7632C71.4775 65.7632 63.3102 64.3779 57.745 62.1838C54.0626 60.732 51.5195 58.926 50.5985 56.9328C45.7843 59.9943 41.5227 63.7228 37.9462 67.9136C30.2214 76.9649 25.6923 88.1727 25.6923 99.4737C25.6923 116.411 35.8662 131.962 51.7245 140.717C52.9871 141.414 54.2858 142.068 55.6183 142.676C56.1426 142.915 56.6722 143.148 57.2068 143.373C58.5089 143.92 59.8411 144.425 61.2015 144.885C62.0522 145.172 62.9138 145.441 63.786 145.692ZM80.2816 101.623C83.1199 101.623 86.435 102.386 86.353 104.535C86.7556 104.477 87.1678 104.447 87.5874 104.447C92.1022 104.447 95.7622 107.911 95.7622 112.184C95.7622 116.457 92.1022 119.921 87.5874 119.921C84.1469 119.921 81.2028 117.91 79.9965 115.061C78.7902 117.91 75.8461 119.921 72.4056 119.921C67.8907 119.921 64.2307 116.457 64.2307 112.184C64.2307 107.911 67.8907 104.447 72.4056 104.447C73.049 104.447 73.6751 104.518 74.2757 104.651C74.2028 102.433 77.3958 101.623 80.2816 101.623Z" fill="#E69D26"/>
<path d="M113.132 198.947C113.248 198.947 113.362 198.94 113.472 198.927C114.277 198.827 114.884 198.379 114.884 197.842C114.884 197.345 114.364 196.925 113.649 196.786C113.486 196.754 113.312 196.737 113.132 196.737C112.928 196.737 112.731 196.759 112.548 196.8C111.868 196.951 111.381 197.361 111.381 197.842C111.381 198.323 111.868 198.733 112.548 198.884C112.731 198.925 112.928 198.947 113.132 198.947Z" fill="#1F2328"/>
<path fill-rule="evenodd" clip-rule="evenodd" d="M113.441 192.316H103.206C101.271 192.316 99.7023 193.8 99.7023 195.632V197.764V206.88V208.895C99.7023 210.726 101.271 212.211 103.206 212.211H104.958V201.711C106.425 202.174 109.323 202.753 112.548 202.681C112.742 202.677 112.937 202.67 113.133 202.661C113.71 202.634 114.296 202.584 114.884 202.509C116.06 202.359 117.244 202.104 118.388 201.711V195.632C118.388 193.8 116.819 192.316 114.884 192.316H113.98H113.441ZM114.884 197.842C114.884 198.379 114.277 198.827 113.472 198.927C113.362 198.94 113.248 198.947 113.132 198.947C112.928 198.947 112.731 198.925 112.548 198.884C111.868 198.733 111.381 198.323 111.381 197.842C111.381 197.361 111.868 196.951 112.548 196.8C112.731 196.759 112.928 196.737 113.132 196.737C113.312 196.737 113.486 196.754 113.649 196.786C114.364 196.925 114.884 197.345 114.884 197.842Z" fill="#1F2328"/>
<path fill-rule="evenodd" clip-rule="evenodd" d="M112.114 212.211H112.548H114.884C116.819 212.211 118.388 210.726 118.388 208.895V201.711C117.244 202.104 116.06 202.359 114.884 202.509C114.296 202.584 113.71 202.634 113.133 202.661C112.937 202.67 112.742 202.677 112.548 202.681C109.323 202.753 106.425 202.174 104.958 201.711V212.211H103.206C101.271 212.211 99.7023 210.726 99.7023 208.895V206.88C99.5077 206.898 99.3136 206.916 99.12 206.934C99.1996 212.668 102.088 212.762 112.049 212.763L112.114 212.211Z" fill="#1F2328"/>
<path fill-rule="evenodd" clip-rule="evenodd" d="M47.2359 185.686C47.2074 185.685 47.1786 185.684 47.1498 185.684H44.8141C43.5242 185.684 42.4785 186.674 42.4785 187.895V196.737C42.4785 197.958 43.5242 198.947 44.8141 198.947H47.1498C47.5752 198.947 47.9741 198.84 48.3176 198.652V196.737V195.632L48.5052 195.664C48.7015 195.12 49.0428 194.64 49.4855 194.265V187.895C49.4855 186.701 48.486 185.729 47.2359 185.686Z" fill="#1F2328"/>
<path fill-rule="evenodd" clip-rule="evenodd" d="M48.3176 200.053V198.652C47.9741 198.84 47.5752 198.947 47.1498 198.947H44.8141C43.5242 198.947 42.4785 197.958 42.4785 196.737V210.009V218.842C42.4785 220.063 43.5242 221.053 44.8141 221.053H47.1498C48.4398 221.053 49.4855 220.063 49.4855 218.842V215.993L49.0067 213.08C48.5738 212.529 48.3176 211.845 48.3176 211.105V210.009V209.676V200.053Z" fill="#1F2328"/>
<path fill-rule="evenodd" clip-rule="evenodd" d="M74.0099 198.711C70.5942 198.543 67.1263 198.254 63.4995 197.844V200.053V206.889C63.6946 206.907 63.8892 206.925 64.0834 206.943L64.0834 206.684C64.5462 206.821 64.9847 206.947 65.4036 207.061C68.7095 207.962 70.7979 208.161 74.0099 207.789V198.711Z" fill="#1F2328"/>
<path fill-rule="evenodd" clip-rule="evenodd" d="M99.7023 197.764C96.0361 198.176 92.5646 198.474 89.1918 198.659V207.826C83.2692 209.268 79.9456 209.232 74.028 207.83C74.7635 209.447 77.54 209.447 80.717 209.447C84.9169 209.447 86.1169 209.447 89.7757 207.789C93.0609 207.753 95.0317 207.589 97.4082 207.085C97.9504 206.97 98.5136 206.837 99.1183 206.684C99.1183 206.769 99.1189 206.852 99.12 206.934C99.3136 206.916 99.5077 206.898 99.7023 206.88V197.764Z" fill="#1F2328"/>
<path d="M61.6452 93.8832C61.6452 95.634 60.3267 97 58.3237 97C56.4392 97 55 95.7464 55 93.8832C55 92.0199 56.2464 90.5 58.3237 90.5C60.2303 90.5 61.6452 92 61.6452 93.8832Z" fill="#280C00"/>
<path d="M118.895 78.9775C118.481 77.5064 116.778 78.5452 115.224 78.9377L97.1576 83.5C95.6033 83.8925 91.4807 84.5289 91.8954 86C92.3102 87.4711 96.7747 85.9548 98.3291 85.5623L116.395 81C117.95 80.6075 119.31 80.4485 118.895 78.9775Z" fill="#280C00"/>
<path d="M45.5454 79.4152C45.9602 77.9441 47.6556 79.0227 49.21 79.4152L67.2764 83.9775C68.8307 84.37 70.9147 84.5289 70.5 86C70.0853 87.4711 68.0544 86.3925 66.5 86L48.4336 81.4377C46.8793 81.0452 45.1307 80.8863 45.5454 79.4152Z" fill="#280C00"/>
<path d="M122.622 116.889C122.622 119.364 121.054 120.474 119.119 120.474C117.184 120.474 115.615 119.364 115.615 116.889C115.615 114.415 118.681 113.362 119.119 111.065C119.557 108.767 122.622 114.415 122.622 116.889Z" fill="#BFD9EE"/>
<path d="M119.119 69.363C119.119 71.8375 117.55 72.9474 115.615 72.9474C113.68 72.9474 112.112 71.8375 112.112 69.363C112.112 66.8885 115.177 65.8357 115.615 63.5383C116.053 61.2409 119.119 66.8885 119.119 69.363Z" fill="#BFD9EE"/>
<path d="M45.5454 103.626C45.5454 106.101 43.9769 107.211 42.042 107.211C40.107 107.211 38.5385 106.101 38.5385 103.626C38.5385 101.152 41.604 100.099 42.042 97.8015C42.4799 95.5041 45.5454 101.152 45.5454 103.626Z" fill="#BFD9EE"/>
<path d="M45.5454 103.626C45.5454 106.101 43.9769 107.211 42.042 107.211C40.107 107.211 38.5385 106.101 38.5385 103.626C38.5385 101.152 41.604 100.099 42.042 97.8015C42.4799 95.5041 45.5454 101.152 45.5454 103.626Z" fill="#BFD9EE"/>
<path d="M51.3846 124.626C51.3846 127.101 49.816 128.211 47.8811 128.211C45.9462 128.211 44.3776 127.101 44.3776 124.626C44.3776 122.152 47.4432 121.099 47.8811 118.801C48.319 116.504 51.3846 122.152 51.3846 124.626Z" fill="#BFD9EE"/>
<path d="M59.5594 71.5735C59.5594 74.048 57.9909 75.1579 56.0559 75.1579C54.121 75.1579 52.5524 74.048 52.5524 71.5735C52.5524 69.099 55.618 68.0462 56.0559 65.7488C56.4939 63.4514 59.5594 69.099 59.5594 71.5735Z" fill="#BFD9EE"/>
<path d="M105.645 93.8832C105.645 95.634 104.327 97 102.324 97C100.439 97 99 95.7464 99 93.8832C99 92.0199 100.246 90.5 102.324 90.5C104.23 90.5 105.645 92 105.645 93.8832Z" fill="#280C00"/>
<path d="M125.613 132.22C125.66 132.107 125.715 131.996 125.778 131.887L134.68 116.474C135.502 115.053 137.385 114.53 138.887 115.307C140.389 116.085 140.941 117.867 140.12 119.288L131.217 134.701C131.175 134.773 131.131 134.843 131.084 134.91M125.613 132.22L131.084 134.91M125.613 132.22L123.067 130.968M131.084 134.91L134.317 136.499C136.034 137.344 136.703 139.345 135.811 140.97L129.166 153.076M117.59 169.455C117.642 169.901 117.708 170.41 117.786 170.96M117.59 169.455C118.158 169.722 118.813 169.968 119.529 170.166M117.59 169.455L117.51 169.362M117.59 169.455C117.647 169.402 117.64 169.361 117.51 169.362M117.59 169.455C117.563 169.424 117.537 169.393 117.51 169.362M117.786 170.96C118.428 170.856 119.035 170.583 119.529 170.166M117.786 170.96C117.058 171.079 116.285 170.981 115.579 170.634L107.877 166.847M117.786 170.96C118.287 174.505 119.296 179.743 120.509 180.508M119.529 170.166C124.252 171.468 131.605 170.642 133.998 159.508M117.51 169.362C116.402 168.056 115.527 166.807 114.85 165.621C111.631 159.98 112.888 155.741 114.784 153.336C115.308 152.671 115.881 152.147 116.422 151.771C121.185 148.014 125.674 149.756 129.166 153.076M74.4109 232.559C65.5785 234.194 60.6136 234.252 52.3585 232.491M74.4109 232.559C75.2431 233.737 75.5478 235.33 75.5478 237.429C75.5478 243.228 71.4699 248.482 62.1178 248.482C52.7656 248.482 46.9359 245.991 46.9359 240.192C46.9359 237.149 49.0233 234.409 52.3585 232.491M74.4109 232.559C74.5936 232.525 74.7779 232.491 74.9639 232.455L76.1318 218.087L80.8031 217.534L85.4744 218.087L86.0583 232.455C86.2373 232.501 86.4148 232.545 86.5907 232.588M52.3585 232.491L52.1912 232.455L49.4855 215.993M86.5907 232.588C85.7741 233.764 85.4744 235.348 85.4744 237.429C85.4744 243.228 89.5523 248.482 98.9045 248.482C108.257 248.482 114.086 245.991 114.086 240.192C114.086 237.205 112.074 234.509 108.845 232.597M86.5907 232.588C95.1092 234.689 100.169 234.72 108.845 232.597M108.845 232.597C109.033 232.551 109.223 232.504 109.415 232.455C110.473 225.226 111.341 218.758 112.049 212.763M41.3106 210.009L41.6165 197.289C37.8191 197.474 29.2891 196.847 25.5489 192.868M41.3106 210.009C38.7794 211.668 34.9235 213.354 31.5846 213.021M41.3106 210.009H42.4785M31.5846 213.021C35.4031 209.787 37.9807 206.081 35.4715 202.816C33.1943 199.852 29.074 200.846 24.9657 203.007M31.5846 213.021C30.6785 213.788 29.7025 214.529 28.7081 215.231M24.9657 203.007C24.9961 199.984 25.176 196.539 25.5489 192.868M24.9657 203.007C24.0371 203.495 23.109 204.043 22.203 204.619M25.5489 192.868C26.9738 178.842 31.2172 161.533 40.7094 151.98M51.7245 140.717C51.5645 140.793 51.4085 140.881 51.2581 140.982L41.6165 147.47C40.0792 148.504 39.6894 150.497 40.7094 151.98M51.7245 140.717C52.9871 141.414 54.2858 142.068 55.6183 142.676M51.7245 140.717C35.8662 131.962 25.6923 116.411 25.6923 99.4737C25.6923 88.1727 30.2214 76.9649 37.9462 67.9136M40.7094 151.98C40.7357 152.018 40.763 152.056 40.7912 152.093L41.4252 152.937C42.5463 154.43 44.7336 154.779 46.3106 153.718L55.9523 147.231C56.5445 146.832 56.9665 146.291 57.2031 145.692C57.3173 145.403 57.3883 145.101 57.4145 144.794M57.4145 144.794C57.415 144.787 57.4156 144.781 57.4161 144.774M57.4145 144.794L57.4325 144.794M57.4161 144.774C57.4533 144.305 57.3855 143.827 57.2068 143.373M57.4161 144.774L55.6183 142.676M57.4161 144.774L57.4325 144.794M57.2068 143.373C56.6722 143.148 56.1426 142.915 55.6183 142.676M57.2068 143.373C58.5089 143.92 59.8411 144.425 61.2015 144.885C62.0522 145.172 62.9138 145.441 63.786 145.692C67.6374 146.801 71.6943 147.552 75.9146 147.894C76.5648 147.947 77.2189 147.99 77.8767 148.023M77.8767 148.023L72.7633 153.093M77.8767 148.023C78.9626 148.078 80.0587 148.105 81.1643 148.105C81.8482 148.105 82.5282 148.095 83.2041 148.074M72.7633 153.093C72.9031 153.722 73.2373 154.319 73.7641 154.798L76.3981 157.193M72.7633 153.093L68.3182 157.5L57.4325 144.794M76.3981 157.193L72.4056 187.895L80.5804 195.632L89.3391 187.895L84.8955 157.521M76.3981 157.193L78.4631 159.071C79.8583 160.34 82.0762 160.298 83.4168 158.977L84.8955 157.521M84.8955 157.521L87.5128 154.943C87.9484 154.514 88.2378 154.003 88.3821 153.464M88.3821 153.464L92.2587 157.5L101.7 145.692M88.3821 153.464L83.2041 148.074M101.7 145.692H98.4859M101.7 145.692L102.866 144.234M101.7 145.692H102.556M98.4859 145.692C94.2139 146.93 89.6775 147.722 84.9309 147.997C84.3583 148.03 83.7827 148.056 83.2041 148.074M98.4859 145.692C99.9791 145.26 101.44 144.773 102.866 144.234M105.726 165.789H94.447V168.553H96.7827V170.211H94.447V175.184C96.2344 178.24 97.7353 179.367 101.454 180.158C104.967 179.212 106.453 178.201 107.877 175.184V170.211H105.541V168.553H107.877V166.847M105.726 165.789L107.877 166.847M105.726 165.789L103.632 164.76M113.441 192.316C113.612 192.135 113.804 191.972 114.013 191.83M113.441 192.316H113.98M113.441 192.316H103.206C101.271 192.316 99.7023 193.8 99.7023 195.632V197.764M114.013 191.83L113.98 192.316M114.013 191.83C114.587 191.44 115.291 191.211 116.052 191.211H120.723C122.658 191.211 124.227 192.695 124.227 194.526V200.451C124.227 201.564 123.569 202.583 122.524 203.092C121.478 203.601 120.821 204.621 120.821 205.734V214.421C120.821 216.252 119.252 217.737 117.317 217.737H116.052C114.117 217.737 112.548 216.252 112.548 214.421V212.211M114.013 191.83C114.213 188.803 114.373 185.813 114.497 182.804M113.98 192.316H114.884C116.819 192.316 118.388 193.8 118.388 195.632V201.711M89.1918 198.659V197.842H86.7627V198.773M89.1918 198.659C92.5646 198.474 96.0361 198.176 99.7023 197.764M89.1918 198.659V207.826C83.2693 209.268 79.9456 209.232 74.028 207.83M86.7627 198.773C83.6871 198.894 80.6759 198.918 77.6536 198.845M86.7627 198.773V204.89C83.065 206.027 80.9354 206.02 77.0463 204.89V202.54H80.6899V200.191H77.6536V198.845M77.6536 198.845V198.429H74.0099V198.711M74.0099 198.711C70.5942 198.543 67.1263 198.254 63.4995 197.844M74.0099 198.711V207.789M74.0099 207.789C70.7979 208.161 68.7095 207.962 65.4036 207.061M74.0099 207.789C74.0158 207.803 74.0218 207.817 74.028 207.83M74.0099 207.789V207.826C74.016 207.827 74.022 207.829 74.028 207.83M65.4036 207.061C64.9847 206.947 64.5462 206.821 64.0834 206.684M65.4036 207.061C64.9659 207.023 64.5259 206.984 64.0834 206.943M64.0834 206.684L64.0834 206.943M64.0834 206.684C64.0834 206.771 64.0834 206.858 64.0834 206.943M64.0834 206.943C63.8892 206.925 63.6946 206.907 63.4995 206.889M64.0834 206.943C64.0829 212.81 64.0499 214.421 61.7477 214.421H50.0694L51.3176 232.541C60.3041 234.47 65.4313 234.32 74.7171 231.96L75.9171 217.457H84.9169L86.1169 231.96C95.4893 234.899 100.744 235.296 110.116 231.96L112.548 212.763C112.38 212.763 112.213 212.763 112.049 212.763M63.4995 206.889V200.053M63.4995 206.889V211.105C63.4995 212.937 61.9309 214.421 59.996 214.421H51.8211C50.9238 214.421 50.1053 214.102 49.4855 213.577M63.4995 200.053V197.844M63.4995 200.053C63.4995 201.884 61.9309 203.368 59.996 203.368H51.8211C50.9238 203.368 50.1053 203.049 49.4855 202.524C48.7687 201.917 48.3176 201.035 48.3176 200.053M63.4995 197.844V196.737C63.4995 194.906 61.9309 193.421 59.996 193.421H51.8211C50.9238 193.421 50.1053 193.74 49.4855 194.265M49.4855 194.265C49.0428 194.64 48.7015 195.12 48.5052 195.664M49.4855 194.265V187.895C49.4855 186.701 48.486 185.729 47.2359 185.686M48.5052 195.664L48.3176 195.632V196.737M48.5052 195.664C48.3836 196 48.3176 196.361 48.3176 196.737M48.3176 196.737V198.652M48.3176 198.652V200.053M48.3176 198.652C47.9741 198.84 47.5752 198.947 47.1498 198.947H44.8141C43.5242 198.947 42.4785 197.958 42.4785 196.737M48.3176 200.053V209.676M48.3176 209.676V210.009M48.3176 209.676L48.5019 210.009M48.3176 210.009H48.5019M48.3176 210.009V211.105C48.3176 211.845 48.5738 212.529 49.0067 213.08M48.5019 210.009L49.0067 213.08M49.0067 213.08L49.4855 215.993M49.0067 213.08C49.1483 213.261 49.3088 213.427 49.4855 213.577M49.4855 215.993V213.577M49.4855 215.993V218.842C49.4855 220.063 48.4398 221.053 47.1498 221.053H44.8141C43.5242 221.053 42.4785 220.063 42.4785 218.842V210.009M112.049 212.763C102.088 212.762 99.1996 212.668 99.12 206.934M112.049 212.763L112.114 212.211H112.548M99.12 206.934C99.1189 206.852 99.1183 206.769 99.1183 206.684C98.5136 206.837 97.9504 206.97 97.4082 207.085M99.12 206.934C98.5451 206.987 97.9746 207.037 97.4082 207.085M99.12 206.934C99.3136 206.916 99.5077 206.898 99.7023 206.88M97.4082 207.085C95.0317 207.589 93.0609 207.753 89.7757 207.789C86.1169 209.447 84.9169 209.447 80.717 209.447C77.54 209.447 74.7635 209.447 74.028 207.83M10.1183 208.724C11.6627 207.755 13.8091 207.98 15.9313 209.119C17.6116 210.021 19.2767 211.497 20.6158 213.408C21.887 215.222 22.6625 217.139 22.9302 218.882C23.3008 221.295 22.6988 223.374 21.0924 224.382M10.1183 208.724C7.35111 210.462 7.56449 215.375 10.5949 219.699C13.6253 224.023 18.3252 226.12 21.0924 224.382M10.1183 208.724C10.2945 208.614 10.495 208.484 10.7175 208.341C13.0824 206.815 17.9216 203.693 22.203 204.619M21.0924 224.382C22.9915 223.19 27.8498 219.984 28.7081 215.231M28.7081 215.231C28.8875 214.238 28.8921 213.176 28.6582 212.052C28.3807 210.718 27.7676 209.295 26.7127 207.789C26.2515 207.131 25.7588 206.587 25.242 206.143C24.2943 205.328 23.2658 204.848 22.203 204.619M118.388 201.711V208.895C118.388 210.726 116.819 212.211 114.884 212.211H112.548M118.388 201.711C117.244 202.104 116.06 202.359 114.884 202.509C114.296 202.584 113.71 202.634 113.133 202.661C112.937 202.67 112.742 202.676 112.548 202.681C109.323 202.753 106.425 202.174 104.958 201.711M133.998 159.508C132.792 157.331 131.138 154.952 129.166 153.076M133.998 159.508C134.426 160.281 134.798 161.028 135.107 161.719C143.049 173.655 138.416 182.534 135.107 185.482C127.067 190.114 119.398 186.782 114.497 182.804M110.383 53.2446C113.203 51.811 115.433 50.1426 116.852 48.2696M110.383 53.2446C110.617 53.6585 110.554 53.8974 110.477 54.1926C110.433 54.3633 110.383 54.5528 110.383 54.8058C110.383 54.9733 110.473 55.2224 110.567 55.4829C110.695 55.8355 110.829 56.2089 110.759 56.429M110.383 53.2446C109.539 51.7458 107.774 50.3609 105.298 49.1635C99.7909 46.4995 90.772 44.7632 80.5804 44.7632C70.57 44.7632 61.6911 46.4383 56.1599 49.0222C53.5083 50.2609 51.6261 51.7084 50.7574 53.2804M116.852 48.2696C121.977 49.7421 124.374 52.6563 124.374 58.0263C124.374 58.8465 124.397 59.6562 124.419 60.4427C124.497 63.2206 124.566 65.7143 123.602 67.4006M116.852 48.2696C118.514 46.0758 119.062 43.6012 118.139 40.8947C115.077 31.915 98.3526 25.0426 80.1844 23.2105C61.3451 25.9339 44.5951 32.9424 42.2299 40.8947C41.4953 43.3647 42.0465 45.6817 43.5923 47.7811M123.602 67.4006C119.975 63.1877 115.651 59.4592 110.759 56.429M123.602 67.4006C131.47 76.5396 136.058 87.9583 136.058 99.4737C136.058 111.248 131.261 122.351 123.067 130.968M110.759 56.429C110.015 58.758 107.068 60.8575 102.655 62.4728C97.1195 64.4989 89.2769 65.7632 80.5804 65.7632C71.4775 65.7632 63.3102 64.3779 57.745 62.1838C54.0626 60.732 51.5195 58.926 50.5985 56.9328M110.759 56.429C109.695 55.7701 108.604 55.1442 107.488 54.5535C105.615 53.5621 103.669 52.6699 101.658 51.8873C95.4004 49.4527 88.5067 48.0789 81.1643 48.0789C73.4616 48.0789 66.2184 49.5909 59.6683 52.2533C57.7988 53.0132 55.9858 53.8668 54.2346 54.8058C52.9907 55.4728 51.778 56.1828 50.5985 56.9328M50.7574 53.2804C47.5925 51.6986 45.1118 49.8451 43.5923 47.7811M50.7574 53.2804C50.5327 53.6868 50.5925 53.9183 50.6666 54.2054C50.7096 54.3719 50.7574 54.557 50.7574 54.8058C50.7574 55.0109 50.704 55.2741 50.6475 55.5524C50.5475 56.0453 50.438 56.5853 50.5985 56.9328M43.5923 47.7811C38.6177 49.2734 36.2886 52.1805 36.2886 57.4737C36.2886 58.294 36.2659 59.1034 36.2439 59.8901C36.1474 63.3333 36.0632 66.34 37.9462 67.9136M37.9462 67.9136C41.5227 63.7228 45.7843 59.9943 50.5985 56.9328M80.7346 27.8537C80.6844 27.7812 80.6332 27.7071 80.5804 27.6316C79.1199 29.7535 77.5478 30.4205 72.9895 30.3947V39.2368C75.3392 41.9541 77.2236 42.8111 81.1643 43.6579C84.6361 42.7241 86.3396 41.8212 88.7552 39.2368V30.3947C88.1404 30.3933 87.5802 30.3838 87.0686 30.3662C82.3814 30.2046 81.7793 29.3638 80.7485 27.8738M80.7346 27.8537C80.7392 27.8604 80.7438 27.8671 80.7485 27.8738M80.7346 27.8537L80.7485 27.8738M86.353 104.535C86.3419 104.828 86.2677 105.146 86.1208 105.492C85.0631 107.98 82.6409 110.414 80.4806 110.972C80.414 110.989 80.3477 111.005 80.2816 111.018C80.0381 110.964 79.7916 110.888 79.5443 110.793C77.4164 109.979 75.2319 107.761 74.4424 105.492C74.3379 105.191 74.2843 104.911 74.2757 104.651M86.353 104.535C86.435 102.386 83.1199 101.623 80.2816 101.623C77.3958 101.623 74.2028 102.433 74.2757 104.651M86.353 104.535C86.7556 104.477 87.1678 104.447 87.5874 104.447C92.1022 104.447 95.7622 107.911 95.7622 112.184C95.7622 116.457 92.1022 119.921 87.5874 119.921C84.1469 119.921 81.2028 117.91 79.9965 115.061C78.7902 117.91 75.8461 119.921 72.4056 119.921C67.8907 119.921 64.2307 116.457 64.2307 112.184C64.2307 107.911 67.8907 104.447 72.4056 104.447C73.049 104.447 73.6751 104.518 74.2757 104.651M102.866 144.234C103.074 144.155 103.281 144.076 103.487 143.995M103.487 143.995L111.665 129.098C112.557 127.473 114.672 126.84 116.389 127.684L122.364 130.622M103.487 143.995L102.556 145.692M102.556 145.692L96.1575 157.348C95.2654 158.973 95.9342 160.975 97.6513 161.819L103.632 164.76M103.632 164.76C101.915 163.916 101.246 161.914 102.138 160.289L117.645 132.039C118.536 130.415 120.648 129.782 122.364 130.622M122.364 130.622L123.067 130.968M42.4785 210.009V196.737M42.4785 196.737V187.895C42.4785 186.674 43.5242 185.684 44.8141 185.684H47.1498C47.1786 185.684 47.2074 185.685 47.2359 185.686M47.2359 185.686L47.7337 167.447M99.7023 197.764V206.88M114.497 182.804C113.587 180.264 112.041 175.074 113.132 174.632M99.7023 206.88V208.895C99.7023 210.726 101.271 212.211 103.206 212.211H104.958M104.958 212.211V201.711M104.958 212.211C104.958 209.577 104.958 205.046 104.958 201.711M104.958 201.711C104.958 199.912 104.958 198.461 104.958 197.842L104.851 197.129C104.488 196.057 103.278 196.029 102.622 196.184M119.059 141.514C120.04 141.948 121.358 141.243 122.003 139.94C122.647 138.636 122.375 137.227 121.395 136.792C120.414 136.358 119.097 137.063 118.452 138.366C117.807 139.67 118.079 141.079 119.059 141.514ZM68.1708 166.895H54.1568V172.421H68.1708V166.895ZM51.8211 197.842C52.4051 197.289 54.7407 197.289 55.3246 197.842C55.9086 198.395 55.9086 199.5 55.3246 200.053C54.7407 200.605 52.4051 200.605 51.8211 200.053C51.2372 199.5 51.2372 198.395 51.8211 197.842ZM113.132 198.947C113.248 198.947 113.362 198.94 113.472 198.927C114.277 198.827 114.884 198.379 114.884 197.842C114.884 197.345 114.364 196.925 113.649 196.786C113.486 196.754 113.312 196.737 113.132 196.737C112.928 196.737 112.731 196.759 112.548 196.8C111.868 196.951 111.381 197.361 111.381 197.842C111.381 198.323 111.868 198.733 112.548 198.884C112.731 198.925 112.928 198.947 113.132 198.947ZM61.6452 93.8832C61.6452 95.634 60.3267 97 58.3237 97C56.4392 97 55 95.7464 55 93.8832C55 92.0199 56.2464 90.5 58.3237 90.5C60.2303 90.5 61.6452 92 61.6452 93.8832ZM116.395 81L98.3291 85.5623C96.7747 85.9548 92.3101 87.4711 91.8954 86C91.4807 84.5289 95.6033 83.8925 97.1576 83.5L115.224 78.9377C116.778 78.5452 118.481 77.5064 118.895 78.9775C119.31 80.4486 117.95 80.6075 116.395 81ZM48.4336 81.4377L66.5 86C68.0544 86.3925 70.0853 87.4711 70.5 86C70.9147 84.5289 68.8307 84.37 67.2764 83.9775L49.21 79.4152C47.6556 79.0227 45.9602 77.9441 45.5454 79.4152C45.1307 80.8863 46.8793 81.0452 48.4336 81.4377ZM122.622 116.889C122.622 119.364 121.054 120.474 119.119 120.474C117.184 120.474 115.615 119.364 115.615 116.889C115.615 114.415 118.681 113.362 119.119 111.065C119.557 108.767 122.622 114.415 122.622 116.889ZM119.119 69.363C119.119 71.8375 117.55 72.9474 115.615 72.9474C113.68 72.9474 112.112 71.8375 112.112 69.363C112.112 66.8885 115.177 65.8357 115.615 63.5383C116.053 61.2409 119.119 66.8885 119.119 69.363ZM45.5454 103.626C45.5454 106.101 43.9769 107.211 42.042 107.211C40.107 107.211 38.5385 106.101 38.5385 103.626C38.5385 101.152 41.604 100.099 42.042 97.8015C42.4799 95.5041 45.5454 101.152 45.5454 103.626ZM51.3846 124.626C51.3846 127.101 49.816 128.211 47.8811 128.211C45.9462 128.211 44.3776 127.101 44.3776 124.626C44.3776 122.152 47.4432 121.099 47.8811 118.801C48.319 116.504 51.3846 122.152 51.3846 124.626ZM59.5594 71.5735C59.5594 74.048 57.9909 75.1579 56.0559 75.1579C54.121 75.1579 52.5524 74.048 52.5524 71.5735C52.5524 69.099 55.618 68.0462 56.0559 65.7488C56.4939 63.4514 59.5594 69.099 59.5594 71.5735ZM105.645 93.8832C105.645 95.634 104.327 97 102.324 97C100.439 97 99 95.7464 99 93.8832C99 92.0199 100.246 90.5 102.324 90.5C104.23 90.5 105.645 92 105.645 93.8832Z" stroke="black" stroke-width="2"/>
</g>
</svg>
