<svg width="181" height="187" viewBox="0 0 181 187" fill="none" xmlns="http://www.w3.org/2000/svg">
<mask id="mask0_118_519" style="mask-type:alpha" maskUnits="userSpaceOnUse" x="-1" y="0" width="183" height="187">
<path fill-rule="evenodd" clip-rule="evenodd" d="M0 1H181V186H0V1Z" fill="#FCFCFC" stroke="black" stroke-width="2"/>
</mask>
<g mask="url(#mask0_118_519)">
<path d="M117.643 45.6517C118.01 45.7989 118.375 45.9494 118.737 46.103C121.453 47.2555 124.019 48.5884 126.426 50.0865L126.54 50.1577C129.081 41.8657 133.631 20.6647 132 15.5C129 6 122 10.5 122 18C122 21.3732 119.748 35.8881 117.643 45.6517Z" fill="#EA838C"/>
<path d="M57.94 49.5464C60.7023 47.8813 63.6877 46.4342 66.893 45.2278C66.3496 43.7734 65.6693 41.9779 64.9657 40.1211C63.2735 35.6552 61.4469 30.8343 61.0686 29.5542C60.1823 26.5543 56.0469 16.2521 51.9096 14.5542C44.2644 11.4166 46.5601 22.4344 47.0686 23.0541C47.4511 23.5202 48.9508 26.6883 50.3147 29.5694C51.0617 31.1474 51.768 32.6393 52.2276 33.5541C53.5527 36.1914 56.6121 45.0282 57.94 49.5464Z" fill="#EA838C"/>
<path fill-rule="evenodd" clip-rule="evenodd" d="M117.643 45.6517C115.872 44.9425 114.04 44.3086 112.147 43.754C106.037 41.9634 99.3009 41 92 41C85.2829 41 79.1136 41.7532 73.5056 43.1654C71.2068 43.7443 69.0023 44.434 66.893 45.2278C63.6877 46.4342 60.7023 47.8813 57.94 49.5464C56.0589 50.6803 54.2813 51.9152 52.6081 53.2441C39.6915 63.5026 33 79.3568 33 97.5C33 115.984 38.9983 130.35 49.2366 140.1L55.8592 140.769C57.5415 140.939 58.9967 141.365 59.402 143.006L60.6902 148.224C69.3193 152.691 79.6003 155 91 155C91.3341 155 91.6674 154.998 92 154.995V146.816C92.7517 146.29 93.8197 145.831 95.1057 145.446C94.0867 145.482 93.0515 145.5 92 145.5C77.2223 145.5 64.9443 141.978 56.1409 134.771C46.4769 126.859 41 114.507 41 97.5C41 78.5 53.5 50 92 50C118 50 143 66.5 143 97.5C143 113.246 137.978 126.043 127.951 134.452C122.545 138.987 115.683 142.245 107.369 144.002C112.888 144.043 118.113 144.929 120 146.816V149.554C125.333 147.28 130.162 144.286 134.348 140.557C145.013 131.055 151.5 116.784 151.5 97.5C151.5 80.1011 144.746 64.8072 132.554 54.5346C130.676 52.9531 128.67 51.4905 126.54 50.1577L126.426 50.0865C124.019 48.5884 121.453 47.2555 118.737 46.103C118.375 45.9494 118.01 45.7989 117.643 45.6517Z" fill="#FCFCFC"/>
<path d="M42.0687 30.5539C45.3652 36.3229 49.9925 46.01 52.6081 53.2441C54.2813 51.9152 56.0589 50.6803 57.94 49.5464C56.6121 45.0282 53.5527 36.1914 52.2276 33.5541C51.768 32.6393 51.0617 31.1474 50.3147 29.5694C48.9508 26.6883 47.4511 23.5202 47.0686 23.0541C46.5601 22.4344 44.2644 11.4166 51.9096 14.5542C56.0469 16.2521 60.1823 26.5543 61.0686 29.5542C61.4469 30.8343 63.2735 35.6552 64.9657 40.1211C65.6693 41.9779 66.3496 43.7734 66.893 45.2278C69.0023 44.434 71.2068 43.7443 73.5056 43.1654C72.8214 40.6171 71.4132 35.6815 68.5687 26.0539C67.6823 23.054 62.0687 7.15394 51.0687 6.05394C43.0687 5.25394 39.7353 13.5539 39.5687 17.5539C39.3395 23.0539 39.5687 26.1789 42.0687 30.5539Z" fill="#FCFCFC"/>
<path d="M115 13.0622C114.85 14.4126 114.595 17.4142 114.275 21.1749C113.697 27.9767 112.908 37.2619 112.147 43.754C114.04 44.3086 115.872 44.9425 117.643 45.6517C119.748 35.8881 122 21.3732 122 18C122 10.5 129 6 132 15.5C133.631 20.6647 129.081 41.8657 126.54 50.1577C128.67 51.4905 130.676 52.9531 132.554 54.5346C137.742 35.3829 141.074 18.7228 138 9.06218C136.091 3.06219 131.5 0.562214 127 1.06221C117 2.17333 115 11.5622 115 13.0622Z" fill="#FCFCFC"/>
<path d="M117.916 195.134C113.769 195.933 108.08 196.943 101.878 197.526C101.946 205.588 101.844 215.428 103.916 217.5C107.417 221 115.729 222 117.916 215C119.249 210.735 120.296 201.311 120.148 194.439C119.438 194.75 118.689 194.985 117.916 195.134Z" fill="#F6CC06"/>
<path d="M82.3874 197.711C74.1956 197.175 68.7022 195.897 64.0861 193.875C64.0044 202.623 64.525 215.153 66.8724 217.5C70.3725 221 78.6849 222 80.8724 215C81.9687 211.492 82.3639 203.669 82.3874 197.711Z" fill="#F6CC06"/>
<path fill-rule="evenodd" clip-rule="evenodd" d="M67.4702 175.149L67.3345 175.133L66.2569 170.769L65.8055 168.94L60.6902 148.224C69.3193 152.691 79.6003 155 91 155C91.3341 155 91.6674 154.998 92 154.995V172.256L65.9469 168.958C66.0997 169.576 66.2506 170.187 66.3988 170.788C66.7752 172.315 67.1352 173.78 67.4702 175.149ZM69.1704 182.202C69.4804 183.526 69.684 184.486 69.7261 184.769C69.7261 185.086 64.2899 184.555 56.8672 183.663C57.4718 185.375 58.19 187.189 59.0643 189.166C59.885 191.022 61.2988 192.575 63.1338 193.441C63.4474 193.589 63.7646 193.734 64.0861 193.875C68.7022 195.897 74.1956 197.175 82.3874 197.711C85.3375 197.904 88.6374 198 92.3724 198C95.5833 198 98.7943 197.816 101.878 197.526C108.08 196.943 113.769 195.933 117.916 195.134C118.689 194.985 119.438 194.75 120.148 194.439C122.801 193.277 124.915 191.05 125.744 188.229C127.309 182.903 128.191 178.265 128.825 173.215C127.923 173.261 127.09 173.242 126.322 173.167C123.319 172.873 121.3 171.732 120 170.334V173.839V175.816C116.649 179.645 96.8025 178.892 92.4824 176.189C92.2898 176.068 92.128 175.944 92 175.816V173.29L69.1704 182.202ZM129.382 153.1C124.531 153.77 121.665 155.202 120 156.967V149.677V149.554C125.333 147.28 130.162 144.286 134.348 140.557C134.413 140.735 134.474 140.915 134.53 141.097C140.56 145.654 146.5 152.152 146.5 158.5C146.5 162.048 145.1 169.7 133.5 172.5C138.416 164.008 135.742 157.514 132.404 154.013L132.741 152.881C132.171 152.856 131.643 152.853 131.198 152.894C130.564 152.951 129.959 153.02 129.382 153.1Z" fill="#FCFCFC"/>
<path fill-rule="evenodd" clip-rule="evenodd" d="M127.951 134.452C137.978 126.043 143 113.246 143 97.5C143 66.5 118 50 92 50C53.5 50 41 78.5 41 97.5C41 114.507 46.4769 126.859 56.1409 134.771C64.9443 141.978 77.2223 145.5 92 145.5C93.0515 145.5 94.0867 145.482 95.1057 145.446C99.4944 145.29 103.582 144.801 107.369 144.002C115.683 142.245 122.545 138.987 127.951 134.452ZM80.4102 94.7026C81.8536 92.2797 82.4277 89.7352 82.5 88L76 88.2453L66 88.6226L63 88.7359L61 88.8113L56 89C56.1444 91.0217 56.8206 93.8629 58.3537 96.3366C60.3596 99.5729 63.8322 102.18 69.5 101.5C75.1619 100.821 78.5264 97.8651 80.4102 94.7026ZM125.165 95.1573C126.337 93.0019 126.874 90.67 127 88.9553L120.5 88.7165L106.786 88.2126L101 88C101.062 89.4415 101.496 91.4676 102.539 93.4936C104.262 96.838 107.645 100.182 113.755 100.896C119.792 101.602 123.291 98.6053 125.165 95.1573Z" fill="#F6CC06"/>
<path fill-rule="evenodd" clip-rule="evenodd" d="M106.5 149C112.023 149 117 148.328 117 147.5C117 146.672 112.023 146 106.5 146C100.977 146 96 147.047 96 147.875C96 148.703 100.977 149 106.5 149Z" fill="#FCFCFC"/>
<path fill-rule="evenodd" clip-rule="evenodd" d="M132.404 154.013C132.007 153.597 131.602 153.223 131.198 152.894C130.564 152.951 129.959 153.02 129.382 153.1C124.531 153.77 121.665 155.202 120 156.967C117.41 159.712 117.726 163.262 118 166C118.131 167.313 118.713 168.949 120 170.334C121.3 171.732 123.319 172.873 126.322 173.167C127.09 173.242 127.923 173.261 128.825 173.215C130.214 173.145 131.767 172.918 133.5 172.5C138.416 164.008 135.742 157.514 132.404 154.013Z" fill="#F4CD04"/>
<path d="M97 99.5C97 101.985 94.5376 104 91.5 104C88.4624 104 86 101.985 86 99.5C86 97.0147 88.4624 95 91.5 95C94.5376 95 97 97.0147 97 99.5Z" fill="#010101"/>
<path fill-rule="evenodd" clip-rule="evenodd" d="M80.4102 94.7026C78.5264 97.8651 75.1619 100.821 69.5 101.5C63.8322 102.18 60.3596 99.5729 58.3537 96.3366C58.1224 96.7099 58 97.0995 58 97.5C58 100.261 61.8203 105 69 105C76.1797 105 82 100.261 82 97.5C82 96.4637 81.462 95.501 80.4102 94.7026Z" fill="#A88C43"/>
<path fill-rule="evenodd" clip-rule="evenodd" d="M125.165 95.1573C123.291 98.6053 119.792 101.602 113.755 100.896C107.645 100.182 104.262 96.838 102.539 93.4936C101.851 93.9929 101.5 94.6476 101.5 95.5C101.5 99 105 105 115.042 105C122.521 105 126 99.8719 126 97C126 96.341 125.707 95.7212 125.165 95.1573Z" fill="#A88C43"/>
<path fill-rule="evenodd" clip-rule="evenodd" d="M30 159.269C30 160.778 30.878 162.105 32.3634 162.919C31.9935 164.283 31.7619 165.48 31.989 165.762C32.2647 166.105 33.8029 165.009 35.3595 163.747C35.5685 163.762 35.7821 163.769 36 163.769C39.5899 163.769 42 161.754 42 159.269C42 156.784 39.5899 154.769 36 154.769C32 154.769 30 156.784 30 159.269Z" fill="#D9D9D9"/>
<path fill-rule="evenodd" clip-rule="evenodd" d="M65.8055 168.94L60.6902 148.224L59.402 143.006C58.9967 141.365 57.5415 140.939 55.8592 140.769C56.0227 140.785 56.1836 140.8 56.341 140.814C57.7915 140.945 58.9545 141.049 59.3283 142.517C60.6292 147.626 63.5364 159.208 65.9469 168.958L65.8055 168.94ZM32.3634 162.919C30.878 162.105 30 160.778 30 159.269C30 156.784 32 154.769 36 154.769C39.5899 154.769 42 156.784 42 159.269C42 161.754 39.5899 163.769 36 163.769C35.7821 163.769 35.5685 163.762 35.3595 163.747C33.8029 165.009 32.2647 166.105 31.989 165.762C31.7619 165.48 31.9935 164.283 32.3634 162.919Z" fill="#D9D9D9"/>
<path d="M30 159.269C30 160.778 30.878 162.105 32.3634 162.919C31.9935 164.283 31.7619 165.48 31.989 165.762C32.2647 166.105 33.8029 165.009 35.3595 163.747C35.5685 163.762 35.7821 163.769 36 163.769C39.5899 163.769 42 161.754 42 159.269C42 156.784 39.5899 154.769 36 154.769C32 154.769 30 156.784 30 159.269Z" fill="#FAFAFA"/>
<path fill-rule="evenodd" clip-rule="evenodd" d="M92 175.816V173.29L69.1704 182.202C69.4804 183.526 69.684 184.486 69.7261 184.769L92.4824 176.189C92.2898 176.068 92.128 175.944 92 175.816Z" fill="#B1B1B1"/>
<path fill-rule="evenodd" clip-rule="evenodd" d="M8.75708 136C6.96518 136 5.64675 136.436 6.08451 138.173C8.60439 148.175 15.7996 177.306 15.7261 177.769C15.6958 177.959 21.9088 178.942 30.1299 180.119C30.0447 179.752 30 179.378 30 179C30 178.34 30.0883 177.749 30.2484 177.221L18.4102 175.769C16.7887 175.57 15.451 173.234 15.0313 171.655L6.26166 138.665C5.76649 136.802 7.25203 135.813 9.16461 136.052L49.2366 140.1L8.75708 136ZM67.3345 175.133L67.4702 175.149C67.1352 173.78 66.7752 172.315 66.3988 170.788C66.2506 170.187 66.0997 169.576 65.9469 168.958L65.8055 168.94L66.2569 170.769L67.3345 175.133Z" fill="#AFAFAF"/>
<path d="M30 179C30 179.378 30.0447 179.752 30.1299 180.119C30.9455 183.631 35.4727 186.5 40 186.5C41.7758 186.5 47.4935 186.5 48.753 182.65C48.912 182.164 49 181.617 49 181C49 180.61 48.791 180.068 48.4138 179.449C46.8558 176.889 42.4279 173 38 173C35.3986 173 31.2933 173.774 30.2484 177.221C30.0883 177.749 30 178.34 30 179Z" fill="#F5CB05"/>
<path d="M117 147.5C117 148.328 112.023 149 106.5 149C100.977 149 96 148.703 96 147.875C96 147.047 100.977 146 106.5 146C112.023 146 117 146.672 117 147.5Z" fill="#8F5A32"/>
<path fill-rule="evenodd" clip-rule="evenodd" d="M49.2366 140.1L9.16461 136.052C7.25203 135.813 5.76649 136.802 6.26166 138.665L15.0313 171.655C15.451 173.234 16.7887 175.57 18.4102 175.769L30.2484 177.221C31.2933 173.774 35.3986 173 38 173C42.4279 173 46.8558 176.889 48.4138 179.449L55.7951 180.354L62.9642 181.233C65.7453 181.574 68.0062 177.853 67.3345 175.133L66.2569 170.769L65.8055 168.94L60.6902 148.224L59.402 143.006C58.9967 141.365 57.5415 140.939 55.8592 140.769L49.2366 140.1ZM32.3634 162.919C30.878 162.105 30 160.778 30 159.269C30 156.784 32 154.769 36 154.769C39.5899 154.769 42 156.784 42 159.269C42 161.754 39.5899 163.769 36 163.769C35.7821 163.769 35.5685 163.762 35.3595 163.747C33.8029 165.009 32.2647 166.105 31.989 165.762C31.7619 165.48 31.9935 164.283 32.3634 162.919Z" fill="#B0B0B0"/>
<path fill-rule="evenodd" clip-rule="evenodd" d="M62.9642 181.233L55.7951 180.354L48.4138 179.449C48.791 180.068 49 180.61 49 181C49 181.617 48.912 182.164 48.753 182.65C51.5968 183.017 54.3465 183.361 56.8672 183.663C64.2899 184.555 69.7261 185.086 69.7261 184.769C69.684 184.486 69.4804 183.526 69.1704 182.202C68.7692 180.49 68.1752 178.031 67.4702 175.149L67.3345 175.133C68.0062 177.853 65.7453 181.574 62.9642 181.233Z" fill="#AFAFAF"/>
<path fill-rule="evenodd" clip-rule="evenodd" d="M67.4702 175.149C68.1752 178.031 68.7692 180.49 69.1704 182.202L92 173.29L94 172.509L92 172.256L65.9469 168.958C66.0997 169.576 66.2506 170.187 66.3988 170.788C66.7752 172.315 67.1352 173.78 67.4702 175.149Z" fill="#B1B1B1"/>
<path fill-rule="evenodd" clip-rule="evenodd" d="M92 146.816V154.995V172.256L94 172.509L92 173.29V175.816C92.128 175.944 92.2898 176.068 92.4824 176.189C96.8025 178.892 116.649 179.645 120 175.816V173.839V170.334C118.713 168.949 118.131 167.313 118 166C117.726 163.262 117.41 159.712 120 156.967V149.677V149.554V146.816C118.113 144.929 112.888 144.043 107.369 144.002C103.582 144.801 99.4944 145.29 95.1057 145.446C93.8197 145.831 92.7517 146.29 92 146.816ZM117 147.5C117 148.328 112.023 149 106.5 149C100.977 149 96 148.703 96 147.875C96 147.047 100.977 146 106.5 146C112.023 146 117 146.672 117 147.5Z" fill="#FCFCFC"/>
<path d="M76 88.2453L66 88.6226L63 88.7359C63 88.7359 65 96.2974 70.5 95.5C76 94.7026 76 88.2453 76 88.2453Z" fill="#010101"/>
<path d="M106.786 88.2126C106.786 88.2126 107 95.1573 113 95.1573C119 95.1573 120.5 88.7165 120.5 88.7165L106.786 88.2126Z" fill="#010101"/>
<path d="M125.165 95.1573C126.337 93.0019 126.874 90.67 127 88.9553L120.5 88.7165C120.5 88.7165 119 95.1573 113 95.1573C107 95.1573 106.786 88.2126 106.786 88.2126L101 88C101.062 89.4415 101.496 91.4676 102.539 93.4936C104.262 96.838 107.645 100.182 113.755 100.896C119.792 101.602 123.291 98.6053 125.165 95.1573Z" fill="#FCFCFC"/>
<path d="M80.4102 94.7026C81.8536 92.2797 82.4277 89.7352 82.5 88L76 88.2453C76 88.2453 76 94.7026 70.5 95.5C65 96.2974 63 88.7359 63 88.7359L61 88.8113L56 89C56.1444 91.0217 56.8206 93.8629 58.3537 96.3366C60.3596 99.5729 63.8322 102.18 69.5 101.5C75.1619 100.821 78.5264 97.8651 80.4102 94.7026Z" fill="#FCFCFC"/>
<path d="M117.643 45.6517C118.01 45.7989 118.375 45.9494 118.737 46.103C121.453 47.2555 124.019 48.5884 126.426 50.0865M117.643 45.6517C119.748 35.8881 122 21.3732 122 18C122 10.5 129 6 132 15.5C133.631 20.6647 129.081 41.8657 126.54 50.1577M117.643 45.6517C115.872 44.9425 114.04 44.3086 112.147 43.754M126.426 50.0865L126.54 50.1577M126.426 50.0865C126.464 50.1102 126.502 50.1339 126.54 50.1577M126.54 50.1577C128.67 51.4905 130.676 52.9531 132.554 54.5346M57.94 49.5464C60.7023 47.8813 63.6877 46.4342 66.893 45.2278M57.94 49.5464C56.6121 45.0282 53.5527 36.1914 52.2276 33.5541C51.768 32.6393 51.0617 31.1474 50.3147 29.5694C48.9508 26.6883 47.4511 23.5202 47.0686 23.0541C46.5601 22.4344 44.2644 11.4166 51.9096 14.5542C56.0469 16.2521 60.1823 26.5543 61.0686 29.5542C61.4469 30.8343 63.2735 35.6552 64.9657 40.1211C65.6692 41.9779 66.3496 43.7734 66.893 45.2278M57.94 49.5464C56.0589 50.6803 54.2813 51.9152 52.6081 53.2441M66.893 45.2278C69.0023 44.434 71.2068 43.7443 73.5056 43.1654M112.147 43.754C106.037 41.9634 99.3009 41 92 41C85.2829 41 79.1136 41.7532 73.5056 43.1654M112.147 43.754C112.908 37.2619 113.697 27.9767 114.275 21.1749C114.595 17.4142 114.85 14.4126 115 13.0622C115 11.5622 117 2.17333 127 1.06221C131.5 0.562214 136.091 3.06219 138 9.06218C141.074 18.7228 137.742 35.3829 132.554 54.5346M73.5056 43.1654C72.8214 40.6171 71.4132 35.6815 68.5687 26.0539C67.6823 23.054 62.0687 7.15394 51.0687 6.05394C43.0687 5.25394 39.7353 13.5539 39.5687 17.5539C39.3395 23.0539 39.5687 26.1789 42.0687 30.5539C45.3652 36.3229 49.9925 46.01 52.6081 53.2441M52.6081 53.2441C39.6915 63.5026 33 79.3568 33 97.5C33 115.984 38.9983 130.35 49.2366 140.1M49.2366 140.1L55.8592 140.769M49.2366 140.1L9.16461 136.052C7.25203 135.813 5.76649 136.802 6.26166 138.665L15.0313 171.655C15.451 173.234 16.7887 175.57 18.4102 175.769L30.2484 177.221M49.2366 140.1L8.75708 136C6.96518 136 5.64675 136.436 6.08451 138.173C8.60439 148.175 15.7996 177.306 15.7261 177.769C15.6958 177.959 21.9088 178.942 30.1299 180.119M55.8592 140.769C57.5415 140.939 58.9967 141.365 59.402 143.006L60.6902 148.224M55.8592 140.769C56.0227 140.785 56.1836 140.8 56.341 140.814C57.7915 140.945 58.9545 141.049 59.3283 142.517C60.6292 147.626 63.5364 159.208 65.9469 168.958M60.6902 148.224C69.3193 152.691 79.6003 155 91 155C91.3341 155 91.6674 154.998 92 154.995M60.6902 148.224L65.8055 168.94M92 154.995V146.816C92.7517 146.29 93.8197 145.831 95.1057 145.446M92 154.995V172.256M95.1057 145.446C94.0867 145.482 93.0515 145.5 92 145.5C77.2223 145.5 64.9443 141.978 56.1409 134.771C46.4769 126.859 41 114.507 41 97.5C41 78.5 53.5 50 92 50C118 50 143 66.5 143 97.5C143 113.246 137.978 126.043 127.951 134.452C122.545 138.987 115.683 142.245 107.369 144.002M95.1057 145.446C99.4944 145.29 103.582 144.801 107.369 144.002M95.1057 145.446C98.3383 144.477 102.948 143.968 107.369 144.002M107.369 144.002C112.888 144.043 118.113 144.929 120 146.816V149.554M120 149.554C125.333 147.28 130.162 144.286 134.348 140.557M120 149.554V149.677M134.348 140.557C145.013 131.055 151.5 116.784 151.5 97.5C151.5 80.1011 144.746 64.8072 132.554 54.5346M134.348 140.557C134.413 140.735 134.474 140.915 134.53 141.097C140.56 145.654 146.5 152.152 146.5 158.5C146.5 162.048 145.1 169.7 133.5 172.5M101.878 197.526C108.08 196.943 113.769 195.933 117.916 195.134C118.689 194.985 119.438 194.75 120.148 194.439M101.878 197.526C101.946 205.588 101.844 215.428 103.916 217.5C107.417 221 115.729 222 117.916 215C119.249 210.735 120.296 201.311 120.148 194.439M101.878 197.526C98.7943 197.816 95.5833 198 92.3724 198C88.6374 198 85.3375 197.904 82.3874 197.711M120.148 194.439C122.801 193.277 124.915 191.05 125.744 188.229C127.309 182.903 128.191 178.265 128.825 173.215M82.3874 197.711C74.1956 197.175 68.7022 195.897 64.0861 193.875M82.3874 197.711C82.3639 203.669 81.9687 211.492 80.8724 215C78.6849 222 70.3725 221 66.8724 217.5C64.525 215.153 64.0044 202.623 64.0861 193.875M64.0861 193.875C63.7646 193.734 63.4474 193.589 63.1338 193.441C61.2988 192.575 59.885 191.022 59.0643 189.166C58.19 187.189 57.4718 185.375 56.8672 183.663M67.4702 175.149L67.3345 175.133M67.4702 175.149C67.1352 173.78 66.7752 172.315 66.3988 170.788M67.4702 175.149C68.1752 178.031 68.7692 180.49 69.1704 182.202M67.4702 175.149L77 176.269L69.1704 179.988M67.3345 175.133L66.2569 170.769M67.3345 175.133C68.0062 177.853 65.7453 181.574 62.9642 181.233L55.7951 180.354L48.4138 179.449M66.2569 170.769L65.8055 168.94M66.2569 170.769L66.3988 170.788M65.8055 168.94L65.9469 168.958M92 172.256L65.9469 168.958M92 172.256L94 172.509L92 173.29M65.9469 168.958C66.0997 169.576 66.2506 170.187 66.3988 170.788M66.3988 170.788L73.5 171.769L68.5 174.769M69.1704 182.202C69.4804 183.526 69.684 184.486 69.7261 184.769M69.1704 182.202L92 173.29M69.1704 182.202L69 182.269M69.7261 184.769C69.7261 185.086 64.2899 184.555 56.8672 183.663M69.7261 184.769L92.4824 176.189M56.8672 183.663C54.3465 183.361 51.5968 183.017 48.753 182.65M128.825 173.215C127.923 173.261 127.09 173.242 126.322 173.167M128.825 173.215C130.214 173.145 131.767 172.918 133.5 172.5M126.322 173.167C123.319 172.873 121.3 171.732 120 170.334M126.322 173.167C125.013 173.71 123.557 174 122 174C121.323 174 120.655 173.945 120 173.839M120 170.334V173.839M120 170.334C118.713 168.949 118.131 167.313 118 166C117.726 163.262 117.41 159.712 120 156.967M120 173.839V175.816C116.649 179.645 96.8025 178.892 92.4824 176.189M92.4824 176.189C92.2898 176.068 92.128 175.944 92 175.816V173.29M129.382 153.1C124.531 153.77 121.665 155.202 120 156.967M129.382 153.1C129.959 153.02 130.564 152.951 131.198 152.894M129.382 153.1C127.47 150.974 124.914 149.5 122 149.5C121.323 149.5 120.655 149.56 120 149.677M120 156.967V149.677M133.5 172.5C138.416 164.008 135.742 157.514 132.404 154.013M132.404 154.013L132.741 152.881M132.404 154.013C132.007 153.597 131.602 153.223 131.198 152.894M132.741 152.881C132.171 152.856 131.643 152.853 131.198 152.894M132.741 152.881C134.103 152.941 135.708 153.127 137 153.154M80.4102 94.7026C81.8536 92.2797 82.4277 89.7352 82.5 88L76 88.2453M80.4102 94.7026C78.5264 97.8651 75.1619 100.821 69.5 101.5C63.8322 102.18 60.3596 99.5729 58.3537 96.3366M80.4102 94.7026C81.462 95.501 82 96.4637 82 97.5C82 100.261 76.1797 105 69 105C61.8203 105 58 100.261 58 97.5C58 97.0995 58.1224 96.7099 58.3537 96.3366M58.3537 96.3366C56.8206 93.8629 56.1444 91.0217 56 89L61 88.8113L63 88.7359M125.165 95.1573C126.337 93.0019 126.874 90.67 127 88.9553L120.5 88.7165M125.165 95.1573C123.291 98.6053 119.792 101.602 113.755 100.896C107.645 100.182 104.262 96.838 102.539 93.4936M125.165 95.1573C125.707 95.7212 126 96.341 126 97C126 99.8719 122.521 105 115.042 105C105 105 101.5 99 101.5 95.5C101.5 94.6476 101.851 93.9929 102.539 93.4936M102.539 93.4936C101.496 91.4676 101.062 89.4415 101 88L106.786 88.2126M30.1299 180.119C30.0447 179.752 30 179.378 30 179C30 178.34 30.0883 177.749 30.2484 177.221M30.1299 180.119C30.9455 183.631 35.4727 186.5 40 186.5C41.7758 186.5 47.4935 186.5 48.753 182.65M30.2484 177.221C31.2933 173.774 35.3986 173 38 173C42.4279 173 46.8558 176.889 48.4138 179.449M48.753 182.65C48.912 182.164 49 181.617 49 181C49 180.61 48.791 180.068 48.4138 179.449M95 148.316C103.5 150.816 111 150.316 117.5 148.316M91.5 99.5V110M91.5 110C89.3333 110 83.8 111.7 83 116.5M91.5 110C94 110 99.6 112.5 100 116.5M102.5 77H126.5M58 77.5L81.5 77M97.9068 128C96.7402 129.167 94.6148 132.844 97.2967 135C100.407 137.5 98.4068 140.667 97.9068 141.5M104.907 124C102.407 125.5 100.407 130.5 103.407 133C106.773 135.805 103.907 142.667 103.407 143.5M110.314 129.406C109.147 130.573 107.225 133.344 109.907 135.5C113.017 138 110.407 141.667 109.907 142.5M82 97C82 99.7614 76.1797 104.5 69 104.5M101.5 95C101.5 98.5 105 104.5 115.042 104.5M104.139 82C103.037 82.1052 101.533 83.3247 102.139 85.5M79 82C80.3347 83.19 80.8011 83.9472 81 85.5M76 88.2453L66 88.6226L63 88.7359M76 88.2453C76 88.2453 76 94.7026 70.5 95.5C65 96.2974 63 88.7359 63 88.7359M106.786 88.2126C106.786 88.2126 107 95.1573 113 95.1573C119 95.1573 120.5 88.7165 120.5 88.7165M106.786 88.2126L120.5 88.7165M106.5 149C112.023 149 117 148.328 117 147.5C117 146.672 112.023 146 106.5 146C100.977 146 96 147.047 96 147.875C96 148.703 100.977 149 106.5 149ZM97 99.5C97 101.985 94.5376 104 91.5 104C88.4624 104 86 101.985 86 99.5C86 97.0147 88.4624 95 91.5 95C94.5376 95 97 97.0147 97 99.5ZM30 159.269C30 160.778 30.878 162.105 32.3634 162.919C31.9935 164.283 31.7619 165.48 31.989 165.762C32.2647 166.105 33.8029 165.009 35.3595 163.747C35.5685 163.762 35.7821 163.769 36 163.769C39.5899 163.769 42 161.754 42 159.269C42 156.784 39.5899 154.769 36 154.769C32 154.769 30 156.784 30 159.269Z" stroke="black" stroke-width="2"/>
</g>
</svg>
