<svg width="148" height="222" viewBox="0 0 148 222" fill="none" xmlns="http://www.w3.org/2000/svg">
<path d="M112.643 45.6519C113.01 45.7991 113.375 45.9495 113.737 46.1032C116.453 47.2556 119.019 48.5886 121.426 50.0867L121.54 50.1578C124.081 41.8658 128.631 20.6649 127 15.5002C124 6.00017 117 10.5002 117 18.0002C117 21.3734 114.748 35.8883 112.643 45.6519Z" fill="#EA838C"/>
<path d="M52.94 49.5466C55.7023 47.8815 58.6877 46.4344 61.893 45.228C61.3496 43.7735 60.6693 41.978 59.9657 40.1213C58.2735 35.6554 56.4469 30.8345 56.0686 29.5544C55.1823 26.5544 51.0469 16.2523 46.9096 14.5543C39.2644 11.4167 41.5601 22.4346 42.0686 23.0543C42.4511 23.5204 43.9508 26.6885 45.3147 29.5696C46.0617 31.1476 46.768 32.6395 47.2276 33.5543C48.5527 36.1916 51.6121 45.0284 52.94 49.5466Z" fill="#EA838C"/>
<path fill-rule="evenodd" clip-rule="evenodd" d="M112.643 45.6519C110.872 44.9427 109.04 44.3087 107.147 43.7542C101.037 41.9636 94.3009 41.0002 87 41.0002C80.2829 41.0002 74.1136 41.7534 68.5056 43.1656C66.2068 43.7445 64.0023 44.4341 61.893 45.228C58.6877 46.4344 55.7023 47.8815 52.94 49.5466C51.0589 50.6805 49.2813 51.9154 47.6081 53.2443C34.6915 63.5028 28 79.357 28 97.5002C28 115.984 33.9983 130.351 44.2366 140.1L50.8592 140.769C52.5415 140.939 53.9967 141.365 54.402 143.007L55.6902 148.224C64.3193 152.691 74.6003 155 86 155C86.3341 155 86.6674 154.998 87 154.995V146.816C87.7517 146.29 88.8197 145.831 90.1057 145.446C89.0867 145.482 88.0515 145.5 87 145.5C72.2223 145.5 59.9443 141.978 51.1409 134.771C41.4769 126.859 36 114.507 36 97.5002C36 78.5002 48.5 50.0002 87 50.0002C113 50.0002 138 66.5002 138 97.5002C138 113.246 132.978 126.044 122.951 134.453C117.545 138.987 110.683 142.245 102.369 144.002C107.888 144.043 113.113 144.929 115 146.816V149.555C120.333 147.28 125.162 144.286 129.348 140.557C140.013 131.055 146.5 116.784 146.5 97.5002C146.5 80.1012 139.746 64.8074 127.554 54.5348C125.676 52.9532 123.67 51.4907 121.54 50.1578L121.426 50.0867C119.019 48.5886 116.453 47.2556 113.737 46.1032C113.375 45.9495 113.01 45.7991 112.643 45.6519Z" fill="#FCFCFC"/>
<path d="M37.0687 30.5541C40.3652 36.3231 44.9925 46.0102 47.6081 53.2443C49.2813 51.9154 51.0589 50.6805 52.94 49.5466C51.6121 45.0284 48.5527 36.1916 47.2276 33.5543C46.768 32.6395 46.0617 31.1476 45.3147 29.5696C43.9508 26.6885 42.4511 23.5204 42.0686 23.0543C41.5601 22.4346 39.2644 11.4167 46.9096 14.5543C51.0469 16.2523 55.1823 26.5544 56.0686 29.5544C56.4469 30.8345 58.2735 35.6554 59.9657 40.1213C60.6693 41.978 61.3496 43.7735 61.893 45.228C64.0023 44.4341 66.2068 43.7445 68.5056 43.1656C67.8214 40.6172 66.4132 35.6816 63.5687 26.0541C62.6823 23.0541 57.0687 7.15411 46.0687 6.05411C38.0687 5.25411 34.7353 13.5541 34.5687 17.5541C34.3395 23.0541 34.5687 26.1791 37.0687 30.5541Z" fill="#FCFCFC"/>
<path d="M110 13.0623C109.85 14.4128 109.595 17.4143 109.275 21.1751C108.697 27.9768 107.908 37.262 107.147 43.7542C109.04 44.3087 110.872 44.9427 112.643 45.6519C114.748 35.8883 117 21.3734 117 18.0002C117 10.5002 124 6.00017 127 15.5002C128.631 20.6649 124.081 41.8658 121.54 50.1578C123.67 51.4907 125.676 52.9532 127.554 54.5348C132.742 35.3831 136.074 18.7229 133 9.06234C131.091 3.06236 126.5 0.562382 122 1.06238C112 2.17349 110 11.5623 110 13.0623Z" fill="#FCFCFC"/>
<path d="M112.916 195.134C108.769 195.934 103.08 196.944 96.8785 197.526C96.9458 205.588 96.8441 215.428 98.9165 217.5C102.417 221 110.729 222 112.916 215C114.249 210.735 115.296 201.312 115.148 194.439C114.438 194.75 113.689 194.985 112.916 195.134Z" fill="#F6CC06"/>
<path d="M77.3874 197.711C69.1956 197.176 63.7022 195.897 59.0861 193.875C59.0044 202.623 59.525 215.153 61.8724 217.5C65.3725 221 73.6849 222 75.8724 215C76.9687 211.492 77.3639 203.669 77.3874 197.711Z" fill="#F6CC06"/>
<path fill-rule="evenodd" clip-rule="evenodd" d="M51.8672 183.664C52.4718 185.375 53.19 187.189 54.0643 189.166C54.885 191.022 56.2988 192.575 58.1338 193.442C58.4474 193.59 58.7646 193.734 59.0861 193.875C63.7022 195.897 69.1956 197.176 77.3874 197.711C80.3375 197.904 83.6374 198 87.3724 198C90.5833 198 93.7943 197.816 96.8785 197.526C103.08 196.944 108.769 195.934 112.916 195.134C113.689 194.985 114.438 194.75 115.148 194.439C117.801 193.278 119.915 191.05 120.744 188.229C122.309 182.903 123.191 178.265 123.825 173.216C122.923 173.262 122.09 173.242 121.322 173.167C118.319 172.873 116.3 171.732 115 170.334V173.839V175.816C111.649 179.645 91.8025 178.892 87.4824 176.189C87.2898 176.068 87.128 175.944 87 175.816V173.29L64.1704 182.203C64.4804 183.526 64.684 184.486 64.7261 184.769C64.7261 185.086 59.2899 184.555 51.8672 183.664ZM61.2569 170.769L62.3345 175.133L62.4702 175.149C62.1352 173.78 61.7752 172.315 61.3988 170.789C61.2506 170.187 61.0997 169.577 60.9469 168.959L87 172.256V154.995C86.6674 154.998 86.3341 155 86 155C74.6003 155 64.3193 152.691 55.6902 148.224L60.8055 168.941L61.2569 170.769ZM124.382 153.1C119.531 153.77 116.665 155.202 115 156.967V149.677V149.555C120.333 147.28 125.162 144.286 129.348 140.557C129.413 140.735 129.474 140.915 129.53 141.097C135.56 145.655 141.5 152.152 141.5 158.5C141.5 162.048 140.1 169.7 128.5 172.5C133.416 164.008 130.742 157.514 127.404 154.013L127.741 152.881C127.171 152.856 126.643 152.854 126.198 152.894C125.564 152.951 124.959 153.02 124.382 153.1Z" fill="#FCFCFC"/>
<path fill-rule="evenodd" clip-rule="evenodd" d="M138 97.5002C138 113.246 132.978 126.044 122.951 134.453C117.545 138.987 110.683 142.245 102.369 144.002C98.5822 144.802 94.4944 145.29 90.1057 145.446C89.0867 145.482 88.0515 145.5 87 145.5C72.2223 145.5 59.9443 141.978 51.1409 134.771C41.4769 126.859 36 114.507 36 97.5002C36 78.5002 48.5 50.0002 87 50.0002C113 50.0002 138 66.5002 138 97.5002ZM77.4102 94.7028C75.5264 97.8652 72.1619 100.821 66.5 101.5C60.8322 102.18 57.3596 99.5731 55.3537 96.3368C53.8206 93.8631 53.1444 91.0219 53 89.0002L66 88.5096L79.5 88.0002C79.4277 89.7354 78.8536 92.2798 77.4102 94.7028ZM99.5391 93.4937C98.4957 91.4678 98.0617 89.4417 98 88.0002L111 88.4778L124 88.9554C123.874 90.6702 123.337 93.0021 122.165 95.1574C120.291 98.6055 116.792 101.602 110.755 100.896C104.645 100.182 101.262 96.8382 99.5391 93.4937Z" fill="#F6CC06"/>
<path fill-rule="evenodd" clip-rule="evenodd" d="M112 147.5C112 148.329 107.023 149 101.5 149C95.9771 149 91 148.704 91 147.875C91 147.047 95.9771 146 101.5 146C107.023 146 112 146.672 112 147.5Z" fill="#FCFCFC"/>
<path fill-rule="evenodd" clip-rule="evenodd" d="M127.404 154.013C127.007 153.597 126.602 153.223 126.198 152.894C125.564 152.951 124.959 153.02 124.382 153.1C119.531 153.77 116.665 155.202 115 156.967C112.41 159.713 112.726 163.263 113 166C113.131 167.313 113.713 168.949 115 170.334C116.3 171.732 118.319 172.873 121.322 173.167C122.09 173.242 122.923 173.262 123.825 173.216C125.214 173.145 126.767 172.918 128.5 172.5C133.416 164.008 130.742 157.514 127.404 154.013Z" fill="#F4CD04"/>
<path d="M94 99.5002C94 101.985 91.5376 104 88.5 104C85.4624 104 83 101.985 83 99.5002C83 97.0149 85.4624 95.0002 88.5 95.0002C91.5376 95.0002 94 97.0149 94 99.5002Z" fill="#010101"/>
<path fill-rule="evenodd" clip-rule="evenodd" d="M55.3537 96.3368C55.1224 96.7101 55 97.0996 55 97.5002C55 100.262 58.8203 105 66 105C73.1797 105 79 100.262 79 97.5002C79 96.4639 78.462 95.5012 77.4102 94.7028C75.5264 97.8652 72.1619 100.821 66.5 101.5C60.8322 102.18 57.3596 99.5731 55.3537 96.3368Z" fill="#A88C43"/>
<path d="M63 129.757C63 131.996 61.6569 133 60 133C58.3431 133 57 131.996 57 129.757C57 127.518 59.625 126.566 60 124.487C60.375 122.409 63 127.518 63 129.757Z" fill="#BFD9EE"/>
<path d="M127 117.757C127 119.996 125.657 121 124 121C122.343 121 121 119.996 121 117.757C121 115.518 123.625 114.566 124 112.487C124.375 110.409 127 115.518 127 117.757Z" fill="#BFD9EE"/>
<path d="M69 65.7571C69 67.996 67.6569 69.0002 66 69.0002C64.3431 69.0002 63 67.996 63 65.7571C63 63.5183 65.625 62.5658 66 60.4872C66.375 58.4086 69 63.5183 69 65.7571Z" fill="#BFD9EE"/>
<path d="M101 60.7571C101 62.996 99.6569 64.0002 98 64.0002C96.3431 64.0002 95 62.996 95 60.7571C95 58.5183 97.625 57.5658 98 55.4872C98.375 53.4086 101 58.5183 101 60.7571Z" fill="#BFD9EE"/>
<path d="M59 110.757C59 112.996 57.6569 114 56 114C54.3431 114 53 112.996 53 110.757C53 108.518 55.625 107.566 56 105.487C56.375 103.409 59 108.518 59 110.757Z" fill="#BFD9EE"/>
<path d="M112 147.5C112 148.329 107.023 149 101.5 149C95.9771 149 91 148.704 91 147.875C91 147.047 95.9771 146 101.5 146C107.023 146 112 146.672 112 147.5Z" fill="#8F5A32"/>
<path fill-rule="evenodd" clip-rule="evenodd" d="M25 159.269C25 160.778 25.878 162.105 27.3634 162.92C26.9935 164.283 26.7619 165.48 26.989 165.762C27.2647 166.105 28.8029 165.009 30.3595 163.747C30.5685 163.762 30.7821 163.769 31 163.769C34.5899 163.769 37 161.754 37 159.269C37 156.784 34.5899 154.769 31 154.769C27 154.769 25 156.784 25 159.269Z" fill="#D9D9D9"/>
<path fill-rule="evenodd" clip-rule="evenodd" d="M60.8055 168.941L55.6902 148.224L54.402 143.007C53.9967 141.365 52.5415 140.939 50.8592 140.769C51.0227 140.786 51.1836 140.8 51.341 140.814C52.7915 140.945 53.9545 141.05 54.3283 142.517C55.6292 147.626 58.5364 159.208 60.9469 168.959L60.8055 168.941ZM27.3634 162.92C25.878 162.105 25 160.778 25 159.269C25 156.784 27 154.769 31 154.769C34.5899 154.769 37 156.784 37 159.269C37 161.754 34.5899 163.769 31 163.769C30.7821 163.769 30.5685 163.762 30.3595 163.747C28.8029 165.009 27.2647 166.105 26.989 165.762C26.7619 165.48 26.9935 164.283 27.3634 162.92Z" fill="#D9D9D9"/>
<path d="M25 159.269C25 160.778 25.878 162.105 27.3634 162.92C26.9935 164.283 26.7619 165.48 26.989 165.762C27.2647 166.105 28.8029 165.009 30.3595 163.747C30.5685 163.762 30.7821 163.769 31 163.769C34.5899 163.769 37 161.754 37 159.269C37 156.784 34.5899 154.769 31 154.769C27 154.769 25 156.784 25 159.269Z" fill="#FAFAFA"/>
<path fill-rule="evenodd" clip-rule="evenodd" d="M87 175.816V173.29L64.1704 182.203C64.4804 183.526 64.684 184.486 64.7261 184.769L87.4824 176.189C87.2898 176.068 87.128 175.944 87 175.816Z" fill="#B1B1B1"/>
<path fill-rule="evenodd" clip-rule="evenodd" d="M3.75708 136C1.96518 136 0.646747 136.436 1.08451 138.174C3.60439 148.176 10.7996 177.307 10.7261 177.769C10.6958 177.959 16.9088 178.942 25.1299 180.119C25.0447 179.752 25 179.378 25 179C25 178.34 25.0883 177.749 25.2484 177.221L13.4102 175.769C11.7887 175.57 10.451 173.234 10.0313 171.656L1.26166 138.665C0.766492 136.802 2.25203 135.813 4.16461 136.052L44.2366 140.1L3.75708 136ZM62.3345 175.133L62.4702 175.149C62.1352 173.78 61.7752 172.315 61.3988 170.789C61.2506 170.187 61.0997 169.577 60.9469 168.959L60.8055 168.941L61.2569 170.769L62.3345 175.133Z" fill="#AFAFAF"/>
<path d="M25 179C25 179.378 25.0447 179.752 25.1299 180.119C25.9455 183.631 30.4727 186.5 35 186.5C36.7758 186.5 42.4935 186.5 43.753 182.65C43.912 182.164 44 181.617 44 181C44 180.61 43.791 180.068 43.4138 179.449C41.8558 176.889 37.4279 173 33 173C30.3986 173 26.2933 173.774 25.2484 177.221C25.0883 177.749 25 178.34 25 179Z" fill="#F5CB05"/>
<path fill-rule="evenodd" clip-rule="evenodd" d="M60.8055 168.941L55.6902 148.224L54.402 143.007C53.9967 141.365 52.5415 140.939 50.8592 140.769L44.2366 140.1L4.16461 136.052C2.25203 135.813 0.766492 136.802 1.26166 138.665L10.0313 171.656C10.451 173.234 11.7887 175.57 13.4102 175.769L25.2484 177.221C26.2933 173.774 30.3986 173 33 173C37.4279 173 41.8558 176.889 43.4138 179.449L50.7951 180.354L57.9642 181.233C60.7453 181.574 63.0062 177.854 62.3345 175.133L61.2569 170.769L60.8055 168.941ZM27.3634 162.92C25.878 162.105 25 160.778 25 159.269C25 156.784 27 154.769 31 154.769C34.5899 154.769 37 156.784 37 159.269C37 161.754 34.5899 163.769 31 163.769C30.7821 163.769 30.5685 163.762 30.3595 163.747C28.8029 165.009 27.2647 166.105 26.989 165.762C26.7619 165.48 26.9935 164.283 27.3634 162.92Z" fill="#B0B0B0"/>
<path fill-rule="evenodd" clip-rule="evenodd" d="M87 172.256L60.9469 168.959C61.0997 169.577 61.2506 170.187 61.3988 170.789C61.7752 172.315 62.1352 173.78 62.4702 175.149C63.1752 178.031 63.7692 180.49 64.1704 182.203L87 173.29L89 172.51L87 172.256Z" fill="#B1B1B1"/>
<path fill-rule="evenodd" clip-rule="evenodd" d="M87 146.816V154.995V172.256L89 172.51L87 173.29V175.816C87.128 175.944 87.2898 176.068 87.4824 176.189C91.8025 178.892 111.649 179.645 115 175.816V173.839V170.334C113.713 168.949 113.131 167.313 113 166C112.726 163.263 112.41 159.713 115 156.967V149.677V149.555V146.816C113.113 144.929 107.888 144.043 102.369 144.002C98.5822 144.802 94.4944 145.29 90.1057 145.446C88.8197 145.831 87.7517 146.29 87 146.816ZM101.5 149C107.023 149 112 148.329 112 147.5C112 146.672 107.023 146 101.5 146C95.9771 146 91 147.047 91 147.875C91 148.704 95.9771 149 101.5 149Z" fill="#FCFCFC"/>
<path fill-rule="evenodd" clip-rule="evenodd" d="M66 88.5096C66 88.5096 66.3378 90.7019 65.3669 92.6028C64.6673 93.9726 63.2881 95.1911 60.6132 95.3287C59.2521 95.3987 58.1254 95.1515 57.195 94.719C53.7594 93.1222 53 89.0002 53 89.0002C53.1444 91.0219 53.8206 93.8631 55.3537 96.3368C57.3596 99.5731 60.8322 102.18 66.5 101.5C72.1619 100.821 75.5264 97.8652 77.4102 94.7028C78.8536 92.2798 79.4277 89.7354 79.5 88.0002L66 88.5096Z" fill="#FCFCFC"/>
<path fill-rule="evenodd" clip-rule="evenodd" d="M98 88.0002C98.0617 89.4417 98.4957 91.4678 99.5391 93.4937C101.262 96.8382 104.645 100.182 110.755 100.896C116.792 101.602 120.291 98.6055 122.165 95.1574C123.337 93.0021 123.874 90.6702 124 88.9554L111 88.4778C111 88.4778 111.156 90.3586 110.247 92.0426C109.53 93.3721 108.148 94.579 105.502 94.6413C103.43 94.6901 101.895 93.9128 100.772 92.8742C98.6445 90.9062 98 88.0002 98 88.0002Z" fill="#FCFCFC"/>
<path d="M66 88.5096L53 89.0002C53 89.0002 53.7594 93.1222 57.195 94.719C58.1254 95.1515 59.2521 95.3987 60.6132 95.3287C63.2881 95.1911 64.6673 93.9726 65.3669 92.6028C66.3378 90.7019 66 88.5096 66 88.5096Z" fill="#010101"/>
<path d="M111 88.4778L98 88.0002C98 88.0002 98.6445 90.9062 100.772 92.8742C101.895 93.9128 103.43 94.6901 105.502 94.6413C108.148 94.579 109.53 93.3721 110.247 92.0426C111.156 90.3586 111 88.4778 111 88.4778Z" fill="#010101"/>
<path fill-rule="evenodd" clip-rule="evenodd" d="M57.9642 181.233L50.7951 180.354L43.4138 179.449C43.791 180.068 44 180.61 44 181C44 181.617 43.912 182.164 43.753 182.65C46.5968 183.017 49.3465 183.361 51.8672 183.664C59.2899 184.555 64.7261 185.086 64.7261 184.769C64.684 184.486 64.4804 183.526 64.1704 182.203C63.7692 180.49 63.1752 178.031 62.4702 175.149L62.3345 175.133C63.0062 177.854 60.7453 181.574 57.9642 181.233Z" fill="#AFAFAF"/>
<path d="M112.643 45.6519C113.01 45.7991 113.375 45.9495 113.737 46.1032C116.453 47.2556 119.019 48.5886 121.426 50.0867M112.643 45.6519C114.748 35.8883 117 21.3734 117 18.0002C117 10.5002 124 6.00017 127 15.5002C128.631 20.6649 124.081 41.8658 121.54 50.1578M112.643 45.6519C110.872 44.9427 109.04 44.3087 107.147 43.7542M121.426 50.0867L121.54 50.1578M121.426 50.0867C121.464 50.1103 121.502 50.1341 121.54 50.1578M121.54 50.1578C123.67 51.4907 125.676 52.9532 127.554 54.5348M52.94 49.5466C55.7023 47.8815 58.6877 46.4344 61.893 45.228M52.94 49.5466C51.6121 45.0284 48.5527 36.1916 47.2276 33.5543C46.768 32.6395 46.0617 31.1476 45.3147 29.5696C43.9508 26.6885 42.4511 23.5204 42.0686 23.0543C41.5601 22.4346 39.2644 11.4167 46.9096 14.5543C51.0469 16.2523 55.1823 26.5544 56.0686 29.5544C56.4469 30.8345 58.2735 35.6554 59.9657 40.1213C60.6692 41.978 61.3496 43.7735 61.893 45.228M52.94 49.5466C51.0589 50.6805 49.2813 51.9154 47.6081 53.2443M61.893 45.228C64.0023 44.4341 66.2068 43.7445 68.5056 43.1656M107.147 43.7542C101.037 41.9636 94.3009 41.0002 87 41.0002C80.2829 41.0002 74.1136 41.7534 68.5056 43.1656M107.147 43.7542C107.908 37.262 108.697 27.9768 109.275 21.1751C109.595 17.4143 109.85 14.4128 110 13.0623C110 11.5623 112 2.17349 122 1.06238C126.5 0.562382 131.091 3.06236 133 9.06234C136.074 18.7229 132.742 35.3831 127.554 54.5348M68.5056 43.1656C67.8214 40.6172 66.4132 35.6816 63.5687 26.0541C62.6823 23.0541 57.0687 7.15411 46.0687 6.05411C38.0687 5.25411 34.7353 13.5541 34.5687 17.5541C34.3395 23.0541 34.5687 26.1791 37.0687 30.5541C40.3652 36.3231 44.9925 46.0102 47.6081 53.2443M47.6081 53.2443C34.6915 63.5028 28 79.357 28 97.5002C28 115.984 33.9983 130.351 44.2366 140.1M44.2366 140.1L50.8592 140.769M44.2366 140.1L4.16461 136.052C2.25203 135.813 0.766492 136.802 1.26166 138.665L10.0313 171.656C10.451 173.234 11.7887 175.57 13.4102 175.769L25.2484 177.221M44.2366 140.1L3.75708 136C1.96518 136 0.646747 136.436 1.08451 138.174C3.60439 148.176 10.7996 177.307 10.7261 177.769C10.6958 177.959 16.9088 178.942 25.1299 180.119M50.8592 140.769C52.5415 140.939 53.9967 141.365 54.402 143.007L55.6902 148.224M50.8592 140.769C51.0227 140.786 51.1836 140.8 51.341 140.814C52.7915 140.945 53.9545 141.05 54.3283 142.517C55.6292 147.626 58.5364 159.208 60.9469 168.959M55.6902 148.224C64.3193 152.691 74.6003 155 86 155C86.3341 155 86.6674 154.998 87 154.995M55.6902 148.224L60.8055 168.941M87 154.995V146.816C87.7517 146.29 88.8197 145.831 90.1057 145.446M87 154.995V172.256M90.1057 145.446C89.0867 145.482 88.0515 145.5 87 145.5C72.2223 145.5 59.9443 141.978 51.1409 134.771C41.4769 126.859 36 114.507 36 97.5002C36 78.5002 48.5 50.0002 87 50.0002C113 50.0002 138 66.5002 138 97.5002C138 113.246 132.978 126.044 122.951 134.453C117.545 138.987 110.683 142.245 102.369 144.002M90.1057 145.446C94.4944 145.29 98.5822 144.802 102.369 144.002M90.1057 145.446C93.3383 144.477 97.9476 143.968 102.369 144.002M102.369 144.002C107.888 144.043 113.113 144.929 115 146.816V149.555M115 149.555C120.333 147.28 125.162 144.286 129.348 140.557M115 149.555V149.677M129.348 140.557C140.013 131.055 146.5 116.784 146.5 97.5002C146.5 80.1012 139.746 64.8074 127.554 54.5348M129.348 140.557C129.413 140.735 129.474 140.915 129.53 141.097C135.56 145.655 141.5 152.152 141.5 158.5C141.5 162.048 140.1 169.7 128.5 172.5M96.8785 197.526C103.08 196.944 108.769 195.934 112.916 195.134C113.689 194.985 114.438 194.75 115.148 194.439M96.8785 197.526C96.9458 205.588 96.8441 215.428 98.9165 217.5C102.417 221 110.729 222 112.916 215C114.249 210.735 115.296 201.312 115.148 194.439M96.8785 197.526C93.7943 197.816 90.5833 198 87.3724 198C83.6374 198 80.3375 197.904 77.3874 197.711M115.148 194.439C117.801 193.278 119.915 191.05 120.744 188.229C122.309 182.903 123.191 178.265 123.825 173.216M77.3874 197.711C69.1956 197.176 63.7022 195.897 59.0861 193.875M77.3874 197.711C77.3639 203.669 76.9687 211.492 75.8724 215C73.6849 222 65.3725 221 61.8724 217.5C59.525 215.153 59.0044 202.623 59.0861 193.875M59.0861 193.875C58.7646 193.734 58.4474 193.59 58.1338 193.442C56.2988 192.575 54.885 191.022 54.0643 189.166C53.19 187.189 52.4718 185.375 51.8672 183.664M51.8672 183.664C59.2899 184.555 64.7261 185.086 64.7261 184.769M51.8672 183.664C49.3465 183.361 46.5968 183.017 43.753 182.65M123.825 173.216C122.923 173.262 122.09 173.242 121.322 173.167M123.825 173.216C125.214 173.145 126.767 172.918 128.5 172.5M121.322 173.167C118.319 172.873 116.3 171.732 115 170.334M121.322 173.167C120.013 173.71 118.557 174 117 174C116.323 174 115.655 173.945 115 173.839M115 170.334V173.839M115 170.334C113.713 168.949 113.131 167.313 113 166C112.726 163.263 112.41 159.713 115 156.967M115 173.839V175.816C111.649 179.645 91.8025 178.892 87.4824 176.189M87.4824 176.189C87.2898 176.068 87.128 175.944 87 175.816V173.29M87.4824 176.189L64.7261 184.769M87 173.29L64.1704 182.203M87 173.29L89 172.51L87 172.256M64.1704 182.203C64.4804 183.526 64.684 184.486 64.7261 184.769M64.1704 182.203C63.7692 180.49 63.1752 178.031 62.4702 175.149M64.1704 182.203L64 182.269M61.2569 170.769L62.3345 175.133M61.2569 170.769L60.8055 168.941M61.2569 170.769L61.3988 170.789M62.3345 175.133L62.4702 175.149M62.3345 175.133C63.0062 177.854 60.7453 181.574 57.9642 181.233L50.7951 180.354L43.4138 179.449M62.4702 175.149C62.1352 173.78 61.7752 172.315 61.3988 170.789M62.4702 175.149L72 176.269L64.1704 179.989M61.3988 170.789C61.2506 170.187 61.0997 169.577 60.9469 168.959M61.3988 170.789L68.5 171.769L63.5 174.769M60.9469 168.959L87 172.256M60.9469 168.959L60.8055 168.941M124.382 153.1C119.531 153.77 116.665 155.202 115 156.967M124.382 153.1C124.959 153.02 125.564 152.951 126.198 152.894M124.382 153.1C122.47 150.974 119.914 149.5 117 149.5C116.323 149.5 115.655 149.561 115 149.677M115 156.967V149.677M128.5 172.5C133.416 164.008 130.742 157.514 127.404 154.013M127.404 154.013L127.741 152.881M127.404 154.013C127.007 153.597 126.602 153.223 126.198 152.894M127.741 152.881C127.171 152.856 126.643 152.854 126.198 152.894M127.741 152.881C129.103 152.941 130.708 153.127 132 153.154M77.4102 94.7028C75.5264 97.8652 72.1619 100.821 66.5 101.5C60.8322 102.18 57.3596 99.5731 55.3537 96.3368M77.4102 94.7028C78.8536 92.2798 79.4277 89.7354 79.5 88.0002L66 88.5096M77.4102 94.7028C78.462 95.5012 79 96.4639 79 97.5002C79 100.262 73.1797 105 66 105C58.8203 105 55 100.262 55 97.5002C55 97.0996 55.1224 96.7101 55.3537 96.3368M55.3537 96.3368C53.8206 93.8631 53.1444 91.0219 53 89.0002M53 89.0002L66 88.5096M53 89.0002C53 89.0002 53.7594 93.1222 57.195 94.719C58.1254 95.1515 59.2521 95.3987 60.6132 95.3287C63.2881 95.1911 64.6673 93.9726 65.3669 92.6028C66.3378 90.7019 66 88.5096 66 88.5096M99.5391 93.4937C98.4957 91.4678 98.0617 89.4417 98 88.0002M99.5391 93.4937C101.262 96.8382 104.645 100.182 110.755 100.896C116.792 101.602 120.291 98.6055 122.165 95.1574M99.5391 93.4937C98.8506 93.9931 98.5 94.6478 98.5 95.5002C98.5 99.0002 102 105 112.042 105C119.521 105 123 99.872 123 97.0002C123 96.3412 122.707 95.7214 122.165 95.1574M98 88.0002L111 88.4778M98 88.0002C98 88.0002 98.6445 90.9062 100.772 92.8742C101.895 93.9128 103.43 94.6901 105.502 94.6413C108.148 94.579 109.53 93.3721 110.247 92.0426C111.156 90.3586 111 88.4778 111 88.4778M111 88.4778L124 88.9554C123.874 90.6702 123.337 93.0021 122.165 95.1574M25.1299 180.119C25.0447 179.752 25 179.378 25 179C25 178.34 25.0883 177.749 25.2484 177.221M25.1299 180.119C25.9455 183.631 30.4727 186.5 35 186.5C36.7758 186.5 42.4935 186.5 43.753 182.65M25.2484 177.221C26.2933 173.774 30.3986 173 33 173C37.4279 173 41.8558 176.889 43.4138 179.449M43.753 182.65C43.912 182.164 44 181.617 44 181C44 180.61 43.791 180.068 43.4138 179.449M90 148.316C98.5 150.816 106 150.316 112.5 148.316M88.5 99.5002V110M88.5 110C86.3333 110 83 113 80 116.5M88.5 110C91 110 94 112.5 97.5 116.5M97.5 77.0002H121.5M53 77.5002L76.5 77.0002M92.9068 128C91.7402 129.167 89.6148 132.844 92.2967 135C95.4068 137.5 93.4068 140.667 92.9068 141.5M99.9068 124C97.4068 125.5 95.4068 130.5 98.4069 133C101.773 135.805 98.9069 142.667 98.4069 143.5M105.314 129.406C104.147 130.573 102.225 133.344 104.907 135.5C108.017 138 105.407 141.667 104.907 142.5M79 97.0002C79 99.7616 73.1797 104.5 66 104.5M98.5 95.0002C98.5 98.5002 102 104.5 112.042 104.5M101.139 82.0002C100.037 82.1054 98.5328 83.3248 99.1393 85.5002M76 82.0002C77.3347 83.1901 77.8011 83.9474 78 85.5002M112 147.5C112 148.329 107.023 149 101.5 149C95.9771 149 91 148.704 91 147.875C91 147.047 95.9771 146 101.5 146C107.023 146 112 146.672 112 147.5ZM94 99.5002C94 101.985 91.5376 104 88.5 104C85.4624 104 83 101.985 83 99.5002C83 97.0149 85.4624 95.0002 88.5 95.0002C91.5376 95.0002 94 97.0149 94 99.5002ZM63 129.757C63 131.996 61.6569 133 60 133C58.3431 133 57 131.996 57 129.757C57 127.518 59.625 126.566 60 124.487C60.375 122.409 63 127.518 63 129.757ZM127 117.757C127 119.996 125.657 121 124 121C122.343 121 121 119.996 121 117.757C121 115.518 123.625 114.566 124 112.487C124.375 110.409 127 115.518 127 117.757ZM69 65.7571C69 67.996 67.6569 69.0002 66 69.0002C64.3431 69.0002 63 67.996 63 65.7571C63 63.5183 65.625 62.5658 66 60.4872C66.375 58.4086 69 63.5183 69 65.7571ZM101 60.7571C101 62.996 99.6569 64.0002 98 64.0002C96.3431 64.0002 95 62.996 95 60.7571C95 58.5183 97.625 57.5658 98 55.4872C98.375 53.4086 101 58.5183 101 60.7571ZM59 110.757C59 112.996 57.6569 114 56 114C54.3431 114 53 112.996 53 110.757C53 108.518 55.625 107.566 56 105.487C56.375 103.409 59 108.518 59 110.757ZM25 159.269C25 160.778 25.878 162.105 27.3634 162.92C26.9935 164.283 26.7619 165.48 26.989 165.762C27.2647 166.105 28.8029 165.009 30.3595 163.747C30.5685 163.762 30.7821 163.769 31 163.769C34.5899 163.769 37 161.754 37 159.269C37 156.784 34.5899 154.769 31 154.769C27 154.769 25 156.784 25 159.269Z" stroke="black" stroke-width="2"/>
</svg>
