<svg width="41" height="41" viewBox="0 0 41 41" fill="none" xmlns="http://www.w3.org/2000/svg">
<path fill-rule="evenodd" clip-rule="evenodd" d="M21.0795 9.13052C21.0795 8.46714 21.3721 7.91629 21.7563 7.80872C21.801 7.79622 21.8469 7.7897 21.8937 7.7897C22.3434 7.7897 22.708 8.39001 22.708 9.13052C22.708 9.87103 22.3434 10.4713 21.8937 10.4713C21.7263 10.4713 21.5708 10.3882 21.4414 10.2456C21.2232 10.005 21.0795 9.5954 21.0795 9.13052ZM23.7031 21.0063C23.7031 24.8147 22.0019 27.9019 19.9034 27.9019C17.8049 27.9019 16.1037 24.8147 16.1037 21.0063C16.1037 17.198 17.8049 14.1107 19.9034 14.1107C22.0019 14.1107 23.7031 17.198 23.7031 21.0063Z" stroke="black" stroke-width="3" stroke-linejoin="round"/>
<path fill-rule="evenodd" clip-rule="evenodd" d="M23.7033 21.0063C23.7033 24.8147 22.0021 27.9019 19.9035 27.9019C17.805 27.9019 16.1038 24.8147 16.1038 21.0063C16.1038 17.198 17.805 14.1107 19.9035 14.1107C22.0021 14.1107 23.7033 17.198 23.7033 21.0063Z" stroke="black" stroke-width="2" stroke-linejoin="round"/>
<path d="M21.4415 10.2455C21.5708 10.3882 21.7264 10.4713 21.8938 10.4713C22.3435 10.4713 22.708 9.87103 22.708 9.13052C22.708 8.39001 22.3435 7.7897 21.8938 7.7897C21.847 7.7897 21.8011 7.79622 21.7564 7.80872M21.4415 10.2455C21.2233 10.005 21.0796 9.5954 21.0796 9.13052C21.0796 8.46714 21.3721 7.91629 21.7564 7.80872M21.4415 10.2455C21.5214 9.47572 21.6269 8.64668 21.7564 7.80872M25.3317 0.894081C27.322 3.00108 25.4248 4.92483 26.8697 9.51361C28.6791 15.26 33.1121 8.17279 30.4885 7.21507C27.8648 6.25736 27.5934 24.2626 31.0313 29.6258C34.4691 34.9891 38.5403 4.72496 39.8973 18.1331C41.0078 29.1049 32.9103 23.2168 25.866 15.4957L23.3413 5.87424L21.9912 6.42822C22.6888 2.68952 23.8519 -0.672443 25.3317 0.894081Z" stroke="#1F2880"/>
<path d="M3.2975 27.3034C2.65978 24.4044 4.55789 20.6143 7.28626 19.3386L22.8824 12.0466C23.4168 11.7967 23.9086 12.0017 24.0717 12.5424L24.4998 13.9611L25.8744 18.5162L26.1798 19.5002C27.0806 22.4026 25.1543 26.5146 22.2692 27.8477L8.90296 34.0242C6.74066 35.0234 4.78669 34.0729 4.28145 31.7762L3.2975 27.3034Z" fill="#D9D9D9"/>
<path fill-rule="evenodd" clip-rule="evenodd" d="M23.7075 7.26995C23.492 6.4489 22.7853 6.10231 21.9911 6.4282L5.41538 13.2295C2.6146 14.3787 0.5796 18.2426 1.20047 21.2325L3.77334 33.6226C4.25738 35.9536 6.21937 36.9323 8.39866 35.93L23.3133 29.0704C26.1254 27.7771 28.0508 23.8224 27.2865 20.9098L25.8659 15.4957L23.7075 7.26995ZM21.7563 7.8087C21.372 7.91626 21.0795 8.46712 21.0795 9.13049C21.0795 9.59537 21.2231 10.005 21.4413 10.2455C21.5707 10.3881 21.7263 10.4713 21.8937 10.4713C22.3434 10.4713 22.7079 9.87101 22.7079 9.13049C22.7079 8.38998 22.3434 7.78968 21.8937 7.78968C21.8469 7.78968 21.8009 7.79619 21.7563 7.8087ZM22.8824 12.0466L7.28626 19.3386C4.55789 20.6143 2.65978 24.4044 3.2975 27.3034L4.28145 31.7762C4.78669 34.0729 6.74066 35.0234 8.90296 34.0242L22.2692 27.8477C25.1543 26.5146 27.0806 22.4026 26.1798 19.5002L25.8744 18.5162L24.4998 13.9611L24.0717 12.5424C23.9086 12.0017 23.4168 11.7967 22.8824 12.0466Z" fill="#393939"/>
<path d="M3.2975 27.3034C2.65978 24.4044 4.55789 20.6143 7.28626 19.3386L22.8824 12.0466C23.4168 11.7967 23.9086 12.0017 24.0717 12.5424L24.4998 13.9611L25.8744 18.5162L26.1798 19.5002C27.0806 22.4026 25.1543 26.5146 22.2692 27.8477L8.90296 34.0242C6.74066 35.0234 4.78669 34.0729 4.28145 31.7762L3.2975 27.3034Z" stroke="black" stroke-linejoin="round"/>
<path fill-rule="evenodd" clip-rule="evenodd" d="M23.7075 7.26995C23.492 6.4489 22.7853 6.10231 21.9911 6.4282L5.41538 13.2295C2.6146 14.3787 0.5796 18.2426 1.20047 21.2325L3.77334 33.6226C4.25738 35.9536 6.21937 36.9323 8.39866 35.93L23.3133 29.0704C26.1254 27.7771 28.0508 23.8224 27.2865 20.9098L25.8659 15.4957L23.7075 7.26995ZM21.7563 7.8087C21.372 7.91626 21.0795 8.46712 21.0795 9.13049C21.0795 9.59537 21.2231 10.005 21.4413 10.2455C21.5707 10.3881 21.7263 10.4713 21.8937 10.4713C22.3434 10.4713 22.7079 9.87101 22.7079 9.13049C22.7079 8.38998 22.3434 7.78968 21.8937 7.78968C21.8469 7.78968 21.8009 7.79619 21.7563 7.8087ZM22.8824 12.0466L7.28626 19.3386C4.55789 20.6143 2.65978 24.4044 3.2975 27.3034L4.28145 31.7762C4.78669 34.0729 6.74066 35.0234 8.90296 34.0242L22.2692 27.8477C25.1543 26.5146 27.0806 22.4026 26.1798 19.5002L25.8744 18.5162L24.4998 13.9611L24.0717 12.5424C23.9086 12.0017 23.4168 11.7967 22.8824 12.0466Z" stroke="black" stroke-linejoin="round"/>
<path d="M6.77807 22.6146L7.30406 22.3412C8.57216 21.6823 9.73385 22.299 9.89841 23.7186C10.0628 25.1381 9.16797 26.8227 7.89996 27.4816L7.37396 27.7549C6.10595 28.4139 4.94441 27.7979 4.77972 26.3785C4.61516 24.959 5.50997 23.2735 6.77807 22.6146Z" fill="#383838" stroke="black"/>
<path d="M23.703 21.0063C23.703 24.8146 22.0018 27.9019 19.9032 27.9019C17.8047 27.9019 16.1035 24.8146 16.1035 21.0063C16.1035 17.1979 17.8047 14.1107 19.9032 14.1107C22.0018 14.1107 23.703 17.1979 23.703 21.0063Z" fill="#E1B646" stroke="black"/>
<mask id="mask0_172_63" style="mask-type:alpha" maskUnits="userSpaceOnUse" x="16" y="14" width="7" height="12">
<path d="M16.5562 17.8454L21.3268 14.6853L22.5184 22.7491L17.7477 25.9092L16.5562 17.8454Z" fill="#D9D9D9"/>
</mask>
<g mask="url(#mask0_172_63)">
<path d="M21.4937 20.7677C21.4944 20.7617 21.4954 20.7555 21.4966 20.7493L21.6689 19.8683C21.6848 19.7871 21.7396 19.7248 21.7913 19.7292C21.843 19.7337 21.872 19.8031 21.8561 19.8844L21.6838 20.7653C21.683 20.7694 21.6821 20.7735 21.6811 20.7775M21.4937 20.7677L21.6811 20.7775M21.4937 20.7677L21.4066 20.7632M21.6811 20.7775L21.7918 20.7832C21.8505 20.7863 21.8847 20.8633 21.8679 20.9552L21.7433 21.64M21.4948 22.6196C21.4994 22.6387 21.5048 22.6604 21.5109 22.6837M21.4948 22.6196C21.5142 22.62 21.5361 22.6177 21.5595 22.612M21.4948 22.6196L21.4917 22.617M21.4948 22.6196C21.4962 22.616 21.4957 22.6142 21.4917 22.617M21.5109 22.6837C21.5301 22.6658 21.547 22.641 21.5595 22.612M21.5109 22.6837C21.4892 22.704 21.4646 22.7154 21.4405 22.7142L21.1767 22.7005M21.5109 22.6837C21.5502 22.8341 21.6165 23.0507 21.6591 23.0606M21.5595 22.612C21.7144 22.5742 21.9364 22.386 21.936 21.8324M21.4917 22.617C21.4486 22.5805 21.4132 22.5418 21.3843 22.502C21.2469 22.3123 21.2574 22.0944 21.3 21.9466C21.3118 21.9057 21.326 21.8702 21.3402 21.8421C21.4625 21.5742 21.613 21.5611 21.7433 21.64M20.5811 26.3643C20.3187 26.6194 20.1654 26.7238 19.8982 26.8133M20.5811 26.3643C20.6147 26.4006 20.6348 26.4665 20.6489 26.5616C20.6877 26.8244 20.5967 27.1461 20.3073 27.3378C20.0178 27.5295 19.8207 27.5362 19.7819 27.2734C19.7615 27.1355 19.8078 26.9685 19.8982 26.8133M20.5811 26.3643C20.5865 26.359 20.592 26.3536 20.5975 26.3482L20.5374 25.6732L20.6783 25.5524L20.8265 25.4817L20.9408 26.1208C20.9467 26.1192 20.9525 26.1175 20.9582 26.1159M19.8982 26.8133L19.8927 26.8151L19.6988 26.1245M20.9582 26.1159C20.9408 26.1859 20.9421 26.2638 20.9561 26.3582C20.9949 26.6209 21.1563 26.7754 21.4457 26.5837C21.7351 26.392 21.8989 26.1596 21.86 25.8968C21.84 25.7615 21.7597 25.6805 21.6469 25.6601M20.9582 26.1159C21.2359 26.0365 21.3927 25.9342 21.6469 25.6601M21.6469 25.6601C21.6525 25.6542 21.658 25.6481 21.6637 25.642C21.648 25.2927 21.6315 24.9818 21.6133 24.6956M19.4057 26.0209L19.33 25.4383C19.2137 25.5245 18.9455 25.6709 18.8031 25.5673M19.4057 26.0209C19.3385 26.148 19.2304 26.3034 19.1249 26.3568M19.4057 26.0209L19.4418 25.997M19.1249 26.3568C19.2214 26.132 19.2763 25.9112 19.1768 25.8147C19.0865 25.7271 18.9657 25.8565 18.853 26.0387M19.1249 26.3568C19.102 26.4101 19.0767 26.4637 19.0507 26.5159M18.853 26.0387C18.8337 25.9011 18.8162 25.7413 18.8031 25.5673M18.853 26.0387C18.8275 26.0798 18.8025 26.1237 18.7783 26.1684M18.8031 25.5673C18.7533 24.9025 18.7687 24.0311 18.9985 23.4036M19.264 22.6674C19.2595 22.6742 19.2553 22.6814 19.2513 22.689L18.9964 23.1807C18.9557 23.2591 18.957 23.3574 18.9985 23.4036M19.264 22.6674C19.3077 22.6732 19.3523 22.6762 19.3976 22.6764M19.264 22.6674C18.7146 22.5958 18.2956 22.0997 18.1822 21.3321C18.1065 20.82 18.1716 20.2193 18.3501 19.6508M18.9985 23.4036C18.9996 23.4048 19.0007 23.406 19.0018 23.4071L19.0271 23.4324C19.0718 23.477 19.1418 23.448 19.1835 23.3676L19.4384 22.876C19.4541 22.8458 19.4635 22.8126 19.4669 22.7806C19.4684 22.7652 19.4686 22.75 19.4674 22.7356M19.4674 22.7356C19.4654 22.7135 19.46 22.6923 19.4514 22.6754M19.4674 22.7356L19.3976 22.6764M19.4674 22.7356L19.4978 22.7601L19.8899 23.0878L19.998 22.797M19.4514 22.6754C19.4334 22.6762 19.4154 22.6765 19.3976 22.6764M19.4514 22.6754C19.4954 22.6735 19.54 22.6691 19.5852 22.662C19.6134 22.6576 19.6419 22.6522 19.6706 22.6457C19.7972 22.617 19.9278 22.5678 20.0607 22.4968C20.0811 22.4859 20.1017 22.4744 20.1222 22.4624M20.1222 22.4624L19.998 22.797M20.1222 22.4624C20.1562 22.4426 20.1903 22.4214 20.2245 22.3988C20.2457 22.3847 20.2667 22.3703 20.2875 22.3555M19.998 22.797C20.0065 22.8226 20.0208 22.8428 20.0403 22.8537L20.1379 22.9083M20.1379 22.9083L20.2199 24.3814L20.5247 24.5644L20.744 24.0343L20.4031 22.749M20.1379 22.9083L20.2144 22.9511C20.2661 22.98 20.3344 22.9326 20.3671 22.8453L20.4031 22.749M20.4031 22.749L20.4668 22.5785C20.4774 22.5501 20.4829 22.521 20.4838 22.4936M20.4838 22.4936L20.6308 22.5971L20.8439 21.8684M20.4838 22.4936L20.2875 22.3555M20.8439 21.8684L20.7444 21.9343M20.8439 21.8684L20.8702 21.7785M20.8439 21.8684L20.8704 21.8509M20.7444 21.9343C20.6205 22.078 20.4854 22.2069 20.3404 22.3166C20.3229 22.3299 20.3052 22.3428 20.2875 22.3555M20.7444 21.9343C20.7878 21.8841 20.8297 21.8321 20.8702 21.7785M21.1031 22.6966L20.754 22.9278L20.7725 23.0531L20.8448 23.0052L20.8559 23.0803L20.7836 23.1282L20.8169 23.3536C20.8927 23.4554 20.9467 23.4757 21.0671 23.4353C21.1695 23.3204 21.2087 23.2442 21.2326 23.0783L21.1993 22.8529L21.127 22.9008L21.1159 22.8256L21.1881 22.7777L21.1767 22.7005M21.1031 22.6966L21.1767 22.7005M21.1031 22.6966L21.0314 22.6929M21.5194 23.7405C21.5235 23.7288 21.5284 23.7175 21.5339 23.7068M21.5194 23.7405L21.5361 23.7295M21.5194 23.7405L21.2027 23.9503C21.1428 23.99 21.1042 24.0894 21.1165 24.1724L21.1308 24.269M21.5339 23.7068L21.5361 23.7295M21.5339 23.7068C21.5491 23.6773 21.5693 23.6525 21.5929 23.6369L21.7374 23.5412C21.7973 23.5015 21.8558 23.5366 21.8681 23.6196L21.9077 23.8881C21.9152 23.9385 21.9017 23.9982 21.8727 24.0427C21.8437 24.0872 21.8302 24.1469 21.8377 24.1973L21.8959 24.591C21.9081 24.6739 21.8695 24.7734 21.8096 24.813L21.7705 24.839C21.7106 24.8786 21.6521 24.8435 21.6399 24.7605L21.6251 24.6604M21.5339 23.7068C21.5198 23.5655 21.5048 23.4267 21.4884 23.2879M21.5361 23.7295L21.5641 23.7109C21.624 23.6713 21.6825 23.7064 21.6947 23.7894L21.7355 24.0649M20.8115 24.5251L20.806 24.4881L20.7308 24.5378L20.7371 24.58M20.8115 24.5251L20.8715 24.9311L20.8729 24.9405C20.6992 25.1272 20.5953 25.1922 20.4028 25.25M20.8115 24.5251C20.9146 24.4476 21.0201 24.3629 21.1308 24.269M20.7371 24.58C20.6427 24.6485 20.5497 24.7114 20.4557 24.77M20.7371 24.58L20.778 24.8572C20.6712 24.9845 20.6053 25.0279 20.4773 25.0564L20.4616 24.9499L20.5744 24.8752L20.5586 24.7688L20.4647 24.831L20.4557 24.77M20.4557 24.77L20.4529 24.7512L20.3401 24.8259L20.342 24.8387M20.342 24.8387L20.4017 25.2426L20.4028 25.25M20.342 24.8387C20.2352 24.9011 20.1259 24.959 20.0109 25.0148M20.4028 25.25C20.3059 25.3327 20.2399 25.3665 20.1316 25.3934M20.4028 25.25C20.4364 25.3082 20.5231 25.2528 20.6215 25.1877C20.7514 25.1016 20.7886 25.077 20.8907 24.9268C20.9921 24.8578 21.052 24.81 21.1222 24.7385M20.1316 25.3934C20.1178 25.3969 20.1034 25.4002 20.0882 25.4034M20.1316 25.3934C20.1178 25.4007 20.1039 25.4079 20.0899 25.4152M20.0882 25.4034L20.0899 25.4152M20.0882 25.4034C20.0888 25.4074 20.0894 25.4113 20.0899 25.4152M20.0899 25.4152C20.0838 25.4183 20.0777 25.4215 20.0715 25.4247M20.0899 25.4152C20.1292 25.6811 20.139 25.7547 20.0677 25.8019L19.7063 26.0413L19.8663 26.8368C20.1573 26.74 20.315 26.6281 20.5865 26.3309L20.5266 25.649L20.8051 25.4645L20.9393 26.0972C21.2491 26.0382 21.4143 25.9485 21.682 25.6052L21.6288 24.6854C21.6235 24.6889 21.6184 24.6923 21.6133 24.6956M20.0715 25.4247L20.0257 25.1149M20.0715 25.4247L20.0997 25.6158C20.112 25.6987 20.0734 25.7982 20.0135 25.8378L19.7605 26.0054C19.7328 26.0238 19.7053 26.0261 19.6826 26.015M20.0257 25.1149L20.0109 25.0148M20.0257 25.1149C20.038 25.1979 19.9994 25.2973 19.9395 25.337L19.6865 25.5046C19.6587 25.5229 19.6313 25.5253 19.6086 25.5142C19.5823 25.5014 19.5625 25.4706 19.5559 25.4261M20.0109 25.0148L20.0035 24.9646C19.9913 24.8817 19.9328 24.8465 19.8729 24.8862L19.6199 25.0538C19.5921 25.0722 19.5689 25.1034 19.5533 25.1399M19.5533 25.1399C19.5421 25.166 19.5347 25.1947 19.5323 25.2234M19.5533 25.1399L19.5106 24.8512C19.5026 24.7972 19.4652 24.7736 19.4262 24.7972M19.5323 25.2234L19.5263 25.2258L19.5337 25.2759M19.5323 25.2234C19.5308 25.2411 19.5312 25.2588 19.5337 25.2759M19.5337 25.2759L19.5465 25.3626M19.5465 25.3626L19.5559 25.4261M19.5465 25.3626C19.5371 25.3782 19.5255 25.3913 19.5123 25.4L19.5038 25.4056L19.4401 25.4479C19.4001 25.4743 19.3611 25.4509 19.353 25.3956M19.5559 25.4261L19.6203 25.8622M19.6203 25.8622L19.6226 25.8773M19.6203 25.8622L19.6283 25.8735M19.6226 25.8773L19.6283 25.8735M19.6226 25.8773L19.6299 25.927C19.6348 25.9605 19.6473 25.9862 19.6644 26.0023M19.6283 25.8735L19.6644 26.0023M19.6644 26.0023L19.6988 26.1245M19.6644 26.0023C19.67 26.0076 19.6761 26.0119 19.6826 26.015M19.6988 26.1245L19.6826 26.015M19.6988 26.1245L19.7178 26.2536C19.726 26.309 19.7003 26.3752 19.6604 26.4017L19.5881 26.4496C19.5482 26.476 19.5092 26.4526 19.501 26.3973L19.4418 25.997M21.6133 24.6956C21.305 24.8998 21.215 24.9548 21.1742 24.6965M21.6133 24.6956L21.6116 24.6693L21.6251 24.6604M21.1742 24.6965C21.1736 24.6928 21.173 24.6891 21.1724 24.6852C21.1547 24.7046 21.1382 24.7221 21.1222 24.7385M21.1742 24.6965C21.1567 24.7107 21.1394 24.7247 21.1222 24.7385M21.1742 24.6965C21.18 24.6918 21.1859 24.687 21.1918 24.6821M18.4318 26.6021C18.4731 26.5266 18.541 26.4927 18.6143 26.5009C18.6724 26.5073 18.7338 26.5401 18.788 26.5992C18.8395 26.6553 18.8763 26.7263 18.8963 26.7998C18.9239 26.9016 18.9192 27.0081 18.8763 27.0867M18.4318 26.6021C18.3578 26.7376 18.3973 26.9559 18.52 27.0897C18.6428 27.2235 18.8022 27.2222 18.8763 27.0867M18.4318 26.6021C18.4365 26.5935 18.4418 26.5835 18.4478 26.5725C18.5107 26.4549 18.6396 26.2142 18.7783 26.1684M18.8763 27.0867C18.927 26.9938 19.0559 26.7489 19.0507 26.5159M19.0507 26.5159C19.0496 26.4672 19.0426 26.419 19.0278 26.3729C19.0103 26.3181 18.9818 26.2662 18.9391 26.2196C18.9204 26.1992 18.9015 26.1847 18.8825 26.1751C18.8477 26.1576 18.8127 26.157 18.7783 26.1684M21.7355 24.0649L21.7836 24.3904C21.7958 24.4734 21.7572 24.5728 21.6973 24.6125L21.6251 24.6604M21.7355 24.0649C21.7027 24.1061 21.6678 24.142 21.6324 24.1729C21.6147 24.1883 21.5969 24.2026 21.5792 24.2156C21.5732 24.2201 21.5672 24.2244 21.5612 24.2285C21.4619 24.2979 21.3684 24.3311 21.3198 24.3402M21.936 21.8324C21.884 21.7585 21.8169 21.6846 21.7433 21.64M21.936 21.8324C21.9544 21.8587 21.9709 21.8849 21.9851 21.9099C22.3108 22.288 22.2269 22.7853 22.1442 22.9867C21.9264 23.3614 21.6667 23.3676 21.4884 23.2879M20.4936 17.5011C20.5712 17.3784 20.6291 17.257 20.6605 17.1431M20.4936 17.5011C20.5036 17.5151 20.5032 17.5272 20.5028 17.5422C20.5026 17.5508 20.5023 17.5604 20.504 17.5719C20.5052 17.5795 20.5096 17.5889 20.5143 17.5988C20.5206 17.6122 20.5272 17.6263 20.5265 17.6377M20.4936 17.5011C20.4574 17.4505 20.3935 17.424 20.3089 17.4204C20.1206 17.4126 19.8299 17.5188 19.5145 17.7277C19.2047 17.933 18.9411 18.1909 18.7872 18.4214C18.7135 18.5318 18.6649 18.636 18.6486 18.7251M20.6605 17.1431C20.8289 17.1048 20.9226 17.1877 20.9586 17.431C20.9641 17.4682 20.9702 17.5044 20.9761 17.5396C20.9971 17.6639 21.016 17.7755 20.9974 17.8717M20.6605 17.1431C20.6972 17.0096 20.6976 16.8862 20.6509 16.7825C20.496 16.4384 19.9324 16.4698 19.3579 16.7592C18.7931 17.2688 18.3217 17.9298 18.3017 18.3386C18.2955 18.4656 18.3281 18.5593 18.39 18.6227M20.9974 17.8717C20.857 17.7551 20.6982 17.6748 20.5265 17.6377M20.9974 17.8717C21.3021 18.1245 21.5206 18.5479 21.5977 19.0697C21.6766 19.6032 21.6024 20.2047 21.4066 20.7632M20.5265 17.6377C20.5191 17.7585 20.442 17.9141 20.3162 18.0777C20.1585 18.283 19.9242 18.5011 19.6551 18.6794C19.3734 18.866 19.1113 18.9706 18.9244 18.9853C18.8007 18.995 18.71 18.9653 18.6681 18.8938M20.5265 17.6377C20.4892 17.6297 20.4512 17.6237 20.4127 17.6198C20.3481 17.6133 20.2819 17.6127 20.2144 17.6185C20.0045 17.6365 19.782 17.7155 19.5547 17.866C19.3164 18.0239 19.1023 18.2409 18.9175 18.4958C18.8647 18.5686 18.8143 18.6445 18.7664 18.7229C18.7324 18.7786 18.6996 18.8357 18.6681 18.8938M18.6486 18.7251C18.54 18.7183 18.4508 18.6851 18.39 18.6227M18.6486 18.7251C18.6443 18.7481 18.6477 18.7573 18.6519 18.7688C18.6544 18.7755 18.6571 18.7829 18.6588 18.7942C18.6601 18.8035 18.6603 18.8165 18.6604 18.8303C18.6606 18.8547 18.6608 18.8814 18.6681 18.8938M18.39 18.6227C18.246 18.7923 18.1934 18.9718 18.2289 19.2117C18.2344 19.2489 18.2391 19.286 18.2437 19.3221C18.2637 19.4801 18.2813 19.6181 18.3501 19.6508M18.3501 19.6508C18.4327 19.3876 18.5396 19.1313 18.6681 18.8938M20.0934 20.318C20.095 20.3315 20.0948 20.3474 20.0926 20.3661C20.0765 20.5006 20.0178 20.6605 19.9547 20.7301C19.9528 20.7322 19.9508 20.7343 19.9489 20.7362C19.941 20.7388 19.9328 20.7404 19.9246 20.7412C19.8533 20.7479 19.7708 20.6922 19.7312 20.6055C19.7259 20.594 19.7224 20.5825 19.7204 20.5708M20.0934 20.318C20.0815 20.2189 19.9738 20.2523 19.886 20.3105C19.7967 20.3697 19.7033 20.4718 19.7204 20.5708M20.0934 20.318C20.1054 20.3071 20.118 20.2973 20.131 20.2887C20.2707 20.1962 20.4072 20.2781 20.4358 20.4717C20.4644 20.6654 20.3743 20.8974 20.2346 20.9899C20.1281 21.0604 20.0235 21.0296 19.9671 20.9253C19.9489 21.0791 19.8712 21.2306 19.7648 21.3011C19.625 21.3937 19.4886 21.3117 19.46 21.1181C19.4313 20.9245 19.5214 20.6925 19.6611 20.5999C19.6811 20.5867 19.7009 20.5771 19.7204 20.5708M20.8702 21.7785C20.8761 21.7706 20.882 21.7628 20.8879 21.7549M20.8879 21.7549L21.0412 20.9122C21.0579 20.8203 21.1191 20.7482 21.1779 20.7513L21.3825 20.7619M20.8879 21.7549L20.8704 21.8509M20.8704 21.8509L20.7504 22.5103C20.7337 22.6022 20.7678 22.6792 20.8266 22.6822L21.0314 22.6929M21.0314 22.6929C20.9726 22.6898 20.9385 22.6128 20.9552 22.5209L21.1797 21.2871L21.2459 20.9229C21.2626 20.831 21.3237 20.7591 21.3825 20.7619M21.3825 20.7619L21.4066 20.7632M19.4418 25.997L19.353 25.3956M19.353 25.3956L19.2938 24.9949C19.2856 24.9396 19.3113 24.8733 19.3512 24.8468L19.4235 24.7989L19.4262 24.7972M19.4262 24.7972L19.3195 23.9606M21.1308 24.269L21.1918 24.6821M21.4884 23.2879C21.4433 23.1914 21.3607 22.9879 21.3915 22.9455M21.1918 24.6821L21.2053 24.7734C21.2176 24.8564 21.276 24.8915 21.3359 24.8519L21.3901 24.816M21.3901 24.816L21.3198 24.3402M21.3901 24.816C21.3725 24.6966 21.3422 24.4913 21.3198 24.3402M21.3198 24.3402C21.3078 24.2587 21.2981 24.1929 21.2939 24.1649L21.2859 24.1347C21.2674 24.0936 21.2298 24.1171 21.2105 24.1376M21.3532 21.3232C21.3864 21.3228 21.4225 21.2639 21.4337 21.1916C21.4449 21.1193 21.4271 21.061 21.3938 21.0614C21.3606 21.0618 21.3245 21.1208 21.3133 21.1931C21.302 21.2654 21.3199 21.3237 21.3532 21.3232ZM19.9482 23.5166L19.5146 23.8039L19.5516 24.0543L19.9853 23.767L19.9482 23.5166ZM19.6495 25.2541C19.6639 25.2171 19.7362 25.1692 19.7579 25.1823C19.7797 25.1954 19.7871 25.2455 19.7727 25.2825C19.7584 25.3195 19.6861 25.3674 19.6643 25.3543C19.6425 25.3412 19.6351 25.2911 19.6495 25.2541ZM19.1833 17.2322C19.3246 17.14 19.3688 17.0775 19.3997 16.9514C19.4019 16.9538 19.404 16.9561 19.406 16.9583C19.4479 17.0047 19.4727 17.0311 19.6189 16.9423C19.6348 16.9326 19.6522 16.9216 19.6712 16.9091L19.7304 17.3097C19.673 17.4764 19.6263 17.5522 19.5251 17.6657C19.3975 17.7081 19.3335 17.7079 19.2425 17.6329L19.1833 17.2322ZM21.5543 24.0474C21.5579 24.045 21.5614 24.0423 21.5647 24.0395C21.5889 24.0185 21.6047 23.9857 21.6011 23.9614C21.5978 23.9389 21.5789 23.9305 21.5558 23.9388C21.5506 23.9407 21.5451 23.9435 21.5395 23.9472C21.5332 23.9514 21.5272 23.9564 21.5219 23.962C21.5018 23.9828 21.4895 24.0114 21.4927 24.0332C21.4959 24.055 21.5138 24.0636 21.5358 24.0565C21.5417 24.0546 21.548 24.0516 21.5543 24.0474Z" stroke="black"/>
<path d="M19.2979 20.2906C19.3122 20.3874 19.2672 20.5034 19.1973 20.5497C19.1275 20.596 19.0593 20.555 19.0449 20.4582C19.0306 20.3614 19.0757 20.2454 19.1455 20.1991C19.2154 20.1528 19.2836 20.1938 19.2979 20.2906Z" fill="#280C00"/>
<path d="M20.6713 19.3809C20.6856 19.4777 20.6406 19.5937 20.5707 19.64C20.5008 19.6863 20.4326 19.6453 20.4183 19.5485C20.404 19.4517 20.449 19.3357 20.5189 19.2894C20.5888 19.2431 20.657 19.2841 20.6713 19.3809Z" fill="#280C00"/>
<path d="M19.2979 20.2906C19.3122 20.3874 19.2672 20.5034 19.1973 20.5497C19.1275 20.596 19.0593 20.555 19.0449 20.4582C19.0306 20.3614 19.0757 20.2454 19.1455 20.1991C19.2154 20.1528 19.2836 20.1938 19.2979 20.2906Z" stroke="black"/>
<path d="M20.6713 19.3809C20.6856 19.4777 20.6406 19.5937 20.5707 19.64C20.5008 19.6863 20.4326 19.6453 20.4183 19.5485C20.404 19.4517 20.449 19.3357 20.5189 19.2894C20.5888 19.2431 20.657 19.2841 20.6713 19.3809Z" stroke="black"/>
<path d="M20.1349 19.2414C20.1328 19.2275 20.1635 19.1949 20.2035 19.1684L20.7817 18.7854C20.8216 18.7589 20.8557 18.7487 20.8577 18.7626C20.8598 18.7764 20.829 18.809 20.7891 18.8355L20.2109 19.2185C20.1709 19.245 20.1369 19.2552 20.1349 19.2414Z" fill="#280C00"/>
<path d="M18.7254 20.175C18.7233 20.1612 18.754 20.1285 18.794 20.1021L19.3722 19.719C19.4121 19.6926 19.4462 19.6824 19.4482 19.6962C19.4502 19.71 19.4195 19.7427 19.3796 19.7691L18.8014 20.1522C18.7614 20.1786 18.7274 20.1888 18.7254 20.175Z" fill="#280C00"/>
<path d="M20.1349 19.2414C20.1328 19.2275 20.1635 19.1949 20.2035 19.1684L20.7817 18.7854C20.8216 18.7589 20.8557 18.7487 20.8577 18.7626C20.8598 18.7764 20.829 18.809 20.7891 18.8355L20.2109 19.2185C20.1709 19.245 20.1369 19.2552 20.1349 19.2414Z" stroke="black"/>
<path d="M18.7254 20.175C18.7233 20.1612 18.754 20.1285 18.794 20.1021L19.3722 19.719C19.4121 19.6926 19.4462 19.6824 19.4482 19.6962C19.4502 19.71 19.4195 19.7427 19.3796 19.7691L18.8014 20.1522C18.7614 20.1786 18.7274 20.1888 18.7254 20.175Z" stroke="black"/>
</g>
<path d="M2.80479 19.857C2.50323 18.7716 2.1715 16.4475 3.25714 15.8346C4.34278 15.2216 12.5755 11.6206 16.5562 9.89667M4.88559 18.3246L10.9471 15.8346M10.3138 20.2401L13.8421 18.7077L14.2945 21.0063L10.7661 22.7302M13.8421 22.7302L11.2185 24.071M14.9277 25.2203L13.1183 26.3695M5.69982 31.7328L14.023 27.9019M9.0472 31.7328L11.7613 30.5835" stroke="black" stroke-linecap="round" stroke-linejoin="round"/>
</svg>
