<svg width="141" height="79" viewBox="0 0 141 79" fill="none" xmlns="http://www.w3.org/2000/svg">
<path d="M37.5198 1L30.5198 6C35.0144 12.5098 34.8404 15.845 32.0198 21.5L30.0198 21L28.1107 24.5L34.4019 32.1421L35.5198 33.5C38.8531 35.1667 45.3198 39.1 44.5198 41.5C44.0563 42.8906 49.9494 47.5939 56.7715 52.4388C61.7233 55.9554 67.1646 59.5467 71.0198 62C75.4198 62 83.1865 55.3333 86.5198 52L101.52 51.5C105.12 47.5 102.353 42.5 100.52 40.5L96.5407 37.0183C95.855 36.9543 95.3141 36.7943 95.0198 36.5C97.0925 35.2564 99.489 33.708 101.291 32.5C97.7684 32.8069 83.9725 31.1952 79.9725 23.6952C75.9725 16.1952 45.5198 14.5 50.5198 17C55.5198 19.5 50.0198 25 43.5198 24C39.0198 23.3077 39.6864 8.54286 41.0198 1.3143C39.7846 1.20233 38.6122 1.0971 37.5198 1Z" fill="#9F463C"/>
<path d="M119.02 9C117.42 6.6 114.02 8 112.52 9C111.72 7.4 107.52 8.33333 105.52 9C98.1865 8.33333 83.4198 6.8 83.0198 6C82.649 5.25826 56.7462 2.73989 41.0198 1.3143C39.6864 8.54286 39.0198 23.3077 43.5198 24C50.0198 25 55.5198 19.5 50.5198 17C45.5198 14.5 75.9725 16.1952 79.9725 23.6952C83.9725 31.1952 97.7684 32.8069 101.291 32.5C108.181 27.8798 112.538 24.0855 114.52 22.5C117.02 20.5 125.52 21.5 133.223 13.9016C131.01 12.3345 127.689 10.8593 125.52 9C122.72 6.6 120.02 8 119.02 9Z" fill="#B0B0AF"/>
<path d="M32.0198 21.5C34.8404 15.845 35.0144 12.5098 30.5198 6C29.0198 3.66667 25.6198 -0.4 24.0198 2C23.5133 2.75976 23.9288 4.04063 24.765 5.5C26.5702 8.65061 30.3364 12.6331 31.0198 14C32.0198 16 32.0198 21.5 32.0198 21.5Z" fill="#E4BD5E"/>
<path d="M44.5198 41.5C45.3198 39.1 38.8531 35.1667 35.5198 33.5C33.5198 35.5 28.8198 39 26.0198 37C24.7871 36.1195 24.7367 35.0128 25.2372 33.9361C25.3477 33.6982 25.4852 33.4619 25.6427 33.2297C25.9996 32.7035 26.4597 32.199 26.9436 31.7482L18.2233 27.7965L17.0198 29C16.5118 28.9609 15.9178 28.8742 15.3368 28.7283L14.2818 29.8179L4.51983 39.9013L1.51983 43L3.9169 46.8952L5.51983 49.5C11.3532 45.3333 23.1413 38.7128 25.5198 42.5C27.0149 44.8806 27.145 46.4392 27.0198 50L40.0198 55C43.5198 52.5 50.2198 48.4 49.0198 52L39.5198 59C44.3543 58.1259 54.573 55.5898 56.7715 52.4388C49.9494 47.5939 44.0563 42.8906 44.5198 41.5Z" fill="#75412B"/>
<path d="M131.02 43.5C126.686 39 114.52 32.1 100.52 40.5C102.353 42.5 105.12 47.5 101.52 51.5L86.5198 52C83.1865 55.3333 75.4198 62 71.0198 62C67.1646 59.5467 61.7233 55.9554 56.7715 52.4388C54.573 55.5898 44.3543 58.1259 39.5198 59L49.0198 52C50.2198 48.4 43.5198 52.5 40.0198 55L36.8542 54.7362C34.4094 56.8241 31.0198 61.2 37.0198 62C41.9693 62.6599 44.9591 60.7067 48.7194 59.7332C50.657 59.2315 52.7993 58.9899 55.5198 59.5C57.493 59.87 60.1115 61.0528 63.0198 62C69.5444 64.1251 77.3696 66.7708 81.5198 68.5L83.5198 66C84.1983 67.9038 87.7558 70.49 96.0198 70L99.5198 77.5C103.52 76.8333 111.32 74.1 110.52 68.5C110.52 67.6667 111.52 66.5 115.52 68.5L117.02 65L130.02 52C134.02 52.5 140.42 52.2 134.02 47C137.186 48.3333 142.22 49.6 137.02 44C137.046 42 135.94 38.5 131.309 40.5C130.96 41.4314 130.827 42.4375 131.02 43.5Z" fill="#B0B0AF"/>
<path d="M121.52 24.5C117.186 26.3333 107.62 31.2 104.02 36C102.133 36.5032 98.651 37.2152 96.5407 37.0183L100.52 40.5C114.52 32.1 126.686 39 131.02 43.5C130.827 42.4375 130.96 41.4314 131.309 40.5C132.404 37.5741 135.623 35.385 137.52 34.5L124.02 23.647C123.107 23.9749 122.255 24.2635 121.52 24.5Z" fill="#75412B"/>
<path d="M28.5198 30.5L27.0198 26.5L28.1107 24.5L30.0198 21L32.0198 21.5C32.0198 21.5 32.0198 16 31.0198 14C30.3364 12.6331 26.5702 8.65061 24.765 5.5L22.0198 9C23.8531 10.3333 27.5198 13.4 27.5198 15C27.5198 17 25.5198 25 19.0198 27L18.2233 27.7965L26.9436 31.7482C27.4752 31.253 28.0356 30.8228 28.5198 30.5Z" fill="#AE4F44"/>
<path d="M27.0198 26.5L28.5198 30.5C28.0356 30.8228 27.4752 31.253 26.9436 31.7482C26.4597 32.199 25.9996 32.7035 25.6427 33.2297C27.5231 33.7479 31.9076 34.2558 34.4019 32.1421L28.1107 24.5L27.0198 26.5Z" fill="#5B291C"/>
<path d="M13.1304 27.6154L7.31228 33C3.27 32.271 -0.471872 34.083 4.51983 39.9013L14.2818 29.8179L15.3368 28.7283C14.4559 28.507 13.6051 28.1495 13.1304 27.6154Z" fill="#BBB7B4"/>
<path d="M19.0198 27C18.1865 25.1667 15.9198 22.2 13.5198 25C12.5356 26.1482 12.5828 26.9993 13.1304 27.6154C13.6051 28.1495 14.4559 28.507 15.3368 28.7283C15.9178 28.8742 16.5118 28.9609 17.0198 29L18.2233 27.7965L19.0198 27Z" fill="#ACA8A5"/>
<path d="M5.51983 49.5L3.9169 46.8952C1.71592 47.5968 -1.36544 49.8 3.9169 53L5.51983 49.5Z" fill="#B1AEA5"/>
<path d="M25.5198 42.5C23.1413 38.7128 11.3532 45.3333 5.51983 49.5L3.9169 53C9.45119 53 20.7198 53.4 21.5198 55C22.3198 56.6 26.1864 55 28.0198 54L36.8542 54.7362L40.0198 55L27.0198 50C27.145 46.4392 27.0149 44.8806 25.5198 42.5Z" fill="#CEB280"/>
<path d="M55.5198 59.5C52.7993 58.9899 50.657 59.2315 48.7194 59.7332C47.6529 61.9888 47.0198 66 53.0198 64L63.0198 62C60.1115 61.0528 57.493 59.87 55.5198 59.5Z" fill="#5C362D"/>
<path d="M30.5198 6L37.5198 1C38.6122 1.0971 39.7846 1.20233 41.0198 1.3143M30.5198 6C35.0144 12.5098 34.8404 15.845 32.0198 21.5M30.5198 6C29.0198 3.66667 25.6198 -0.4 24.0198 2C23.5133 2.75976 23.9288 4.04063 24.765 5.5M105.52 9C107.52 8.33333 111.72 7.4 112.52 9C114.02 8 117.42 6.6 119.02 9C120.02 8 122.72 6.6 125.52 9C127.689 10.8593 131.01 12.3345 133.223 13.9016M105.52 9C98.1865 8.33333 83.4198 6.8 83.0198 6C82.649 5.25826 56.7462 2.73989 41.0198 1.3143M105.52 9C99.5198 11.6667 86.7198 18 83.5198 22M95.0198 36.5L82.0198 39M95.0198 36.5C97.0925 35.2564 99.489 33.708 101.291 32.5M95.0198 36.5C95.3141 36.7943 95.855 36.9543 96.5407 37.0183M124.02 23.647C128.897 21.8948 135.52 19.0217 135.52 17C135.52 15.8593 134.58 14.8631 133.223 13.9016M124.02 23.647C123.107 23.9749 122.255 24.2635 121.52 24.5C117.186 26.3333 107.62 31.2 104.02 36C102.133 36.5032 98.651 37.2152 96.5407 37.0183M124.02 23.647L137.52 34.5C135.623 35.385 132.404 37.5741 131.309 40.5M100.52 40.5C114.52 32.1 126.686 39 131.02 43.5C130.827 42.4375 130.96 41.4314 131.309 40.5M100.52 40.5C102.353 42.5 105.12 47.5 101.52 51.5L86.5198 52C83.1865 55.3333 75.4198 62 71.0198 62C67.1646 59.5467 61.7233 55.9554 56.7715 52.4388M100.52 40.5L96.5407 37.0183M96.5198 37L96.5407 37.0183M35.5198 33.5C38.8531 35.1667 45.3198 39.1 44.5198 41.5C44.0563 42.8906 49.9494 47.5939 56.7715 52.4388M35.5198 33.5C33.5198 35.5 28.8198 39 26.0198 37C24.7871 36.1195 24.7367 35.0128 25.2372 33.9361M35.5198 33.5L34.4019 32.1421M32.0198 21.5L30.0198 21L28.1107 24.5M32.0198 21.5C32.0198 21.5 32.0198 16 31.0198 14C30.3364 12.6331 26.5702 8.65061 24.765 5.5M24.765 5.5L22.0198 9C23.8531 10.3333 27.5198 13.4 27.5198 15C27.5198 17 25.5198 25 19.0198 27M19.0198 27C18.1865 25.1667 15.9198 22.2 13.5198 25C12.5356 26.1482 12.5828 26.9993 13.1304 27.6154M19.0198 27L18.2233 27.7965M13.1304 27.6154L7.31228 33C3.27 32.271 -0.471872 34.083 4.51983 39.9013M13.1304 27.6154C13.6051 28.1495 14.4559 28.507 15.3368 28.7283M4.51983 39.9013L14.2818 29.8179M4.51983 39.9013L1.51983 43M1.51983 43L14.2818 29.8179M1.51983 43L3.9169 46.8952M15.3368 28.7283C15.9178 28.8742 16.5118 28.9609 17.0198 29L18.2233 27.7965M15.3368 28.7283L14.2818 29.8179M5.51983 49.5C11.3532 45.3333 23.1413 38.7128 25.5198 42.5C27.0149 44.8806 27.145 46.4392 27.0198 50L40.0198 55M5.51983 49.5L3.9169 46.8952M5.51983 49.5L3.9169 53M14.2818 29.8179C15.0358 30.5453 16.3294 32.3621 14.5198 34.7621L6.75777 42.7621M18.2233 27.7965L26.9436 31.7482M26.9436 31.7482C27.4752 31.253 28.0356 30.8228 28.5198 30.5L27.0198 26.5L28.1107 24.5M26.9436 31.7482C26.4597 32.199 25.9996 32.7035 25.6427 33.2297M20.0198 35C21.305 35.3904 23.9438 35.6383 25.2372 33.9361M25.6427 33.2297C27.5231 33.7479 31.9076 34.2558 34.4019 32.1421M25.6427 33.2297C25.4852 33.4619 25.3477 33.6982 25.2372 33.9361M25.6427 33.2297C25.5304 33.4958 25.3936 33.7302 25.2372 33.9361M28.1107 24.5L34.4019 32.1421M3.9169 46.8952C1.71592 47.5968 -1.36544 49.8 3.9169 53M3.9169 53C9.45119 53 20.7198 53.4 21.5198 55C22.3198 56.6 26.1864 55 28.0198 54L36.8542 54.7362M40.0198 55C43.5198 52.5 50.2198 48.4 49.0198 52L39.5198 59C44.3543 58.1259 54.573 55.5898 56.7715 52.4388M40.0198 55L36.8542 54.7362M36.8542 54.7362C34.4094 56.8241 31.0198 61.2 37.0198 62C41.9693 62.6599 44.9591 60.7067 48.7194 59.7332M48.7194 59.7332C50.657 59.2315 52.7993 58.9899 55.5198 59.5C57.493 59.87 60.1115 61.0528 63.0198 62M48.7194 59.7332C47.6529 61.9888 47.0198 66 53.0198 64L63.0198 62M63.0198 62C69.5444 64.1251 77.3696 66.7708 81.5198 68.5L83.5198 66C84.1983 67.9038 87.7558 70.49 96.0198 70L99.5198 77.5C103.52 76.8333 111.32 74.1 110.52 68.5C110.52 67.6667 111.52 66.5 115.52 68.5L117.02 65L130.02 52C134.02 52.5 140.42 52.2 134.02 47C137.186 48.3333 142.22 49.6 137.02 44C137.046 42 135.94 38.5 131.309 40.5M106.02 58.5C104.853 61.3333 102.82 67.5 104.02 69.5M120.02 50C121.02 52.1667 122.42 56.9 120.02 58.5M122.02 43.5C124.353 45.5355 129.62 49.3853 132.02 48.5M41.0198 31C43.5198 33 48.5198 36 55.5198 34C62.5198 32 75.1816 34.5057 82.0198 39M69.0198 41.5L82.0198 39M72.5198 29C77.6864 31.1667 88.8198 35.4 92.0198 35M133.223 13.9016C125.52 21.5 117.02 20.5 114.52 22.5C112.538 24.0855 108.181 27.8798 101.291 32.5M94.5198 18C96.0198 21.1667 100.52 26.7 106.52 23.5M88.0198 18.5C87.5198 18.3333 86.6198 17.5 87.0198 15.5C87.4198 13.5 80.5198 11 77.0198 10M41.0198 1.3143C39.6864 8.54286 39.0198 23.3077 43.5198 24C50.0198 25 55.5198 19.5 50.5198 17C45.5198 14.5 75.9725 16.1952 79.9725 23.6952C83.9725 31.1952 97.7684 32.8069 101.291 32.5" stroke="black" stroke-width="2" stroke-linecap="round" stroke-linejoin="round"/>
<path d="M55.5421 37C54.2087 36.1667 51.6421 35.4 52.0421 39C52.5421 43.5 58.5421 45 58.0421 41M57.5421 35L59.2921 39M61.0421 43L59.2921 39M59.2921 39L62.0421 38M62.0421 38L60.0421 34M62.0421 38L64.0421 42M71.0421 35C70.3754 35.8333 69.7421 37.9 72.5421 39.5M65.0421 35C65.2452 34.4282 63.0329 38.1244 67.0421 41C71.0643 43.8849 69.0882 33.9917 65.0421 35Z" stroke="#E3B547" stroke-width="2" stroke-linecap="round" stroke-linejoin="round"/>
<path d="M74.0002 53.5135C73.2002 51.5135 63.0002 49.0135 58.0002 48.0135C67.9474 46.3676 73.3273 46.2136 81.5002 51.5135C79.3336 53.0135 74.8002 55.5135 74.0002 53.5135Z" fill="#D07563" stroke="#AE4F45" stroke-width="2" stroke-linecap="round" stroke-linejoin="round"/>
<path d="M99.0002 23.2151C99.0002 20.8151 92.1669 19.471 89.0002 18.8043C93.5002 15.9709 102.3 13.1215 103.5 11.1215C104.7 9.12154 110.834 8.12154 113.5 9.12154C114 8.78821 115 9.10428 117 8.30428C119.5 7.30428 119 9.62153 122.5 8.12153C125.3 6.92153 132 14.9388 136 17.6216L127.5 22.3043C126.233 22.1775 124.644 22.5327 122.881 23.2151C125.58 26.4511 134.58 31.4404 138.5 34.6216C136.334 35.4549 132 38.3215 132 43.1215C127.834 38.4549 119.3 29.4215 118.5 30.6215L117.771 25.7579C113.774 28.0993 109.602 31.2191 106.5 33.8043C100.5 38.8043 95.5002 36.1215 97.5002 36.1215C99.1002 36.1215 107.334 28.3043 112 24.8043C107.5 25.4709 99.0002 25.6151 99.0002 23.2151Z" fill="#E3B547"/>
<path d="M122.881 23.2151C124.644 22.5327 126.233 22.1775 127.5 22.3043L136 17.6216C132 14.9388 125.3 6.92153 122.5 8.12153C119 9.62153 119.5 7.30428 117 8.30428C115 9.10428 114 8.78821 113.5 9.12154C110.834 8.12154 104.7 9.12154 103.5 11.1215C102.3 13.1215 93.5002 15.9709 89.0002 18.8043C92.1669 19.471 99.0002 20.8151 99.0002 23.2151C99.0002 25.6151 107.5 25.4709 112 24.8043C107.334 28.3043 99.1002 36.1215 97.5002 36.1215C95.5002 36.1215 100.5 38.8043 106.5 33.8043C109.602 31.2191 113.774 28.0993 117.771 25.7579M122.881 23.2151C125.58 26.4511 134.58 31.4404 138.5 34.6216C136.334 35.4549 132 38.3215 132 43.1215C127.834 38.4549 119.3 29.4215 118.5 30.6215L117.771 25.7579M122.881 23.2151C121.284 23.8328 119.545 24.7187 117.771 25.7579" stroke="black" stroke-width="2" stroke-linecap="round" stroke-linejoin="round"/>
</svg>
