<svg width="142" height="85" viewBox="0 0 142 85" fill="none" xmlns="http://www.w3.org/2000/svg">
<path d="M35.4896 30.3933C35.4896 30.3933 7.29208 40.8024 6.0661 42.695C4.84012 44.5876 6.0661 50.2653 6.0661 50.2653C6.0661 50.2653 -0.0638067 52.1579 1.16217 54.0504C2.38816 55.943 7.29208 56.8893 8.51806 58.7819C9.74404 60.6744 3.6141 65.4059 4.84012 66.3522C6.06613 67.2985 12.196 62.567 12.196 62.567C13.422 67.6139 18.5711 77.1398 29.3597 74.8688C40.1484 72.5977 42.8455 70.7682 42.8455 70.1373C46.9321 75.4996 58.0477 85.4672 69.8171 82.439C81.5865 79.4109 82.8942 77.3922 82.0769 76.7613L91.8848 82.439L100.467 75.815C106.597 77.0768 119.592 78.2754 122.534 72.9762C125.477 67.677 119.674 66.3522 116.404 66.3522C119.674 65.7213 126.703 63.8918 128.664 61.6207C130.626 59.3497 129.482 53.735 128.664 51.2116C133.159 51.2116 141.905 50.4546 140.924 47.4264C139.698 43.6413 120.082 41.7487 122.534 38.9099C124.496 36.6388 119.265 32.9167 116.404 31.3396L109.048 33.2321C106.597 29.1316 100.712 21.4982 96.7887 23.7693C91.8848 26.6081 82.0769 14.3064 75.947 16.199C71.0431 17.7131 60.0093 19.9841 55.1053 20.9304C52.2447 18.7224 45.7879 14.8742 42.8455 17.1453C39.9032 19.4163 37.1243 26.6081 35.4896 30.3933Z" fill="#8D5F33" stroke="#513317" stroke-width="2" stroke-linecap="round" stroke-linejoin="round"/>
<path fill-rule="evenodd" clip-rule="evenodd" d="M78.6525 73.9012C70.9636 77.0571 51.974 73.5318 44.2344 68.1811L43.0707 71.0412C47.1793 76.4435 58.3547 86.4856 70.1874 83.4349C82.0202 80.3841 83.3349 78.3503 82.5132 77.7147L92.3738 83.4349L101.002 76.7613C107.165 78.0325 120.23 79.2401 123.188 73.9012C126.146 68.5624 120.312 67.2277 117.025 67.2277L101.002 76.7613C100.013 76.5552 103.807 76.4245 102.281 76C96.7534 74.4613 83.4312 71.9399 78.6525 73.9012Z" fill="#896541"/>
<path d="M35.6752 31C35.6752 31 7.32594 41.487 6.09336 43.3937C4.86079 45.3004 6.09336 51.0206 6.09336 51.0206C6.09336 51.0206 -0.0695312 52.9273 1.16305 54.834C2.39562 56.7407 7.32594 57.6941 8.55851 59.6008C9.79109 61.5075 3.62817 66.2744 4.86078 67.2277C6.09339 68.1811 12.2562 63.4143 12.2562 63.4143C13.4888 68.4989 18.6656 78.096 29.5123 75.808C40.359 73.5199 43.0707 71.6767 43.0707 71.0412L44.2344 68.1811C42.8042 57.9247 54.0009 50.0672 52.7683 47.2071C51.5358 44.3471 35.6752 31 35.6752 31Z" fill="#896541"/>
<path d="M43.0707 71.0412C43.0707 71.6767 40.359 73.5199 29.5123 75.808C18.6657 78.096 13.4888 68.4989 12.2562 63.4143C12.2562 63.4143 6.09339 68.1811 4.86078 67.2277C3.62817 66.2744 9.79109 61.5076 8.55851 59.6008C7.32594 57.6941 2.39562 56.7407 1.16305 54.834C-0.0695313 52.9273 6.09336 51.0206 6.09336 51.0206C6.09336 51.0206 4.86079 45.3004 6.09336 43.3937C7.32594 41.487 35.6752 31 35.6752 31C35.6752 31 51.5358 44.3471 52.7683 47.2071C54.0009 50.0672 42.8042 57.9247 44.2344 68.1811M43.0707 71.0412C47.1793 76.4435 58.3547 86.4856 70.1874 83.4349C82.0202 80.3841 83.3349 78.3503 82.5132 77.7147L92.3738 83.4349L101.002 76.7613M43.0707 71.0412L44.2344 68.1811M101.002 76.7613C107.165 78.0325 120.23 79.2401 123.188 73.9012C126.146 68.5624 120.312 67.2277 117.025 67.2277L101.002 76.7613ZM101.002 76.7613C100.013 76.5552 103.807 76.4245 102.281 76C96.7534 74.4613 83.4312 71.9399 78.6525 73.9012C70.9636 77.0571 51.974 73.5318 44.2344 68.1811" stroke="#513317" stroke-width="2" stroke-linecap="round" stroke-linejoin="round"/>
<path d="M35.0001 7C35.0001 10.3137 30.7468 13 25.5001 13C20.2534 13 16.0001 10.3137 16.0001 7C16.0001 3.68629 20.2534 1 25.5001 1C30.7468 1 35.0001 3.68629 35.0001 7Z" fill="#8D5F33" stroke="#513317" stroke-width="2"/>
<path d="M18.0001 14.5C18.0001 16.9853 15.9853 19 13.5001 19C11.0148 19 9.00006 16.9853 9.00006 14.5C9.00006 12.0147 11.0148 10 13.5001 10C15.9853 10 18.0001 12.0147 18.0001 14.5Z" fill="#8D5F33" stroke="#513317" stroke-width="2"/>
<path d="M7.67251 44C8.84496 42.2793 38.5001 31 38.5001 31C41.3282 29.2716 57.7054 41.5999 55.634 46.1631C53.5627 50.7263 44.6397 57.0065 46.0001 66.2621C53.3621 71.0907 70.5508 73.7345 77.8646 70.8866C83.6643 68.6283 96.6494 73.9348 101 74.7952L113 67.5C116.127 67.5 124.042 68.1717 121.228 72.9895C118.414 77.8074 106.862 75.9423 101 74.7952L92.0001 81L83.0446 76.0247C82.9505 76.2324 79.2986 77.7584 70.5001 81C61.2466 84.4092 47.4082 73.8752 43.5001 69C43.5001 69.5736 41.4391 70.5425 31.1215 72.6073C20.804 74.6721 15.1725 64.5885 14.0001 60C14.0001 60 8.17257 66.3603 7.00009 65.5C5.8276 64.6397 12.3623 59.7023 11.1899 57.9816C10.0174 56.261 4.17254 56.2207 3.00009 54.5C1.82764 52.7793 8.84496 50.2386 8.84496 50.2386C8.84496 50.2386 6.50005 45.7207 7.67251 44Z" fill="#885E38"/>
<path d="M43.5001 69C43.5001 69.5736 41.4391 70.5425 31.1215 72.6073C20.804 74.6721 15.1725 64.5885 14.0001 60C14.0001 60 8.17258 66.3603 7.00009 65.5C5.8276 64.6397 12.3623 59.7023 11.1899 57.9816C10.0174 56.261 4.17254 56.2207 3.00009 54.5C1.82764 52.7793 8.84496 50.2386 8.84496 50.2386C8.84496 50.2386 6.50005 45.7207 7.67251 44C8.84496 42.2793 38.5001 31 38.5001 31C41.3282 29.2716 57.7054 41.5999 55.634 46.1631C53.5627 50.7263 44.6397 57.0065 46.0001 66.2621M43.5001 69C47.4082 73.8752 61.2466 84.4092 70.5001 81C80.0001 77.5 83.5001 76 83.0001 76L92.0001 81L101 74.7952M43.5001 69L46.0001 66.2621M101 74.7952C106.862 75.9423 118.414 77.8074 121.228 72.9895C124.042 68.1717 116.127 67.5 113 67.5L101 74.7952ZM101 74.7952C96.6494 73.9348 83.6643 68.6283 77.8646 70.8866C70.5508 73.7345 53.3621 71.0907 46.0001 66.2621" stroke="#885E38" stroke-width="2" stroke-linecap="round" stroke-linejoin="round"/>
</svg>
