<svg width="181" height="185" viewBox="0 0 181 185" fill="none" xmlns="http://www.w3.org/2000/svg">
<mask id="mask0_96_135" style="mask-type:alpha" maskUnits="userSpaceOnUse" x="0" y="0" width="181" height="185">
<rect width="181" height="185" fill="#D9D9D9"/>
</mask>
<g mask="url(#mask0_96_135)">
<path fill-rule="evenodd" clip-rule="evenodd" d="M67.5718 150.243C65.9028 173.345 66.2471 196.686 68.5 207.5C71 219.5 74 221.5 78.5 221.5C85.1572 221.5 85.8649 215.03 86.5382 208.875C86.675 207.624 86.8104 206.386 86.994 205.218C87.5 202 90.7471 199.045 96 200C100.39 200.798 100.71 204.957 101.047 209.35C101.209 211.461 101.376 213.627 102 215.5L102.026 215.578C103.017 218.552 103.999 221.5 110 221.5C116.5 221.5 118.864 213.463 119.5 208C122.075 185.888 122.288 170.951 119.55 150.07C112.548 151.698 104.616 152.5 95.9038 152.5C85.4224 152.5 75.8468 151.941 67.5718 150.243Z" fill="white"/>
<path fill-rule="evenodd" clip-rule="evenodd" d="M151 100.5C151 78 120.297 46.9409 89 39C86.4048 42.244 82.4069 45.9597 75.8364 50.4001C58.9413 61.818 29.5 83 37 101C31 103.5 29 112.724 29 118.5C29 127.746 36.359 136.506 45.473 139.696C50.9054 145.114 58.4481 148.371 67.5718 150.243C75.8468 151.941 85.4224 152.5 95.9038 152.5C104.616 152.5 112.548 151.698 119.55 150.07C128.282 148.041 135.567 144.728 141.115 140.087C151.271 137.492 158.5 130.054 158.5 119C158.5 113.933 157 104.5 151 100.5Z" fill="#F8C6C7"/>
<path d="M67.5718 150.243C65.9028 173.345 66.2471 196.686 68.5 207.5C71 219.5 74 221.5 78.5 221.5C85.1572 221.5 85.8649 215.03 86.5382 208.875C86.675 207.624 86.8104 206.386 86.994 205.218C87.5 202 90.7471 199.045 96 200C100.39 200.798 100.71 204.957 101.047 209.35C101.209 211.461 101.376 213.627 102 215.5L102.026 215.578C103.017 218.552 103.999 221.5 110 221.5C116.5 221.5 118.864 213.463 119.5 208C122.075 185.888 122.288 170.951 119.55 150.07M67.5718 150.243C75.8468 151.941 85.4224 152.5 95.9038 152.5C104.616 152.5 112.548 151.698 119.55 150.07M67.5718 150.243C58.4481 148.371 50.9054 145.114 45.473 139.696C36.359 136.506 29 127.746 29 118.5C29 112.724 31 103.5 37 101M119.55 150.07C128.282 148.041 135.567 144.728 141.115 140.087C151.271 137.492 158.5 130.054 158.5 119C158.5 113.933 157 104.5 151 100.5M151 100.5C151 78 120.297 46.9409 89 39C86.4048 42.244 82.4069 45.9597 75.8364 50.4001C58.9413 61.818 29.5 83 37 101M151 100.5L147 99.5M37 101L40.5 100.5" stroke="black" stroke-width="3" stroke-linecap="round" stroke-linejoin="round"/>
<path d="M80.1478 118.071C80.8805 115.289 80.5449 112.718 79.7441 110.571C81.5117 111.598 84.9727 112.753 89.7467 113.001C92.3065 113.134 95.2438 113.007 98.5 112.46C101.981 111.875 105.826 110.81 109.965 109.071C109.114 111.247 108.622 113.822 108.98 116.571C108.223 117.326 107.435 117.99 106.623 118.571C105.458 119.404 104.244 120.065 103 120.578C101.529 121.185 100.018 121.586 98.5 121.82C95.5195 122.278 92.515 122.092 89.7467 121.56C85.828 120.808 82.3824 119.362 80.1478 118.071Z" fill="#E28C86"/>
<path d="M76.5 105.571C77.6402 106.651 78.9316 108.392 79.7441 110.571M76 125.071C78.2808 122.676 79.5591 120.306 80.1478 118.071M113 104.071C111.951 105.225 110.789 106.96 109.965 109.071M114 126.071C110.825 122.896 109.377 119.626 108.98 116.571M79.7441 110.571C80.5449 112.718 80.8805 115.289 80.1478 118.071M79.7441 110.571C81.5117 111.598 84.9727 112.753 89.7467 113.001C92.3065 113.134 95.2438 113.007 98.5 112.46C101.981 111.875 105.826 110.81 109.965 109.071M109.965 109.071C109.114 111.247 108.622 113.822 108.98 116.571M80.1478 118.071C82.3824 119.362 85.828 120.808 89.7467 121.56C92.515 122.092 95.5195 122.278 98.5 121.82C100.018 121.586 101.529 121.185 103 120.578C104.244 120.065 105.458 119.404 106.623 118.571C107.435 117.99 108.223 117.326 108.98 116.571" stroke="black" stroke-width="2" stroke-linecap="round"/>
<path d="M138 107.071C138 110.385 133.075 113.071 127 113.071C120.925 113.071 116 110.385 116 107.071C116 103.757 120.925 101.071 127 101.071C133.075 101.071 138 103.757 138 107.071Z" fill="#E28C86"/>
<path d="M73 107.071C73 110.385 68.0751 113.071 62 113.071C55.9249 113.071 51 110.385 51 107.071C51 103.757 55.9249 101.071 62 101.071C68.0751 101.071 73 103.757 73 107.071Z" fill="#E28C86"/>
<path d="M138 107.071C138 110.385 133.075 113.071 127 113.071C120.925 113.071 116 110.385 116 107.071C116 103.757 120.925 101.071 127 101.071C133.075 101.071 138 103.757 138 107.071Z" stroke="#E28C86" stroke-width="2"/>
<path d="M73 107.071C73 110.385 68.0751 113.071 62 113.071C55.9249 113.071 51 110.385 51 107.071C51 103.757 55.9249 101.071 62 101.071C68.0751 101.071 73 103.757 73 107.071Z" stroke="#E28C86" stroke-width="2"/>
<path d="M69.5 82.105C83.9 81.305 86.5 94.7717 86 101.605C76.308 96.9385 61.5962 97.0235 53.5 97.8128C52.3 82.7789 64 82.4106 69.5 82.105Z" fill="#FEFDFE"/>
<path d="M118.557 82.1392C104.157 81.3392 101.557 94.8058 102.057 101.639C111.749 96.9727 126.46 97.0576 134.557 97.8469C135.757 82.8131 124.057 82.4447 118.557 82.1392Z" fill="#FEFDFE"/>
<path d="M51 98.105C51.7353 98.0024 52.5744 97.903 53.5 97.8128M53.5 97.8128C61.5962 97.0235 76.308 96.9385 86 101.605C86.5 94.7717 83.9 81.305 69.5 82.105C64 82.4106 52.3 82.7789 53.5 97.8128ZM137.057 98.1391C136.321 98.0366 135.482 97.9371 134.557 97.8469M134.557 97.8469C126.46 97.0576 111.749 96.9727 102.057 101.639C101.557 94.8058 104.157 81.3392 118.557 82.1392C124.057 82.4447 135.757 82.8131 134.557 97.8469Z" stroke="black" stroke-width="2" stroke-linecap="round"/>
<circle cx="103" cy="128.071" r="1.5" fill="#B08D63" stroke="black"/>
<path d="M75.4473 90.6725C75.196 92.1225 74.0533 93.2651 72.6035 93.5172C72.7908 92.5781 73.0523 91.9811 73.4551 91.568C73.8593 91.1535 74.4607 90.8685 75.4473 90.6725ZM118.447 90.6725C118.196 92.1225 117.053 93.2651 115.604 93.5172C115.791 92.5781 116.052 91.9811 116.455 91.568C116.859 91.1535 117.461 90.8685 118.447 90.6725ZM68.5479 90.651C69.4846 90.8095 70.0544 91.0847 70.4502 91.5006C70.8541 91.9251 71.129 92.5484 71.3633 93.5114C69.9221 93.2463 68.7896 92.1002 68.5479 90.651ZM111.548 90.651C112.485 90.8095 113.054 91.0847 113.45 91.5006C113.854 91.9251 114.129 92.5484 114.363 93.5114C112.922 93.2463 111.79 92.1002 111.548 90.651ZM72.6348 86.6285C74.0277 86.8837 75.131 87.9636 75.4229 89.3434C74.5544 89.0101 73.9379 88.6231 73.499 88.1705C73.0881 87.7467 72.8109 87.2444 72.6348 86.6285ZM115.635 86.6285C117.028 86.8837 118.131 87.9636 118.423 89.3434C117.554 89.0101 116.938 88.6231 116.499 88.1705C116.088 87.7467 115.811 87.2444 115.635 86.6285ZM71.2588 86.65C71.0247 87.2523 70.788 87.7083 70.4336 88.1022C70.0475 88.5311 69.4942 88.9128 68.585 89.3024C68.8819 87.9774 69.9299 86.9366 71.2588 86.65ZM114.259 86.65C114.025 87.2523 113.788 87.7083 113.434 88.1022C113.047 88.5311 112.494 88.9128 111.585 89.3024C111.882 87.9774 112.93 86.9366 114.259 86.65Z" fill="black" stroke="black"/>
<path d="M65.5 78.0709C68.8333 75.9043 76.5 73.0709 80.5 79.0709M122 77.6705C118.667 75.5038 111 72.6705 107 78.6705" stroke="black" stroke-width="3" stroke-linecap="round"/>
<path d="M46.4923 90C46.6163 91.8857 47.1344 92.4613 49.0015 92.4701C47.2041 92.7133 46.646 93.2615 46.5092 95.0019C46.4083 93.2561 45.7912 92.776 44 92.5318C45.7896 92.4441 46.2936 91.842 46.4923 90Z" fill="white" stroke="white" stroke-linejoin="round"/>
<path d="M141.492 129C141.616 130.886 142.134 131.461 144.001 131.47C142.204 131.713 141.646 132.262 141.509 134.002C141.408 132.256 140.791 131.776 139 131.532C140.79 131.444 141.294 130.842 141.492 129Z" fill="#FFFDFD" stroke="white" stroke-linejoin="round"/>
<path d="M141.572 93C142.007 94.4866 142.529 94.9028 144.045 94.7639C142.63 95.0973 142.275 95.5759 142.473 96.9675C142.081 95.5902 141.496 95.2575 140 95.2037C141.436 94.9942 141.738 94.4771 141.572 93Z" fill="white" stroke="#F7F2F2" stroke-linejoin="round"/>
<path d="M51.0527 77.071C51.7904 74.8579 54.0527 76.2377 54.5527 77.071C54.9882 75.933 56.5279 74.0461 58.0526 75.5709C59.0526 76.5709 57.2193 80.4043 56.0527 82.071C53.7193 81.2377 50.5527 78.5709 51.0527 77.071Z" fill="#E28C86" stroke="#E28C86" stroke-linecap="round" stroke-linejoin="round"/>
<path d="M141.288 78.071C140.55 75.8579 138.288 77.2377 137.788 78.071C137.353 76.933 135.813 75.0461 134.288 76.5709C133.288 77.5709 135.121 81.4043 136.288 83.071C138.621 82.2377 141.788 79.5709 141.288 78.071Z" fill="#E28C86" stroke="#E28C86" stroke-linecap="round" stroke-linejoin="round"/>
<path fill-rule="evenodd" clip-rule="evenodd" d="M46.8339 161.211L48.1979 156.711L46.8339 152.711C43.7366 157.141 40.7334 165.947 42.8699 172C45.8699 180.5 52.3699 182.728 57.1625 183C63.3699 183.352 77.9485 183.072 78.3699 175C78.8255 166.274 64.045 165.49 57.4968 166.711L54.9968 164.211L51.0964 165.211L46.9968 169.711L46.8339 161.211Z" fill="#FCFEFE"/>
<path d="M66.9968 157.711L57.4968 166.711C64.045 165.49 78.8255 166.274 78.3699 175C77.9485 183.072 63.3699 183.352 57.1625 183L62.5 196.5L95 183L84.3003 157.365L79.9968 157.365L76.4968 160.711L69.283 156.711L66.9968 157.711Z" fill="#C02927"/>
<path d="M71.5691 155.711L81.8568 151.211L77.5983 140.485L67.0421 144.68L71.5691 155.711Z" fill="#6C3E23"/>
<path d="M76.4968 137.711C68.8968 139.099 66.6635 133.959 65.9968 130.711L61.9968 132.386L67.0421 144.68L77.5983 140.485L76.4968 137.711Z" fill="#6C3E23"/>
<path d="M61.9968 132.386L51.6745 136.711L56.8146 148.744L67.0421 144.68L61.9968 132.386Z" fill="#6C3E23"/>
<path d="M60.4968 157.365L66.9968 157.711L69.283 156.711L71.5691 155.711L67.0421 144.68L56.8146 148.744L60.4968 157.365Z" fill="#6C3E23"/>
<path d="M42.665 140.485L46.8339 152.711L56.8146 148.744L51.6745 136.711L42.665 140.485Z" fill="#6C3E23"/>
<path d="M48.1979 156.711L60.4968 157.365L56.8146 148.744L46.8339 152.711L48.1979 156.711Z" fill="#6C3E23"/>
<path d="M79.9968 157.365L84.3003 157.365L86.9968 157.365L86.4968 155.211L81.8568 151.211L71.5691 155.711L69.283 156.711L76.4968 160.711L79.9968 157.365Z" fill="#BCB8B8"/>
<path d="M48.1979 156.711L46.8339 161.211L46.9968 169.711L51.0964 165.211L54.9968 164.211L57.4968 166.711L66.9968 157.711L60.4968 157.365L48.1979 156.711Z" fill="#BCB8B8"/>
<path d="M48.1979 156.711L46.8339 161.211L46.9968 169.711L51.0964 165.211L54.9968 164.211L57.4968 166.711M48.1979 156.711L60.4968 157.365M48.1979 156.711L46.8339 152.711M57.4968 166.711L66.9968 157.711M57.4968 166.711C64.045 165.49 78.8255 166.274 78.3699 175C77.9485 183.072 63.3699 183.352 57.1625 183M66.9968 157.711L60.4968 157.365M66.9968 157.711L69.283 156.711M60.4968 157.365L56.8146 148.744M84.3003 157.365L79.9968 157.365L76.4968 160.711L69.283 156.711M84.3003 157.365L86.9968 157.365L86.4968 155.211L81.8568 151.211M84.3003 157.365L95 183L62.5 196.5L57.1625 183M81.8568 151.211L71.5691 155.711M81.8568 151.211L77.5983 140.485M71.5691 155.711L69.283 156.711M71.5691 155.711L67.0421 144.68M46.8339 152.711C43.7366 157.141 40.7334 165.947 42.8699 172C45.8699 180.5 52.3699 182.728 57.1625 183M46.8339 152.711L42.665 140.485L51.6745 136.711M46.8339 152.711L56.8146 148.744M77.5983 140.485L76.4968 137.711C68.8968 139.099 66.6635 133.959 65.9968 130.711L61.9968 132.386M77.5983 140.485L67.0421 144.68M51.6745 136.711L61.9968 132.386M51.6745 136.711L56.8146 148.744M61.9968 132.386L67.0421 144.68M67.0421 144.68L56.8146 148.744" stroke="black" stroke-width="3" stroke-linejoin="round"/>
<path d="M112.692 141.846L137.885 150.003C139.277 146.543 139.905 137.686 131.079 134.003C122.692 130.503 115.615 136.901 112.692 141.846Z" fill="#B48A59"/>
<path d="M87.0199 163.976L91.5984 175.508C94.7516 173.671 97.315 172.315 97.6917 172.503C98.4917 172.903 103.692 175.883 106.192 177.323C105.555 175.799 105.442 174.153 106.192 172.503C108.692 167.003 115.858 167.003 119.692 168.003C119.192 164.503 113.692 160.003 109.192 158.003C105.592 156.403 100.025 160.336 97.6917 162.503L87.0199 163.976Z" fill="#FFE46C"/>
<path fill-rule="evenodd" clip-rule="evenodd" d="M138.902 155.503L137.001 160.363C133.688 166.245 126.848 171.958 119.692 168.003C119.192 164.503 113.692 160.003 109.192 158.003C105.592 156.403 100.025 160.336 97.6917 162.503L87.0199 163.976L94.6917 140.996L138.902 155.503ZM91.5984 175.508L95.3096 184.855L90.9461 186.483C101.266 190.769 109.956 193.008 123.452 195.003L127.497 184.662C122.913 185.395 118.109 185.034 115.192 184.503C112.359 183.988 107.736 181.019 106.192 177.323C103.692 175.883 98.4917 172.903 97.6917 172.503C97.315 172.315 94.7516 173.671 91.5984 175.508Z" fill="#EA7920"/>
<path d="M112.692 141.846L96.1917 136.503L94.6917 140.996L138.902 155.503L140.697 150.914L137.885 150.003L112.692 141.846Z" fill="#E2D4A9"/>
<path d="M90.9461 186.483L84 189.075C96.7239 195.209 105.732 197.821 121.692 199.503L123.452 195.003C109.956 193.008 101.266 190.769 90.9461 186.483Z" fill="#C5C297"/>
<path d="M112.692 141.846L96.1917 136.503M112.692 141.846L137.885 150.003M112.692 141.846C115.615 136.901 122.692 130.503 131.079 134.003C139.905 137.686 139.277 146.543 137.885 150.003M96.1917 136.503L87.0199 163.976M96.1917 136.503L94.6917 140.996M87.0199 163.976L91.5984 175.508M87.0199 163.976L94.6917 140.996M87.0199 163.976L97.6917 162.503C100.025 160.336 105.592 156.403 109.192 158.003C113.692 160.003 119.192 164.503 119.692 168.003M91.5984 175.508L95.3096 184.855L90.9461 186.483M91.5984 175.508C94.7516 173.671 97.315 172.315 97.6917 172.503C98.4917 172.903 103.692 175.883 106.192 177.323M90.9461 186.483L84 189.075C96.7239 195.209 105.732 197.821 121.692 199.503M90.9461 186.483C101.266 190.769 109.956 193.008 123.452 195.003M121.692 199.503L127.497 184.662M121.692 199.503L123.452 195.003M127.497 184.662C122.913 185.395 118.109 185.034 115.192 184.503C112.359 183.988 107.736 181.019 106.192 177.323M127.497 184.662L123.452 195.003M106.192 177.323C105.555 175.799 105.442 174.153 106.192 172.503C108.692 167.003 115.858 167.003 119.692 168.003M119.692 168.003C126.848 171.958 133.688 166.245 137.001 160.363M137.001 160.363L138.902 155.503M137.001 160.363C137.947 158.683 138.606 156.989 138.902 155.503M138.902 155.503L140.697 150.914L137.885 150.003M138.902 155.503L94.6917 140.996" stroke="black" stroke-width="3" stroke-linejoin="round"/>
<path d="M133.692 143.503C133.692 144.055 133.244 144.503 132.692 144.503C132.139 144.503 131.692 144.055 131.692 143.503C131.692 142.951 132.139 142.503 132.692 142.503C133.244 142.503 133.692 142.951 133.692 143.503Z" fill="#865D30" stroke="black"/>
<path d="M127.692 139.503C128.244 139.503 128.692 139.055 128.692 138.503C128.692 137.951 128.244 137.503 127.692 137.503C127.139 137.503 126.692 137.951 126.692 138.503C126.692 139.055 127.139 139.503 127.692 139.503Z" fill="#865D30" stroke="black"/>
<path d="M122.692 139.503C122.692 140.055 122.244 140.503 121.692 140.503C121.139 140.503 120.692 140.055 120.692 139.503C120.692 138.951 121.139 138.503 121.692 138.503C122.244 138.503 122.692 138.951 122.692 139.503Z" fill="#865D30" stroke="black"/>
<path fill-rule="evenodd" clip-rule="evenodd" d="M138.902 155.503C138.606 156.989 137.947 158.683 137.001 160.363C133.688 166.245 126.848 171.958 119.692 168.003C115.858 167.003 108.692 167.003 106.192 172.503C105.442 174.153 105.555 175.799 106.192 177.323C107.736 181.019 112.359 183.988 115.192 184.503C118.109 185.034 122.913 185.395 127.497 184.662C131.553 184.014 135.438 182.508 137.692 179.503C142.492 173.103 140.499 160.836 138.902 155.503Z" fill="#FEFEFC" stroke="black" stroke-width="3" stroke-linejoin="round"/>
</g>
</svg>
