<svg width="181" height="185" viewBox="0 0 181 185" fill="none" xmlns="http://www.w3.org/2000/svg">
<mask id="mask0_96_118" style="mask-type:alpha" maskUnits="userSpaceOnUse" x="0" y="0" width="181" height="185">
<rect width="181" height="185" fill="#D9D9D9"/>
</mask>
<g mask="url(#mask0_96_118)">
<path fill-rule="evenodd" clip-rule="evenodd" d="M64.5718 151.243C62.9028 174.345 63.2471 197.686 65.5 208.5C68 220.5 71 222.5 75.5 222.5C82.1572 222.5 82.8649 216.03 83.5382 209.875C83.675 208.624 83.8104 207.386 83.994 206.218C84.5 203 87.7471 200.045 93 201C97.3902 201.798 97.7096 205.957 98.0471 210.35C98.2093 212.461 98.3756 214.627 99 216.5L99.0259 216.578C100.017 219.552 100.999 222.5 107 222.5C113.5 222.5 115.864 214.463 116.5 209C119.075 186.888 119.288 171.951 116.55 151.07C109.548 152.698 101.616 153.5 92.9038 153.5C82.4224 153.5 72.8468 152.941 64.5718 151.243Z" fill="white"/>
<path fill-rule="evenodd" clip-rule="evenodd" d="M148 101.5C148 79 117.297 47.9409 86 40C83.4048 43.244 79.4069 46.9597 72.8364 51.4001C55.9413 62.818 26.5 84 34 102C28 104.5 26 113.724 26 119.5C26 128.746 33.359 137.506 42.473 140.696C47.9054 146.114 55.4481 149.371 64.5718 151.243C72.8468 152.941 82.4224 153.5 92.9038 153.5C101.616 153.5 109.548 152.698 116.55 151.07C125.282 149.041 132.567 145.728 138.115 141.087C148.271 138.492 155.5 131.054 155.5 120C155.5 114.933 154 105.5 148 101.5Z" fill="#F8C6C7"/>
<path d="M64.5718 151.243C62.9028 174.345 63.2471 197.686 65.5 208.5C68 220.5 71 222.5 75.5 222.5C82.1572 222.5 82.8649 216.03 83.5382 209.875C83.675 208.624 83.8104 207.386 83.994 206.218C84.5 203 87.7471 200.045 93 201C97.3902 201.798 97.7096 205.957 98.0471 210.35C98.2093 212.461 98.3756 214.627 99 216.5L99.0259 216.578C100.017 219.552 100.999 222.5 107 222.5C113.5 222.5 115.864 214.463 116.5 209C119.075 186.888 119.288 171.951 116.55 151.07M64.5718 151.243C72.8468 152.941 82.4224 153.5 92.9038 153.5C101.616 153.5 109.548 152.698 116.55 151.07M64.5718 151.243C55.4481 149.371 47.9054 146.114 42.473 140.696C33.359 137.506 26 128.746 26 119.5C26 113.724 28 104.5 34 102M116.55 151.07C125.282 149.041 132.567 145.728 138.115 141.087C148.271 138.492 155.5 131.054 155.5 120C155.5 114.933 154 105.5 148 101.5M148 101.5C148 79 117.297 47.9409 86 40C83.4048 43.244 79.4069 46.9597 72.8364 51.4001C55.9413 62.818 26.5 84 34 102M148 101.5L144 100.5M34 102L37.5 101.5" stroke="black" stroke-width="3" stroke-linecap="round" stroke-linejoin="round"/>
<path d="M75.1478 119C75.8805 116.218 75.5449 113.647 74.7441 111.5C76.5117 112.527 79.9727 113.682 84.7467 113.93C87.3065 114.063 90.2438 113.936 93.5 113.389C96.981 112.804 100.826 111.739 104.965 110C104.114 112.176 103.622 114.751 103.98 117.5C103.223 118.255 102.435 118.919 101.623 119.5C100.458 120.333 99.2435 120.994 98 121.507C96.5291 122.115 95.0177 122.515 93.5 122.749C90.5195 123.207 87.515 123.021 84.7467 122.49C80.828 121.737 77.3824 120.291 75.1478 119Z" fill="#FEFDFE"/>
<path d="M71.5 106.5C72.6402 107.58 73.9316 109.322 74.7441 111.5M71 126C73.2808 123.605 74.5591 121.235 75.1478 119M108 105C106.951 106.154 105.789 107.889 104.965 110M109 127C105.825 123.825 104.377 120.556 103.98 117.5M74.7441 111.5C75.5449 113.647 75.8805 116.218 75.1478 119M74.7441 111.5C76.5117 112.527 79.9727 113.682 84.7467 113.93M104.965 110C104.114 112.176 103.622 114.751 103.98 117.5M104.965 110C100.826 111.739 96.981 112.804 93.5 113.389M75.1478 119C77.3824 120.291 80.828 121.737 84.7467 122.49M103.98 117.5C103.223 118.255 102.435 118.919 101.623 119.5C100.458 120.333 99.2435 120.994 98 121.507M84.7467 113.93V122.49M84.7467 113.93C87.3065 114.063 90.2438 113.936 93.5 113.389M84.7467 122.49C87.515 123.021 90.5195 123.207 93.5 122.749M93.5 113.389V122.749M93.5 122.749C95.0177 122.515 96.5291 122.115 98 121.507M98 116.5V119.5V121.507" stroke="black" stroke-width="2" stroke-linecap="round"/>
<path d="M133 108C133 111.314 128.075 114 122 114C115.925 114 111 111.314 111 108C111 104.686 115.925 102 122 102C128.075 102 133 104.686 133 108Z" fill="#E28C86"/>
<path d="M68 108C68 111.314 63.0751 114 57 114C50.9249 114 46 111.314 46 108C46 104.686 50.9249 102 57 102C63.0751 102 68 104.686 68 108Z" fill="#E28C86"/>
<path d="M133 108C133 111.314 128.075 114 122 114C115.925 114 111 111.314 111 108C111 104.686 115.925 102 122 102C128.075 102 133 104.686 133 108Z" stroke="#E28C86" stroke-width="2"/>
<path d="M68 108C68 111.314 63.0751 114 57 114C50.9249 114 46 111.314 46 108C46 104.686 50.9249 102 57 102C63.0751 102 68 104.686 68 108Z" stroke="#E28C86" stroke-width="2"/>
<path d="M64.5 83.0341C78.9 82.2341 81.5 95.7008 81 102.534C71.308 97.8676 56.5962 97.9526 48.5 98.7418C47.3 83.708 59 83.3397 64.5 83.0341Z" fill="#FEFDFE"/>
<path d="M113.557 83.0682C99.1565 82.2682 96.5565 95.7349 97.0565 102.568C106.749 97.9017 121.46 97.9867 129.557 98.776C130.757 83.7421 119.057 83.3738 113.557 83.0682Z" fill="#FEFDFE"/>
<path d="M46 99.0341C46.7353 98.9315 47.5744 98.8321 48.5 98.7418M48.5 98.7418C56.5962 97.9526 71.308 97.8676 81 102.534C81.5 95.7008 78.9 82.2341 64.5 83.0341C59 83.3397 47.3 83.708 48.5 98.7418ZM132.057 99.0682C131.321 98.9656 130.482 98.8662 129.557 98.776M129.557 98.776C121.46 97.9867 106.749 97.9017 97.0565 102.568C96.5565 95.7349 99.1565 82.2682 113.557 83.0682C119.057 83.3738 130.757 83.7421 129.557 98.776Z" stroke="black" stroke-width="2" stroke-linecap="round"/>
<path d="M114 92.5C114 93.3284 113.328 94 112.5 94C111.672 94 111 93.3284 111 92.5C111 91.6716 111.672 91 112.5 91C113.328 91 114 91.6716 114 92.5Z" fill="#010200"/>
<path d="M67 92.5C67 93.3284 66.3284 94 65.5 94C64.6716 94 64 93.3284 64 92.5C64 91.6716 64.6716 91 65.5 91C66.3284 91 67 91.6716 67 92.5Z" fill="#010200"/>
<path d="M114 92.5C114 93.3284 113.328 94 112.5 94C111.672 94 111 93.3284 111 92.5C111 91.6716 111.672 91 112.5 91C113.328 91 114 91.6716 114 92.5Z" stroke="black" stroke-width="2"/>
<path d="M67 92.5C67 93.3284 66.3284 94 65.5 94C64.6716 94 64 93.3284 64 92.5C64 91.6716 64.6716 91 65.5 91C66.3284 91 67 91.6716 67 92.5Z" stroke="black" stroke-width="2"/>
<circle cx="98" cy="129" r="1.5" fill="#B08D63" stroke="black"/>
<path fill-rule="evenodd" clip-rule="evenodd" d="M43.8339 162.211L45.1979 157.711L43.8339 153.711C40.7366 158.141 37.7334 166.947 39.8699 173C42.8699 181.5 49.3699 183.728 54.1625 184C60.3699 184.352 74.9485 184.072 75.3699 176C75.8255 167.274 61.045 166.49 54.4968 167.711L51.9968 165.211L48.0964 166.211L43.9968 170.711L43.8339 162.211Z" fill="#FCFEFE"/>
<path d="M63.9968 158.711L54.4968 167.711C61.045 166.49 75.8255 167.274 75.3699 176C74.9485 184.072 60.3699 184.352 54.1625 184L59.5 197.5L92 184L81.3003 158.365L76.9968 158.365L73.4968 161.711L66.283 157.711L63.9968 158.711Z" fill="#C02927"/>
<path d="M68.5691 156.711L78.8568 152.211L74.5983 141.485L64.0421 145.68L68.5691 156.711Z" fill="#6C3E23"/>
<path d="M73.4968 138.711C65.8968 140.099 63.6635 134.959 62.9968 131.711L58.9968 133.386L64.0421 145.68L74.5983 141.485L73.4968 138.711Z" fill="#6C3E23"/>
<path d="M58.9968 133.386L48.6745 137.711L53.8146 149.744L64.0421 145.68L58.9968 133.386Z" fill="#6C3E23"/>
<path d="M57.4968 158.365L63.9968 158.711L66.283 157.711L68.5691 156.711L64.0421 145.68L53.8146 149.744L57.4968 158.365Z" fill="#6C3E23"/>
<path d="M39.665 141.485L43.8339 153.711L53.8146 149.744L48.6745 137.711L39.665 141.485Z" fill="#6C3E23"/>
<path d="M45.1979 157.711L57.4968 158.365L53.8146 149.744L43.8339 153.711L45.1979 157.711Z" fill="#6C3E23"/>
<path d="M76.9968 158.365L81.3003 158.365L83.9968 158.365L83.4968 156.211L78.8568 152.211L68.5691 156.711L66.283 157.711L73.4968 161.711L76.9968 158.365Z" fill="#BCB8B8"/>
<path d="M45.1979 157.711L43.8339 162.211L43.9968 170.711L48.0964 166.211L51.9968 165.211L54.4968 167.711L63.9968 158.711L57.4968 158.365L45.1979 157.711Z" fill="#BCB8B8"/>
<path d="M45.1979 157.711L43.8339 162.211L43.9968 170.711L48.0964 166.211L51.9968 165.211L54.4968 167.711M45.1979 157.711L57.4968 158.365M45.1979 157.711L43.8339 153.711M54.4968 167.711L63.9968 158.711M54.4968 167.711C61.045 166.49 75.8255 167.274 75.3699 176C74.9485 184.072 60.3699 184.352 54.1625 184M63.9968 158.711L57.4968 158.365M63.9968 158.711L66.283 157.711M57.4968 158.365L53.8146 149.744M81.3003 158.365L76.9968 158.365L73.4968 161.711L66.283 157.711M81.3003 158.365L83.9968 158.365L83.4968 156.211L78.8568 152.211M81.3003 158.365L92 184L59.5 197.5L54.1625 184M78.8568 152.211L68.5691 156.711M78.8568 152.211L74.5983 141.485M68.5691 156.711L66.283 157.711M68.5691 156.711L64.0421 145.68M43.8339 153.711C40.7366 158.141 37.7334 166.947 39.8699 173C42.8699 181.5 49.3699 183.728 54.1625 184M43.8339 153.711L39.665 141.485L48.6745 137.711M43.8339 153.711L53.8146 149.744M74.5983 141.485L73.4968 138.711C65.8968 140.099 63.6635 134.959 62.9968 131.711L58.9968 133.386M74.5983 141.485L64.0421 145.68M48.6745 137.711L58.9968 133.386M48.6745 137.711L53.8146 149.744M58.9968 133.386L64.0421 145.68M64.0421 145.68L53.8146 149.744" stroke="black" stroke-width="3" stroke-linejoin="round"/>
<path d="M109.692 142.846L134.885 151.003C136.277 147.543 136.905 138.686 128.079 135.003C119.692 131.503 112.615 137.901 109.692 142.846Z" fill="#B48A59"/>
<path d="M84.0199 164.976L88.5984 176.508C91.7516 174.671 94.315 173.315 94.6917 173.503C95.4917 173.903 100.692 176.883 103.192 178.323C102.555 176.799 102.442 175.153 103.192 173.503C105.692 168.003 112.858 168.003 116.692 169.003C116.192 165.503 110.692 161.003 106.192 159.003C102.592 157.403 97.025 161.336 94.6917 163.503L84.0199 164.976Z" fill="#FFE46C"/>
<path fill-rule="evenodd" clip-rule="evenodd" d="M135.902 156.503L134.001 161.363C130.688 167.245 123.848 172.958 116.692 169.003C116.192 165.503 110.692 161.003 106.192 159.003C102.592 157.403 97.025 161.336 94.6917 163.503L84.0199 164.976L91.6917 141.996L135.902 156.503ZM88.5984 176.508L92.3096 185.855L87.9461 187.483C98.2657 191.769 106.956 194.008 120.452 196.003L124.497 185.662C119.913 186.395 115.109 186.034 112.192 185.503C109.359 184.988 104.736 182.019 103.192 178.323C100.692 176.883 95.4917 173.903 94.6917 173.503C94.315 173.315 91.7516 174.671 88.5984 176.508Z" fill="#EA7920"/>
<path d="M109.692 142.846L93.1917 137.503L91.6917 141.996L135.902 156.503L137.697 151.914L134.885 151.003L109.692 142.846Z" fill="#E2D4A9"/>
<path d="M87.9461 187.483L81 190.075C93.7239 196.209 102.732 198.821 118.692 200.503L120.452 196.003C106.956 194.008 98.2657 191.769 87.9461 187.483Z" fill="#C5C297"/>
<path d="M109.692 142.846L93.1917 137.503M109.692 142.846L134.885 151.003M109.692 142.846C112.615 137.901 119.692 131.503 128.079 135.003C136.905 138.686 136.277 147.543 134.885 151.003M93.1917 137.503L84.0199 164.976M93.1917 137.503L91.6917 141.996M84.0199 164.976L88.5984 176.508M84.0199 164.976L91.6917 141.996M84.0199 164.976L94.6917 163.503C97.025 161.336 102.592 157.403 106.192 159.003C110.692 161.003 116.192 165.503 116.692 169.003M88.5984 176.508L92.3096 185.855L87.9461 187.483M88.5984 176.508C91.7516 174.671 94.315 173.315 94.6917 173.503C95.4917 173.903 100.692 176.883 103.192 178.323M87.9461 187.483L81 190.075C93.7239 196.209 102.732 198.821 118.692 200.503M87.9461 187.483C98.2657 191.769 106.956 194.008 120.452 196.003M118.692 200.503L124.497 185.662M118.692 200.503L120.452 196.003M124.497 185.662C119.913 186.395 115.109 186.034 112.192 185.503C109.359 184.988 104.736 182.019 103.192 178.323M124.497 185.662L120.452 196.003M103.192 178.323C102.555 176.799 102.442 175.153 103.192 173.503C105.692 168.003 112.858 168.003 116.692 169.003M116.692 169.003C123.848 172.958 130.688 167.245 134.001 161.363M134.001 161.363L135.902 156.503M134.001 161.363C134.947 159.683 135.606 157.989 135.902 156.503M135.902 156.503L137.697 151.914L134.885 151.003M135.902 156.503L91.6917 141.996" stroke="black" stroke-width="3" stroke-linejoin="round"/>
<path d="M130.692 144.503C130.692 145.055 130.244 145.503 129.692 145.503C129.139 145.503 128.692 145.055 128.692 144.503C128.692 143.951 129.139 143.503 129.692 143.503C130.244 143.503 130.692 143.951 130.692 144.503Z" fill="#865D30" stroke="black"/>
<path d="M124.692 140.503C125.244 140.503 125.692 140.055 125.692 139.503C125.692 138.951 125.244 138.503 124.692 138.503C124.139 138.503 123.692 138.951 123.692 139.503C123.692 140.055 124.139 140.503 124.692 140.503Z" fill="#865D30" stroke="black"/>
<path d="M119.692 140.503C119.692 141.055 119.244 141.503 118.692 141.503C118.139 141.503 117.692 141.055 117.692 140.503C117.692 139.951 118.139 139.503 118.692 139.503C119.244 139.503 119.692 139.951 119.692 140.503Z" fill="#865D30" stroke="black"/>
<path fill-rule="evenodd" clip-rule="evenodd" d="M135.902 156.503C135.606 157.989 134.947 159.683 134.001 161.363C130.688 167.245 123.848 172.958 116.692 169.003C112.858 168.003 105.692 168.003 103.192 173.503C102.442 175.153 102.555 176.799 103.192 178.323C104.736 182.019 109.359 184.988 112.192 185.503C115.109 186.034 119.913 186.395 124.497 185.662C128.553 185.014 132.438 183.508 134.692 180.503C139.492 174.103 137.499 161.836 135.902 156.503Z" fill="#FEFEFC" stroke="black" stroke-width="3" stroke-linejoin="round"/>
</g>
</svg>
