<svg width="133" height="186" viewBox="0 0 133 186" fill="none" xmlns="http://www.w3.org/2000/svg">
<path fill-rule="evenodd" clip-rule="evenodd" d="M40.0718 112.743C38.4028 135.845 38.7471 159.187 41 170C43.5 182 46.5 184 51 184C57.6572 184 58.3649 177.53 59.0382 171.375C59.175 170.124 59.3104 168.886 59.494 167.718C60 164.5 63.2471 161.545 68.5 162.5C72.8902 163.298 73.2096 167.457 73.5471 171.85C73.7093 173.961 73.8756 176.127 74.5 178L74.5259 178.078C75.5167 181.052 76.4991 184 82.5 184C89 184 91.3637 175.963 92 170.5C94.5752 148.388 94.7885 133.451 92.0497 112.571C85.0478 114.198 77.1158 115 68.4038 115C57.9224 115 48.3468 114.441 40.0718 112.743Z" fill="white"/>
<path fill-rule="evenodd" clip-rule="evenodd" d="M123.5 63.0001C123.5 40.5001 92.7967 9.441 61.5 1.50006C58.9048 4.74409 54.9069 8.45976 48.3364 12.9002C31.4413 24.3181 2 45.5001 9.5 63.5001C3.5 66.0001 1.5 75.2238 1.5 81.0002C1.5 90.2463 8.85904 99.0065 17.973 102.196C23.4054 107.614 30.9481 110.871 40.0718 112.743C48.3468 114.441 57.9224 115 68.4038 115C77.1158 115 85.0478 114.198 92.0497 112.571C100.782 110.541 108.067 107.228 113.615 102.587C123.771 99.9923 131 92.5536 131 81.5002C131 76.4331 129.5 67.0001 123.5 63.0001Z" fill="#F8C6C7"/>
<path d="M40.0718 112.743C38.4028 135.845 38.7471 159.187 41 170C43.5 182 46.5 184 51 184C57.6572 184 58.3649 177.53 59.0382 171.375C59.175 170.124 59.3104 168.886 59.494 167.718C60 164.5 63.2471 161.545 68.5 162.5C72.8902 163.298 73.2096 167.457 73.5471 171.85C73.7093 173.961 73.8756 176.127 74.5 178L74.5259 178.078C75.5167 181.052 76.4991 184 82.5 184C89 184 91.3637 175.963 92 170.5C94.5752 148.388 94.7885 133.451 92.0497 112.571M40.0718 112.743C48.3468 114.441 57.9224 115 68.4038 115C77.1158 115 85.0478 114.198 92.0497 112.571M40.0718 112.743C30.9481 110.871 23.4054 107.614 17.973 102.196C8.85904 99.0065 1.5 90.2463 1.5 81.0002C1.5 75.2238 3.5 66.0001 9.5 63.5001M92.0497 112.571C100.782 110.541 108.067 107.228 113.615 102.587C123.771 99.9923 131 92.5536 131 81.5002C131 76.4331 129.5 67.0001 123.5 63.0001M123.5 63.0001C123.5 40.5001 92.7967 9.441 61.5 1.50006C58.9048 4.74409 54.9069 8.45976 48.3364 12.9002C31.4413 24.3181 2 45.5001 9.5 63.5001M123.5 63.0001L119.5 62.0001M9.5 63.5001L13 63.0001" stroke="black" stroke-width="3" stroke-linecap="round" stroke-linejoin="round"/>
<path d="M110.5 68.5001C110.5 71.8138 105.575 74.5001 99.5 74.5001C93.4249 74.5001 88.5 71.8138 88.5 68.5001C88.5 65.1864 93.4249 62.5001 99.5 62.5001C105.575 62.5001 110.5 65.1864 110.5 68.5001Z" fill="#E28C86"/>
<path d="M45.5 68.5001C45.5 71.8138 40.5751 74.5001 34.5 74.5001C28.4249 74.5001 23.5 71.8138 23.5 68.5001C23.5 65.1864 28.4249 62.5001 34.5 62.5001C40.5751 62.5001 45.5 65.1864 45.5 68.5001Z" fill="#E28C86"/>
<path d="M110.5 68.5001C110.5 71.8138 105.575 74.5001 99.5 74.5001C93.4249 74.5001 88.5 71.8138 88.5 68.5001C88.5 65.1864 93.4249 62.5001 99.5 62.5001C105.575 62.5001 110.5 65.1864 110.5 68.5001Z" stroke="#E28C86" stroke-width="2"/>
<path d="M45.5 68.5001C45.5 71.8138 40.5751 74.5001 34.5 74.5001C28.4249 74.5001 23.5 71.8138 23.5 68.5001C23.5 65.1864 28.4249 62.5001 34.5 62.5001C40.5751 62.5001 45.5 65.1864 45.5 68.5001Z" stroke="#E28C86" stroke-width="2"/>
<path d="M42 43.5342C56.4 42.7342 59 56.2008 58.5 63.0342C48.808 58.3677 34.0962 58.4526 26 59.2419C24.8 44.2081 36.5 43.8398 42 43.5342Z" fill="#FEFDFE"/>
<path d="M91.0565 43.5683C76.6565 42.7683 74.0565 56.235 74.5565 63.0683C84.2485 58.4018 98.9604 58.4868 107.057 59.276C108.257 44.2422 96.5565 43.8739 91.0565 43.5683Z" fill="#FEFDFE"/>
<path d="M23.5 59.5342C24.2353 59.4316 25.0744 59.3321 26 59.2419M26 59.2419C34.0962 58.4526 48.808 58.3677 58.5 63.0342C59 56.2008 56.4 42.7342 42 43.5342C36.5 43.8398 24.8 44.2081 26 59.2419ZM109.557 59.5683C108.821 59.4657 107.982 59.3663 107.057 59.276M107.057 59.276C98.9604 58.4868 84.2485 58.4018 74.5565 63.0683C74.0565 56.235 76.6565 42.7683 91.0565 43.5683C96.5565 43.8739 108.257 44.2422 107.057 59.276Z" stroke="black" stroke-width="2" stroke-linecap="round"/>
<path d="M91.5 53.0001C91.5 53.8285 90.8284 54.5001 90 54.5001C89.1716 54.5001 88.5 53.8285 88.5 53.0001C88.5 52.1716 89.1716 51.5001 90 51.5001C90.8284 51.5001 91.5 52.1716 91.5 53.0001Z" fill="#010200"/>
<path d="M44.5 53.0001C44.5 53.8285 43.8284 54.5001 43 54.5001C42.1716 54.5001 41.5 53.8285 41.5 53.0001C41.5 52.1716 42.1716 51.5001 43 51.5001C43.8284 51.5001 44.5 52.1716 44.5 53.0001Z" fill="#010200"/>
<path d="M91.5 53.0001C91.5 53.8285 90.8284 54.5001 90 54.5001C89.1716 54.5001 88.5 53.8285 88.5 53.0001C88.5 52.1716 89.1716 51.5001 90 51.5001C90.8284 51.5001 91.5 52.1716 91.5 53.0001Z" stroke="black" stroke-width="2"/>
<path d="M44.5 53.0001C44.5 53.8285 43.8284 54.5001 43 54.5001C42.1716 54.5001 41.5 53.8285 41.5 53.0001C41.5 52.1716 42.1716 51.5001 43 51.5001C43.8284 51.5001 44.5 52.1716 44.5 53.0001Z" stroke="black" stroke-width="2"/>
<circle cx="75.5" cy="89.5001" r="1.5" fill="#B08D63" stroke="black"/>
<path d="M49 66.0001C50.1402 67.0802 51.4316 68.8216 52.2441 71.0001C52.7987 72.4869 53.1301 74.1773 53.0382 76.0001M48.5 85.5001C50.7808 83.1053 52.0591 80.7349 52.6478 78.5001C52.8731 77.6448 52.9974 76.8094 53.0382 76.0001M85.5 64.5001C84.4508 65.6541 83.2894 67.3894 82.4647 69.5001C81.7184 71.4101 81.2478 73.6276 81.3858 76.0001M86.5 86.5001C83.3255 83.3255 81.8774 80.0556 81.4798 77.0001C81.436 76.664 81.405 76.3305 81.3858 76.0001M53.0382 76.0001C53.0382 76.0001 56.5 80.5001 60 76.0001C63.5 71.5001 65.5 73.5001 68.5 76.0001C71.5 78.5001 72.5 80.0001 75.5 76.0001C78.5 72.0001 81.3858 76.0001 81.3858 76.0001" stroke="black" stroke-width="2" stroke-linecap="round"/>
<path d="M61.5 28.0001L62 47.5001M67 25.5001V49.0001M71.5 29.0001V45.5001" stroke="black" stroke-width="2" stroke-linecap="round" stroke-linejoin="round"/>
<path d="M77 33.5001C78.1667 36.0001 83.1 40.4001 93.5 38.0001M53.5 33.5001C51.6667 36.0001 46 40.4001 38 38.0001" stroke="black" stroke-width="2" stroke-linecap="round" stroke-linejoin="round"/>
<path d="M21.9746 85.1553C22.0425 85.228 22.1213 85.3235 22.209 85.4444C22.3649 85.6594 22.5327 85.9303 22.7012 86.2413C23.0382 86.8633 23.3665 87.6196 23.6094 88.3536C23.8553 89.0967 24 89.7765 24 90.2569C24 91.2743 23.6972 91.9441 23.2715 92.3604C22.8424 92.78 22.2293 93.0001 21.5 93.0001C20.7707 93.0001 20.1576 92.78 19.7285 92.3604C19.3028 91.9441 19 91.2743 19 90.2569C19 89.3499 19.521 88.6823 20.2305 87.8975C20.8826 87.1761 21.7329 86.325 21.9746 85.1553ZM116.975 83.1553C117.043 83.228 117.121 83.3235 117.209 83.4444C117.365 83.6594 117.533 83.9303 117.701 84.2413C118.038 84.8633 118.366 85.6196 118.609 86.3536C118.855 87.0967 119 87.7765 119 88.2569C119 89.2743 118.697 89.9441 118.271 90.3604C117.842 90.78 117.229 91.0001 116.5 91.0001C115.771 91.0001 115.158 90.78 114.729 90.3604C114.303 89.9441 114 89.2743 114 88.2569C114 87.3499 114.521 86.6823 115.23 85.8975C115.883 85.1761 116.733 84.325 116.975 83.1553ZM27.9746 33.1553C28.0425 33.228 28.1213 33.3235 28.209 33.4444C28.3649 33.6594 28.5327 33.9303 28.7012 34.2413C29.0382 34.8633 29.3665 35.6196 29.6094 36.3536C29.8553 37.0967 30 37.7765 30 38.2569C30 39.2743 29.6972 39.9441 29.2715 40.3604C28.8424 40.78 28.2293 41.0001 27.5 41.0001C26.7707 41.0001 26.1576 40.78 25.7285 40.3604C25.3028 39.9441 25 39.2743 25 38.2569C25.0001 37.3499 25.521 36.6823 26.2305 35.8975C26.8826 35.1761 27.7329 34.325 27.9746 33.1553ZM86.9746 20.1553C87.0425 20.228 87.1213 20.3235 87.209 20.4444C87.3649 20.6594 87.5327 20.9303 87.7012 21.2413C88.0382 21.8633 88.3665 22.6196 88.6094 23.3536C88.8553 24.0967 89 24.7765 89 25.2569C89 26.2743 88.6972 26.9441 88.2715 27.3604C87.8424 27.78 87.2293 28.0001 86.5 28.0001C85.7707 28.0001 85.1576 27.78 84.7285 27.3604C84.3028 26.9441 84 26.2743 84 25.2569C84.0001 24.3499 84.521 23.6823 85.2305 22.8975C85.8826 22.1761 86.7329 21.325 86.9746 20.1553ZM53.9746 15.1553C54.0425 15.228 54.1213 15.3235 54.209 15.4444C54.3649 15.6594 54.5327 15.9303 54.7012 16.2413C55.0382 16.8633 55.3665 17.6196 55.6094 18.3536C55.8553 19.0967 56 19.7765 56 20.2569C56 21.2743 55.6972 21.9441 55.2715 22.3604C54.8424 22.78 54.2293 23.0001 53.5 23.0001C52.7707 23.0001 52.1576 22.78 51.7285 22.3604C51.3028 21.9441 51 21.2743 51 20.2569C51.0001 19.3499 51.521 18.6823 52.2305 17.8975C52.8826 17.1761 53.7329 16.325 53.9746 15.1553Z" fill="#BFD9EE"/>
<path d="M21.9746 85.1553C22.0425 85.228 22.1213 85.3235 22.209 85.4444C22.3649 85.6594 22.5327 85.9303 22.7012 86.2413C23.0382 86.8633 23.3665 87.6196 23.6094 88.3536C23.8553 89.0967 24 89.7765 24 90.2569C24 91.2743 23.6972 91.9441 23.2715 92.3604C22.8424 92.78 22.2293 93.0001 21.5 93.0001C20.7707 93.0001 20.1576 92.78 19.7285 92.3604C19.3028 91.9441 19 91.2743 19 90.2569C19 89.3499 19.521 88.6823 20.2305 87.8975C20.8826 87.1761 21.7329 86.325 21.9746 85.1553ZM116.975 83.1553C117.043 83.228 117.121 83.3235 117.209 83.4444C117.365 83.6594 117.533 83.9303 117.701 84.2413C118.038 84.8633 118.366 85.6196 118.609 86.3536C118.855 87.0967 119 87.7765 119 88.2569C119 89.2743 118.697 89.9441 118.271 90.3604C117.842 90.78 117.229 91.0001 116.5 91.0001C115.771 91.0001 115.158 90.78 114.729 90.3604C114.303 89.9441 114 89.2743 114 88.2569C114 87.3499 114.521 86.6823 115.23 85.8975C115.883 85.1761 116.733 84.325 116.975 83.1553ZM27.9746 33.1553C28.0425 33.228 28.1213 33.3235 28.209 33.4444C28.3649 33.6594 28.5327 33.9303 28.7012 34.2413C29.0382 34.8633 29.3665 35.6196 29.6094 36.3536C29.8553 37.0967 30 37.7765 30 38.2569C30 39.2743 29.6972 39.9441 29.2715 40.3604C28.8424 40.78 28.2293 41.0001 27.5 41.0001C26.7707 41.0001 26.1576 40.78 25.7285 40.3604C25.3028 39.9441 25 39.2743 25 38.2569C25.0001 37.3499 25.521 36.6823 26.2305 35.8975C26.8826 35.1761 27.7329 34.325 27.9746 33.1553ZM86.9746 20.1553C87.0425 20.228 87.1213 20.3235 87.209 20.4444C87.3649 20.6594 87.5327 20.9303 87.7012 21.2413C88.0382 21.8633 88.3665 22.6196 88.6094 23.3536C88.8553 24.0967 89 24.7765 89 25.2569C89 26.2743 88.6972 26.9441 88.2715 27.3604C87.8424 27.78 87.2293 28.0001 86.5 28.0001C85.7707 28.0001 85.1576 27.78 84.7285 27.3604C84.3028 26.9441 84 26.2743 84 25.2569C84.0001 24.3499 84.521 23.6823 85.2305 22.8975C85.8826 22.1761 86.7329 21.325 86.9746 20.1553ZM53.9746 15.1553C54.0425 15.228 54.1213 15.3235 54.209 15.4444C54.3649 15.6594 54.5327 15.9303 54.7012 16.2413C55.0382 16.8633 55.3665 17.6196 55.6094 18.3536C55.8553 19.0967 56 19.7765 56 20.2569C56 21.2743 55.6972 21.9441 55.2715 22.3604C54.8424 22.78 54.2293 23.0001 53.5 23.0001C52.7707 23.0001 52.1576 22.78 51.7285 22.3604C51.3028 21.9441 51 21.2743 51 20.2569C51.0001 19.3499 51.521 18.6823 52.2305 17.8975C52.8826 17.1761 53.7329 16.325 53.9746 15.1553Z" stroke="#A5C3DB"/>
<path d="M21.9746 85.1553C22.0425 85.228 22.1213 85.3235 22.209 85.4444C22.3649 85.6594 22.5327 85.9303 22.7012 86.2413C23.0382 86.8633 23.3665 87.6196 23.6094 88.3536C23.8553 89.0967 24 89.7765 24 90.2569C24 91.2743 23.6972 91.9441 23.2715 92.3604C22.8424 92.78 22.2293 93.0001 21.5 93.0001C20.7707 93.0001 20.1576 92.78 19.7285 92.3604C19.3028 91.9441 19 91.2743 19 90.2569C19 89.3499 19.521 88.6823 20.2305 87.8975C20.8826 87.1761 21.7329 86.325 21.9746 85.1553ZM116.975 83.1553C117.043 83.228 117.121 83.3235 117.209 83.4444C117.365 83.6594 117.533 83.9303 117.701 84.2413C118.038 84.8633 118.366 85.6196 118.609 86.3536C118.855 87.0967 119 87.7765 119 88.2569C119 89.2743 118.697 89.9441 118.271 90.3604C117.842 90.78 117.229 91.0001 116.5 91.0001C115.771 91.0001 115.158 90.78 114.729 90.3604C114.303 89.9441 114 89.2743 114 88.2569C114 87.3499 114.521 86.6823 115.23 85.8975C115.883 85.1761 116.733 84.325 116.975 83.1553ZM27.9746 33.1553C28.0425 33.228 28.1213 33.3235 28.209 33.4444C28.3649 33.6594 28.5327 33.9303 28.7012 34.2413C29.0382 34.8633 29.3665 35.6196 29.6094 36.3536C29.8553 37.0967 30 37.7765 30 38.2569C30 39.2743 29.6972 39.9441 29.2715 40.3604C28.8424 40.78 28.2293 41.0001 27.5 41.0001C26.7707 41.0001 26.1576 40.78 25.7285 40.3604C25.3028 39.9441 25 39.2743 25 38.2569C25.0001 37.3499 25.521 36.6823 26.2305 35.8975C26.8826 35.1761 27.7329 34.325 27.9746 33.1553ZM86.9746 20.1553C87.0425 20.228 87.1213 20.3235 87.209 20.4444C87.3649 20.6594 87.5327 20.9303 87.7012 21.2413C88.0382 21.8633 88.3665 22.6196 88.6094 23.3536C88.8553 24.0967 89 24.7765 89 25.2569C89 26.2743 88.6972 26.9441 88.2715 27.3604C87.8424 27.78 87.2293 28.0001 86.5 28.0001C85.7707 28.0001 85.1576 27.78 84.7285 27.3604C84.3028 26.9441 84 26.2743 84 25.2569C84.0001 24.3499 84.521 23.6823 85.2305 22.8975C85.8826 22.1761 86.7329 21.325 86.9746 20.1553ZM53.9746 15.1553C54.0425 15.228 54.1213 15.3235 54.209 15.4444C54.3649 15.6594 54.5327 15.9303 54.7012 16.2413C55.0382 16.8633 55.3665 17.6196 55.6094 18.3536C55.8553 19.0967 56 19.7765 56 20.2569C56 21.2743 55.6972 21.9441 55.2715 22.3604C54.8424 22.78 54.2293 23.0001 53.5 23.0001C52.7707 23.0001 52.1576 22.78 51.7285 22.3604C51.3028 21.9441 51 21.2743 51 20.2569C51.0001 19.3499 51.521 18.6823 52.2305 17.8975C52.8826 17.1761 53.7329 16.325 53.9746 15.1553Z" stroke="#A5C3DB"/>
<path fill-rule="evenodd" clip-rule="evenodd" d="M19.3339 123.711L20.6979 119.211L19.3339 115.211C16.2366 119.641 13.2334 128.447 15.3699 134.5C18.3699 143 24.8699 145.229 29.6625 145.5C35.8699 145.852 50.4485 145.572 50.8699 137.5C51.3255 128.774 36.545 127.99 29.9968 129.211L27.4968 126.711L23.5964 127.711L19.4968 132.211L19.3339 123.711Z" fill="#FCFEFE"/>
<path d="M39.4968 120.211L29.9968 129.211C36.545 127.99 51.3255 128.774 50.8699 137.5C50.4485 145.572 35.8699 145.852 29.6625 145.5L35 159L67.5 145.5L56.8003 119.865L52.4968 119.865L48.9968 123.211L41.783 119.211L39.4968 120.211Z" fill="#C02927"/>
<path d="M44.0691 118.211L54.3568 113.711L50.0983 102.985L39.5421 107.18L44.0691 118.211Z" fill="#6C3E23"/>
<path d="M48.9968 100.211C41.3968 101.599 39.1635 96.459 38.4968 93.2108L34.4968 94.8865L39.5421 107.18L50.0983 102.985L48.9968 100.211Z" fill="#6C3E23"/>
<path d="M34.4968 94.8865L24.1745 99.2108L29.3146 111.245L39.5421 107.18L34.4968 94.8865Z" fill="#6C3E23"/>
<path d="M32.9968 119.865L39.4968 120.211L41.783 119.211L44.0691 118.211L39.5421 107.18L29.3146 111.245L32.9968 119.865Z" fill="#6C3E23"/>
<path d="M15.165 102.985L19.3339 115.211L29.3146 111.245L24.1745 99.2108L15.165 102.985Z" fill="#6C3E23"/>
<path d="M20.6979 119.211L32.9968 119.865L29.3146 111.245L19.3339 115.211L20.6979 119.211Z" fill="#6C3E23"/>
<path d="M52.4968 119.865L56.8003 119.865L59.4968 119.865L58.9968 117.711L54.3568 113.711L44.0691 118.211L41.783 119.211L48.9968 123.211L52.4968 119.865Z" fill="#BCB8B8"/>
<path d="M20.6979 119.211L19.3339 123.711L19.4968 132.211L23.5964 127.711L27.4968 126.711L29.9968 129.211L39.4968 120.211L32.9968 119.865L20.6979 119.211Z" fill="#BCB8B8"/>
<path d="M20.6979 119.211L19.3339 123.711L19.4968 132.211L23.5964 127.711L27.4968 126.711L29.9968 129.211M20.6979 119.211L32.9968 119.865M20.6979 119.211L19.3339 115.211M29.9968 129.211L39.4968 120.211M29.9968 129.211C36.545 127.99 51.3255 128.774 50.8699 137.5C50.4485 145.572 35.8699 145.852 29.6625 145.5M39.4968 120.211L32.9968 119.865M39.4968 120.211L41.783 119.211M32.9968 119.865L29.3146 111.245M56.8003 119.865L52.4968 119.865L48.9968 123.211L41.783 119.211M56.8003 119.865L59.4968 119.865L58.9968 117.711L54.3568 113.711M56.8003 119.865L67.5 145.5L35 159L29.6625 145.5M54.3568 113.711L44.0691 118.211M54.3568 113.711L50.0983 102.985M44.0691 118.211L41.783 119.211M44.0691 118.211L39.5421 107.18M19.3339 115.211C16.2366 119.641 13.2334 128.447 15.3699 134.5C18.3699 143 24.8699 145.229 29.6625 145.5M19.3339 115.211L15.165 102.985L24.1745 99.2108M19.3339 115.211L29.3146 111.245M50.0983 102.985L48.9968 100.211C41.3968 101.599 39.1635 96.459 38.4968 93.2108L34.4968 94.8865M50.0983 102.985L39.5421 107.18M24.1745 99.2108L34.4968 94.8865M24.1745 99.2108L29.3146 111.245M34.4968 94.8865L39.5421 107.18M39.5421 107.18L29.3146 111.245" stroke="black" stroke-width="3" stroke-linejoin="round"/>
<path d="M85.1917 104.346L110.385 112.503C111.777 109.044 112.405 100.186 103.579 96.5031C95.1917 93.0032 88.1149 99.4006 85.1917 104.346Z" fill="#B48A59"/>
<path d="M59.5199 126.476L64.0984 138.008C67.2516 136.171 69.815 134.815 70.1917 135.003C70.9917 135.403 76.1917 138.383 78.6917 139.823C78.0554 138.3 77.9419 136.653 78.6917 135.003C81.1917 129.503 88.3584 129.503 92.1917 130.503C91.6917 127.003 86.1917 122.503 81.6917 120.503C78.0917 118.903 72.525 122.836 70.1917 125.003L59.5199 126.476Z" fill="#FFE46C"/>
<path fill-rule="evenodd" clip-rule="evenodd" d="M111.402 118.003L109.501 122.863C106.188 128.745 99.3481 134.458 92.1917 130.503C91.6917 127.003 86.1917 122.503 81.6917 120.503C78.0917 118.903 72.525 122.836 70.1917 125.003L59.5199 126.476L67.1917 103.496L111.402 118.003ZM64.0984 138.008L67.8096 147.355L63.4461 148.983C73.7657 153.269 82.4562 155.508 95.9518 157.503L99.9965 147.162C95.4127 147.895 90.6094 147.534 87.6917 147.003C84.8589 146.488 80.2359 143.519 78.6917 139.823C76.1917 138.383 70.9917 135.403 70.1917 135.003C69.815 134.815 67.2516 136.171 64.0984 138.008Z" fill="#EA7920"/>
<path d="M85.1917 104.346L68.6917 99.0031L67.1917 103.496L111.402 118.003L113.197 113.414L110.385 112.503L85.1917 104.346Z" fill="#E2D4A9"/>
<path d="M63.4461 148.983L56.5 151.575C69.2239 157.709 78.2317 160.321 94.1917 162.003L95.9518 157.503C82.4562 155.508 73.7657 153.269 63.4461 148.983Z" fill="#C5C297"/>
<path d="M85.1917 104.346L68.6917 99.0031M85.1917 104.346L110.385 112.503M85.1917 104.346C88.1149 99.4006 95.1917 93.0032 103.579 96.5031C112.405 100.186 111.777 109.044 110.385 112.503M68.6917 99.0031L59.5199 126.476M68.6917 99.0031L67.1917 103.496M59.5199 126.476L64.0984 138.008M59.5199 126.476L67.1917 103.496M59.5199 126.476L70.1917 125.003C72.525 122.836 78.0917 118.903 81.6917 120.503C86.1917 122.503 91.6917 127.003 92.1917 130.503M64.0984 138.008L67.8096 147.355L63.4461 148.983M64.0984 138.008C67.2516 136.171 69.815 134.815 70.1917 135.003C70.9917 135.403 76.1917 138.383 78.6917 139.823M63.4461 148.983L56.5 151.575C69.2239 157.709 78.2317 160.321 94.1917 162.003M63.4461 148.983C73.7657 153.269 82.4562 155.508 95.9518 157.503M94.1917 162.003L99.9965 147.162M94.1917 162.003L95.9518 157.503M99.9965 147.162C95.4127 147.895 90.6094 147.534 87.6917 147.003C84.8589 146.488 80.2359 143.519 78.6917 139.823M99.9965 147.162L95.9518 157.503M78.6917 139.823C78.0554 138.3 77.9419 136.653 78.6917 135.003C81.1917 129.503 88.3584 129.503 92.1917 130.503M92.1917 130.503C99.3481 134.458 106.188 128.745 109.501 122.863M109.501 122.863L111.402 118.003M109.501 122.863C110.447 121.183 111.106 119.489 111.402 118.003M111.402 118.003L113.197 113.414L110.385 112.503M111.402 118.003L67.1917 103.496" stroke="black" stroke-width="3" stroke-linejoin="round"/>
<path d="M106.192 106.003C106.192 106.556 105.744 107.003 105.192 107.003C104.639 107.003 104.192 106.556 104.192 106.003C104.192 105.451 104.639 105.003 105.192 105.003C105.744 105.003 106.192 105.451 106.192 106.003Z" fill="#865D30" stroke="black"/>
<path d="M100.192 102.003C100.744 102.003 101.192 101.556 101.192 101.003C101.192 100.451 100.744 100.003 100.192 100.003C99.6394 100.003 99.1917 100.451 99.1917 101.003C99.1917 101.556 99.6394 102.003 100.192 102.003Z" fill="#865D30" stroke="black"/>
<path d="M95.1917 102.003C95.1917 102.556 94.7439 103.003 94.1917 103.003C93.6394 103.003 93.1917 102.556 93.1917 102.003C93.1917 101.451 93.6394 101.003 94.1917 101.003C94.7439 101.003 95.1917 101.451 95.1917 102.003Z" fill="#865D30" stroke="black"/>
<path fill-rule="evenodd" clip-rule="evenodd" d="M111.402 118.003C111.106 119.489 110.447 121.183 109.501 122.863C106.188 128.745 99.3481 134.458 92.1917 130.503C88.3584 129.503 81.1917 129.503 78.6917 135.003C77.9418 136.653 78.0554 138.3 78.6917 139.823C80.2359 143.519 84.8589 146.488 87.6917 147.003C90.6094 147.534 95.4127 147.895 99.9965 147.162C104.053 146.514 107.938 145.008 110.192 142.003C114.992 135.603 112.999 123.336 111.402 118.003Z" fill="#FEFEFC" stroke="black" stroke-width="3" stroke-linejoin="round"/>
</svg>
