<svg width="133" height="186" viewBox="0 0 133 186" fill="none" xmlns="http://www.w3.org/2000/svg">
<path fill-rule="evenodd" clip-rule="evenodd" d="M40.0718 112.743C38.4028 135.845 38.7471 159.187 41 170C43.5 182 46.5 184 51 184C57.6572 184 58.3649 177.53 59.0382 171.375C59.175 170.124 59.3104 168.886 59.494 167.718C60 164.5 63.2471 161.545 68.5 162.5C72.8902 163.298 73.2096 167.457 73.5471 171.85C73.7093 173.961 73.8756 176.127 74.5 178L74.5259 178.078C75.5167 181.052 76.4991 184 82.5 184C89 184 91.3637 175.963 92 170.5C94.5752 148.388 94.7885 133.451 92.0497 112.571C85.0478 114.198 77.1158 115 68.4038 115C57.9224 115 48.3468 114.441 40.0718 112.743Z" fill="white"/>
<path fill-rule="evenodd" clip-rule="evenodd" d="M123.5 63.0001C123.5 40.5001 92.7967 9.441 61.5 1.50006C58.9048 4.74409 54.9069 8.45976 48.3364 12.9002C31.4413 24.3181 2 45.5001 9.5 63.5001C3.5 66.0001 1.5 75.2238 1.5 81.0002C1.5 90.2463 8.85904 99.0065 17.973 102.196C23.4054 107.614 30.9481 110.871 40.0718 112.743C48.3468 114.441 57.9224 115 68.4038 115C77.1158 115 85.0478 114.198 92.0497 112.571C100.782 110.541 108.067 107.228 113.615 102.587C123.771 99.9923 131 92.5536 131 81.5002C131 76.4331 129.5 67.0001 123.5 63.0001Z" fill="#F8C6C7"/>
<path d="M40.0718 112.743C38.4028 135.845 38.7471 159.187 41 170C43.5 182 46.5 184 51 184C57.6572 184 58.3649 177.53 59.0382 171.375C59.175 170.124 59.3104 168.886 59.494 167.718C60 164.5 63.2471 161.545 68.5 162.5C72.8902 163.298 73.2096 167.457 73.5471 171.85C73.7093 173.961 73.8756 176.127 74.5 178L74.5259 178.078C75.5167 181.052 76.4991 184 82.5 184C89 184 91.3637 175.963 92 170.5C94.5752 148.388 94.7885 133.451 92.0497 112.571M40.0718 112.743C48.3468 114.441 57.9224 115 68.4038 115C77.1158 115 85.0478 114.198 92.0497 112.571M40.0718 112.743C30.9481 110.871 23.4054 107.614 17.973 102.196C8.85904 99.0065 1.5 90.2463 1.5 81.0002C1.5 75.2238 3.5 66.0001 9.5 63.5001M92.0497 112.571C100.782 110.541 108.067 107.228 113.615 102.587C123.771 99.9923 131 92.5536 131 81.5002C131 76.4331 129.5 67.0001 123.5 63.0001M123.5 63.0001C123.5 40.5001 92.7967 9.441 61.5 1.50006C58.9048 4.74409 54.9069 8.45976 48.3364 12.9002C31.4413 24.3181 2 45.5001 9.5 63.5001M123.5 63.0001L119.5 62.0001M9.5 63.5001L13 63.0001" stroke="black" stroke-width="3" stroke-linecap="round" stroke-linejoin="round"/>
<path d="M50.6478 80.5001C51.3805 77.7185 51.0449 75.147 50.2441 73.0001C52.0117 74.0272 55.4727 75.1817 60.2467 75.4301C62.8065 75.5633 65.7438 75.436 69 74.8889C72.481 74.3039 76.3265 73.2392 80.4647 71.5001C79.6144 73.6762 79.1221 76.2514 79.4798 79.0001C78.723 79.7555 77.935 80.4195 77.1228 81.0001C75.958 81.8327 74.7435 82.4938 73.5 83.0073C72.0291 83.6146 70.5177 84.0153 69 84.2489C66.0195 84.7075 63.015 84.5215 60.2467 83.9896C56.328 83.2367 52.8824 81.7909 50.6478 80.5001Z" fill="#FEFDFE"/>
<path d="M47 68.0001C48.1402 69.0802 49.4316 70.8216 50.2441 73.0001M46.5 87.5001C48.7808 85.1053 50.0591 82.7349 50.6478 80.5001M83.5 66.5001C82.4508 67.6541 81.2894 69.3894 80.4647 71.5001M84.5 88.5001C81.3255 85.3255 79.8774 82.0556 79.4798 79.0001M50.2441 73.0001C51.0449 75.147 51.3805 77.7185 50.6478 80.5001M50.2441 73.0001C52.0117 74.0272 55.4727 75.1817 60.2467 75.4301M80.4647 71.5001C79.6144 73.6762 79.1221 76.2514 79.4798 79.0001M80.4647 71.5001C76.3265 73.2392 72.481 74.3039 69 74.8889M50.6478 80.5001C52.8824 81.7909 56.328 83.2367 60.2467 83.9896M79.4798 79.0001C78.723 79.7555 77.935 80.4195 77.1228 81.0001C75.958 81.8327 74.7435 82.4938 73.5 83.0073M60.2467 75.4301V83.9896M60.2467 75.4301C62.8065 75.5633 65.7438 75.436 69 74.8889M60.2467 83.9896C63.015 84.5215 66.0195 84.7075 69 84.2489M69 74.8889V84.2489M69 84.2489C70.5177 84.0153 72.0291 83.6146 73.5 83.0073M73.5 78.0001V81.0001V83.0073" stroke="black" stroke-width="2" stroke-linecap="round"/>
<path d="M108.5 69.5001C108.5 72.8138 103.575 75.5001 97.5 75.5001C91.4249 75.5001 86.5 72.8138 86.5 69.5001C86.5 66.1864 91.4249 63.5001 97.5 63.5001C103.575 63.5001 108.5 66.1864 108.5 69.5001Z" fill="#E28C86"/>
<path d="M43.5 69.5001C43.5 72.8138 38.5751 75.5001 32.5 75.5001C26.4249 75.5001 21.5 72.8138 21.5 69.5001C21.5 66.1864 26.4249 63.5001 32.5 63.5001C38.5751 63.5001 43.5 66.1864 43.5 69.5001Z" fill="#E28C86"/>
<path d="M108.5 69.5001C108.5 72.8138 103.575 75.5001 97.5 75.5001C91.4249 75.5001 86.5 72.8138 86.5 69.5001C86.5 66.1864 91.4249 63.5001 97.5 63.5001C103.575 63.5001 108.5 66.1864 108.5 69.5001Z" stroke="#E28C86" stroke-width="2"/>
<path d="M43.5 69.5001C43.5 72.8138 38.5751 75.5001 32.5 75.5001C26.4249 75.5001 21.5 72.8138 21.5 69.5001C21.5 66.1864 26.4249 63.5001 32.5 63.5001C38.5751 63.5001 43.5 66.1864 43.5 69.5001Z" stroke="#E28C86" stroke-width="2"/>
<path d="M40 44.5342C54.4 43.7342 57 57.2008 56.5 64.0342C46.808 59.3677 32.0962 59.4526 24 60.2419C22.8 45.2081 34.5 44.8398 40 44.5342Z" fill="#FEFDFE"/>
<path d="M89.0565 44.5683C74.6565 43.7683 72.0565 57.235 72.5565 64.0683C82.2485 59.4018 96.9604 59.4868 105.057 60.276C106.257 45.2422 94.5565 44.8739 89.0565 44.5683Z" fill="#FEFDFE"/>
<path d="M21.5 60.5342C22.2353 60.4316 23.0744 60.3321 24 60.2419M24 60.2419C32.0962 59.4526 46.808 59.3677 56.5 64.0342C57 57.2008 54.4 43.7342 40 44.5342C34.5 44.8398 22.8 45.2081 24 60.2419ZM107.557 60.5683C106.821 60.4657 105.982 60.3663 105.057 60.276M105.057 60.276C96.9604 59.4868 82.2485 59.4018 72.5565 64.0683C72.0565 57.235 74.6565 43.7683 89.0565 44.5683C94.5565 44.8739 106.257 45.2422 105.057 60.276Z" stroke="black" stroke-width="2" stroke-linecap="round"/>
<path d="M89.5 54.0001C89.5 54.8285 88.8284 55.5001 88 55.5001C87.1716 55.5001 86.5 54.8285 86.5 54.0001C86.5 53.1716 87.1716 52.5001 88 52.5001C88.8284 52.5001 89.5 53.1716 89.5 54.0001Z" fill="#010200"/>
<path d="M42.5 54.0001C42.5 54.8285 41.8284 55.5001 41 55.5001C40.1716 55.5001 39.5 54.8285 39.5 54.0001C39.5 53.1716 40.1716 52.5001 41 52.5001C41.8284 52.5001 42.5 53.1716 42.5 54.0001Z" fill="#010200"/>
<path d="M89.5 54.0001C89.5 54.8285 88.8284 55.5001 88 55.5001C87.1716 55.5001 86.5 54.8285 86.5 54.0001C86.5 53.1716 87.1716 52.5001 88 52.5001C88.8284 52.5001 89.5 53.1716 89.5 54.0001Z" stroke="black" stroke-width="2"/>
<path d="M42.5 54.0001C42.5 54.8285 41.8284 55.5001 41 55.5001C40.1716 55.5001 39.5 54.8285 39.5 54.0001C39.5 53.1716 40.1716 52.5001 41 52.5001C41.8284 52.5001 42.5 53.1716 42.5 54.0001Z" stroke="black" stroke-width="2"/>
<circle cx="73.5" cy="90.5001" r="1.5" fill="#B08D63" stroke="black"/>
<path fill-rule="evenodd" clip-rule="evenodd" d="M19.3339 123.711L20.6979 119.211L19.3339 115.211C16.2366 119.641 13.2334 128.447 15.3699 134.5C18.3699 143 24.8699 145.229 29.6625 145.5C35.8699 145.852 50.4485 145.572 50.8699 137.5C51.3255 128.774 36.545 127.99 29.9968 129.211L27.4968 126.711L23.5964 127.711L19.4968 132.211L19.3339 123.711Z" fill="#FCFEFE"/>
<path d="M39.4968 120.211L29.9968 129.211C36.545 127.99 51.3255 128.774 50.8699 137.5C50.4485 145.572 35.8699 145.852 29.6625 145.5L35 159L67.5 145.5L56.8003 119.865L52.4968 119.865L48.9968 123.211L41.783 119.211L39.4968 120.211Z" fill="#C02927"/>
<path d="M44.0691 118.211L54.3568 113.711L50.0983 102.985L39.5421 107.18L44.0691 118.211Z" fill="#6C3E23"/>
<path d="M48.9968 100.211C41.3968 101.599 39.1635 96.459 38.4968 93.2108L34.4968 94.8865L39.5421 107.18L50.0983 102.985L48.9968 100.211Z" fill="#6C3E23"/>
<path d="M34.4968 94.8865L24.1745 99.2108L29.3146 111.245L39.5421 107.18L34.4968 94.8865Z" fill="#6C3E23"/>
<path d="M32.9968 119.865L39.4968 120.211L41.783 119.211L44.0691 118.211L39.5421 107.18L29.3146 111.245L32.9968 119.865Z" fill="#6C3E23"/>
<path d="M15.165 102.985L19.3339 115.211L29.3146 111.245L24.1745 99.2108L15.165 102.985Z" fill="#6C3E23"/>
<path d="M20.6979 119.211L32.9968 119.865L29.3146 111.245L19.3339 115.211L20.6979 119.211Z" fill="#6C3E23"/>
<path d="M52.4968 119.865L56.8003 119.865L59.4968 119.865L58.9968 117.711L54.3568 113.711L44.0691 118.211L41.783 119.211L48.9968 123.211L52.4968 119.865Z" fill="#BCB8B8"/>
<path d="M20.6979 119.211L19.3339 123.711L19.4968 132.211L23.5964 127.711L27.4968 126.711L29.9968 129.211L39.4968 120.211L32.9968 119.865L20.6979 119.211Z" fill="#BCB8B8"/>
<path d="M20.6979 119.211L19.3339 123.711L19.4968 132.211L23.5964 127.711L27.4968 126.711L29.9968 129.211M20.6979 119.211L32.9968 119.865M20.6979 119.211L19.3339 115.211M29.9968 129.211L39.4968 120.211M29.9968 129.211C36.545 127.99 51.3255 128.774 50.8699 137.5C50.4485 145.572 35.8699 145.852 29.6625 145.5M39.4968 120.211L32.9968 119.865M39.4968 120.211L41.783 119.211M32.9968 119.865L29.3146 111.245M56.8003 119.865L52.4968 119.865L48.9968 123.211L41.783 119.211M56.8003 119.865L59.4968 119.865L58.9968 117.711L54.3568 113.711M56.8003 119.865L67.5 145.5L35 159L29.6625 145.5M54.3568 113.711L44.0691 118.211M54.3568 113.711L50.0983 102.985M44.0691 118.211L41.783 119.211M44.0691 118.211L39.5421 107.18M19.3339 115.211C16.2366 119.641 13.2334 128.447 15.3699 134.5C18.3699 143 24.8699 145.229 29.6625 145.5M19.3339 115.211L15.165 102.985L24.1745 99.2108M19.3339 115.211L29.3146 111.245M50.0983 102.985L48.9968 100.211C41.3968 101.599 39.1635 96.459 38.4968 93.2108L34.4968 94.8865M50.0983 102.985L39.5421 107.18M24.1745 99.2108L34.4968 94.8865M24.1745 99.2108L29.3146 111.245M34.4968 94.8865L39.5421 107.18M39.5421 107.18L29.3146 111.245" stroke="black" stroke-width="3" stroke-linejoin="round"/>
<path d="M85.1917 104.346L110.385 112.503C111.777 109.044 112.405 100.186 103.579 96.5031C95.1917 93.0032 88.1149 99.4006 85.1917 104.346Z" fill="#B48A59"/>
<path d="M59.5199 126.476L64.0984 138.008C67.2516 136.171 69.815 134.815 70.1917 135.003C70.9917 135.403 76.1917 138.383 78.6917 139.823C78.0554 138.3 77.9419 136.653 78.6917 135.003C81.1917 129.503 88.3584 129.503 92.1917 130.503C91.6917 127.003 86.1917 122.503 81.6917 120.503C78.0917 118.903 72.525 122.836 70.1917 125.003L59.5199 126.476Z" fill="#FFE46C"/>
<path fill-rule="evenodd" clip-rule="evenodd" d="M111.402 118.003L109.501 122.863C106.188 128.745 99.3481 134.458 92.1917 130.503C91.6917 127.003 86.1917 122.503 81.6917 120.503C78.0917 118.903 72.525 122.836 70.1917 125.003L59.5199 126.476L67.1917 103.496L111.402 118.003ZM64.0984 138.008L67.8096 147.355L63.4461 148.983C73.7657 153.269 82.4562 155.508 95.9518 157.503L99.9965 147.162C95.4127 147.895 90.6094 147.534 87.6917 147.003C84.8589 146.488 80.2359 143.519 78.6917 139.823C76.1917 138.383 70.9917 135.403 70.1917 135.003C69.815 134.815 67.2516 136.171 64.0984 138.008Z" fill="#EA7920"/>
<path d="M85.1917 104.346L68.6917 99.0031L67.1917 103.496L111.402 118.003L113.197 113.414L110.385 112.503L85.1917 104.346Z" fill="#E2D4A9"/>
<path d="M63.4461 148.983L56.5 151.575C69.2239 157.709 78.2317 160.321 94.1917 162.003L95.9518 157.503C82.4562 155.508 73.7657 153.269 63.4461 148.983Z" fill="#C5C297"/>
<path d="M85.1917 104.346L68.6917 99.0031M85.1917 104.346L110.385 112.503M85.1917 104.346C88.1149 99.4006 95.1917 93.0032 103.579 96.5031C112.405 100.186 111.777 109.044 110.385 112.503M68.6917 99.0031L59.5199 126.476M68.6917 99.0031L67.1917 103.496M59.5199 126.476L64.0984 138.008M59.5199 126.476L67.1917 103.496M59.5199 126.476L70.1917 125.003C72.525 122.836 78.0917 118.903 81.6917 120.503C86.1917 122.503 91.6917 127.003 92.1917 130.503M64.0984 138.008L67.8096 147.355L63.4461 148.983M64.0984 138.008C67.2516 136.171 69.815 134.815 70.1917 135.003C70.9917 135.403 76.1917 138.383 78.6917 139.823M63.4461 148.983L56.5 151.575C69.2239 157.709 78.2317 160.321 94.1917 162.003M63.4461 148.983C73.7657 153.269 82.4562 155.508 95.9518 157.503M94.1917 162.003L99.9965 147.162M94.1917 162.003L95.9518 157.503M99.9965 147.162C95.4127 147.895 90.6094 147.534 87.6917 147.003C84.8589 146.488 80.2359 143.519 78.6917 139.823M99.9965 147.162L95.9518 157.503M78.6917 139.823C78.0554 138.3 77.9419 136.653 78.6917 135.003C81.1917 129.503 88.3584 129.503 92.1917 130.503M92.1917 130.503C99.3481 134.458 106.188 128.745 109.501 122.863M109.501 122.863L111.402 118.003M109.501 122.863C110.447 121.183 111.106 119.489 111.402 118.003M111.402 118.003L113.197 113.414L110.385 112.503M111.402 118.003L67.1917 103.496" stroke="black" stroke-width="3" stroke-linejoin="round"/>
<path d="M106.192 106.003C106.192 106.556 105.744 107.003 105.192 107.003C104.639 107.003 104.192 106.556 104.192 106.003C104.192 105.451 104.639 105.003 105.192 105.003C105.744 105.003 106.192 105.451 106.192 106.003Z" fill="#865D30" stroke="black"/>
<path d="M100.192 102.003C100.744 102.003 101.192 101.556 101.192 101.003C101.192 100.451 100.744 100.003 100.192 100.003C99.6394 100.003 99.1917 100.451 99.1917 101.003C99.1917 101.556 99.6394 102.003 100.192 102.003Z" fill="#865D30" stroke="black"/>
<path d="M95.1917 102.003C95.1917 102.556 94.7439 103.003 94.1917 103.003C93.6394 103.003 93.1917 102.556 93.1917 102.003C93.1917 101.451 93.6394 101.003 94.1917 101.003C94.7439 101.003 95.1917 101.451 95.1917 102.003Z" fill="#865D30" stroke="black"/>
<path fill-rule="evenodd" clip-rule="evenodd" d="M111.402 118.003C111.106 119.489 110.447 121.183 109.501 122.863C106.188 128.745 99.3481 134.458 92.1917 130.503C88.3584 129.503 81.1917 129.503 78.6917 135.003C77.9418 136.653 78.0554 138.3 78.6917 139.823C80.2359 143.519 84.8589 146.488 87.6917 147.003C90.6094 147.534 95.4127 147.895 99.9965 147.162C104.053 146.514 107.938 145.008 110.192 142.003C114.992 135.603 112.999 123.336 111.402 118.003Z" fill="#FEFEFC" stroke="black" stroke-width="3" stroke-linejoin="round"/>
</svg>
