<svg width="181" height="185" viewBox="0 0 181 185" fill="none" xmlns="http://www.w3.org/2000/svg">
<mask id="mask0_118_267" style="mask-type:alpha" maskUnits="userSpaceOnUse" x="0" y="0" width="181" height="185">
<rect width="181" height="185" fill="#D9D9D9"/>
</mask>
<g mask="url(#mask0_118_267)">
<path d="M57.4039 135.119C59.9662 135.755 63.0341 136.286 66.4457 136.708C68.1959 136.925 70.0365 137.113 71.9457 137.272C82.5745 138.155 95.3302 138.127 106.446 137.072C108.524 136.875 110.544 136.642 112.483 136.372C115.394 135.967 118.119 135.479 120.578 134.906C139.946 112 139.12 73.9615 128.62 57.9615C132.12 51.4615 137.12 35.9999 121.12 30.4615C108.12 25.9615 102.453 37.7949 101.12 44.4615C90.0383 42.4808 83.9035 42.528 73.12 44.9615C73.12 36.2949 64.12 24.2297 52.62 30.9615C36.22 40.5616 43.1199 52.9615 48.6199 57.9615C38.12 78.4615 39.4457 121 57.4039 135.119Z" fill="#BE8F36"/>
<path d="M117.329 233C114.929 233.8 104.662 233.333 99.8285 233C99.6297 236.187 99.6196 237.964 101 241C103 242.5 117.5 246.317 121 244C127.15 239.928 120.552 234.333 117.329 233Z" fill="#010604"/>
<path d="M80.8285 233C75.4952 233.833 64.4285 235 62.8285 233C60.3857 235.333 56.6 240.3 61 243.5C63.3061 245.177 76.5 244.5 80.8285 241C81.0061 238.183 80.9896 236.401 80.8285 233Z" fill="#010604"/>
<path d="M89.8285 199L83.8285 207.5L59.8285 201.929C60.1619 211.452 61.2285 231 62.8285 233C64.4285 235 75.4952 233.833 80.8285 233C81.3285 226.333 83.8285 213.1 89.8285 213.5C95.8285 213.9 98.9952 226.667 99.8285 233C104.662 233.333 114.929 233.8 117.329 233C119.729 232.2 119.995 212.08 119.829 202.121L95.8285 207.5L89.8285 199Z" fill="#253546"/>
<path d="M84.8285 177.611C74.569 182.211 63.9287 184.482 56.8285 180.088L55.8285 201L59.8285 201.929L83.8285 207.5L89.8285 199L95.8285 207.5L119.829 202.121L124.829 201L122.829 180C111.111 187.038 93.9253 182.707 84.8285 177.611Z" fill="#253546"/>
<path d="M122.829 180C126.99 177.5 129.071 174.179 130.829 167.5C134.597 153.18 129.194 142.514 120.578 134.906C118.119 135.479 115.394 135.967 112.483 136.372L115.052 147L107.829 151C109.431 152.167 112.606 155.3 112.483 158.5C113.711 159.532 114.652 160.975 115.052 163C112.652 166.174 108.4 165.895 105.829 165C104.752 165.817 103.606 166.655 102.4 167.5C97.2932 171.079 91.1328 174.785 84.8285 177.611C93.9253 182.707 111.111 187.038 122.829 180Z" fill="#253546"/>
<path d="M48.8285 165C49.816 172.801 52.7335 177.553 56.8285 180.088C63.9287 184.482 74.569 182.211 84.8285 177.611C91.1328 174.785 97.2932 171.079 102.4 167.5C100.306 162.923 98.4565 160.288 94.3285 155.5C92.1109 154.089 88.022 155.074 83.8285 156.868C83.1622 157.153 82.4931 157.458 81.8285 157.778C80.9831 158.184 80.1449 158.613 79.3285 159.052C76.8124 160.405 74.5033 161.849 72.8285 163C71.9952 164.833 68.6285 168 61.8285 166C55.0285 164 59.9952 157.167 63.3285 154L70.3285 151L63.3285 147.5L66.4457 136.708C63.0341 136.286 59.9662 135.755 57.4039 135.119C51.1351 142.08 47.1563 151.789 48.8285 165Z" fill="#253546"/>
<path d="M66.4457 136.708L63.3285 147.5L70.3285 151L63.3285 154C66.8285 153.535 74.9285 153.894 79.3285 159.052C80.1449 158.613 80.9831 158.184 81.8285 157.778L78.1442 150.5L71.9457 137.272C70.0365 137.113 68.1959 136.925 66.4457 136.708Z" fill="#253546"/>
<path d="M99.8285 155.5L99.8491 155.519C100.125 155.749 101.057 155.782 102.336 155.827C105.137 155.925 109.603 156.082 112.483 158.5C112.606 155.3 109.431 152.167 107.829 151L115.052 147L112.483 136.372C110.544 136.642 108.524 136.875 106.446 137.072L100.449 151.5L98.8285 155.114C99.271 155.177 99.6264 155.298 99.8285 155.5Z" fill="#253546"/>
<path d="M88.3285 140L81.8285 146.701L85.8285 151.5H92.3285L95.706 147L88.3285 140Z" fill="#5A302F"/>
<path d="M83.8285 156.868C88.022 155.074 92.1109 154.089 94.3285 155.5L92.3285 151.5H85.8285L83.8285 156.868Z" fill="#5A302F"/>
<path d="M105.829 165C108.4 165.895 112.652 166.174 115.052 163C114.652 160.975 113.711 159.532 112.483 158.5C109.603 156.082 105.137 155.925 102.336 155.827C101.057 155.782 100.125 155.749 99.8491 155.519C103.286 158.657 104.717 160.676 105.829 165Z" fill="#BE8F36"/>
<path fill-rule="evenodd" clip-rule="evenodd" d="M78.1442 150.5L71.9457 137.272C82.5745 138.155 95.3302 138.127 106.446 137.072L100.449 151.5L98.8285 155.114C99.271 155.177 99.6264 155.298 99.8285 155.5L99.8491 155.519C103.286 158.657 104.717 160.676 105.829 165C104.752 165.817 103.606 166.655 102.4 167.5C100.306 162.923 98.4565 160.288 94.3285 155.5L92.3285 151.5L95.706 147L88.3285 140L81.8285 146.701L85.8285 151.5L83.8285 156.868C83.1622 157.153 82.4931 157.458 81.8285 157.778L78.1442 150.5Z" fill="#D9D9D9"/>
<path d="M63.3285 154C59.9952 157.167 55.0285 164 61.8285 166C68.6285 168 71.9952 164.833 72.8285 163C74.5033 161.849 76.8124 160.405 79.3285 159.052C74.9285 153.894 66.8285 153.535 63.3285 154Z" fill="#BE8F36"/>
<path d="M48.6199 57.9615C53.0405 62.0044 66.62 56.5752 66.62 49.9615C66.62 45.9614 62.52 39.6615 64.12 38.4615M48.6199 57.9615C38.12 78.4615 39.4457 121 57.4039 135.119M48.6199 57.9615C43.1199 52.9615 36.22 40.5616 52.62 30.9615C64.12 24.2297 73.12 36.2949 73.12 44.9615C83.9035 42.528 90.0383 42.4808 101.12 44.4615C102.453 37.7949 108.12 25.9615 121.12 30.4615C137.12 35.9999 132.12 51.4615 128.62 57.9615M128.62 57.9615C125.442 60.84 110.251 60.4182 109.62 52.4615C109.29 48.3046 109.62 40.2616 111.62 39.4616M128.62 57.9615C139.12 73.9615 139.946 112 120.578 134.906M56.8285 180.088C52.7335 177.553 49.816 172.801 48.8285 165C47.1563 151.789 51.1351 142.08 57.4039 135.119M56.8285 180.088C63.9287 184.482 74.569 182.211 84.8285 177.611M56.8285 180.088L55.8285 201L59.8285 201.929M84.8285 177.611C93.9253 182.707 111.111 187.038 122.829 180M84.8285 177.611C91.1328 174.785 97.2932 171.079 102.4 167.5M122.829 180C126.99 177.5 129.071 174.179 130.829 167.5C134.597 153.18 129.194 142.514 120.578 134.906M122.829 180L124.829 201L119.829 202.121M59.8285 201.929L83.8285 207.5L89.8285 199L95.8285 207.5L119.829 202.121M59.8285 201.929C60.1619 211.452 61.2285 231 62.8285 233M62.8285 233C64.4285 235 75.4952 233.833 80.8285 233M62.8285 233C60.3857 235.333 56.6 240.3 61 243.5C63.3061 245.177 76.5 244.5 80.8285 241C81.006 238.183 80.9896 236.401 80.8285 233M80.8285 233C81.3285 226.333 83.8285 213.1 89.8285 213.5C95.8285 213.9 98.9952 226.667 99.8285 233M99.8285 233C104.662 233.333 114.929 233.8 117.329 233M99.8285 233C99.6297 236.187 99.6196 237.964 101 241C103 242.5 117.5 246.317 121 244C127.15 239.928 120.552 234.333 117.329 233M117.329 233C119.729 232.2 119.995 212.08 119.829 202.121M66.4457 136.708L63.3285 147.5L70.3285 151L63.3285 154M66.4457 136.708C63.0341 136.286 59.9662 135.755 57.4039 135.119M66.4457 136.708C68.1959 136.925 70.0365 137.113 71.9457 137.272M63.3285 154C59.9952 157.167 55.0285 164 61.8285 166C68.6285 168 71.9952 164.833 72.8285 163C74.5033 161.849 76.8124 160.405 79.3285 159.052M63.3285 154C66.8285 153.535 74.9285 153.894 79.3285 159.052M105.829 165C108.4 165.894 112.652 166.174 115.052 163M105.829 165C104.717 160.676 103.286 158.657 99.8491 155.519M105.829 165C104.752 165.817 103.606 166.655 102.4 167.5M115.052 163C116.229 161.443 116.96 159.055 116.829 155.5M115.052 163C114.652 160.975 113.711 159.532 112.483 158.5M99.8491 155.519C99.8423 155.513 99.8354 155.506 99.8285 155.5M99.8491 155.519L99.8285 155.5M99.8491 155.519C100.125 155.749 101.057 155.782 102.336 155.827C105.137 155.925 109.603 156.082 112.483 158.5M99.8285 155.5C99.6264 155.298 99.271 155.177 98.8285 155.114M102.4 167.5C100.306 162.923 98.4565 160.288 94.3285 155.5M94.3285 155.5C95.4495 155.251 97.5199 154.927 98.8285 155.114M94.3285 155.5C92.1109 154.089 88.022 155.074 83.8285 156.868M94.3285 155.5L92.3285 151.5M79.3285 159.052C80.1449 158.613 80.9831 158.184 81.8285 157.778M112.483 136.372L115.052 147L107.829 151C109.431 152.167 112.606 155.3 112.483 158.5M112.483 136.372C115.394 135.967 118.119 135.479 120.578 134.906M112.483 136.372C110.544 136.642 108.524 136.875 106.446 137.072M81.8285 157.778L78.1442 150.5M81.8285 157.778C82.4931 157.458 83.1622 157.153 83.8285 156.868M98.8285 155.114L100.449 151.5M71.9457 137.272L78.1442 150.5M71.9457 137.272C82.5745 138.155 95.3302 138.127 106.446 137.072M78.1442 150.5L81.8285 146.701M106.446 137.072L100.449 151.5M100.449 151.5L95.706 147M81.8285 146.701L88.3285 140L95.706 147M81.8285 146.701L85.8285 151.5M85.8285 151.5L83.8285 156.868M85.8285 151.5H92.3285M95.706 147L92.3285 151.5" stroke="black" stroke-width="2" stroke-linecap="round" stroke-linejoin="round"/>
<path d="M91 184.5C91 185.328 90.3284 186 89.5 186C88.6716 186 88 185.328 88 184.5C88 183.672 88.6716 183 89.5 183C90.3284 183 91 183.672 91 184.5Z" fill="black"/>
<path d="M91 192.5C91 193.328 90.3284 194 89.5 194C88.6716 194 88 193.328 88 192.5C88 191.672 88.6716 191 89.5 191C90.3284 191 91 191.672 91 192.5Z" fill="black"/>
<path d="M91 184.5C91 185.328 90.3284 186 89.5 186C88.6716 186 88 185.328 88 184.5C88 183.672 88.6716 183 89.5 183C90.3284 183 91 183.672 91 184.5Z" stroke="black"/>
<path d="M91 192.5C91 193.328 90.3284 194 89.5 194C88.6716 194 88 193.328 88 192.5C88 191.672 88.6716 191 89.5 191C90.3284 191 91 191.672 91 192.5Z" stroke="black"/>
<path d="M126 83.1544C126 87.0204 120.613 88.1544 111.5 88.1544C102.387 88.1544 96.6552 87.0204 96.6552 83.1544C96.6552 79.2884 102.387 77.1544 111.5 77.1544C120.613 77.1544 126 79.2884 126 83.1544Z" fill="#D9D9D9"/>
<path d="M80.9556 83.1544C80.9556 87.0204 75.1127 88.1544 66 88.1544C56.8873 88.1544 51 87.0204 51 83.1544C51 79.2884 56.8873 77.1544 66 77.1544C75.1127 77.1544 80.9556 79.2884 80.9556 83.1544Z" fill="#D9D9D9"/>
<path d="M126 83.1544C126 87.0204 120.613 88.1544 111.5 88.1544C102.387 88.1544 96.6552 87.0204 96.6552 83.1544C96.6552 79.2884 102.387 77.1544 111.5 77.1544C120.613 77.1544 126 79.2884 126 83.1544Z" stroke="black" stroke-width="2"/>
<path d="M80.9556 83.1544C80.9556 87.0204 75.1127 88.1544 66 88.1544C56.8873 88.1544 51 87.0204 51 83.1544C51 79.2884 56.8873 77.1544 66 77.1544C75.1127 77.1544 80.9556 79.2884 80.9556 83.1544Z" stroke="black" stroke-width="2"/>
<path d="M111 82.1695C111 83.818 109.6 85.1544 107.874 85.1544C106.147 85.1544 104.748 83.818 104.748 82.1695C104.748 80.521 106.147 79.1847 107.874 79.1847C109.6 79.1847 111 80.521 111 82.1695Z" fill="black"/>
<path d="M71.2524 82.1393C71.2524 83.7878 69.8528 85.1242 68.1262 85.1242C66.3997 85.1242 65 83.7878 65 82.1393C65 80.4908 66.3997 79.1544 68.1262 79.1544C69.8528 79.1544 71.2524 80.4908 71.2524 82.1393Z" fill="black"/>
<path d="M111 82.1695C111 83.818 109.6 85.1544 107.874 85.1544C106.147 85.1544 104.748 83.818 104.748 82.1695C104.748 80.521 106.147 79.1847 107.874 79.1847C109.6 79.1847 111 80.521 111 82.1695Z" stroke="black"/>
<path d="M71.2524 82.1393C71.2524 83.7878 69.8528 85.1242 68.1262 85.1242C66.3997 85.1242 65 83.7878 65 82.1393C65 80.4908 66.3997 79.1544 68.1262 79.1544C69.8528 79.1544 71.2524 80.4908 71.2524 82.1393Z" stroke="black"/>
<path d="M98.5 68.6544C107.893 65.6937 113.147 65.2621 122.5 66.1544M79.5 68.6544C72.1048 64.3458 67.241 64.3186 58 66.1544" stroke="black" stroke-width="2" stroke-linecap="round" stroke-linejoin="round"/>
<path d="M81 112.154C90.7182 113.454 94.9538 112.487 98.5 105.154" stroke="black" stroke-width="3" stroke-linecap="round" stroke-linejoin="round"/>
<path d="M89.6096 70.1544C89.943 71.9878 90.4096 75.7544 89.6096 76.1544M85.6096 70.1544C85.7763 71.9878 86.0096 75.7544 85.6096 76.1544" stroke="black" stroke-width="2" stroke-linecap="round" stroke-linejoin="round"/>
<path d="M97 95.1544C97 97.9158 93.1944 100.154 88.5 100.154C83.8056 100.154 80 97.9158 80 95.1544C80 92.393 83.8056 90.1544 88.5 90.1544C93.1944 90.1544 97 92.393 97 95.1544Z" fill="black" stroke="black" stroke-width="2"/>
<path d="M96.4732 78.9828C96.4687 76.8151 96.591 74.7618 96.7577 73.1544H127.46C130.969 81.9617 127.669 89.7761 125.58 92.5823C119.524 93.014 106.156 93.6185 101.144 92.5823C97.4642 91.8217 96.4856 84.9661 96.4732 78.9828ZM96.4732 78.9828H81.4826M81.4826 78.9828C80.7573 87.4179 78.5442 91.5098 77.3336 92.5823C71.2766 92.5823 58.0348 92.5823 53.5235 92.5823C49.0121 92.5823 48.7196 79.6304 49.1374 73.1544H81.7197C81.7197 75.2924 81.6332 77.2312 81.4826 78.9828Z" stroke="black" stroke-width="2" stroke-linecap="round" stroke-linejoin="round"/>
<path d="M129 103C129 105.761 124.415 108 118.759 108C113.102 108 108.517 105.761 108.517 103C108.517 100.239 113.102 98 118.759 98C124.415 98 129 100.239 129 103Z" fill="#E28C86"/>
<path d="M68.4828 103C68.4828 105.761 63.8975 108 58.2414 108C52.5852 108 48 105.761 48 103C48 100.239 52.5852 98 58.2414 98C63.8975 98 68.4828 100.239 68.4828 103Z" fill="#E28C86"/>
<path d="M129 103C129 105.761 124.415 108 118.759 108C113.102 108 108.517 105.761 108.517 103C108.517 100.239 113.102 98 118.759 98C124.415 98 129 100.239 129 103Z" stroke="#E28C86" stroke-width="2"/>
<path d="M68.4828 103C68.4828 105.761 63.8975 108 58.2414 108C52.5852 108 48 105.761 48 103C48 100.239 52.5852 98 58.2414 98C63.8975 98 68.4828 100.239 68.4828 103Z" stroke="#E28C86" stroke-width="2"/>
</g>
</svg>
