<svg width="181" height="185" viewBox="0 0 181 185" fill="none" xmlns="http://www.w3.org/2000/svg">
<mask id="mask0_118_281" style="mask-type:alpha" maskUnits="userSpaceOnUse" x="0" y="0" width="181" height="185">
<rect width="181" height="185" fill="#D9D9D9"/>
</mask>
<g mask="url(#mask0_118_281)">
<path d="M65.4039 135.119C67.9662 135.755 71.0341 136.286 74.4457 136.708C76.1959 136.925 78.0365 137.113 79.9457 137.272C90.5745 138.155 103.33 138.127 114.446 137.072C116.524 136.875 118.544 136.642 120.483 136.372C123.394 135.967 126.119 135.479 128.578 134.906C147.946 112 147.12 73.9615 136.62 57.9615C140.12 51.4615 145.12 35.9999 129.12 30.4615C116.12 25.9615 110.453 37.7949 109.12 44.4615C98.0383 42.4808 91.9035 42.528 81.12 44.9615C81.12 36.2949 72.12 24.2297 60.62 30.9615C44.22 40.5616 51.1199 52.9615 56.6199 57.9615C46.12 78.4615 47.4457 121 65.4039 135.119Z" fill="#BE8F36"/>
<path d="M125.329 233C122.929 233.8 112.662 233.333 107.829 233C107.63 236.187 107.62 237.964 109 241C111 242.5 125.5 246.317 129 244C135.15 239.928 128.552 234.333 125.329 233Z" fill="#010604"/>
<path d="M88.8285 233C83.4952 233.833 72.4285 235 70.8285 233C68.3857 235.333 64.6 240.3 69 243.5C71.3061 245.177 84.5 244.5 88.8285 241C89.0061 238.183 88.9896 236.401 88.8285 233Z" fill="#010604"/>
<path d="M97.8285 199L91.8285 207.5L67.8285 201.929C68.1619 211.452 69.2285 231 70.8285 233C72.4285 235 83.4952 233.833 88.8285 233C89.3285 226.333 91.8285 213.1 97.8285 213.5C103.829 213.9 106.995 226.667 107.829 233C112.662 233.333 122.929 233.8 125.329 233C127.729 232.2 127.995 212.08 127.829 202.121L103.829 207.5L97.8285 199Z" fill="#253546"/>
<path d="M92.8285 177.611C82.569 182.211 71.9287 184.482 64.8285 180.088L63.8285 201L67.8285 201.929L91.8285 207.5L97.8285 199L103.829 207.5L127.829 202.121L132.829 201L130.829 180C119.111 187.038 101.925 182.707 92.8285 177.611Z" fill="#253546"/>
<path d="M130.829 180C134.99 177.5 137.071 174.179 138.829 167.5C142.597 153.18 137.194 142.514 128.578 134.906C126.119 135.479 123.394 135.967 120.483 136.372L123.052 147L115.829 151C117.431 152.167 120.606 155.3 120.483 158.5C121.711 159.532 122.652 160.975 123.052 163C120.652 166.174 116.4 165.895 113.829 165C112.752 165.817 111.606 166.655 110.4 167.5C105.293 171.079 99.1328 174.785 92.8285 177.611C101.925 182.707 119.111 187.038 130.829 180Z" fill="#253546"/>
<path d="M56.8285 165C57.816 172.801 60.7335 177.553 64.8285 180.088C71.9287 184.482 82.569 182.211 92.8285 177.611C99.1328 174.785 105.293 171.079 110.4 167.5C108.306 162.923 106.457 160.288 102.329 155.5C100.111 154.089 96.022 155.074 91.8285 156.868C91.1622 157.153 90.4931 157.458 89.8285 157.778C88.9831 158.184 88.1449 158.613 87.3285 159.052C84.8124 160.405 82.5033 161.849 80.8285 163C79.9952 164.833 76.6285 168 69.8285 166C63.0285 164 67.9952 157.167 71.3285 154L78.3285 151L71.3285 147.5L74.4457 136.708C71.0341 136.286 67.9662 135.755 65.4039 135.119C59.1351 142.08 55.1563 151.789 56.8285 165Z" fill="#253546"/>
<path d="M74.4457 136.708L71.3285 147.5L78.3285 151L71.3285 154C74.8285 153.535 82.9285 153.894 87.3285 159.052C88.1449 158.613 88.9831 158.184 89.8285 157.778L86.1442 150.5L79.9457 137.272C78.0365 137.113 76.1959 136.925 74.4457 136.708Z" fill="#253546"/>
<path d="M107.829 155.5L107.849 155.519C108.125 155.749 109.057 155.782 110.336 155.827C113.137 155.925 117.603 156.082 120.483 158.5C120.606 155.3 117.431 152.167 115.829 151L123.052 147L120.483 136.372C118.544 136.642 116.524 136.875 114.446 137.072L108.449 151.5L106.829 155.114C107.271 155.177 107.626 155.298 107.829 155.5Z" fill="#253546"/>
<path d="M96.3285 140L89.8285 146.701L93.8285 151.5H100.329L103.706 147L96.3285 140Z" fill="#5A302F"/>
<path d="M91.8285 156.868C96.022 155.074 100.111 154.089 102.329 155.5L100.329 151.5H93.8285L91.8285 156.868Z" fill="#5A302F"/>
<path d="M113.829 165C116.4 165.895 120.652 166.174 123.052 163C122.652 160.975 121.711 159.532 120.483 158.5C117.603 156.082 113.137 155.925 110.336 155.827C109.057 155.782 108.125 155.749 107.849 155.519C111.286 158.657 112.717 160.676 113.829 165Z" fill="#BE8F36"/>
<path fill-rule="evenodd" clip-rule="evenodd" d="M86.1442 150.5L79.9457 137.272C90.5745 138.155 103.33 138.127 114.446 137.072L108.449 151.5L106.829 155.114C107.271 155.177 107.626 155.298 107.829 155.5L107.849 155.519C111.286 158.657 112.717 160.676 113.829 165C112.752 165.817 111.606 166.655 110.4 167.5C108.306 162.923 106.457 160.288 102.329 155.5L100.329 151.5L103.706 147L96.3285 140L89.8285 146.701L93.8285 151.5L91.8285 156.868C91.1622 157.153 90.4931 157.458 89.8285 157.778L86.1442 150.5Z" fill="#D9D9D9"/>
<path d="M71.3285 154C67.9952 157.167 63.0285 164 69.8285 166C76.6285 168 79.9952 164.833 80.8285 163C82.5033 161.849 84.8124 160.405 87.3285 159.052C82.9285 153.894 74.8285 153.535 71.3285 154Z" fill="#BE8F36"/>
<path d="M56.6199 57.9615C61.0405 62.0044 74.62 56.5752 74.62 49.9615C74.62 45.9614 70.52 39.6615 72.12 38.4615M56.6199 57.9615C46.12 78.4615 47.4457 121 65.4039 135.119M56.6199 57.9615C51.1199 52.9615 44.22 40.5616 60.62 30.9615C72.12 24.2297 81.12 36.2949 81.12 44.9615C91.9035 42.528 98.0383 42.4808 109.12 44.4615C110.453 37.7949 116.12 25.9615 129.12 30.4615C145.12 35.9999 140.12 51.4615 136.62 57.9615M136.62 57.9615C133.442 60.84 118.251 60.4182 117.62 52.4615C117.29 48.3046 117.62 40.2616 119.62 39.4616M136.62 57.9615C147.12 73.9615 147.946 112 128.578 134.906M64.8285 180.088C60.7335 177.553 57.816 172.801 56.8285 165C55.1563 151.789 59.1351 142.08 65.4039 135.119M64.8285 180.088C71.9287 184.482 82.569 182.211 92.8285 177.611M64.8285 180.088L63.8285 201L67.8285 201.929M92.8285 177.611C101.925 182.707 119.111 187.038 130.829 180M92.8285 177.611C99.1328 174.785 105.293 171.079 110.4 167.5M130.829 180C134.99 177.5 137.071 174.179 138.829 167.5C142.597 153.18 137.194 142.514 128.578 134.906M130.829 180L132.829 201L127.829 202.121M67.8285 201.929L91.8285 207.5L97.8285 199L103.829 207.5L127.829 202.121M67.8285 201.929C68.1619 211.452 69.2285 231 70.8285 233M70.8285 233C72.4285 235 83.4952 233.833 88.8285 233M70.8285 233C68.3857 235.333 64.6 240.3 69 243.5C71.3061 245.177 84.5 244.5 88.8285 241C89.006 238.183 88.9896 236.401 88.8285 233M88.8285 233C89.3285 226.333 91.8285 213.1 97.8285 213.5C103.829 213.9 106.995 226.667 107.829 233M107.829 233C112.662 233.333 122.929 233.8 125.329 233M107.829 233C107.63 236.187 107.62 237.964 109 241C111 242.5 125.5 246.317 129 244C135.15 239.928 128.552 234.333 125.329 233M125.329 233C127.729 232.2 127.995 212.08 127.829 202.121M74.4457 136.708L71.3285 147.5L78.3285 151L71.3285 154M74.4457 136.708C71.0341 136.286 67.9662 135.755 65.4039 135.119M74.4457 136.708C76.1959 136.925 78.0365 137.113 79.9457 137.272M71.3285 154C67.9952 157.167 63.0285 164 69.8285 166C76.6285 168 79.9952 164.833 80.8285 163C82.5033 161.849 84.8124 160.405 87.3285 159.052M71.3285 154C74.8285 153.535 82.9285 153.894 87.3285 159.052M113.829 165C116.4 165.894 120.652 166.174 123.052 163M113.829 165C112.717 160.676 111.286 158.657 107.849 155.519M113.829 165C112.752 165.817 111.606 166.655 110.4 167.5M123.052 163C124.229 161.443 124.96 159.055 124.829 155.5M123.052 163C122.652 160.975 121.711 159.532 120.483 158.5M107.849 155.519C107.842 155.513 107.835 155.506 107.829 155.5M107.849 155.519L107.829 155.5M107.849 155.519C108.125 155.749 109.057 155.782 110.336 155.827C113.137 155.925 117.603 156.082 120.483 158.5M107.829 155.5C107.626 155.298 107.271 155.177 106.829 155.114M110.4 167.5C108.306 162.923 106.457 160.288 102.329 155.5M102.329 155.5C103.45 155.251 105.52 154.927 106.829 155.114M102.329 155.5C100.111 154.089 96.022 155.074 91.8285 156.868M102.329 155.5L100.329 151.5M87.3285 159.052C88.1449 158.613 88.9831 158.184 89.8285 157.778M120.483 136.372L123.052 147L115.829 151C117.431 152.167 120.606 155.3 120.483 158.5M120.483 136.372C123.394 135.967 126.119 135.479 128.578 134.906M120.483 136.372C118.544 136.642 116.524 136.875 114.446 137.072M89.8285 157.778L86.1442 150.5M89.8285 157.778C90.4931 157.458 91.1622 157.153 91.8285 156.868M106.829 155.114L108.449 151.5M79.9457 137.272L86.1442 150.5M79.9457 137.272C90.5745 138.155 103.33 138.127 114.446 137.072M86.1442 150.5L89.8285 146.701M114.446 137.072L108.449 151.5M108.449 151.5L103.706 147M89.8285 146.701L96.3285 140L103.706 147M89.8285 146.701L93.8285 151.5M93.8285 151.5L91.8285 156.868M93.8285 151.5H100.329M103.706 147L100.329 151.5" stroke="black" stroke-width="2" stroke-linecap="round" stroke-linejoin="round"/>
<path d="M99 184.5C99 185.328 98.3284 186 97.5 186C96.6716 186 96 185.328 96 184.5C96 183.672 96.6716 183 97.5 183C98.3284 183 99 183.672 99 184.5Z" fill="black"/>
<path d="M99 192.5C99 193.328 98.3284 194 97.5 194C96.6716 194 96 193.328 96 192.5C96 191.672 96.6716 191 97.5 191C98.3284 191 99 191.672 99 192.5Z" fill="black"/>
<path d="M99 184.5C99 185.328 98.3284 186 97.5 186C96.6716 186 96 185.328 96 184.5C96 183.672 96.6716 183 97.5 183C98.3284 183 99 183.672 99 184.5Z" stroke="black"/>
<path d="M99 192.5C99 193.328 98.3284 194 97.5 194C96.6716 194 96 193.328 96 192.5C96 191.672 96.6716 191 97.5 191C98.3284 191 99 191.672 99 192.5Z" stroke="black"/>
<path d="M134 83.5C134 87.366 128.613 88.5 119.5 88.5C110.387 88.5 104.655 87.366 104.655 83.5C104.655 79.634 110.387 77.5 119.5 77.5C128.613 77.5 134 79.634 134 83.5Z" fill="#D9D9D9"/>
<path d="M88.9556 83.5C88.9556 87.366 83.1127 88.5 74 88.5C64.8873 88.5 59 87.366 59 83.5C59 79.634 64.8873 77.5 74 77.5C83.1127 77.5 88.9556 79.634 88.9556 83.5Z" fill="#D9D9D9"/>
<path d="M134 83.5C134 87.366 128.613 88.5 119.5 88.5C110.387 88.5 104.655 87.366 104.655 83.5C104.655 79.634 110.387 77.5 119.5 77.5C128.613 77.5 134 79.634 134 83.5Z" stroke="black" stroke-width="2"/>
<path d="M88.9556 83.5C88.9556 87.366 83.1127 88.5 74 88.5C64.8873 88.5 59 87.366 59 83.5C59 79.634 64.8873 77.5 74 77.5C83.1127 77.5 88.9556 79.634 88.9556 83.5Z" stroke="black" stroke-width="2"/>
<path d="M119 82.5151C119 84.1636 117.6 85.5 115.874 85.5C114.147 85.5 112.748 84.1636 112.748 82.5151C112.748 80.8666 114.147 79.5302 115.874 79.5302C117.6 79.5302 119 80.8666 119 82.5151Z" fill="black"/>
<path d="M79.2524 82.4849C79.2524 84.1334 77.8528 85.4698 76.1262 85.4698C74.3997 85.4698 73 84.1334 73 82.4849C73 80.8364 74.3997 79.5 76.1262 79.5C77.8528 79.5 79.2524 80.8364 79.2524 82.4849Z" fill="black"/>
<path d="M119 82.5151C119 84.1636 117.6 85.5 115.874 85.5C114.147 85.5 112.748 84.1636 112.748 82.5151C112.748 80.8666 114.147 79.5302 115.874 79.5302C117.6 79.5302 119 80.8666 119 82.5151Z" stroke="black"/>
<path d="M79.2524 82.4849C79.2524 84.1334 77.8528 85.4698 76.1262 85.4698C74.3997 85.4698 73 84.1334 73 82.4849C73 80.8364 74.3997 79.5 76.1262 79.5C77.8528 79.5 79.2524 80.8364 79.2524 82.4849Z" stroke="black"/>
<path d="M106.5 71.5L108 72.5L121.5 65M72.5 65L86.5 72.5L88.5 71" stroke="black" stroke-width="2" stroke-linecap="round" stroke-linejoin="round"/>
<path d="M84 112.5C84.5 111 86 109.5 87.5 109.5C89.5 109.5 91.5 114.5 95 111C97.1355 108.865 99.5 111 102 112C103.608 112.643 106 107 111 112.5" stroke="black" stroke-width="3" stroke-linecap="round" stroke-linejoin="round"/>
<path d="M101.5 66V82M97.5 63V83M93 65.5L93.5 82.5" stroke="black" stroke-width="2" stroke-linecap="round" stroke-linejoin="round"/>
<path d="M105 95.5C105 98.2614 101.194 100.5 96.5 100.5C91.8056 100.5 88 98.2614 88 95.5C88 92.7386 91.8056 90.5 96.5 90.5C101.194 90.5 105 92.7386 105 95.5Z" fill="black" stroke="black" stroke-width="2"/>
<path d="M104.473 79.3284C104.469 77.1606 104.591 75.1074 104.758 73.5H135.46C138.969 82.3073 135.669 90.1216 133.58 92.9279C127.524 93.3596 114.156 93.964 109.144 92.9279C105.464 92.1673 104.486 85.3117 104.473 79.3284ZM104.473 79.3284H89.4826M89.4826 79.3284C88.7573 87.7635 86.5442 91.8554 85.3336 92.9279C79.2766 92.9279 66.0348 92.9279 61.5235 92.9279C57.0121 92.9279 56.7196 79.976 57.1374 73.5H89.7197C89.7197 75.638 89.6332 77.5768 89.4826 79.3284Z" stroke="black" stroke-width="2" stroke-linecap="round" stroke-linejoin="round"/>
<path d="M72.4746 121.655C72.5425 121.728 72.6213 121.823 72.709 121.944C72.8649 122.159 73.0327 122.43 73.2012 122.741C73.5382 123.363 73.8665 124.12 74.1094 124.854C74.3553 125.597 74.5 126.276 74.5 126.757C74.5 127.774 74.1972 128.444 73.7715 128.86C73.3424 129.28 72.7293 129.5 72 129.5C71.2707 129.5 70.6576 129.28 70.2285 128.86C69.8028 128.444 69.5 127.774 69.5 126.757C69.5 125.85 70.021 125.182 70.7305 124.397C71.3826 123.676 72.2329 122.825 72.4746 121.655ZM125.475 116.655C125.543 116.728 125.621 116.823 125.709 116.944C125.865 117.159 126.033 117.43 126.201 117.741C126.538 118.363 126.866 119.12 127.109 119.854C127.355 120.597 127.5 121.276 127.5 121.757C127.5 122.774 127.197 123.444 126.771 123.86C126.342 124.28 125.729 124.5 125 124.5C124.271 124.5 123.658 124.28 123.229 123.86C122.803 123.444 122.5 122.774 122.5 121.757C122.5 120.85 123.021 120.182 123.73 119.397C124.383 118.676 125.233 117.825 125.475 116.655ZM62.4746 101.655C62.5425 101.728 62.6213 101.823 62.709 101.944C62.8649 102.159 63.0327 102.43 63.2012 102.741C63.5382 103.363 63.8665 104.12 64.1094 104.854C64.3553 105.597 64.5 106.276 64.5 106.757C64.5 107.774 64.1972 108.444 63.7715 108.86C63.3424 109.28 62.7293 109.5 62 109.5C61.2707 109.5 60.6576 109.28 60.2285 108.86C59.8028 108.444 59.5 107.774 59.5 106.757C59.5001 105.85 60.021 105.182 60.7305 104.397C61.3826 103.676 62.2329 102.825 62.4746 101.655ZM134.475 98.6553C134.543 98.7279 134.621 98.8234 134.709 98.9443C134.865 99.1593 135.033 99.4303 135.201 99.7412C135.538 100.363 135.866 101.12 136.109 101.854C136.355 102.597 136.5 103.276 136.5 103.757C136.5 104.774 136.197 105.444 135.771 105.86C135.342 106.28 134.729 106.5 134 106.5C133.271 106.5 132.658 106.28 132.229 105.86C131.803 105.444 131.5 104.774 131.5 103.757C131.5 102.85 132.021 102.182 132.73 101.397C133.383 100.676 134.233 99.8249 134.475 98.6553ZM111.475 51.6553C111.543 51.7279 111.621 51.8234 111.709 51.9443C111.865 52.1593 112.033 52.4303 112.201 52.7412C112.538 53.3632 112.866 54.1195 113.109 54.8535C113.355 55.5967 113.5 56.2764 113.5 56.7568C113.5 57.7743 113.197 58.4441 112.771 58.8604C112.342 59.2799 111.729 59.5 111 59.5C110.271 59.5 109.658 59.2799 109.229 58.8604C108.803 58.4441 108.5 57.7743 108.5 56.7568C108.5 55.8498 109.021 55.1823 109.73 54.3975C110.383 53.6761 111.233 52.8249 111.475 51.6553ZM83.4746 47.6553C83.5425 47.7279 83.6213 47.8234 83.709 47.9443C83.8649 48.1593 84.0327 48.4303 84.2012 48.7412C84.5382 49.3632 84.8665 50.1195 85.1094 50.8535C85.3553 51.5967 85.5 52.2764 85.5 52.7568C85.5 53.7743 85.1972 54.4441 84.7715 54.8604C84.3424 55.2799 83.7293 55.5 83 55.5C82.2707 55.5 81.6576 55.2799 81.2285 54.8604C80.8028 54.4441 80.5 53.7743 80.5 52.7568C80.5001 51.8498 81.021 51.1823 81.7305 50.3975C82.3826 49.6761 83.2329 48.8249 83.4746 47.6553Z" fill="#BFD9EE"/>
<path d="M72.4746 121.655C72.5425 121.728 72.6213 121.823 72.709 121.944C72.8649 122.159 73.0327 122.43 73.2012 122.741C73.5382 123.363 73.8665 124.12 74.1094 124.854C74.3553 125.597 74.5 126.276 74.5 126.757C74.5 127.774 74.1972 128.444 73.7715 128.86C73.3424 129.28 72.7293 129.5 72 129.5C71.2707 129.5 70.6576 129.28 70.2285 128.86C69.8028 128.444 69.5 127.774 69.5 126.757C69.5 125.85 70.021 125.182 70.7305 124.397C71.3826 123.676 72.2329 122.825 72.4746 121.655ZM125.475 116.655C125.543 116.728 125.621 116.823 125.709 116.944C125.865 117.159 126.033 117.43 126.201 117.741C126.538 118.363 126.866 119.12 127.109 119.854C127.355 120.597 127.5 121.276 127.5 121.757C127.5 122.774 127.197 123.444 126.771 123.86C126.342 124.28 125.729 124.5 125 124.5C124.271 124.5 123.658 124.28 123.229 123.86C122.803 123.444 122.5 122.774 122.5 121.757C122.5 120.85 123.021 120.182 123.73 119.397C124.383 118.676 125.233 117.825 125.475 116.655ZM62.4746 101.655C62.5425 101.728 62.6213 101.823 62.709 101.944C62.8649 102.159 63.0327 102.43 63.2012 102.741C63.5382 103.363 63.8665 104.12 64.1094 104.854C64.3553 105.597 64.5 106.276 64.5 106.757C64.5 107.774 64.1972 108.444 63.7715 108.86C63.3424 109.28 62.7293 109.5 62 109.5C61.2707 109.5 60.6576 109.28 60.2285 108.86C59.8028 108.444 59.5 107.774 59.5 106.757C59.5001 105.85 60.021 105.182 60.7305 104.397C61.3826 103.676 62.2329 102.825 62.4746 101.655ZM134.475 98.6553C134.543 98.7279 134.621 98.8234 134.709 98.9443C134.865 99.1593 135.033 99.4303 135.201 99.7412C135.538 100.363 135.866 101.12 136.109 101.854C136.355 102.597 136.5 103.276 136.5 103.757C136.5 104.774 136.197 105.444 135.771 105.86C135.342 106.28 134.729 106.5 134 106.5C133.271 106.5 132.658 106.28 132.229 105.86C131.803 105.444 131.5 104.774 131.5 103.757C131.5 102.85 132.021 102.182 132.73 101.397C133.383 100.676 134.233 99.8249 134.475 98.6553ZM111.475 51.6553C111.543 51.7279 111.621 51.8234 111.709 51.9443C111.865 52.1593 112.033 52.4303 112.201 52.7412C112.538 53.3632 112.866 54.1195 113.109 54.8535C113.355 55.5967 113.5 56.2764 113.5 56.7568C113.5 57.7743 113.197 58.4441 112.771 58.8604C112.342 59.2799 111.729 59.5 111 59.5C110.271 59.5 109.658 59.2799 109.229 58.8604C108.803 58.4441 108.5 57.7743 108.5 56.7568C108.5 55.8498 109.021 55.1823 109.73 54.3975C110.383 53.6761 111.233 52.8249 111.475 51.6553ZM83.4746 47.6553C83.5425 47.7279 83.6213 47.8234 83.709 47.9443C83.8649 48.1593 84.0327 48.4303 84.2012 48.7412C84.5382 49.3632 84.8665 50.1195 85.1094 50.8535C85.3553 51.5967 85.5 52.2764 85.5 52.7568C85.5 53.7743 85.1972 54.4441 84.7715 54.8604C84.3424 55.2799 83.7293 55.5 83 55.5C82.2707 55.5 81.6576 55.2799 81.2285 54.8604C80.8028 54.4441 80.5 53.7743 80.5 52.7568C80.5001 51.8498 81.021 51.1823 81.7305 50.3975C82.3826 49.6761 83.2329 48.8249 83.4746 47.6553Z" stroke="#A5C3DB"/>
<path d="M72.4746 121.655C72.5425 121.728 72.6213 121.823 72.709 121.944C72.8649 122.159 73.0327 122.43 73.2012 122.741C73.5382 123.363 73.8665 124.12 74.1094 124.854C74.3553 125.597 74.5 126.276 74.5 126.757C74.5 127.774 74.1972 128.444 73.7715 128.86C73.3424 129.28 72.7293 129.5 72 129.5C71.2707 129.5 70.6576 129.28 70.2285 128.86C69.8028 128.444 69.5 127.774 69.5 126.757C69.5 125.85 70.021 125.182 70.7305 124.397C71.3826 123.676 72.2329 122.825 72.4746 121.655ZM125.475 116.655C125.543 116.728 125.621 116.823 125.709 116.944C125.865 117.159 126.033 117.43 126.201 117.741C126.538 118.363 126.866 119.12 127.109 119.854C127.355 120.597 127.5 121.276 127.5 121.757C127.5 122.774 127.197 123.444 126.771 123.86C126.342 124.28 125.729 124.5 125 124.5C124.271 124.5 123.658 124.28 123.229 123.86C122.803 123.444 122.5 122.774 122.5 121.757C122.5 120.85 123.021 120.182 123.73 119.397C124.383 118.676 125.233 117.825 125.475 116.655ZM62.4746 101.655C62.5425 101.728 62.6213 101.823 62.709 101.944C62.8649 102.159 63.0327 102.43 63.2012 102.741C63.5382 103.363 63.8665 104.12 64.1094 104.854C64.3553 105.597 64.5 106.276 64.5 106.757C64.5 107.774 64.1972 108.444 63.7715 108.86C63.3424 109.28 62.7293 109.5 62 109.5C61.2707 109.5 60.6576 109.28 60.2285 108.86C59.8028 108.444 59.5 107.774 59.5 106.757C59.5001 105.85 60.021 105.182 60.7305 104.397C61.3826 103.676 62.2329 102.825 62.4746 101.655ZM134.475 98.6553C134.543 98.7279 134.621 98.8234 134.709 98.9443C134.865 99.1593 135.033 99.4303 135.201 99.7412C135.538 100.363 135.866 101.12 136.109 101.854C136.355 102.597 136.5 103.276 136.5 103.757C136.5 104.774 136.197 105.444 135.771 105.86C135.342 106.28 134.729 106.5 134 106.5C133.271 106.5 132.658 106.28 132.229 105.86C131.803 105.444 131.5 104.774 131.5 103.757C131.5 102.85 132.021 102.182 132.73 101.397C133.383 100.676 134.233 99.8249 134.475 98.6553ZM111.475 51.6553C111.543 51.7279 111.621 51.8234 111.709 51.9443C111.865 52.1593 112.033 52.4303 112.201 52.7412C112.538 53.3632 112.866 54.1195 113.109 54.8535C113.355 55.5967 113.5 56.2764 113.5 56.7568C113.5 57.7743 113.197 58.4441 112.771 58.8604C112.342 59.2799 111.729 59.5 111 59.5C110.271 59.5 109.658 59.2799 109.229 58.8604C108.803 58.4441 108.5 57.7743 108.5 56.7568C108.5 55.8498 109.021 55.1823 109.73 54.3975C110.383 53.6761 111.233 52.8249 111.475 51.6553ZM83.4746 47.6553C83.5425 47.7279 83.6213 47.8234 83.709 47.9443C83.8649 48.1593 84.0327 48.4303 84.2012 48.7412C84.5382 49.3632 84.8665 50.1195 85.1094 50.8535C85.3553 51.5967 85.5 52.2764 85.5 52.7568C85.5 53.7743 85.1972 54.4441 84.7715 54.8604C84.3424 55.2799 83.7293 55.5 83 55.5C82.2707 55.5 81.6576 55.2799 81.2285 54.8604C80.8028 54.4441 80.5 53.7743 80.5 52.7568C80.5001 51.8498 81.021 51.1823 81.7305 50.3975C82.3826 49.6761 83.2329 48.8249 83.4746 47.6553Z" stroke="#A5C3DB"/>
</g>
</svg>
