<svg width="96" height="218" viewBox="0 0 96 218" fill="none" xmlns="http://www.w3.org/2000/svg">
<path d="M16.4037 107.119C18.9661 107.755 22.034 108.286 25.4456 108.708C27.1958 108.925 29.0364 109.113 30.9456 109.272C41.5743 110.155 54.3301 110.128 65.4456 109.072C67.5236 108.875 69.5441 108.642 71.4828 108.372C74.3934 107.967 77.1194 107.479 79.5774 106.906C98.9456 84.0001 98.1198 45.9616 87.6198 29.9616C91.1198 23.4615 96.1199 8 80.1199 2.46155C67.1199 -2.03845 61.4532 9.79492 60.1199 16.4616C49.0382 14.4808 42.9034 14.528 32.1199 16.9616C32.1199 8.29492 23.1199 -3.7702 11.6199 2.96161C-4.7801 12.5617 2.1198 24.9616 7.6198 29.9616C-2.88008 50.4616 -1.55439 93.0001 16.4037 107.119Z" fill="#BE8F36"/>
<path d="M76.3284 205C73.9284 205.8 63.6618 205.333 58.8284 205C58.6296 208.187 58.6194 209.964 59.9999 213C61.9999 214.5 76.4999 218.317 79.9999 216C86.1499 211.929 79.5522 206.333 76.3284 205Z" fill="#010604"/>
<path d="M39.8284 205C34.4951 205.833 23.4284 207 21.8284 205C19.3856 207.333 15.5999 212.3 19.9999 215.5C22.306 217.177 35.4999 216.5 39.8284 213C40.0059 210.183 39.9895 208.401 39.8284 205Z" fill="#010604"/>
<path d="M48.8284 171L42.8284 179.5L18.8284 173.929C19.1618 183.452 20.2284 203 21.8284 205C23.4284 207 34.4951 205.833 39.8284 205C40.3284 198.333 42.8284 185.1 48.8284 185.5C54.8284 185.9 57.9951 198.667 58.8284 205C63.6618 205.333 73.9284 205.8 76.3284 205C78.7284 204.2 78.9951 184.081 78.8284 174.121L54.8284 179.5L48.8284 171Z" fill="#253546"/>
<path d="M43.8284 149.611C33.5689 154.211 22.9286 156.482 15.8284 152.088L14.8284 173L18.8284 173.929L42.8284 179.5L48.8284 171L54.8284 179.5L78.8284 174.121L83.8284 173L81.8284 152C70.1111 159.038 52.9252 154.707 43.8284 149.611Z" fill="#253546"/>
<path d="M81.8284 152C85.9904 149.5 88.0708 146.179 89.8284 139.5C93.5968 125.18 88.194 114.514 79.5774 106.906C77.1194 107.479 74.3934 107.967 71.4828 108.372L74.0515 119L66.8284 123C68.4313 124.167 71.6063 127.3 71.4828 130.5C72.7114 131.532 73.6516 132.975 74.0515 135C71.652 138.174 67.4001 137.895 64.8284 137C63.7523 137.818 62.6055 138.655 61.4 139.5C56.2931 143.079 50.1326 146.785 43.8284 149.611C52.9252 154.707 70.1111 159.038 81.8284 152Z" fill="#253546"/>
<path d="M7.82842 137C8.8159 144.801 11.7333 149.553 15.8284 152.088C22.9286 156.482 33.5689 154.211 43.8284 149.611C50.1326 146.785 56.2931 143.079 61.4 139.5C59.306 134.923 57.4564 132.288 53.3284 127.5C51.1108 126.089 47.0219 127.074 42.8284 128.868C42.162 129.153 41.493 129.458 40.8284 129.778C39.983 130.184 39.1448 130.613 38.3284 131.052C35.8123 132.405 33.5032 133.849 31.8284 135C30.9951 136.833 27.6284 140 20.8284 138C14.0284 136 18.9951 129.167 22.3284 126L29.3284 123L22.3284 119.5L25.4456 108.708C22.034 108.286 18.9661 107.755 16.4037 107.119C10.135 114.08 6.15618 123.789 7.82842 137Z" fill="#253546"/>
<path d="M25.4456 108.708L22.3284 119.5L29.3284 123L22.3284 126C25.8284 125.535 33.9284 125.894 38.3284 131.052C39.1448 130.613 39.983 130.184 40.8284 129.778L37.1441 122.5L30.9456 109.272C29.0364 109.113 27.1958 108.925 25.4456 108.708Z" fill="#253546"/>
<path d="M58.8284 127.5L58.849 127.519C59.125 127.749 60.0571 127.782 61.3361 127.827C64.1373 127.925 68.6024 128.082 71.4828 130.5C71.6063 127.3 68.4313 124.167 66.8284 123L74.0515 119L71.4828 108.372C69.5441 108.642 67.5236 108.875 65.4456 109.072L59.4485 123.5L57.8284 127.114C58.2709 127.177 58.6263 127.298 58.8284 127.5Z" fill="#253546"/>
<path d="M47.3284 112L40.8284 118.702L44.8284 123.5H51.3284L54.7059 119L47.3284 112Z" fill="#5A302F"/>
<path d="M42.8284 128.868C47.0219 127.074 51.1108 126.089 53.3284 127.5L51.3284 123.5H44.8284L42.8284 128.868Z" fill="#5A302F"/>
<path d="M64.8284 137C67.4001 137.895 71.652 138.174 74.0515 135C73.6516 132.975 72.7114 131.532 71.4828 130.5C68.6024 128.082 64.1373 127.925 61.3361 127.827C60.0571 127.782 59.125 127.749 58.849 127.519C62.2857 130.657 63.7173 132.676 64.8284 137Z" fill="#BE8F36"/>
<path fill-rule="evenodd" clip-rule="evenodd" d="M37.1441 122.5L30.9456 109.272C41.5743 110.155 54.3301 110.128 65.4456 109.072L59.4485 123.5L57.8284 127.114C58.2709 127.177 58.6263 127.298 58.8284 127.5L58.849 127.519C62.2857 130.657 63.7173 132.676 64.8284 137C63.7523 137.818 62.6055 138.655 61.4 139.5C59.306 134.923 57.4564 132.288 53.3284 127.5L51.3284 123.5L54.7059 119L47.3284 112L40.8284 118.702L44.8284 123.5L42.8284 128.868C42.162 129.153 41.493 129.458 40.8284 129.778L37.1441 122.5Z" fill="#D9D9D9"/>
<path d="M22.3284 126C18.9951 129.167 14.0284 136 20.8284 138C27.6284 140 30.9951 136.833 31.8284 135C33.5032 133.849 35.8123 132.405 38.3284 131.052C33.9284 125.894 25.8284 125.535 22.3284 126Z" fill="#BE8F36"/>
<path d="M7.6198 29.9616C12.0404 34.0045 25.6198 28.5753 25.6198 21.9616C25.6198 17.9615 21.5198 11.6616 23.1198 10.4616M7.6198 29.9616C-2.88008 50.4616 -1.55439 93.0001 16.4037 107.119M7.6198 29.9616C2.1198 24.9616 -4.7801 12.5617 11.6199 2.96161C23.1199 -3.7702 32.1199 8.29492 32.1199 16.9616C42.9034 14.528 49.0382 14.4808 60.1199 16.4616C61.4532 9.79492 67.1199 -2.03845 80.1199 2.46155C96.1199 8 91.1198 23.4615 87.6198 29.9616M87.6198 29.9616C84.4423 32.8401 69.2509 32.4182 68.6199 24.4616C68.2901 20.3046 68.6199 12.2617 70.6199 11.4616M87.6198 29.9616C98.1198 45.9616 98.9456 84.0001 79.5774 106.906M15.8284 152.088C11.7333 149.553 8.8159 144.801 7.82842 137C6.15618 123.789 10.135 114.08 16.4037 107.119M15.8284 152.088C22.9286 156.482 33.5689 154.211 43.8284 149.611M15.8284 152.088L14.8284 173L18.8284 173.929M43.8284 149.611C52.9252 154.707 70.1111 159.038 81.8284 152M43.8284 149.611C50.1326 146.785 56.2931 143.079 61.4 139.5M81.8284 152C85.9904 149.5 88.0708 146.179 89.8284 139.5C93.5968 125.18 88.194 114.514 79.5774 106.906M81.8284 152L83.8284 173L78.8284 174.121M18.8284 173.929L42.8284 179.5L48.8284 171L54.8284 179.5L78.8284 174.121M18.8284 173.929C19.1618 183.452 20.2284 203 21.8284 205M21.8284 205C23.4284 207 34.4951 205.833 39.8284 205M21.8284 205C19.3856 207.333 15.5999 212.3 19.9999 215.5C22.306 217.177 35.4999 216.5 39.8284 213C40.0059 210.183 39.9895 208.401 39.8284 205M39.8284 205C40.3284 198.333 42.8284 185.1 48.8284 185.5C54.8284 185.9 57.9951 198.667 58.8284 205M58.8284 205C63.6618 205.333 73.9284 205.8 76.3284 205M58.8284 205C58.6296 208.187 58.6194 209.964 59.9999 213C61.9999 214.5 76.4999 218.317 79.9999 216C86.1499 211.929 79.5522 206.333 76.3284 205M76.3284 205C78.7284 204.2 78.9951 184.081 78.8284 174.121M25.4456 108.708L22.3284 119.5L29.3284 123L22.3284 126M25.4456 108.708C22.034 108.286 18.9661 107.755 16.4037 107.119M25.4456 108.708C27.1958 108.925 29.0364 109.113 30.9456 109.272M22.3284 126C18.9951 129.167 14.0284 136 20.8284 138C27.6284 140 30.9951 136.833 31.8284 135C33.5032 133.849 35.8123 132.405 38.3284 131.052M22.3284 126C25.8284 125.535 33.9284 125.894 38.3284 131.052M64.8284 137C67.4001 137.895 71.652 138.174 74.0515 135M64.8284 137C63.7173 132.676 62.2857 130.657 58.849 127.519M64.8284 137C63.7523 137.818 62.6055 138.655 61.4 139.5M74.0515 135C75.2287 133.443 75.9601 131.055 75.8284 127.5M74.0515 135C73.6516 132.975 72.7114 131.532 71.4828 130.5M58.849 127.519C58.8422 127.513 58.8353 127.506 58.8284 127.5M58.849 127.519L58.8284 127.5M58.849 127.519C59.125 127.749 60.0571 127.782 61.3361 127.827C64.1373 127.925 68.6024 128.082 71.4828 130.5M58.8284 127.5C58.6263 127.298 58.2709 127.177 57.8284 127.114M61.4 139.5C59.306 134.923 57.4564 132.288 53.3284 127.5M53.3284 127.5C54.4494 127.251 56.5198 126.927 57.8284 127.114M53.3284 127.5C51.1108 126.089 47.0219 127.074 42.8284 128.868M53.3284 127.5L51.3284 123.5M38.3284 131.052C39.1448 130.613 39.983 130.184 40.8284 129.778M71.4828 108.372L74.0515 119L66.8284 123C68.4313 124.167 71.6063 127.3 71.4828 130.5M71.4828 108.372C74.3934 107.967 77.1194 107.479 79.5774 106.906M71.4828 108.372C69.5441 108.642 67.5236 108.875 65.4456 109.072M40.8284 129.778L37.1441 122.5M40.8284 129.778C41.493 129.458 42.162 129.153 42.8284 128.868M57.8284 127.114L59.4485 123.5M30.9456 109.272L37.1441 122.5M30.9456 109.272C41.5743 110.155 54.3301 110.128 65.4456 109.072M37.1441 122.5L40.8284 118.702M65.4456 109.072L59.4485 123.5M59.4485 123.5L54.7059 119M40.8284 118.702L47.3284 112L54.7059 119M40.8284 118.702L44.8284 123.5M44.8284 123.5L42.8284 128.868M44.8284 123.5H51.3284M54.7059 119L51.3284 123.5" stroke="black" stroke-width="2" stroke-linecap="round" stroke-linejoin="round"/>
<path d="M49.9999 156.5C49.9999 157.328 49.3283 158 48.4999 158C47.6715 158 46.9999 157.328 46.9999 156.5C46.9999 155.672 47.6715 155 48.4999 155C49.3283 155 49.9999 155.672 49.9999 156.5Z" fill="black"/>
<path d="M49.9999 164.5C49.9999 165.328 49.3283 166 48.4999 166C47.6715 166 46.9999 165.328 46.9999 164.5C46.9999 163.672 47.6715 163 48.4999 163C49.3283 163 49.9999 163.672 49.9999 164.5Z" fill="black"/>
<path d="M49.9999 156.5C49.9999 157.328 49.3283 158 48.4999 158C47.6715 158 46.9999 157.328 46.9999 156.5C46.9999 155.672 47.6715 155 48.4999 155C49.3283 155 49.9999 155.672 49.9999 156.5Z" stroke="black"/>
<path d="M49.9999 164.5C49.9999 165.328 49.3283 166 48.4999 166C47.6715 166 46.9999 165.328 46.9999 164.5C46.9999 163.672 47.6715 163 48.4999 163C49.3283 163 49.9999 163.672 49.9999 164.5Z" stroke="black"/>
<path d="M84.9999 55.1545C84.9999 59.0205 79.6126 60.1545 70.4999 60.1545C61.3872 60.1545 55.6551 59.0205 55.6551 55.1545C55.6551 51.2885 61.3872 49.1545 70.4999 49.1545C79.6126 49.1545 84.9999 51.2885 84.9999 55.1545Z" fill="#D9D9D9"/>
<path d="M39.9554 55.1545C39.9554 59.0205 34.1126 60.1545 24.9999 60.1545C15.8872 60.1545 9.99988 59.0205 9.99988 55.1545C9.99988 51.2885 15.8872 49.1545 24.9999 49.1545C34.1126 49.1545 39.9554 51.2885 39.9554 55.1545Z" fill="#D9D9D9"/>
<path d="M84.9999 55.1545C84.9999 59.0205 79.6126 60.1545 70.4999 60.1545C61.3872 60.1545 55.6551 59.0205 55.6551 55.1545C55.6551 51.2885 61.3872 49.1545 70.4999 49.1545C79.6126 49.1545 84.9999 51.2885 84.9999 55.1545Z" stroke="black" stroke-width="2"/>
<path d="M39.9554 55.1545C39.9554 59.0205 34.1126 60.1545 24.9999 60.1545C15.8872 60.1545 9.99988 59.0205 9.99988 55.1545C9.99988 51.2885 15.8872 49.1545 24.9999 49.1545C34.1126 49.1545 39.9554 51.2885 39.9554 55.1545Z" stroke="black" stroke-width="2"/>
<path d="M69.9999 54.1696C69.9999 55.8181 68.6002 57.1545 66.8737 57.1545C65.1471 57.1545 63.7474 55.8181 63.7474 54.1696C63.7474 52.5211 65.1471 51.1847 66.8737 51.1847C68.6002 51.1847 69.9999 52.5211 69.9999 54.1696Z" fill="black"/>
<path d="M30.2523 54.1394C30.2523 55.7879 28.8527 57.1242 27.1261 57.1242C25.3995 57.1242 23.9999 55.7879 23.9999 54.1394C23.9999 52.4909 25.3995 51.1545 27.1261 51.1545C28.8527 51.1545 30.2523 52.4909 30.2523 54.1394Z" fill="black"/>
<path d="M69.9999 54.1696C69.9999 55.8181 68.6002 57.1545 66.8737 57.1545C65.1471 57.1545 63.7474 55.8181 63.7474 54.1696C63.7474 52.5211 65.1471 51.1847 66.8737 51.1847C68.6002 51.1847 69.9999 52.5211 69.9999 54.1696Z" stroke="black"/>
<path d="M30.2523 54.1394C30.2523 55.7879 28.8527 57.1242 27.1261 57.1242C25.3995 57.1242 23.9999 55.7879 23.9999 54.1394C23.9999 52.4909 25.3995 51.1545 27.1261 51.1545C28.8527 51.1545 30.2523 52.4909 30.2523 54.1394Z" stroke="black"/>
<path d="M57.4999 40.6545C66.8932 37.6938 72.1467 37.2621 81.4999 38.1545M38.4999 40.6544C31.1046 36.3459 26.2408 36.3186 16.9999 38.1545" stroke="black" stroke-width="2" stroke-linecap="round" stroke-linejoin="round"/>
<path d="M39.9999 84.1545C49.718 85.4537 53.9537 84.4868 57.4999 77.1545" stroke="black" stroke-width="3" stroke-linecap="round" stroke-linejoin="round"/>
<path d="M48.6095 42.1545C48.9428 43.9878 49.4095 47.7545 48.6095 48.1545M44.6095 42.1545C44.7762 43.9878 45.0095 47.7545 44.6095 48.1545" stroke="black" stroke-width="2" stroke-linecap="round" stroke-linejoin="round"/>
<path d="M55.9999 67.1545C55.9999 69.9159 52.1943 72.1545 47.4999 72.1545C42.8055 72.1545 38.9999 69.9159 38.9999 67.1545C38.9999 64.3931 42.8055 62.1545 47.4999 62.1545C52.1943 62.1545 55.9999 64.3931 55.9999 67.1545Z" fill="black" stroke="black" stroke-width="2"/>
<path d="M55.4731 50.9828C55.4686 48.8151 55.5909 46.7619 55.7575 45.1545H86.4601C89.969 53.9618 86.669 61.7761 84.5804 64.5824C78.5234 65.0141 65.1563 65.6185 60.1436 64.5824C56.464 63.8218 55.4855 56.9662 55.4731 50.9828ZM55.4731 50.9828H40.4825M40.4825 50.9828C39.7572 59.4179 37.5441 63.5099 36.3335 64.5824C30.2765 64.5824 17.0347 64.5824 12.5233 64.5824C8.01193 64.5824 7.71953 51.6304 8.13725 45.1545H40.7196C40.7196 47.2924 40.6331 49.2313 40.4825 50.9828Z" stroke="black" stroke-width="2" stroke-linecap="round" stroke-linejoin="round"/>
<path d="M87.9999 75.0001C87.9999 77.7615 83.4147 80.0001 77.7585 80.0001C72.1023 80.0001 67.5171 77.7615 67.5171 75.0001C67.5171 72.2386 72.1023 70.0001 77.7585 70.0001C83.4147 70.0001 87.9999 72.2386 87.9999 75.0001Z" fill="#E28C86"/>
<path d="M27.4826 75.0001C27.4826 77.7615 22.8974 80.0001 17.2413 80.0001C11.5851 80.0001 6.99988 77.7615 6.99988 75.0001C6.99988 72.2386 11.5851 70.0001 17.2413 70.0001C22.8974 70.0001 27.4826 72.2386 27.4826 75.0001Z" fill="#E28C86"/>
<path d="M87.9999 75.0001C87.9999 77.7615 83.4147 80.0001 77.7585 80.0001C72.1023 80.0001 67.5171 77.7615 67.5171 75.0001C67.5171 72.2386 72.1023 70.0001 77.7585 70.0001C83.4147 70.0001 87.9999 72.2386 87.9999 75.0001Z" stroke="#E28C86" stroke-width="2"/>
<path d="M27.4826 75.0001C27.4826 77.7615 22.8974 80.0001 17.2413 80.0001C11.5851 80.0001 6.99988 77.7615 6.99988 75.0001C6.99988 72.2386 11.5851 70.0001 17.2413 70.0001C22.8974 70.0001 27.4826 72.2386 27.4826 75.0001Z" stroke="#E28C86" stroke-width="2"/>
</svg>
