<svg width="131" height="205" viewBox="0 0 131 205" fill="none" xmlns="http://www.w3.org/2000/svg">
<g filter="url(#filter0_ii_173_240)">
<path fill-rule="evenodd" clip-rule="evenodd" d="M24.3644 82.9999C14.4528 80.2512 -2.52143 82.5046 2.36477 103H27.3644C28.8644 85.9998 37.8644 84.9998 39.3644 103H27.3644H2.36477C-0.537095 110.144 4.86689 120.747 36.8646 117.5C22.8646 125.5 12.3646 175.5 37.3646 170.5C31.3646 216 59.8646 204 59.3644 191C58.8642 178 68.3644 177.5 68.3644 177.5C75.5644 177.1 78.1978 183.166 78.3644 186C79.9748 210.799 92.8644 200.244 94.8644 199C99.688 196 99.1741 174.04 99.2048 166.323C116.364 172 122.864 135 99.8646 110.5C106.957 91.4023 106.364 55.9999 64.3646 56C27.0873 56.0001 27.8644 75.4999 24.3644 82.9999ZM45.3643 84.9998C38.0849 77.7204 53.3643 69.9998 62.8643 69.9998C68.7275 69.9998 74.2764 70.7869 81.8643 77.9998C89.8396 85.581 65.8258 91.978 62.8643 91.9998C59.9027 92.0215 51.8643 91.4998 45.3643 84.9998Z" fill="#E5C30F"/>
<path fill-rule="evenodd" clip-rule="evenodd" d="M27.3644 103C28.8644 85.9998 37.8644 84.9998 39.3644 103H27.3644Z" fill="#FBFFFA"/>
<path d="M62.8643 91.9998V69.9998C53.3643 69.9998 38.0849 77.7204 45.3643 84.9998C51.8643 91.4998 59.9027 92.0215 62.8643 91.9998Z" fill="#FAD305"/>
<path d="M62.8643 69.9998V91.9998C65.8258 91.978 89.8396 85.581 81.8643 77.9998C74.2764 70.7869 68.7275 69.9998 62.8643 69.9998Z" fill="#FFD600"/>
</g>
<path d="M2.36477 103C-2.52143 82.5046 14.4528 80.2512 24.3644 82.9999C27.8644 75.4999 27.0873 56.0001 64.3646 56C106.364 55.9999 106.957 91.4023 99.8646 110.5C122.864 135 116.364 172 99.2048 166.323M2.36477 103C-0.537095 110.144 4.86689 120.747 36.8646 117.5C22.8646 125.5 12.3646 175.5 37.3646 170.5M2.36477 103H27.3644M37.3646 170.5L40.3646 135.5M37.3646 170.5C31.3646 216 59.8646 204 59.3644 191C58.8642 178 68.3644 177.5 68.3644 177.5C75.5644 177.1 78.1978 183.166 78.3644 186C79.9748 210.799 92.8644 200.244 94.8644 199C99.688 196 99.1741 174.04 99.2048 166.323M98.3646 135.5C98.9348 147.729 99.2422 156.959 99.2048 166.323M27.3644 103C28.8644 85.9998 37.8644 84.9998 39.3644 103M27.3644 103H39.3644M39.3644 103H48.8644M62.8643 69.9998V91.9998M62.8643 69.9998C53.3643 69.9998 38.0849 77.7204 45.3643 84.9998C51.8643 91.4998 59.9027 92.0215 62.8643 91.9998M62.8643 69.9998C68.7275 69.9998 74.2764 70.7869 81.8643 77.9998C89.8396 85.581 65.8258 91.978 62.8643 91.9998" stroke="black" stroke-width="3"/>
<path d="M95.2688 54.7092L112.37 14.7769L122.362 20.7532L95.2688 54.7092Z" fill="#FFD600" stroke="black" stroke-width="2"/>
<path d="M86.5713 49.8514L84.472 12.4027L94.9877 13.3004L86.5713 49.8514Z" fill="#FFD600" stroke="black" stroke-width="2"/>
<defs>
<filter id="filter0_ii_173_240" x="-4" y="52.5" width="124.212" height="155.807" filterUnits="userSpaceOnUse" color-interpolation-filters="sRGB">
<feFlood flood-opacity="0" result="BackgroundImageFix"/>
<feBlend mode="normal" in="SourceGraphic" in2="BackgroundImageFix" result="shape"/>
<feColorMatrix in="SourceAlpha" type="matrix" values="0 0 0 0 0 0 0 0 0 0 0 0 0 0 0 0 0 0 127 0" result="hardAlpha"/>
<feOffset dx="11" dy="4"/>
<feGaussianBlur stdDeviation="2"/>
<feComposite in2="hardAlpha" operator="arithmetic" k2="-1" k3="1"/>
<feColorMatrix type="matrix" values="0 0 0 0 1 0 0 0 0 1 0 0 0 0 1 0 0 0 0.5 0"/>
<feBlend mode="normal" in2="shape" result="effect1_innerShadow_173_240"/>
<feColorMatrix in="SourceAlpha" type="matrix" values="0 0 0 0 0 0 0 0 0 0 0 0 0 0 0 0 0 0 127 0" result="hardAlpha"/>
<feOffset dx="-8" dy="-2"/>
<feGaussianBlur stdDeviation="2"/>
<feComposite in2="hardAlpha" operator="arithmetic" k2="-1" k3="1"/>
<feColorMatrix type="matrix" values="0 0 0 0 0 0 0 0 0 0 0 0 0 0 0 0 0 0 0.25 0"/>
<feBlend mode="normal" in2="effect1_innerShadow_173_240" result="effect2_innerShadow_173_240"/>
</filter>
</defs>
</svg>
