<svg width="36" height="34" viewBox="0 0 36 34" fill="none" xmlns="http://www.w3.org/2000/svg">
<path d="M17.6309 0C22.5178 2.06306e-07 26.4926 3.89506 26.625 8.75H27.9502C28.7696 8.75 29.578 8.74639 30.2451 8.83301C30.969 8.92704 31.7903 9.15455 32.499 9.80664C33.2077 10.4587 33.5024 11.2581 33.6562 11.9717C33.798 12.6293 33.8616 13.4353 33.9297 14.252L35.1934 29.418C35.2307 29.8659 35.2802 30.4088 35.2549 30.873C35.2264 31.3949 35.0939 32.1378 34.502 32.7812C33.9099 33.4246 33.1808 33.6187 32.6631 33.6904C32.2025 33.7542 31.6566 33.75 31.207 33.75H4.05469C3.60511 33.75 3.05923 33.7542 2.59863 33.6904C2.08089 33.6187 1.35176 33.4246 0.759766 32.7812C0.167844 32.1378 0.0353013 31.3949 0.00683594 30.873C-0.0184422 30.4088 0.031034 29.8659 0.0683594 29.418L1.33203 14.252C1.40008 13.4353 1.46374 12.6293 1.60547 11.9717C1.75929 11.2581 2.05409 10.4587 2.7627 9.80664L2.89648 9.68945C3.5734 9.12655 4.3378 8.92118 5.0166 8.83301C5.68371 8.74638 6.49207 8.75 7.31152 8.75H8.63672C8.76916 3.89508 12.744 3.85808e-05 17.6309 0ZM7.31152 12.75C6.38437 12.75 5.88207 12.7544 5.53223 12.7998C5.52769 12.8004 5.52291 12.8012 5.51855 12.8018C5.51764 12.8059 5.51656 12.8101 5.51562 12.8145C5.4413 13.1593 5.39538 13.6597 5.31836 14.584L4.05469 29.75H31.207L29.9434 14.584C29.8663 13.6597 29.8204 13.1593 29.7461 12.8145C29.7451 12.8101 29.7431 12.806 29.7422 12.8018C29.7381 12.8012 29.7337 12.8004 29.7295 12.7998C29.3796 12.7544 28.8773 12.75 27.9502 12.75H26.6309V16C26.6309 17.1046 25.7354 18 24.6309 18C23.5263 18 22.6309 17.1045 22.6309 16V12.75H12.6309V16C12.6309 17.1046 11.7354 18 10.6309 18C9.52632 18 8.63086 17.1045 8.63086 16V12.75H7.31152ZM17.6309 4C14.9533 4.00004 12.768 6.10476 12.6377 8.75H22.624C22.4937 6.10474 20.3084 4 17.6309 4Z" fill="#B4981B"/>
</svg>
