<svg width="16" height="19" viewBox="0 0 16 19" fill="none" xmlns="http://www.w3.org/2000/svg">
<path d="M0.351807 0.23877C0.772162 -0.119106 1.40288 -0.0691296 1.76099 0.351074L8.18872 7.89502L14.2307 0.804199C14.5889 0.383952 15.2196 0.333763 15.6399 0.691895C16.06 1.05001 16.111 1.68075 15.7532 2.10107L9.5022 9.43604L15.2649 16.1997C15.6228 16.62 15.5726 17.2517 15.1526 17.6099C14.7324 17.9677 14.1017 17.9173 13.7434 17.4976L8.18872 10.978L2.24829 17.9507C1.89009 18.3704 1.25928 18.4207 0.839111 18.063C0.418797 17.7048 0.368783 17.0732 0.726807 16.6528L6.87427 9.43604L0.238525 1.64795C-0.119392 1.22758 -0.0684475 0.596883 0.351807 0.23877Z" fill="#962D30"/>
</svg>
