<svg width="22" height="25" viewBox="0 0 22 25" fill="none" xmlns="http://www.w3.org/2000/svg">
<mask id="path-1-inside-1_184_472" fill="white">
<path d="M10.8838 0C13.8568 0 16.3262 4.43572 16.833 10.2803C19.7441 11.1285 21.872 13.8151 21.8721 17V20C21.8721 22.7613 19.6333 24.9998 16.8721 25H3.73145V24.9941C3.69703 24.9961 3.66258 25 3.62793 25C1.62427 24.9999 0 21.6421 0 17.5C6.39471e-05 13.358 1.62431 10.0001 3.62793 10C3.66255 10 3.69706 10.0029 3.73145 10.0049V10H4.95801C5.51828 4.29447 7.95852 0.000142801 10.8838 0Z"/>
</mask>
<path d="M10.8838 0C13.8568 0 16.3262 4.43572 16.833 10.2803C19.7441 11.1285 21.872 13.8151 21.8721 17V20C21.8721 22.7613 19.6333 24.9998 16.8721 25H3.73145V24.9941C3.69703 24.9961 3.66258 25 3.62793 25C1.62427 24.9999 0 21.6421 0 17.5C6.39471e-05 13.358 1.62431 10.0001 3.62793 10C3.66255 10 3.69706 10.0029 3.73145 10.0049V10H4.95801C5.51828 4.29447 7.95852 0.000142801 10.8838 0Z" fill="#3F72D8"/>
<path d="M10.8838 0V-2H10.8837L10.8838 0ZM16.833 10.2803L14.8405 10.453L14.9588 11.8173L16.2735 12.2004L16.833 10.2803ZM21.8721 17H23.8721V17L21.8721 17ZM16.8721 25V27H16.8722L16.8721 25ZM3.73145 25H1.73145V27H3.73145V25ZM3.73145 24.9941H5.73145V22.8749L3.61572 22.9975L3.73145 24.9941ZM3.62793 25L3.62781 27H3.62793V25ZM0 17.5L-2 17.5V17.5H0ZM3.62793 10V8H3.62781L3.62793 10ZM3.73145 10.0049L3.61581 12.0015L5.73145 12.1241V10.0049H3.73145ZM3.73145 10V8H1.73145V10H3.73145ZM4.95801 10V12H6.77123L6.94843 10.1955L4.95801 10ZM10.8838 0V2C11.2947 2 12.1277 2.33422 13.0472 3.94155C13.92 5.46716 14.6051 7.73838 14.8405 10.453L16.833 10.2803L18.8255 10.1075C18.5541 6.97761 17.7511 4.10869 16.5192 1.9553C15.3341 -0.116358 13.4459 -2 10.8838 -2V0ZM16.833 10.2803L16.2735 12.2004C18.355 12.8069 19.8721 14.7289 19.8721 17L21.8721 17L23.8721 17C23.872 12.9012 21.1331 9.4501 17.3925 8.36013L16.833 10.2803ZM21.8721 17H19.8721V20H21.8721H23.8721V17H21.8721ZM21.8721 20H19.8721C19.8721 21.6565 18.5289 22.9999 16.8719 23L16.8721 25L16.8722 27C20.7377 26.9997 23.8721 23.866 23.8721 20H21.8721ZM16.8721 25V23H3.73145V25V27H16.8721V25ZM3.73145 25H5.73145V24.9941H3.73145H1.73145V25H3.73145ZM3.73145 24.9941L3.61572 22.9975C3.60252 22.9983 3.59075 22.999 3.58103 22.9997C3.5714 23.0004 3.56291 23.001 3.55674 23.0014C3.55363 23.0017 3.55072 23.0019 3.54847 23.0021C3.54597 23.0023 3.54443 23.0024 3.54279 23.0025C3.53962 23.0027 3.53889 23.0028 3.53917 23.0028C3.53947 23.0027 3.54881 23.0021 3.56289 23.0014C3.57732 23.0008 3.59977 23 3.62793 23V25V27C3.71568 27 3.78787 26.9952 3.82038 26.9929C3.83436 26.9919 3.85433 26.9904 3.85451 26.9903C3.86009 26.9899 3.85548 26.9903 3.84717 26.9908L3.73145 24.9941ZM3.62793 25L3.62805 23C3.82668 23 3.42902 23.1024 2.86301 21.9323C2.36435 20.9015 2 19.3369 2 17.5H0H-2C-2 19.8052 -1.55222 21.9906 -0.737827 23.6742C0.00920953 25.2185 1.42551 26.9999 3.62781 27L3.62793 25ZM0 17.5L2 17.5C2.00003 15.6632 2.36439 14.0986 2.86306 13.0677C3.42909 11.8975 3.82675 12 3.62805 12L3.62793 10L3.62781 8C1.42549 8.00013 0.00921284 9.7816 -0.737794 11.3259C-1.55217 13.0095 -1.99996 15.1948 -2 17.5L0 17.5ZM3.62793 10V12C3.60896 12 3.59386 11.9996 3.58397 11.9993C3.57423 11.9989 3.56795 11.9986 3.56731 11.9985C3.56689 11.9985 3.56734 11.9985 3.5692 11.9986C3.5712 11.9988 3.57364 11.9989 3.57791 11.9992C3.58157 11.9994 3.58749 11.9998 3.59344 12.0002C3.59965 12.0006 3.60731 12.001 3.61581 12.0015L3.73145 10.0049L3.84708 8.00823C3.84708 8.00823 3.84701 8.00822 3.84687 8.00822C3.84673 8.00821 3.84651 8.00819 3.84623 8.00818C3.84564 8.00814 3.84481 8.00809 3.84365 8.00802C3.84099 8.00785 3.83831 8.00768 3.83336 8.00736C3.82523 8.00684 3.80949 8.00583 3.79224 8.00486C3.75792 8.00293 3.69875 8 3.62793 8V10ZM3.73145 10.0049H5.73145V10H3.73145H1.73145V10.0049H3.73145ZM3.73145 10V12H4.95801V10V8H3.73145V10ZM4.95801 10L6.94843 10.1955C7.20844 7.54771 7.89704 5.3454 8.76013 3.87071C9.66717 2.32093 10.4797 2.00002 10.8839 2L10.8838 0L10.8837 -2C8.36263 -1.99988 6.49239 -0.17355 5.30792 1.85025C4.0795 3.94915 3.26785 6.74677 2.96758 9.80454L4.95801 10Z" fill="black" mask="url(#path-1-inside-1_184_472)"/>
</svg>
