<svg width="42" height="42" viewBox="0 0 42 42" fill="none" xmlns="http://www.w3.org/2000/svg">
<path d="M29.25 5C30.1362 5 31.0021 4.99554 31.7109 5.09082C32.4773 5.19386 33.3517 5.44547 34.0781 6.17188C34.8045 6.89829 35.0561 7.77267 35.1592 8.53906C35.2545 9.2479 35.25 10.1138 35.25 11V32.75C35.25 33.6362 35.2545 34.5021 35.1592 35.2109C35.0561 35.9773 34.8046 36.8517 34.0781 37.5781C33.3517 38.3046 32.4773 38.5561 31.7109 38.6592C31.0021 38.7545 30.1362 38.75 29.25 38.75H12.75C11.8638 38.75 10.9979 38.7545 10.2891 38.6592C9.52267 38.5561 8.64829 38.3045 7.92188 37.5781C7.19547 36.8517 6.94386 35.9773 6.84082 35.2109C6.74554 34.5021 6.75 33.6362 6.75 32.75V11C6.75 10.1138 6.74553 9.2479 6.84082 8.53906C6.94386 7.77266 7.19545 6.8983 7.92188 6.17188C8.6483 5.44545 9.52266 5.19386 10.2891 5.09082C10.9979 4.99553 11.8638 5 12.75 5H29.25ZM12.75 9C11.7509 9 11.2026 9.00456 10.8223 9.05566C10.8174 9.05632 10.8123 9.05696 10.8076 9.05762C10.807 9.0623 10.8063 9.06739 10.8057 9.07227C10.7546 9.45264 10.75 10.0009 10.75 11V32.75C10.75 33.7491 10.7546 34.2974 10.8057 34.6777C10.8063 34.6823 10.807 34.687 10.8076 34.6914C10.8123 34.6921 10.8173 34.6937 10.8223 34.6943C11.2026 34.7454 11.7509 34.75 12.75 34.75H29.25C30.2491 34.75 30.7974 34.7454 31.1777 34.6943C31.1823 34.6937 31.187 34.692 31.1914 34.6914C31.192 34.687 31.1937 34.6823 31.1943 34.6777C31.2454 34.2974 31.25 33.7491 31.25 32.75V11C31.25 10.0009 31.2454 9.45264 31.1943 9.07227C31.1937 9.06734 31.1921 9.06234 31.1914 9.05762C31.187 9.05701 31.1823 9.05627 31.1777 9.05566C30.7974 9.00456 30.2491 9 29.25 9H12.75ZM22.75 27.75C23.8546 27.75 24.75 28.6454 24.75 29.75C24.75 30.8546 23.8546 31.75 22.75 31.75H15.75C14.6454 31.75 13.75 30.8546 13.75 29.75C13.75 28.6455 14.6455 27.75 15.75 27.75H22.75ZM26.25 20.75C27.3546 20.75 28.25 21.6454 28.25 22.75C28.25 23.8546 27.3546 24.75 26.25 24.75H15.75C14.6454 24.75 13.75 23.8546 13.75 22.75C13.75 21.6455 14.6455 20.75 15.75 20.75H26.25ZM26.25 13.75C27.3546 13.75 28.25 14.6454 28.25 15.75C28.25 16.8546 27.3546 17.75 26.25 17.75H15.75C14.6454 17.75 13.75 16.8546 13.75 15.75C13.75 14.6455 14.6455 13.75 15.75 13.75H26.25Z" fill="#B4981B"/>
</svg>
