<svg width="32" height="32" viewBox="0 0 32 32" fill="none" xmlns="http://www.w3.org/2000/svg">
<path d="M14.167 0C21.9907 0.000351779 28.333 6.34318 28.333 14.167C28.3329 17.1793 27.391 19.971 25.7881 22.2666C25.8374 22.3088 25.8869 22.3517 25.9336 22.3984L30.9336 27.3984C31.9099 28.3747 31.9099 29.9573 30.9336 30.9336C29.9573 31.9099 28.3747 31.9099 27.3984 30.9336L22.3984 25.9336C22.3517 25.8869 22.3088 25.8374 22.2666 25.7881C19.971 27.391 17.1793 28.3329 14.167 28.333C6.34318 28.333 0.000351779 21.9907 0 14.167C0 6.34296 6.34296 0 14.167 0ZM14.167 5C9.10438 5 5 9.10438 5 14.167C5.00035 19.2293 9.1046 23.333 14.167 23.333C19.2291 23.3327 23.3327 19.2291 23.333 14.167C23.333 9.1046 19.2293 5.00035 14.167 5ZM14.166 8.16602C14.7182 8.16602 15.1658 8.61388 15.166 9.16602C15.166 9.7183 14.7183 10.166 14.166 10.166C13.641 10.1661 13.1209 10.2698 12.6357 10.4707C12.1505 10.6717 11.7093 10.9665 11.3379 11.3379C10.9665 11.7093 10.6717 12.1505 10.4707 12.6357C10.2698 13.1209 10.1661 13.641 10.166 14.166C10.166 14.7183 9.7183 15.166 9.16602 15.166C8.61388 15.1658 8.16602 14.7182 8.16602 14.166C8.16606 13.3782 8.32158 12.598 8.62305 11.8701C8.92457 11.1422 9.36672 10.4809 9.92383 9.92383C10.4809 9.36672 11.1422 8.92457 11.8701 8.62305C12.598 8.32158 13.3782 8.16606 14.166 8.16602Z" fill="#E8F9FB"/>
</svg>
