<svg width="24" height="27" viewBox="0 0 24 27" fill="none" xmlns="http://www.w3.org/2000/svg">
<path d="M11.9517 3.49884C13.8841 0.186719 18.9383 0.0769762 20.8784 3.71075L22.0942 5.98712C23.3391 8.3194 23.137 11.159 21.5747 13.2918L13.5659 24.2254C13.4006 24.4511 13.2121 24.7119 13.0249 24.9022C12.8207 25.1096 12.4689 25.3892 11.9526 25.3895C11.4362 25.3895 11.0837 25.1096 10.8794 24.9022C10.6922 24.712 10.5036 24.451 10.3384 24.2254L2.32959 13.2918C0.767181 11.1588 0.565767 8.31951 1.81104 5.98712L3.02588 3.71075C4.96591 0.0771159 10.019 0.18719 11.9517 3.49884Z" fill="#E85959"/>
<path d="M11.9517 3.49884L11.088 4.00288L11.9518 5.48302L12.8154 4.00278L11.9517 3.49884ZM20.8784 3.71075L19.9963 4.18175L19.9963 4.18187L20.8784 3.71075ZM22.0942 5.98712L22.9764 5.51624L22.9763 5.516L22.0942 5.98712ZM21.5747 13.2918L20.768 12.7009L20.768 12.7009L21.5747 13.2918ZM13.5659 24.2254L14.3726 24.8164L14.3726 24.8163L13.5659 24.2254ZM13.0249 24.9022L13.7376 25.6037L13.7377 25.6036L13.0249 24.9022ZM11.9526 25.3895V26.3895H11.9532L11.9526 25.3895ZM10.8794 24.9022L10.1666 25.6036L10.1669 25.6038L10.8794 24.9022ZM10.3384 24.2254L9.53165 24.8163L9.53166 24.8163L10.3384 24.2254ZM2.32959 13.2918L3.13632 12.7009L3.13631 12.7009L2.32959 13.2918ZM1.81104 5.98712L2.69318 6.4581L2.69326 6.45795L1.81104 5.98712ZM3.02588 3.71075L2.14374 3.23977L2.14365 3.23993L3.02588 3.71075ZM11.9517 3.49884L12.8154 4.00278C14.3694 1.3392 18.4396 1.26611 19.9963 4.18175L20.8784 3.71075L21.7606 3.23976C19.437 -1.11216 13.3987 -0.965765 11.0879 2.9949L11.9517 3.49884ZM20.8784 3.71075L19.9963 4.18187L21.2122 6.45824L22.0942 5.98712L22.9763 5.516L21.7605 3.23964L20.8784 3.71075ZM22.0942 5.98712L21.212 6.45801C22.2759 8.45117 22.1032 10.8781 20.768 12.7009L21.5747 13.2918L22.3814 13.8827C24.1708 11.44 24.4023 8.18763 22.9764 5.51624L22.0942 5.98712ZM21.5747 13.2918L20.768 12.7009L12.7592 23.6345L13.5659 24.2254L14.3726 24.8163L22.3814 13.8827L21.5747 13.2918ZM13.5659 24.2254L12.7592 23.6345C12.5778 23.8822 12.4368 24.074 12.3121 24.2008L13.0249 24.9022L13.7377 25.6036C13.9875 25.3497 14.2235 25.02 14.3726 24.8164L13.5659 24.2254ZM13.0249 24.9022L12.3122 24.2007C12.1862 24.3287 12.0768 24.3894 11.9521 24.3895L11.9526 25.3895L11.9532 26.3895C12.8611 26.389 13.4552 25.8905 13.7376 25.6037L13.0249 24.9022ZM11.9526 25.3895V24.3895C11.8279 24.3895 11.718 24.3285 11.5919 24.2005L10.8794 24.9022L10.1669 25.6038C10.4494 25.8907 11.0444 26.3895 11.9526 26.3895V25.3895ZM10.8794 24.9022L11.5922 24.2008C11.4676 24.0741 11.3265 23.882 11.1451 23.6345L10.3384 24.2254L9.53166 24.8163C9.6808 25.0199 9.91693 25.3498 10.1666 25.6036L10.8794 24.9022ZM10.3384 24.2254L11.1451 23.6345L3.13632 12.7009L2.32959 13.2918L1.52286 13.8827L9.53165 24.8163L10.3384 24.2254ZM2.32959 13.2918L3.13631 12.7009C1.80107 10.878 1.6289 8.4515 2.69318 6.4581L1.81104 5.98712L0.928891 5.51614C-0.497361 8.18751 -0.26671 11.4396 1.52287 13.8827L2.32959 13.2918ZM1.81104 5.98712L2.69326 6.45795L3.90811 4.18158L3.02588 3.71075L2.14365 3.23993L0.928808 5.5163L1.81104 5.98712ZM3.02588 3.71075L3.90802 4.18174C5.46455 1.2664 9.53366 1.33949 11.088 4.00288L11.9517 3.49884L12.8153 2.9948C10.5044 -0.965114 4.46728 -1.11217 2.14374 3.23977L3.02588 3.71075Z" fill="black"/>
</svg>
