<svg width="29" height="28" viewBox="0 0 29 28" fill="none" xmlns="http://www.w3.org/2000/svg">
<mask id="path-1-outside-1_335_28" maskUnits="userSpaceOnUse" x="4.04199" y="1.80222" width="21" height="25" fill="black">
<rect fill="white" x="4.04199" y="1.80222" width="21" height="25"/>
<path d="M13.8799 4.04454C14.2365 3.72144 14.7635 3.72144 15.1201 4.04454C17.0718 5.81384 22.958 11.5986 22.958 17.0006C22.9577 21.1425 19.1712 24.5006 14.5 24.5006C9.82876 24.5006 6.04227 21.1425 6.04199 17.0006C6.04199 11.5986 11.9282 5.81384 13.8799 4.04454ZM10.1377 16.4596C9.86507 16.5024 9.67909 16.7582 9.72168 17.0309C9.87678 18.0213 10.3578 18.9371 11.0938 19.6432C11.8298 20.3493 12.7816 20.8084 13.8086 20.9518C14.0819 20.9898 14.3348 20.7993 14.373 20.526C14.4111 20.2528 14.2203 20 13.9473 19.9615C13.1249 19.8467 12.3677 19.4795 11.7861 18.9215C11.2051 18.364 10.8295 17.646 10.709 16.8756C10.6661 16.6031 10.4102 16.4171 10.1377 16.4596Z"/>
</mask>
<path d="M13.8799 4.04454C14.2365 3.72144 14.7635 3.72144 15.1201 4.04454C17.0718 5.81384 22.958 11.5986 22.958 17.0006C22.9577 21.1425 19.1712 24.5006 14.5 24.5006C9.82876 24.5006 6.04227 21.1425 6.04199 17.0006C6.04199 11.5986 11.9282 5.81384 13.8799 4.04454ZM10.1377 16.4596C9.86507 16.5024 9.67909 16.7582 9.72168 17.0309C9.87678 18.0213 10.3578 18.9371 11.0938 19.6432C11.8298 20.3493 12.7816 20.8084 13.8086 20.9518C14.0819 20.9898 14.3348 20.7993 14.373 20.526C14.4111 20.2528 14.2203 20 13.9473 19.9615C13.1249 19.8467 12.3677 19.4795 11.7861 18.9215C11.2051 18.364 10.8295 17.646 10.709 16.8756C10.6661 16.6031 10.4102 16.4171 10.1377 16.4596Z" fill="#3E73C1"/>
<path d="M13.8799 4.04454L12.5371 2.56238L12.5366 2.56279L13.8799 4.04454ZM15.1201 4.04454L16.4634 2.56279L16.4629 2.56238L15.1201 4.04454ZM22.958 17.0006L24.958 17.0007V17.0006H22.958ZM14.5 24.5006V26.5006V26.5006V24.5006ZM6.04199 17.0006H4.04199V17.0007L6.04199 17.0006ZM10.1377 16.4596L9.82982 14.4834L9.82738 14.4838L10.1377 16.4596ZM9.72168 17.0309L7.74564 17.3395L7.74576 17.3403L9.72168 17.0309ZM11.0938 19.6432L9.7091 21.0863L9.70917 21.0864L11.0938 19.6432ZM13.8086 20.9518L13.532 22.9326L13.5332 22.9327L13.8086 20.9518ZM14.373 20.526L16.3538 20.803L16.354 20.8016L14.373 20.526ZM13.9473 19.9615L14.2265 17.9811L14.2238 17.9807L13.9473 19.9615ZM11.7861 18.9215L10.4015 20.3647L10.4016 20.3647L11.7861 18.9215ZM10.709 16.8756L12.6849 16.5664L12.6846 16.5645L10.709 16.8756ZM13.8799 4.04454L15.2227 5.52671C14.8172 5.89405 14.1828 5.89405 13.7773 5.52671L15.1201 4.04454L16.4629 2.56238C15.3442 1.54883 13.6558 1.54883 12.5371 2.56238L13.8799 4.04454ZM15.1201 4.04454L13.7768 5.52629C14.7041 6.36691 16.5542 8.15276 18.1573 10.342C19.8056 12.5928 20.958 14.9555 20.958 17.0006H22.958H24.958C24.958 13.6438 23.1673 10.413 21.3845 7.97866C19.5567 5.48266 17.4878 3.49147 16.4634 2.56279L15.1201 4.04454ZM22.958 17.0006L20.958 17.0005C20.9578 19.8189 18.2993 22.5006 14.5 22.5006V24.5006V26.5006C20.0432 26.5006 24.9576 22.4662 24.958 17.0007L22.958 17.0006ZM14.5 24.5006V22.5006C10.7007 22.5006 8.04218 19.8189 8.04199 17.0005L6.04199 17.0006L4.04199 17.0007C4.04236 22.4662 8.95679 26.5006 14.5 26.5006V24.5006ZM6.04199 17.0006H8.04199C8.04199 14.9555 9.19435 12.5928 10.8427 10.342C12.4458 8.15276 14.2959 6.36691 15.2232 5.52629L13.8799 4.04454L12.5366 2.56279C11.5122 3.49147 9.44331 5.48266 7.61546 7.97866C5.83274 10.413 4.04199 13.6438 4.04199 17.0006H6.04199ZM10.1377 16.4596L9.82738 14.4838C8.46106 14.6984 7.53316 15.9793 7.74564 17.3395L9.72168 17.0309L11.6977 16.7222C11.825 17.5371 11.2691 18.3064 10.448 18.4354L10.1377 16.4596ZM9.72168 17.0309L7.74576 17.3403C7.96985 18.7713 8.66328 20.0829 9.7091 21.0863L11.0938 19.6432L12.4784 18.2C12.0523 17.7912 11.7837 17.2714 11.6976 16.7214L9.72168 17.0309ZM11.0938 19.6432L9.70917 21.0864C10.7538 22.0886 12.0953 22.7319 13.532 22.9326L13.8086 20.9518L14.0852 18.971C13.468 18.8848 12.9058 18.61 12.4783 18.1999L11.0938 19.6432ZM13.8086 20.9518L13.5332 22.9327C14.8969 23.1223 16.1622 22.1727 16.3538 20.803L14.373 20.526L12.3923 20.249C12.5074 19.4259 13.267 18.8572 14.084 18.9708L13.8086 20.9518ZM14.373 20.526L16.354 20.8016C16.544 19.4355 15.5916 18.1736 14.2265 17.9811L13.9473 19.9615L13.668 21.9419C12.849 21.8265 12.2781 21.0701 12.3921 20.2504L14.373 20.526ZM13.9473 19.9615L14.2238 17.9807C13.8116 17.9232 13.444 17.7404 13.1707 17.4782L11.7861 18.9215L10.4016 20.3647C11.2915 21.2185 12.4383 21.7702 13.6707 21.9423L13.9473 19.9615ZM11.7861 18.9215L13.1708 17.4783C12.899 17.2176 12.7364 16.8953 12.6849 16.5664L10.709 16.8756L8.73304 17.1848C8.92269 18.3967 9.51118 19.5105 10.4015 20.3647L11.7861 18.9215ZM10.709 16.8756L12.6846 16.5645C12.4696 15.199 11.1893 14.2716 9.82982 14.4834L10.1377 16.4596L10.4456 18.4357C9.63117 18.5626 8.86253 18.0073 8.73332 17.1867L10.709 16.8756Z" fill="black" mask="url(#path-1-outside-1_335_28)"/>
</svg>
