<svg width="42" height="42" viewBox="0 0 42 42" fill="none" xmlns="http://www.w3.org/2000/svg">
<path d="M35.2461 2.16895C36.4205 2.14057 37.668 2.32575 38.7314 3.22656C39.7947 4.12737 40.1826 5.32727 40.3477 6.49023C40.5049 7.59795 40.5 9.00032 40.5 10.583V31.417C40.5 32.9997 40.5049 34.4021 40.3477 35.5098C40.1825 36.6727 39.7948 37.8727 38.7314 38.7734C37.668 39.6742 36.4204 39.8594 35.2461 39.8311C34.1276 39.804 32.7457 39.5688 31.1846 39.3086L20.5137 37.5303C19.7663 37.4057 19.0226 37.2847 18.417 37.1045C17.758 36.9083 17.0312 36.5794 16.4482 35.8916C15.8654 35.2035 15.6595 34.4324 15.5742 33.75C15.4959 33.123 15.5 32.3691 15.5 31.6113V28.1152H19.5V31.6113C19.5 32.4714 19.5038 32.932 19.5439 33.2539C19.5444 33.2577 19.5454 33.262 19.5459 33.2656C19.5498 33.2668 19.5535 33.2693 19.5576 33.2705C19.8686 33.3631 20.3224 33.4426 21.1709 33.584L31.8428 35.3633C33.5242 35.6435 34.5746 35.8134 35.3428 35.832C35.7024 35.8407 35.9037 35.8109 36.0127 35.7822C36.0996 35.7594 36.1268 35.7384 36.1465 35.7217C36.1662 35.705 36.1917 35.6815 36.2285 35.5996C36.2747 35.4968 36.3372 35.303 36.3877 34.9473C36.4957 34.1865 36.5 33.1218 36.5 31.417V10.583C36.5 8.87824 36.4956 7.81355 36.3877 7.05273C36.3372 6.69706 36.2747 6.50327 36.2285 6.40039C36.1917 6.31846 36.1662 6.29501 36.1465 6.27832C36.1268 6.26163 36.0998 6.24069 36.0127 6.21777C35.9037 6.18911 35.7024 6.15928 35.3428 6.16797C34.5746 6.18656 33.5242 6.35648 31.8428 6.63672L21.1709 8.41602C20.3223 8.55745 19.8686 8.63692 19.5576 8.72949C19.5536 8.73069 19.5497 8.73223 19.5459 8.7334C19.5454 8.73738 19.5445 8.74196 19.5439 8.74609C19.5038 9.06805 19.5 9.52867 19.5 10.3887V14.2305H15.5V10.3887C15.5 9.63095 15.496 8.87701 15.5742 8.25C15.6594 7.56761 15.8654 6.79652 16.4482 6.1084C17.0312 5.42048 17.758 5.09172 18.417 4.89551C19.0226 4.71525 19.7663 4.59429 20.5137 4.46973L31.1846 2.69141C32.7457 2.43122 34.1276 2.196 35.2461 2.16895ZM12.0615 13.499L7.66113 19H19.25C20.3546 19 21.25 19.8954 21.25 21C21.2499 22.1045 20.3545 23 19.25 23H7.66113L12.0615 28.501L8.93848 30.999L1.93848 22.249L0.938477 21L1.93848 19.751L8.93848 11.001L12.0615 13.499Z" fill="#B4981B"/>
</svg>
