<svg width="30" height="31" viewBox="0 0 30 31" fill="none" xmlns="http://www.w3.org/2000/svg">
<g filter="url(#filter0_d_142_130)">
<path d="M14 3C18.4183 3 22 6.58172 22 11C22 12.9043 21.3326 14.6517 20.2217 16.0254C20.3995 16.0657 20.5686 16.1545 20.707 16.293L23.707 19.293C24.0976 19.6835 24.0976 20.3165 23.707 20.707C23.3165 21.0976 22.6835 21.0976 22.293 20.707L19.293 17.707C19.1545 17.5686 19.0657 17.3995 19.0254 17.2217C17.6517 18.3326 15.9043 19 14 19C9.58172 19 6 15.4183 6 11C6 6.58172 9.58172 3 14 3ZM14 5C10.6863 5 8 7.68629 8 11C8 14.3137 10.6863 17 14 17C17.3137 17 20 14.3137 20 11C20 7.68629 17.3137 5 14 5ZM14 7C14.5523 7 15 7.44772 15 8C15 8.55228 14.5523 9 14 9C13.7374 9 13.477 9.05183 13.2344 9.15234C12.9918 9.25285 12.7716 9.40029 12.5859 9.58594C12.4003 9.77159 12.2529 9.99183 12.1523 10.2344C12.0518 10.477 12 10.7374 12 11C12 11.5523 11.5523 12 11 12C10.4477 12 10 11.5523 10 11C10 10.4748 10.1038 9.95494 10.3047 9.46973C10.5057 8.98442 10.8004 8.54331 11.1719 8.17188C11.5433 7.80044 11.9844 7.50571 12.4697 7.30469C12.9549 7.10376 13.4748 7 14 7Z" fill="#E6D8B8" fill-opacity="0.6"/>
</g>
<defs>
<filter id="filter0_d_142_130" x="-3" y="-2" width="36" height="36" filterUnits="userSpaceOnUse" color-interpolation-filters="sRGB">
<feFlood flood-opacity="0" result="BackgroundImageFix"/>
<feColorMatrix in="SourceAlpha" type="matrix" values="0 0 0 0 0 0 0 0 0 0 0 0 0 0 0 0 0 0 127 0" result="hardAlpha"/>
<feOffset dy="4"/>
<feGaussianBlur stdDeviation="3"/>
<feComposite in2="hardAlpha" operator="out"/>
<feColorMatrix type="matrix" values="0 0 0 0 0 0 0 0 0 0 0 0 0 0 0 0 0 0 1 0"/>
<feBlend mode="normal" in2="BackgroundImageFix" result="effect1_dropShadow_142_130"/>
<feBlend mode="normal" in="SourceGraphic" in2="effect1_dropShadow_142_130" result="shape"/>
</filter>
</defs>
</svg>
